<svg width="22" height="22" viewBox="0 0 22 22" fill="none" xmlns="http://www.w3.org/2000/svg">
<path d="M9.67169 12.3282C10.1683 12.8248 10.5651 13.8539 10.8326 14.7281C10.999 15.2708 11.744 15.4052 12.0332 14.915C13.1775 12.9759 14.0108 10.9113 14.0953 8.96955C14.1024 8.82781 14.0798 8.68614 14.0288 8.55369C13.9778 8.42125 13.8996 8.30096 13.7993 8.20061C13.6989 8.10026 13.5786 8.02207 13.4462 7.97108C13.3137 7.9201 13.1721 7.89745 13.0303 7.90461C11.0886 7.98909 9.02402 8.82235 7.08487 9.96664C6.59592 10.2559 6.72904 11.0009 7.27174 11.1673C8.14596 11.4348 9.17506 11.8328 9.67169 12.3282Z" stroke="#CD2127" stroke-width="1.5" stroke-linecap="round" stroke-linejoin="round"/>
<path d="M10.75 20C13.5281 20 15.8043 19.2164 17.3853 17.6353C18.9664 16.0543 19.75 13.7781 19.75 11C19.75 8.22195 18.9664 5.94569 17.3853 4.36467C15.8043 2.78365 13.5281 2 10.75 2C7.97195 2 5.69569 2.78365 4.11467 4.36467C2.53365 5.94569 1.75 8.22195 1.75 11C1.75 13.7781 2.53365 16.0543 4.11467 17.6353C5.69569 19.2164 7.97195 20 10.75 20Z" stroke="#5F676C" stroke-width="1.5" stroke-linecap="round" stroke-linejoin="round"/>
</svg>
