<svg width="35" height="29" viewBox="0 0 35 29" fill="none" xmlns="http://www.w3.org/2000/svg">
<path d="M32.8219 10.4979C32.6703 10.3209 32.4441 10.2176 32.2067 10.2176H29.1897C28.4452 8.33797 27.4752 6.49634 26.3727 5.80117C22.5588 3.39961 12.4426 3.39961 8.62866 5.80117C7.52536 6.4971 6.55938 8.34101 5.81088 10.2176H2.79388C2.55417 10.2176 2.32874 10.3209 2.17873 10.4979C2.02792 10.6742 1.96759 10.9074 2.0168 11.1316L2.46368 13.2042C2.53988 13.5574 2.86531 13.8097 3.24075 13.8097H4.1345C3.27171 14.7624 2.85341 15.962 2.84785 17.1624C2.84229 18.6455 3.43046 19.9857 4.50598 20.9338C4.51788 20.9437 4.52979 20.9505 4.5409 20.9604V23.8604C4.5409 24.4887 5.07429 25 5.73151 25H8.51436C9.17158 25 9.70498 24.4887 9.70498 23.8604V22.6949H25.2948V23.8604C25.2948 24.4887 25.8282 25 26.4854 25H29.2683C29.9239 25 30.4589 24.4887 30.4589 23.8604V21.0174C31.6003 20.0168 32.1456 18.6402 32.1528 17.2658C32.1575 16.0243 31.7202 14.7806 30.8066 13.8082H31.7598C32.1369 13.8082 32.4623 13.5559 32.5369 13.2019L32.9846 11.13C33.0306 10.9074 32.9727 10.6757 32.8219 10.4979ZM9.93595 7.70434C12.976 5.78902 22.0238 5.78902 25.0623 7.70434C25.6528 8.0751 26.4124 9.57408 27.1085 11.4096H7.89128C8.5858 9.57484 9.34541 8.07662 9.93595 7.70434ZM6.37523 17.4481C6.37523 16.2097 7.42456 15.2069 8.71756 15.2069C10.0122 15.2069 11.0599 16.2097 11.0599 17.4481C11.0599 18.6865 10.0122 19.6901 8.71756 19.6901C7.42456 19.6901 6.37523 18.6865 6.37523 17.4481ZM26.3132 19.6901C25.0202 19.6901 23.9709 18.6865 23.9709 17.4481C23.9709 16.2097 25.0202 15.2069 26.3132 15.2069C27.6078 15.2069 28.6555 16.2097 28.6555 17.4481C28.6555 18.6865 27.6062 19.6901 26.3132 19.6901Z" fill="#064782"/>
</svg>
