<svg width="1" height="2" viewBox="0 0 1 2" fill="none" xmlns="http://www.w3.org/2000/svg">
<path d="M0.573671 1.99986C0.570062 1.97938 0.566451 1.95889 0.562855 1.93923C0.556561 1.90481 0.550274 1.8704 0.543159 1.83601C0.539614 1.81963 0.536887 1.80324 0.533342 1.78686C0.547598 1.8573 0.56105 1.92857 0.574497 1.99985C0.573676 1.99986 0.573671 1.99986 0.573671 1.99986ZM0.505797 1.65499C0.499594 1.62633 0.492568 1.59768 0.486365 1.56902C0.465136 1.47321 0.442293 1.37909 0.417791 1.28416C0.403768 1.2285 0.388936 1.17368 0.374092 1.11804C0.372332 1.11067 0.370584 1.10413 0.368003 1.09677C0.385416 1.15895 0.402021 1.22196 0.417791 1.28416C0.449317 1.40774 0.4792 1.53133 0.505797 1.65499ZM0.237901 0.661687C0.234421 0.649417 0.230117 0.637146 0.225802 0.624067C0.220628 0.608536 0.215455 0.593009 0.210293 0.5783C0.219769 0.606088 0.229247 0.633886 0.237901 0.661687ZM0.188734 0.513722C0.18528 0.503095 0.181815 0.491646 0.177539 0.481031C0.162889 0.437712 0.147405 0.393585 0.131933 0.350279C0.113033 0.297988 0.0941312 0.245704 0.0744095 0.193426C0.0503734 0.12807 0.0247187 0.0643883 -0.000125943 -0.000134064C0.067474 0.170535 0.130966 0.341255 0.188734 0.513722Z" fill="#9E7855"/>
</svg>
