<svg width="20" height="20" viewBox="0 0 20 20" fill="none" xmlns="http://www.w3.org/2000/svg">
<path d="M10 20C4.47715 20 0 15.5228 0 10C0 4.47715 4.47715 0 10 0C15.5228 0 20 4.47715 20 10C20 15.5228 15.5228 20 10 20ZM10 18C14.4183 18 18 14.4183 18 10C18 5.58172 14.4183 2 10 2C5.58172 2 2 5.58172 2 10C2 14.4183 5.58172 18 10 18ZM14.5 5.5L12 12L5.5 14.5L8 8L14.5 5.5ZM10 11C10.5523 11 11 10.5523 11 10C11 9.4477 10.5523 9 10 9C9.4477 9 9 9.4477 9 10C9 10.5523 9.4477 11 10 11Z" fill="#2679C6"/>
</svg>
