<svg width="26" height="26" viewBox="0 0 26 26" fill="none" xmlns="http://www.w3.org/2000/svg">
<path fill-rule="evenodd" clip-rule="evenodd" d="M25.5353 9.17654C25.4926 6.23854 23.8267 3.34511 21.2694 2.15283C19.895 1.5103 18.3269 1.41794 16.8866 1.89468C15.5773 2.31068 14.2643 3.16311 12.9996 4.50397C11.7349 3.16311 10.4219 2.31254 9.11258 1.89468C7.67226 1.41794 6.10412 1.5103 4.72972 2.15283C2.17244 3.34511 0.506581 6.23854 0.463867 9.17654V9.1914C0.463867 13.4758 3.01187 17.2718 5.71215 19.9368C6.9382 21.1549 8.29824 22.2302 9.7663 23.1423C10.394 23.523 10.9864 23.8294 11.512 24.0448C12.0153 24.2491 12.539 24.4051 12.9996 24.4051C13.4602 24.4051 13.9839 24.2491 14.4853 24.0448C15.0127 23.8313 15.6052 23.5248 16.231 23.1423C17.6997 22.2303 19.0604 21.155 20.287 19.9368C22.9873 17.2718 25.5353 13.4758 25.5353 9.19325V9.1784V9.17654Z" fill="#064782"/>
</svg>
