<svg width="66" height="81" viewBox="0 0 66 81" fill="none" xmlns="http://www.w3.org/2000/svg">
<path d="M0 81L0.584441 77.9672C1.64219 77.9127 2.67598 77.5039 3.67267 76.7462C4.83178 75.8648 5.67187 74.6148 6.10366 73.1298C6.50601 71.7459 6.529 70.249 6.16932 68.7944C6.73954 68.363 7.23716 67.8471 7.65484 67.2543C8.19394 66.4889 8.59041 65.608 8.83201 64.6364C9.17527 63.2591 9.19847 61.703 8.89739 60.1371C8.64696 58.8319 8.18885 57.5494 7.53261 56.3132C7.66046 56.2572 7.78766 56.196 7.91536 56.1302C9.60909 55.2581 10.8807 53.6347 11.4957 51.5583C11.882 50.2534 11.9931 48.804 11.8182 47.3671C11.6329 45.8545 11.1521 44.4092 10.3874 43.073C9.64039 41.7663 8.82876 40.6257 7.96599 39.668L9.57218 31.3359L9.80965 30.1017L9.81022 30.1017L10.6364 25.8128L12.2654 17.3608L12.4344 16.4858L13.7467 9.67606L13.9189 8.7837L25.8253 0.725076L26.1886 0.479129C26.696 0.180343 27.2795 0.00965781 27.8897 5.27527e-05C28.1247 -0.00364635 28.3641 0.0161508 28.6045 0.0629393L65.541 7.18204L65.1159 9.38642L26.1157 1.86935C25.8759 1.82312 25.6365 1.80275 25.4009 1.80646C23.7933 1.83177 22.3688 2.97832 22.0521 4.62007L14.2067 45.3237C13.8444 47.2053 15.0753 49.025 16.9574 49.3873L25.3489 51.0052L22.5032 65.77L0 81ZM5.26387 55.3771L5.25352 55.3773C5.25697 55.3772 5.261 55.3771 5.26444 55.3771L5.26387 55.3771ZM5.39484 55.3733L5.39139 55.3734C5.39714 55.3733 5.40288 55.3726 5.40862 55.3725C5.4046 55.3726 5.40059 55.3732 5.39657 55.3733C5.39599 55.3733 5.39542 55.3733 5.39484 55.3733ZM5.51369 55.3657L5.51196 55.3657C5.52172 55.365 5.53148 55.3642 5.54124 55.3635C5.54009 55.3635 5.53837 55.3636 5.53722 55.3636C5.52918 55.3643 5.52172 55.365 5.51369 55.3657ZM5.55616 55.3621C5.55787 55.3615 5.55902 55.3615 5.56075 55.3615C5.55902 55.3615 5.55731 55.3621 5.55616 55.3621ZM5.80566 55.3306C5.82114 55.3281 5.83604 55.3256 5.85152 55.323C5.84923 55.3236 5.84693 55.3237 5.84464 55.3243C5.83432 55.3261 5.82344 55.328 5.81311 55.3294C5.81197 55.33 5.81082 55.33 5.80968 55.33C5.80853 55.33 5.80738 55.3306 5.80566 55.3306ZM5.89565 55.3154C5.90826 55.3129 5.92144 55.3104 5.93404 55.3079C5.93118 55.3085 5.92831 55.3092 5.92602 55.3098C5.918 55.311 5.90998 55.3129 5.90195 55.3142C5.89966 55.3148 5.89737 55.3148 5.89565 55.3154ZM6.10359 55.2719C6.11618 55.2688 6.12878 55.2658 6.14137 55.2627C6.13909 55.2633 6.13679 55.2639 6.13393 55.2645C6.12591 55.2664 6.11732 55.2683 6.1093 55.2701C6.10759 55.2707 6.1053 55.2713 6.10359 55.2719ZM6.18086 55.2523C6.20205 55.2474 6.22265 55.2419 6.24382 55.2358C6.23982 55.237 6.23639 55.2382 6.23295 55.2388C6.23238 55.2389 6.23124 55.2394 6.23066 55.2395C6.22208 55.2419 6.2135 55.2443 6.20434 55.2468C6.20434 55.2468 6.20377 55.2468 6.20319 55.2468C6.19575 55.2486 6.1883 55.2505 6.18086 55.2523ZM6.35138 55.2048C6.35253 55.2048 6.35367 55.2042 6.35482 55.2042L6.35424 55.2042C6.3531 55.2048 6.35253 55.2048 6.35138 55.2048ZM6.44288 55.1763C6.46175 55.1703 6.48062 55.1643 6.49949 55.1576L6.49549 55.1594C6.48177 55.1642 6.46805 55.1685 6.4549 55.1727C6.45089 55.1739 6.44689 55.1751 6.44288 55.1763ZM6.64237 55.1071C6.66637 55.0987 6.69036 55.0891 6.71435 55.0801L6.71264 55.0807L6.70636 55.0831C6.70408 55.0843 6.70179 55.0849 6.69951 55.0861C6.68922 55.0897 6.67951 55.0933 6.66923 55.0975C6.66066 55.1005 6.65151 55.1041 6.64294 55.1071L6.64237 55.1071ZM6.72292 55.0765C6.72864 55.0747 6.73377 55.0723 6.73948 55.07L6.73435 55.0723C6.73092 55.0735 6.72807 55.0747 6.72464 55.0759L6.72292 55.0765ZM7.05059 54.9357C7.05343 54.934 7.05686 54.9328 7.06028 54.931C7.05686 54.9328 7.05401 54.934 7.05059 54.9357ZM7.19261 54.8669C7.20515 54.8603 7.21769 54.8538 7.23024 54.8479L7.22738 54.8491C7.21598 54.855 7.20401 54.8609 7.19261 54.8669ZM7.25019 54.8378L7.24962 54.8378C7.29352 54.8153 7.3374 54.7916 7.3807 54.7679L7.37728 54.7697L7.36873 54.7744C7.34253 54.7892 7.31574 54.8034 7.28838 54.8176L7.2747 54.8247C7.26673 54.8295 7.25817 54.8336 7.25019 54.8378ZM7.52366 54.6858C7.53447 54.6787 7.54586 54.6722 7.55668 54.6657C7.54528 54.6722 7.53447 54.6787 7.52366 54.6858ZM7.59424 54.6421C7.6062 54.6351 7.61814 54.6274 7.63009 54.6197L7.62839 54.6209C7.617 54.628 7.60562 54.6351 7.59424 54.6421ZM7.77457 54.5249C7.8121 54.4991 7.84905 54.4732 7.88599 54.4467C7.84905 54.4732 7.81211 54.4996 7.77457 54.5249ZM8.14149 54.249C8.15114 54.2408 8.16077 54.2326 8.17042 54.2244C8.16646 54.2285 8.16192 54.2326 8.15738 54.2361C8.15227 54.2402 8.1466 54.2449 8.14149 54.249ZM8.3184 54.0963C8.34957 54.0682 8.38129 54.0389 8.41186 54.0097L8.40847 54.0132C8.37902 54.0413 8.34844 54.0693 8.3184 54.0963ZM8.53978 53.8847C8.59522 53.8287 8.64948 53.7709 8.70258 53.712C8.6879 53.7289 8.67264 53.7453 8.65738 53.7616L8.64608 53.7739L8.63195 53.789C8.60764 53.8147 8.5839 53.8398 8.55901 53.8649C8.55279 53.8713 8.546 53.8783 8.53978 53.8847ZM8.80872 53.5914C8.88095 53.5069 8.95085 53.4202 9.01843 53.3318C8.97001 53.3958 8.92042 53.458 8.86966 53.5192C8.84993 53.5436 8.82961 53.5675 8.80872 53.5914ZM9.06063 53.2748C9.0702 53.262 9.0792 53.2498 9.08876 53.2364C9.08595 53.2405 9.08371 53.244 9.0809 53.2475C9.07415 53.2568 9.06739 53.2661 9.06063 53.2748ZM9.23938 53.0203C9.24723 53.0075 9.25566 52.9953 9.26408 52.9825C9.25566 52.9953 9.24781 53.0081 9.23938 53.0203ZM9.52836 52.5393C9.53785 52.5213 9.54791 52.5034 9.5574 52.4854C9.54791 52.5034 9.53843 52.5213 9.52836 52.5393ZM9.62377 52.3573C9.63213 52.3405 9.64049 52.3237 9.64884 52.3069C9.64049 52.3237 9.6327 52.3405 9.62377 52.3573ZM9.78227 52.0209C9.79114 52.0001 9.80058 51.9793 9.80944 51.9579L9.80945 51.9584C9.80058 51.9793 9.79114 52.0001 9.78227 52.0209ZM9.80944 51.9579C9.85379 51.8549 9.89525 51.7502 9.93496 51.6438C9.89582 51.7496 9.85436 51.8543 9.81 51.9573L9.80944 51.9579ZM10.0208 51.4005C10.0378 51.3502 10.0542 51.2988 10.0701 51.248C10.0575 51.289 10.0449 51.3294 10.0312 51.3699C10.0279 51.3803 10.0246 51.3907 10.0208 51.4005ZM10.1877 50.8301C10.1898 50.8208 10.1926 50.8122 10.1947 50.8024C10.1936 50.8064 10.1931 50.8099 10.192 50.8133L10.1904 50.8197C10.1893 50.8232 10.1888 50.8266 10.1877 50.8301ZM10.2276 50.6651C10.2335 50.6391 10.2394 50.6132 10.2447 50.5866C10.2399 50.6103 10.2346 50.6339 10.2292 50.6576C10.2287 50.6599 10.2281 50.6628 10.2276 50.6651ZM10.4347 49.1475C10.4347 49.1463 10.4347 49.1452 10.4347 49.144L10.4347 49.1446C10.4347 49.1457 10.4347 49.1463 10.4347 49.1475ZM10.4248 48.0775C10.424 48.0626 10.4232 48.0471 10.4218 48.0322L10.4224 48.0385C10.4231 48.0454 10.4232 48.0522 10.4239 48.0591C10.424 48.0654 10.4247 48.0718 10.4248 48.0775ZM10.4217 48.0287C10.4203 48.0132 10.4195 47.9977 10.4181 47.9822C10.4189 47.9948 10.4202 48.0069 10.421 48.0189L10.4217 48.0287ZM10.4145 47.9323C10.4116 47.899 10.4088 47.8657 10.4054 47.8318C10.4074 47.8479 10.4082 47.864 10.4102 47.8795C10.4116 47.895 10.4124 47.9099 10.4138 47.9254C10.4138 47.9277 10.4138 47.93 10.4145 47.9323ZM10.2341 46.7001C10.2298 46.6783 10.2248 46.6565 10.2199 46.6348C10.2205 46.637 10.2211 46.6388 10.2217 46.6411L10.2242 46.6525C10.2273 46.6686 10.231 46.6846 10.2341 46.7001ZM10.1687 46.4126C10.1588 46.3708 10.1484 46.329 10.1374 46.2872C10.1472 46.325 10.157 46.3633 10.1662 46.4011L10.1687 46.4114L10.1687 46.4126ZM10.0904 46.1092C10.0867 46.0955 10.083 46.0823 10.0788 46.0692C10.0825 46.0823 10.0867 46.0961 10.0904 46.1092ZM10.0472 45.9593C10.0441 45.9479 10.0411 45.937 10.0375 45.9256C10.0405 45.9364 10.0441 45.9479 10.0472 45.9593ZM9.99746 45.7934C9.98839 45.7649 9.97932 45.7363 9.97025 45.7077L9.97025 45.7082C9.97932 45.7363 9.98839 45.7649 9.99746 45.7934ZM9.95576 45.6636C9.94612 45.6351 9.93705 45.6065 9.9274 45.5779C9.93705 45.6065 9.94669 45.6351 9.95576 45.6636ZM9.90391 45.5093C9.88705 45.4607 9.86961 45.4116 9.85218 45.363C9.85759 45.3778 9.86241 45.3921 9.8678 45.4064C9.88041 45.4407 9.89187 45.475 9.90391 45.5093ZM9.77419 45.155C9.74605 45.083 9.71675 45.0105 9.68745 44.9386C9.70777 44.9877 9.72809 45.0373 9.74725 45.0865C9.75623 45.1093 9.76521 45.1322 9.77419 45.155ZM9.59498 44.7228C9.58248 44.6954 9.56997 44.6674 9.55747 44.64C9.57055 44.668 9.58248 44.6954 9.59498 44.7228ZM9.52294 44.5641C9.51163 44.5396 9.49974 44.5145 9.48844 44.49C9.49974 44.5145 9.51162 44.539 9.52294 44.5641ZM9.47775 44.4683C9.47182 44.4563 9.46646 44.4449 9.46053 44.4329C9.4629 44.4375 9.46527 44.4421 9.46764 44.4466C9.47121 44.454 9.47476 44.4609 9.47775 44.4683ZM9.28611 44.0863C9.28257 44.0806 9.28019 44.0754 9.27723 44.0697C9.28019 44.0754 9.28315 44.0806 9.28611 44.0863ZM9.13169 43.8054C9.12932 43.8014 9.12755 43.7985 9.12578 43.7951C9.12755 43.7985 9.12933 43.802 9.13169 43.8054Z" fill="#6EC6EA"/>
</svg>
