<svg width="8" height="10" viewBox="0 0 8 10" fill="none" xmlns="http://www.w3.org/2000/svg">
<path d="M0.0732955 9.23676C0.238131 8.96078 0.733992 8.08563 0.961702 7.77805C1.19349 7.47081 1.11872 7.47081 1.39469 7.28321C1.67236 7.09934 3.82677 4.80694 4.24243 4.32909C4.65809 3.85226 6.04848 2.11248 6.18035 1.88171C6.32241 1.6489 6.3683 1.59045 6.01416 1.31176C5.66138 1.0351 4.55443 0.358093 4.55443 0.358093L4.7366 -0.000126601C4.7366 -0.000126601 6.98277 1.6489 7.39843 2.00406C7.58434 2.06932 7.86201 1.94187 7.99999 1.83379C7.99999 1.83379 1.13232 9.19359 0.266677 9.7316C0.0559603 9.76423 -0.0973173 9.51816 0.0732955 9.23676Z" fill="#0C0C0C"/>
</svg>
