<svg width="14" height="16" viewBox="0 0 14 16" fill="none" xmlns="http://www.w3.org/2000/svg">
<path d="M13.8028 5.22927C12.9747 1.62341 9.79606 0 7.00394 0C7.00394 0 7.00394 0 6.99606 0C4.21182 0 1.02534 1.61561 0.197166 5.22146C-0.725653 9.24878 1.76675 12.6595 4.02253 14.8059C4.85859 15.6019 5.93126 16 7.00394 16C8.07662 16 9.1493 15.6019 9.97747 14.8059C12.2333 12.6595 14.7257 9.25659 13.8028 5.22927ZM7.00394 9.13951C5.63155 9.13951 4.51943 8.03902 4.51943 6.68098C4.51943 5.32293 5.63155 4.22244 7.00394 4.22244C8.37634 4.22244 9.48846 5.32293 9.48846 6.68098C9.48846 8.03902 8.37634 9.13951 7.00394 9.13951Z" fill="#76869A"/>
</svg>
