<svg width="24" height="28" viewBox="0 0 24 28" fill="none" xmlns="http://www.w3.org/2000/svg">
<path d="M0 28L5.39682 -0.000112447C5.39623 -0.000681414 5.3974 -0.000121562 5.39682 -0.000112447L5.3974 0.00045463L4.3466 5.44965L4.34661 5.45022L3.08166 12.015L2.417 15.4619L0.000558551 27.9988L0.000567632 27.9994C0.000567632 27.9994 -9.11651e-06 27.9994 0 28ZM2.92294 26.1477L2.92293 26.1472L3.32943 24.0391L4.75989 16.616L6.42869 7.95824L7.28987 3.48989L7.75527 1.07501C13.5482 3.83339 18.9484 7.29078 23.8435 11.3412L23.4274 13.5016L7.49955 24.2816C7.31678 24.2631 7.13709 24.256 6.95929 24.2588C6.05639 24.2731 5.22136 24.5509 4.46271 24.9701C3.89184 25.285 3.37502 25.6841 2.92294 26.1477ZM7.28987 3.48989L4.75989 16.616L5.68145 16.7939C5.73142 16.8035 5.78132 16.8079 5.83054 16.8072C6.16587 16.8019 6.4639 16.562 6.52976 16.2192L8.78555 4.51604C8.86162 4.12324 8.60422 3.74321 8.21142 3.66713L7.28987 3.48989Z" fill="#296D31"/>
</svg>
