<svg width="5" height="6" viewBox="0 0 5 6" fill="none" xmlns="http://www.w3.org/2000/svg">
<path d="M2.17451 4.68675C2.17451 4.68675 3.84123 2.49462 3.86454 1.82918C3.88992 1.36661 3.61556 1.12092 3.32462 1.20517C3.03369 1.28978 2.63777 1.58762 2.3477 1.8537C2.05883 2.12012 0.642135 3.57325 0.618825 3.57325C0.594652 3.57325 0.382448 3.47207 0 3.65405C0.955516 2.85531 4.25579 -0.000356035 4.25579 -0.000356035C4.25579 -0.000356035 3.59121 0.751244 3.53475 0.837921C3.66908 0.891446 4.02114 1.04028 4.10489 1.39977C4.15358 1.53393 4.35007 1.42394 4.42604 1.30635C4.50581 1.1905 4.99997 0.499156 4.99997 0.499156L2.94995 5.81303C2.918 5.50741 2.83132 5.11685 2.17451 4.68675Z" fill="#0C0C0C"/>
</svg>
