<svg width="2" height="3" viewBox="0 0 2 3" fill="none" xmlns="http://www.w3.org/2000/svg">
<path d="M0.474612 2.61652C0.463718 2.55878 0.452821 2.50104 0.441272 2.44398C0.436184 2.41677 0.430432 2.38956 0.424689 2.36302C0.422557 2.35441 0.421091 2.34577 0.418958 2.33715C0.397412 2.23698 0.373204 2.13686 0.347665 2.03675C0.334891 1.98636 0.321439 1.93531 0.307333 1.88495C0.284728 1.8021 0.260107 1.71795 0.234841 1.63515C0.224324 1.60136 0.213131 1.56693 0.201938 1.53249C0.194927 1.50997 0.18725 1.48745 0.179573 1.46494C0.173967 1.44705 0.16837 1.42983 0.162109 1.41262C0.115311 1.27291 0.0638769 1.13461 0.00911478 0.996354C0.00633764 0.989076 0.0028858 0.981139 0.000108664 0.973861C0.0212363 0.962878 0.0430308 0.951882 0.064148 0.940234C0.169776 0.884654 0.276672 0.825066 0.38416 0.760804C0.759412 0.538563 1.10286 0.283538 1.41524 -0.00028338C1.4663 0.114069 1.51604 0.22911 1.56248 0.346198C1.72874 0.759608 1.86927 1.18806 1.97924 1.61966C1.98633 1.64684 1.9934 1.67336 1.99982 1.70055L1.99983 1.70122C1.75842 1.88407 1.50615 2.05379 1.24235 2.20971C0.986469 2.36151 0.730339 2.49734 0.474612 2.61652Z" fill="#417996"/>
</svg>
