<svg width="36" height="36" viewBox="0 0 36 36" fill="none" xmlns="http://www.w3.org/2000/svg">
<rect width="36" height="36" rx="18" fill="#BD3430" fill-opacity="0.16"/>
<g clip-path="url(#clip0_1585_16738)">
<path fill-rule="evenodd" clip-rule="evenodd" d="M19.351 13.8542C19.351 15.8622 18.222 16.9925 16.2127 16.9925C14.2047 16.9925 13.0743 15.8622 13.0743 13.8542C13.0743 11.8452 14.2047 10.7158 16.2127 10.7158C18.2217 10.7158 19.351 11.8448 19.351 13.8542ZM20.99 16.7638C21.3749 16.6047 21.793 16.5429 22.2074 16.5839C22.6219 16.6249 23.0198 16.7674 23.366 16.9989C23.7122 17.2303 23.9961 17.5435 24.1924 17.9108C24.3887 18.278 24.4915 18.688 24.4917 19.1045V20.0255C24.4917 20.0448 24.4917 20.0645 24.4893 20.0825C24.9783 20.1658 25.3637 20.5535 25.4447 21.0448L25.4607 21.1398C25.5327 21.5788 25.616 22.0862 25.616 22.6108C25.616 23.1342 25.5327 23.6418 25.4607 24.0818L25.4447 24.1755C25.4027 24.4334 25.2753 24.6697 25.083 24.8465C24.8906 25.0233 24.6445 25.1303 24.384 25.1505L24.007 25.1792C23.3623 25.2305 22.6677 25.2855 21.959 25.2855C21.2503 25.2855 20.5557 25.2305 19.911 25.1792C19.7853 25.1693 19.6597 25.1597 19.534 25.1505C19.2735 25.1303 19.0273 25.0233 18.835 24.8465C18.6427 24.6697 18.5153 24.4334 18.4733 24.1755L18.4583 24.0818C18.3853 23.6418 18.3017 23.1345 18.3017 22.6108C18.3017 22.0862 18.385 21.5788 18.4583 21.1398L18.4733 21.0448C18.5533 20.5535 18.9383 20.1658 19.4277 20.0838C19.4261 20.0644 19.4253 20.045 19.4253 20.0255V19.1045C19.4253 18.6033 19.5739 18.1134 19.8524 17.6967C20.131 17.28 20.5269 16.9554 20.99 16.7638ZM23.063 19.9728C22.6955 19.9486 22.3273 19.9361 21.959 19.9352C21.5853 19.9352 21.216 19.9512 20.854 19.9728V19.1042C20.854 18.8112 20.9704 18.5303 21.1775 18.3232C21.3846 18.116 21.6656 17.9997 21.9585 17.9997C22.2514 17.9997 22.5324 18.116 22.7395 18.3232C22.9466 18.5303 23.063 18.8112 23.063 19.1042V19.9728ZM17.9967 19.2118C17.4998 19.6125 17.1677 20.182 17.064 20.8118C16.9657 21.4072 16.873 22.0038 16.873 22.6095C16.873 22.9145 16.896 23.2185 16.9323 23.5215H12.9323C11.858 23.5215 10.9643 22.9432 10.5803 22.1422C10.377 21.7305 10.3298 21.259 10.4477 20.8152C10.5733 20.3535 10.8797 19.9465 11.3413 19.6382C12.3212 18.9893 13.4208 18.5426 14.5756 18.3242C15.7304 18.1057 16.9171 18.12 18.0663 18.3662C18.0207 18.6095 17.9977 18.8575 17.9977 19.1055V19.2142L17.9967 19.2118Z" fill="#CD2127"/>
</g>
<defs>
<clipPath id="clip0_1585_16738">
<rect width="16" height="16" fill="white" transform="translate(10 10)"/>
</clipPath>
</defs>
</svg>
