<svg width="20" height="18" viewBox="0 0 20 18" fill="none" xmlns="http://www.w3.org/2000/svg">
<path d="M18.3875 6.64677V6.65404V6.65518V6.6643C18.3875 9.68241 16.6071 12.254 14.87 13.9688C14.0638 14.7691 13.1697 15.4757 12.2046 16.0749L12.1987 16.0786L12.1987 16.0786C11.781 16.3339 11.3682 16.5494 10.9818 16.7059M18.3875 6.64677L10.6057 15.7792M18.3875 6.64677L18.3874 6.6395M18.3875 6.64677L18.3874 6.6395M10.9818 16.7059C10.9815 16.706 10.9813 16.7061 10.981 16.7062L10.6057 15.7792M10.9818 16.7059C10.9822 16.7057 10.9826 16.7056 10.983 16.7054L10.6057 15.7792M10.9818 16.7059C10.6382 16.8458 10.1725 17.0005 9.69382 17.0005C9.2147 17.0005 8.74847 16.8454 8.4047 16.7059L8.40153 16.7046C8.01906 16.5478 7.60828 16.3336 7.1908 16.0804L7.18166 16.0749L7.18169 16.0748C6.21701 15.4755 5.32326 14.769 4.51753 13.9686M10.6057 15.7792C10.2979 15.9046 9.97649 16.0003 9.69382 16.0003C9.41115 16.0003 9.08973 15.9046 8.78085 15.7792C8.45829 15.647 8.09469 15.4589 7.70944 15.2253C6.80845 14.6656 5.97374 14.0056 5.22127 13.258M4.51753 13.9686C4.51794 13.969 4.51835 13.9694 4.51876 13.9698L5.22127 13.258M4.51753 13.9686C4.51715 13.9682 4.51677 13.9679 4.51639 13.9675L5.22127 13.258M4.51753 13.9686C2.78038 12.2538 1.00011 9.68227 1.00011 6.66316V6.65404V6.64677L1.00021 6.6395C1.03117 4.51053 2.22932 2.35395 4.19526 1.43712C5.2684 0.935585 6.49252 0.862889 7.61738 1.23377C8.33994 1.46518 9.03537 1.86075 9.69371 2.41174C10.3518 1.86066 11.0475 1.46433 11.7709 1.23356C12.8957 0.862886 14.1197 0.935693 15.1926 1.43724L2.00022 6.65404V6.66316C2.00022 9.29266 3.56401 11.6224 5.22127 13.258M18.3874 6.6395C18.3565 4.51071 17.1585 2.3543 15.1929 1.43735L18.3874 6.6395Z" fill="white" fill-opacity="0.3" stroke="#CD2127" stroke-width="2"/>
</svg>
