<svg width="36" height="36" viewBox="0 0 36 36" fill="none" xmlns="http://www.w3.org/2000/svg">
<rect width="36" height="36" rx="18" fill="#BD3430" fill-opacity="0.16"/>
<g clip-path="url(#clip0_1585_16756)">
<path fill-rule="evenodd" clip-rule="evenodd" d="M12.3097 12.3101C13.6606 10.9604 15.6091 10.2861 18 10.2861C20.3908 10.2861 22.3394 10.9604 23.6903 12.3101C25.04 13.661 25.7143 15.6096 25.7143 18.0004C25.7143 20.3913 25.04 22.3398 23.6903 23.6907C22.3394 25.0404 20.3908 25.7147 18 25.7147C15.6091 25.7147 13.6606 25.0404 12.3097 23.6907C10.96 22.3398 10.2857 20.3913 10.2857 18.0004C10.2857 15.6096 10.96 13.661 12.3097 12.3101ZM18.2308 14.9044C18.06 14.8738 17.8846 14.8806 17.7167 14.9244C17.5488 14.9681 17.3923 15.0477 17.2582 15.1578C17.124 15.2678 17.0153 15.4057 16.9395 15.5618C16.8638 15.7179 16.8228 15.8886 16.8194 16.0621C16.8194 16.2516 16.7442 16.4333 16.6102 16.5672C16.4763 16.7012 16.2946 16.7764 16.1051 16.7764C15.9157 16.7764 15.734 16.7012 15.6001 16.5672C15.4661 16.4333 15.3908 16.2516 15.3908 16.0621C15.3908 14.4347 16.9131 13.1844 18.5108 13.5021C19.0152 13.6076 19.4777 13.858 19.8417 14.2226C20.2058 14.5872 20.4554 15.0502 20.56 15.5547C20.6617 16.0656 20.6023 16.549 20.3817 16.9833C20.168 17.4038 19.8274 17.7273 19.4503 17.9798C19.1017 18.213 18.9051 18.3558 18.7897 18.477C18.704 18.565 18.7131 18.5878 18.7143 18.5913C18.7143 18.6851 18.6958 18.778 18.6599 18.8646C18.624 18.9513 18.5714 19.03 18.5051 19.0964C18.4387 19.1627 18.36 19.2153 18.2733 19.2512C18.1867 19.2871 18.0938 19.3056 18 19.3056C17.9062 19.3056 17.8133 19.2871 17.7266 19.2512C17.64 19.2153 17.5612 19.1627 17.4949 19.0964C17.4286 19.03 17.376 18.9513 17.3401 18.8646C17.3042 18.778 17.2857 18.6851 17.2857 18.5913C17.2857 18.1227 17.4914 17.7661 17.7588 17.4861C18.0011 17.2347 18.3326 17.0096 18.656 16.7924C18.9017 16.6278 19.0377 16.4724 19.1086 16.3353C19.1841 16.1788 19.202 16.0007 19.1588 15.8324C19.1088 15.6051 18.9947 15.397 18.83 15.2325C18.6654 15.0681 18.457 14.9542 18.2297 14.9044H18.2308ZM18 20.7936C18.3943 20.7936 18.7143 21.1136 18.7143 21.5078V21.8324C18.7143 21.9262 18.6958 22.0191 18.6599 22.1058C18.624 22.1924 18.5714 22.2712 18.5051 22.3375C18.4387 22.4038 18.36 22.4564 18.2733 22.4923C18.1867 22.5282 18.0938 22.5467 18 22.5467C17.9062 22.5467 17.8133 22.5282 17.7266 22.4923C17.64 22.4564 17.5612 22.4038 17.4949 22.3375C17.4286 22.2712 17.376 22.1924 17.3401 22.1058C17.3042 22.0191 17.2857 21.9262 17.2857 21.8324V21.5078C17.2857 21.1136 17.6057 20.7936 18 20.7936Z" fill="#CD2127"/>
</g>
<defs>
<clipPath id="clip0_1585_16756">
<rect width="16" height="16" fill="white" transform="translate(10 10)"/>
</clipPath>
</defs>
</svg>
