<svg width="18" height="18" viewBox="0 0 18 18" fill="none" xmlns="http://www.w3.org/2000/svg">
<path fill-rule="evenodd" clip-rule="evenodd" d="M5.73448 1.23798C6.82119 1.13066 7.91211 1.07146 9.00405 1.06055C10.1355 1.06055 11.2348 1.1454 12.2723 1.23798C13.9425 1.38455 15.3413 2.67926 15.5573 4.36869C15.6435 5.0424 15.7142 5.75855 15.7142 6.49912C15.7142 6.7344 15.7065 6.96583 15.6949 7.1934C15.6924 7.25548 15.7066 7.31709 15.736 7.37182C15.7654 7.42655 15.8089 7.47239 15.8621 7.50455C16.247 7.7404 16.5786 8.05379 16.8358 8.42477C17.093 8.79576 17.2702 9.21622 17.3561 9.6594C17.4679 10.256 17.5566 10.8898 17.5566 11.5468C17.5566 12.362 17.4191 13.1475 17.2686 13.8714C17.2398 14.0096 17.1662 14.1345 17.0593 14.2268C16.9524 14.319 16.8181 14.3735 16.6772 14.3818L16.4291 14.396H16.4213L15.1073 14.4718V16.0713C15.1073 16.327 15.0057 16.5723 14.8249 16.7531C14.6441 16.934 14.3988 17.0355 14.1431 17.0355C13.8873 17.0355 13.642 16.934 13.4612 16.7531C13.2804 16.5723 13.1788 16.327 13.1788 16.0713V14.5708C11.8108 14.6325 10.4145 14.6763 9.00019 14.6763C7.58591 14.6763 6.19091 14.6325 4.82162 14.5708V16.0713C4.82162 16.327 4.72003 16.5723 4.53919 16.7531C4.35835 16.934 4.11308 17.0355 3.85734 17.0355C3.60159 17.0355 3.35632 16.934 3.17549 16.7531C2.99465 16.5723 2.89305 16.327 2.89305 16.0713V14.4718L1.57905 14.3973H1.57134L1.3322 14.3831C1.19084 14.375 1.05611 14.3204 0.948937 14.2279C0.841762 14.1354 0.768133 14.0101 0.739481 13.8714C0.589052 13.1488 0.450195 12.362 0.450195 11.5468C0.450195 10.8911 0.53891 10.256 0.650767 9.6594C0.736711 9.21592 0.914191 8.79523 1.17188 8.4242C1.42956 8.05317 1.76179 7.73995 2.14734 7.50455C2.20029 7.47249 2.24372 7.42686 2.2731 7.37238C2.30249 7.3179 2.31678 7.25655 2.31448 7.19469C2.30156 6.96349 2.29513 6.73197 2.2952 6.5004C2.30195 5.78721 2.35434 5.07519 2.45205 4.36869C2.66677 2.67926 4.06562 1.38583 5.73448 1.23798ZM13.7856 6.49912V6.64698C13.7847 6.68959 13.7751 6.73158 13.7575 6.77039C13.7398 6.80919 13.7145 6.84402 13.683 6.87275C13.6515 6.90147 13.6145 6.92351 13.5742 6.93752C13.534 6.95154 13.4913 6.95723 13.4488 6.95426C11.9691 6.85645 10.4869 6.80242 9.00405 6.79226C7.48177 6.79226 5.99291 6.8694 4.55934 6.95426C4.51681 6.95705 4.47416 6.95118 4.43396 6.93701C4.39377 6.92284 4.35687 6.90066 4.3255 6.87181C4.29413 6.84296 4.26894 6.80805 4.25145 6.76918C4.23396 6.73031 4.22455 6.6883 4.22377 6.64569L4.22248 6.49912C4.22248 5.87683 4.28162 5.25198 4.36391 4.61298C4.4199 4.23277 4.60233 3.88251 4.88178 3.61869C5.16123 3.35487 5.5214 3.19287 5.9042 3.15883C6.93404 3.0565 7.96791 2.99987 9.00277 2.98912C10.0442 2.98912 11.0728 3.06755 12.1039 3.15883C12.4867 3.19287 12.8469 3.35487 13.1263 3.61869C13.4058 3.88251 13.5882 4.23277 13.6442 4.61298C13.7265 5.25198 13.7856 5.87683 13.7856 6.49912ZM6.58948 10.7368C6.58948 11.1804 6.22948 11.5404 5.78591 11.5404H4.5002C4.28708 11.5404 4.08268 11.4557 3.93198 11.305C3.78129 11.1543 3.69662 10.95 3.69662 10.7368C3.69662 10.5237 3.78129 10.3193 3.93198 10.1686C4.08268 10.0179 4.28708 9.93326 4.5002 9.93326H5.78591C6.22948 9.93326 6.58948 10.2933 6.58948 10.7368ZM13.5002 11.5404C13.7133 11.5404 13.9177 11.4557 14.0684 11.305C14.2191 11.1543 14.3038 10.95 14.3038 10.7368C14.3038 10.5237 14.2191 10.3193 14.0684 10.1686C13.9177 10.0179 13.7133 9.93326 13.5002 9.93326H12.2145C12.0014 9.93326 11.797 10.0179 11.6463 10.1686C11.4956 10.3193 11.4109 10.5237 11.4109 10.7368C11.4109 10.95 11.4956 11.1543 11.6463 11.305C11.797 11.4557 12.0014 11.5404 12.2145 11.5404H13.5002Z" fill="#064782"/>
</svg>
