<svg width="36" height="36" viewBox="0 0 36 36" fill="none" xmlns="http://www.w3.org/2000/svg">
<rect width="36" height="36" rx="18" fill="#BD3430" fill-opacity="0.16"/>
<g clip-path="url(#clip0_1585_16777)">
<path fill-rule="evenodd" clip-rule="evenodd" d="M17.6323 9.32614C17.8774 9.31967 18.1226 9.31967 18.3677 9.32614C19.8951 11.1673 20.8106 13.9804 20.9417 17.196H15.0583C15.1894 13.9804 16.1049 11.166 17.6323 9.32614ZM15.4967 9.57042C13.932 9.90728 12.6154 10.5823 11.5997 11.598C10.2343 12.9634 9.48343 14.8714 9.34457 17.196H13.4511C13.5579 14.3559 14.2367 11.6674 15.4967 9.57171V9.57042ZM9.34457 18.8031C9.48343 21.1277 10.2343 23.0357 11.5997 24.4011C12.6154 25.4169 13.932 26.0919 15.4967 26.4287C14.2367 24.333 13.5579 21.6433 13.4511 18.8031H9.34457ZM18.3677 26.673C18.1226 26.6795 17.8774 26.6795 17.6323 26.673C16.1049 24.8319 15.1894 22.0187 15.0583 18.8031H20.9417C20.8106 22.0187 19.8951 24.8331 18.3677 26.673ZM20.5033 26.4287C22.0693 26.0919 23.3859 25.4169 24.4016 24.4011C25.7657 23.0357 26.5166 21.1277 26.6554 18.8031H22.5501C22.4421 21.6433 21.7633 24.3317 20.5033 26.4274V26.4287ZM26.6554 17.196H22.5501C22.4421 14.3559 21.7633 11.6674 20.5033 9.57171C22.0693 9.90599 23.3859 10.5823 24.4016 11.598C25.7657 12.9634 26.5166 14.8714 26.6554 17.196Z" fill="#CD2127"/>
</g>
<defs>
<clipPath id="clip0_1585_16777">
<rect width="18" height="18" fill="white" transform="translate(9 9)"/>
</clipPath>
</defs>
</svg>
