<svg width="4" height="3" viewBox="0 0 4 3" fill="none" xmlns="http://www.w3.org/2000/svg">
<path d="M1.84658 1.64639C1.90282 1.48742 1.96467 1.26017 2.09562 1.07235C2.22429 0.882872 2.77758 0.555594 3.01375 0.489391C3.25594 0.423396 3.59733 0.319211 3.73763 0.268365C3.87667 0.215029 4.00887 0.166674 3.99954 0.103377C3.98916 0.0431919 4.03108 0.00521314 3.80778 -0.000597927C3.58903 -0.00537124 2.6792 0.0450585 2.30502 0.211085C1.93437 0.376489 1.62909 0.542728 1.46887 0.573443C1.30866 0.608516 0.847928 0.767278 0.541609 1.14727C0.232799 1.52311 0.120524 1.86347 0.12758 2.05295C0.135882 2.24056 0.0317014 1.92967 0.0410404 1.77879C0.0491342 1.62896 0.0491324 1.35294 0.163691 1.09456C0.278457 0.833065 0.325153 0.745485 0.367283 0.673055C0.408167 0.602287 0.0620021 1.12776 0.021118 1.4787C-0.0210114 1.82715 -0.0618967 2.21441 0.554271 2.67098C1.17085 3.1288 1.18227 2.95863 1.18227 2.95863C1.18227 2.95863 1.17646 2.55165 1.18227 2.41073C1.18476 2.26857 1.18953 1.97824 1.50747 1.81387L1.84658 1.64639Z" fill="#1960B2"/>
</svg>
