<svg width="39" height="23" viewBox="0 0 39 23" fill="none" xmlns="http://www.w3.org/2000/svg">
<path d="M0 22.7518C0.0885369 22.7255 0.177588 22.6953 0.267152 22.6609C0.247637 22.6687 0.228678 22.6754 0.209153 22.6826C0.169527 22.6971 0.129887 22.7104 0.0902431 22.7238C0.060361 22.7335 0.0299003 22.7432 0 22.7518ZM0.283804 22.6549C0.379675 22.6176 0.475487 22.5762 0.572377 22.5302C0.551165 22.5404 0.529951 22.5505 0.508731 22.5601C0.493248 22.5673 0.477768 22.5744 0.462277 22.581C0.446209 22.5876 0.430727 22.5948 0.414659 22.6014C0.389992 22.6122 0.364739 22.6224 0.340063 22.6326C0.321702 22.6404 0.302173 22.6477 0.283804 22.6549ZM0.87028 22.3748C0.882297 22.3676 0.894313 22.3605 0.90634 22.354C0.895468 22.3605 0.884598 22.367 0.87314 22.373C0.871994 22.3736 0.870848 22.3742 0.87028 22.3748ZM0.91492 22.3486C0.950413 22.3284 0.985886 22.3071 1.02135 22.2852C0.985895 22.3077 0.950413 22.3284 0.91492 22.3486ZM1.35002 22.0663C1.37743 22.0462 1.40542 22.0261 1.4334 22.0055C1.41113 22.022 1.38887 22.0385 1.36659 22.0545L1.3506 22.0657L1.35002 22.0663ZM1.88721 21.6275C1.92819 21.5887 1.96916 21.5494 2.00896 21.5095L2.00214 21.5165C1.96461 21.5541 1.92649 21.5911 1.88721 21.6275ZM2.02716 21.4913C2.05217 21.4661 2.07718 21.4403 2.10218 21.4139C2.07776 21.4403 2.05217 21.4661 2.02716 21.4913ZM2.11639 21.3992C2.12036 21.3945 2.12491 21.3899 2.12945 21.3852C2.12491 21.3899 2.12094 21.3945 2.11639 21.3992ZM2.14364 21.3693C2.17204 21.3389 2.19987 21.3084 2.2271 21.2773C2.19987 21.3084 2.17263 21.3394 2.14364 21.3693ZM2.25037 21.251C2.28101 21.2158 2.31106 21.1801 2.34111 21.1444C2.31164 21.1801 2.28159 21.2158 2.25037 21.251ZM2.36207 21.1187C2.38417 21.0912 2.40683 21.0631 2.42892 21.035C2.40684 21.0637 2.38474 21.0912 2.36207 21.1187ZM2.47137 20.9801C2.49684 20.9467 2.52171 20.9129 2.54602 20.879C2.5223 20.9134 2.49684 20.9467 2.47137 20.9801ZM2.57316 20.8416C2.6342 20.7563 2.69232 20.6693 2.7481 20.5806C2.74529 20.5853 2.74248 20.59 2.73965 20.5941C2.71148 20.639 2.68215 20.6839 2.65223 20.7277C2.62626 20.7657 2.60029 20.8042 2.57316 20.8416ZM2.81905 20.4646C2.87251 20.3748 2.92364 20.2839 2.97186 20.1913C2.95448 20.2251 2.93654 20.2594 2.91743 20.2927C2.89329 20.3369 2.86856 20.3806 2.84325 20.4238C2.83537 20.4372 2.82751 20.4512 2.81905 20.4646ZM3.01781 20.1016C3.03349 20.0702 3.04916 20.0382 3.06425 20.0062C3.04917 20.0387 3.03349 20.0702 3.01781 20.1016ZM3.13072 19.8624C3.1508 19.8171 3.1703 19.7717 3.18979 19.7258C3.17642 19.7572 3.16306 19.7886 3.14969 19.82C3.14355 19.8339 3.13743 19.8485 3.13072 19.8624ZM3.21537 19.663C3.2237 19.6415 3.23259 19.6194 3.24092 19.5979C3.2326 19.62 3.22427 19.6415 3.21537 19.663ZM3.27531 19.5078C3.27975 19.4962 3.28418 19.484 3.28861 19.4718L3.2875 19.4747C3.28363 19.4858 3.27918 19.4968 3.27531 19.5078ZM3.29026 19.4666C3.30078 19.4381 3.31073 19.4097 3.32068 19.3812C3.31131 19.4097 3.30078 19.4381 3.29026 19.4666ZM3.35763 19.2703C3.36701 19.2419 3.37638 19.2134 3.38516 19.1844C3.38352 19.1902 3.38131 19.1966 3.37967 19.2024C3.37252 19.225 3.36536 19.2477 3.35763 19.2703ZM3.4252 19.0492C3.4263 19.0457 3.42683 19.0428 3.42793 19.0393C3.4274 19.0422 3.42629 19.0451 3.42576 19.048L3.4252 19.0492ZM3.46235 18.9146C3.46234 18.914 3.46233 18.9134 3.46233 18.9134C3.46234 18.914 3.46234 18.914 3.46235 18.9146ZM3.47485 18.8641C3.48898 18.8079 3.50254 18.7522 3.51494 18.696C3.51389 18.7024 3.51226 18.7093 3.51064 18.7163C3.50144 18.7557 3.49224 18.7946 3.48303 18.8334L3.47485 18.8641ZM3.56587 18.4457C3.56747 18.437 3.56907 18.4289 3.57068 18.4208C3.5707 18.4219 3.57014 18.4231 3.57015 18.4242C3.56853 18.4312 3.56749 18.4382 3.56587 18.4457ZM3.57812 18.3796C3.58444 18.3408 3.59077 18.3026 3.59709 18.2638C3.59447 18.2812 3.59128 18.2986 3.58866 18.3159C3.58606 18.3339 3.58288 18.3518 3.5797 18.3698C3.57917 18.3733 3.57864 18.3762 3.57812 18.3796ZM3.60229 18.2274C3.60598 18.2048 3.60908 18.1816 3.61219 18.159C3.61116 18.1672 3.61012 18.1747 3.6091 18.1828L3.60805 18.1897C3.60651 18.2019 3.6044 18.2146 3.60229 18.2274ZM3.6251 18.0618C3.63379 17.99 3.64189 17.9177 3.64826 17.8454L3.64831 17.8483C3.64386 17.8957 3.63939 17.9426 3.63378 17.9895L3.6338 17.9912C3.63071 18.0149 3.62819 18.0381 3.6251 18.0618ZM3.64981 17.8338C3.65024 17.8246 3.65126 17.8159 3.65171 17.8072C3.65126 17.8159 3.65025 17.8252 3.64981 17.8338ZM3.65564 17.7639C3.66426 17.6505 3.67056 17.5378 3.67396 17.4234C3.67363 17.439 3.6733 17.4546 3.67296 17.4696C3.67091 17.5228 3.66827 17.5754 3.66506 17.628L3.6646 17.6361C3.66239 17.6789 3.65901 17.7211 3.65564 17.7639ZM3.67508 17.3841C3.67584 17.3592 3.67661 17.335 3.6768 17.3101L3.67682 17.3113C3.67662 17.3355 3.67585 17.3598 3.67508 17.3841ZM3.67726 17.2656C3.67711 17.2564 3.67755 17.2471 3.6774 17.2379L3.67755 17.2471C3.67765 17.2535 3.67716 17.2593 3.67726 17.2656ZM3.67527 17.0294C3.67418 16.9971 3.6731 16.9648 3.67202 16.933C3.67368 16.9653 3.67418 16.9971 3.67527 17.0294ZM3.66848 16.8545C3.66083 16.6993 3.64798 16.5429 3.62993 16.3873C3.63066 16.3971 3.63197 16.4069 3.63328 16.4167C3.636 16.4426 3.63871 16.468 3.64143 16.494C3.64273 16.5032 3.64344 16.5118 3.64416 16.5211C3.64893 16.5672 3.65256 16.6139 3.65617 16.6601C3.65983 16.7091 3.66348 16.7576 3.66598 16.806C3.66681 16.8222 3.66764 16.8384 3.66848 16.8545ZM3.62661 16.3596C3.62332 16.3342 3.62003 16.3089 3.61674 16.2835C3.61998 16.3054 3.62264 16.3279 3.6253 16.3498C3.62593 16.3533 3.62597 16.3562 3.62661 16.3596ZM3.61282 16.2541C3.61217 16.2495 3.6115 16.2443 3.61085 16.2397C3.61087 16.2409 3.61146 16.2414 3.61148 16.2426C3.61212 16.2466 3.61276 16.2507 3.61282 16.2541ZM3.59723 16.1446C3.59531 16.1325 3.59397 16.121 3.59206 16.1095C3.59397 16.121 3.59589 16.1331 3.59723 16.1446ZM3.56971 15.9741C3.56783 15.9649 3.56654 15.9562 3.56466 15.947C3.56529 15.9499 3.56591 15.9528 3.56653 15.9557L3.56845 15.9672C3.56906 15.9695 3.5691 15.9718 3.56971 15.9741ZM25.1814 9.4669L38.4037 -9.54855e-05L38.9999 0.114704L25.1814 9.4669Z" fill="#6EC6EA"/>
</svg>
