<svg width="3" height="2" viewBox="0 0 3 2" fill="none" xmlns="http://www.w3.org/2000/svg">
<path d="M1.01581 2.00056C0.914128 1.81808 0.808397 1.63633 0.697942 1.45534C0.613879 1.31725 0.527784 1.17919 0.43833 1.04254C0.293385 0.820137 0.147117 0.599785 0.000215785 0.382147C0.0103648 0.381988 0.0205165 0.381828 0.0299889 0.381679C0.0753211 0.380965 0.121321 0.379559 0.166632 0.377492L0.167305 0.377482C0.167982 0.377471 0.167983 0.377471 0.16866 0.37746C0.214648 0.375383 0.260616 0.371952 0.306583 0.368522L0.307257 0.368511C0.316042 0.367696 0.325514 0.367542 0.334289 0.36605C0.441751 0.356914 0.549824 0.343713 0.659177 0.325749C0.672011 0.324194 0.684158 0.321967 0.696305 0.319745C0.71858 0.316011 0.741531 0.312268 0.763795 0.307857C0.77054 0.306398 0.777295 0.305615 0.78404 0.304155L0.791465 0.30269C0.791465 0.30269 0.791462 0.30269 0.792139 0.302679C0.863656 0.288695 0.935829 0.273344 1.00797 0.255966C1.00865 0.255955 1.00865 0.255955 1.00932 0.255944L1.02146 0.253044L1.03629 0.249426L1.03697 0.249416C1.0646 0.242213 1.09225 0.235684 1.11988 0.228482C1.12999 0.225615 1.14009 0.222755 1.15088 0.219878C1.23848 0.196165 1.32606 0.170423 1.41493 0.141277C1.42908 0.136993 1.44255 0.132718 1.45668 0.127758L1.46274 0.125641C1.53073 0.102914 1.59871 0.0788283 1.66733 0.0527077C1.67943 0.0477799 1.69087 0.0435365 1.70299 0.0392852C1.71307 0.0350659 1.72249 0.031539 1.73258 0.0273196L1.73527 0.0266031L1.74199 0.0237876L1.74401 0.0230817C1.76351 0.0153303 1.78302 0.0075734 1.80252 -0.000178082C1.82542 0.0353303 1.84899 0.0708281 1.87189 0.107013C1.96898 0.255727 2.06684 0.410526 2.16063 0.564706C2.34543 0.868373 2.52013 1.17558 2.68403 1.48431L2.68336 1.48432C2.12555 1.73268 1.56857 1.90455 1.01581 2.00056Z" fill="#417996"/>
</svg>
