<svg width="4" height="13" viewBox="0 0 4 13" fill="none" xmlns="http://www.w3.org/2000/svg">
<path d="M0.525469 13.0003L0.52546 12.9997C0.519687 12.9752 0.513324 12.9514 0.506953 12.9269C0.408059 12.5388 0.281676 12.1535 0.132157 11.7817C0.0903932 11.6764 0.0456661 11.573 -0.000249696 11.4701C1.41499 10.1854 2.10642 8.24817 2.07177 6.08534C2.04281 4.28339 1.50915 2.32476 0.469901 0.457299C0.469891 0.456699 0.469891 0.456702 0.469891 0.456702C0.958815 0.371785 1.45147 0.219764 1.94486 8.97757e-05L1.94545 8.03923e-05C2.62898 1.2877 3.10614 2.62347 3.36699 3.98299C3.68059 5.61405 3.65643 7.23486 3.29889 8.66937C3.04724 9.68138 2.63428 10.599 2.07276 11.3962C1.63772 12.0136 1.1194 12.5509 0.525469 13.0003Z" fill="#5299BB"/>
</svg>
