<svg width="10" height="8" viewBox="0 0 10 8" fill="none" xmlns="http://www.w3.org/2000/svg">
<path d="M8.70157 7.99918C8.48146 8.00265 8.26172 7.99178 8.04356 7.96717L8.04296 7.96718C7.90908 7.95258 7.77511 7.93202 7.64165 7.90608C7.26702 7.83382 6.89528 7.71854 6.52826 7.56144C6.2069 7.4245 5.8892 7.25468 5.57698 7.05376C5.47331 6.98737 5.37019 6.9174 5.26759 6.84324C4.63455 6.38842 4.01672 5.8009 3.37899 5.04784C2.31386 3.78958 1.36895 2.28421 0.244017 0.448145C0.160119 0.311045 0.0785517 0.170326 -9.07651e-05 0.0259827C0.0106274 0.0246204 0.0213549 0.023855 0.0326695 0.0224838C0.158958 0.00975636 0.285928 0.0023924 0.412385 0.000401828C0.41835 0.000307934 0.424315 0.000214039 0.43028 0.000120144C0.480385 -0.000668574 0.529913 -0.000257119 0.57946 0.00134958C0.601539 0.00159856 0.623032 0.0024533 0.645121 0.00329915C0.650499 0.00381103 0.655269 0.00373149 0.660646 0.00424336C0.687517 0.00561048 0.714387 0.00697959 0.741258 0.00834671C0.768128 0.00971333 0.795608 0.0116629 0.822497 0.0142228C0.846395 0.0162333 0.870886 0.0182413 0.894784 0.0202518C0.925252 0.0227553 0.95514 0.0264635 0.98503 0.0301697C1.00535 0.0322365 1.02628 0.0348903 1.04721 0.0381404C1.08068 0.0417903 1.11357 0.0466423 1.14706 0.0514849C1.20089 0.0595871 1.25473 0.0688826 1.30858 0.0787744C1.35586 0.0875768 1.40315 0.0975669 1.45044 0.107562C1.59174 0.13875 1.73313 0.175907 1.87402 0.219034C1.97565 0.383302 2.07728 0.547564 2.17889 0.710638C2.22357 0.782128 2.26763 0.852435 2.3123 0.923329C2.32944 0.950505 2.34597 0.977695 2.36311 1.00487C2.37473 1.02318 2.38696 1.04207 2.39859 1.06039C2.40777 1.07516 2.41695 1.08993 2.42613 1.1047C2.42919 1.10943 2.43286 1.11474 2.43591 1.11946C2.56869 1.32918 2.70142 1.53652 2.8341 1.74028C2.85122 1.76686 2.86894 1.79342 2.88606 1.8194C2.90441 1.84775 2.92275 1.87611 2.94168 1.90385C2.95208 1.92039 2.96308 1.93632 2.97347 1.95227C3.09693 2.13886 3.22034 2.32249 3.34429 2.50192C3.35651 2.52022 3.36932 2.53851 3.38153 2.55622C3.43403 2.63176 3.48653 2.70671 3.53901 2.78106C3.58233 2.84183 3.62564 2.90201 3.66895 2.96219C3.66896 2.96278 3.66955 2.96277 3.66956 2.96337C3.67016 2.96395 3.67077 2.96454 3.67079 2.96574C4.04955 3.48959 4.43311 3.97698 4.82837 4.41168C4.83142 4.41581 4.83445 4.41933 4.83809 4.42285C4.83869 4.42344 4.83869 4.42345 4.8393 4.42403C4.90427 4.4958 4.97042 4.56636 5.03653 4.63513C5.042 4.6416 5.04807 4.64806 5.05474 4.65452C5.1245 4.72741 5.19482 4.7979 5.26512 4.8672C5.26876 4.87072 5.27179 4.87366 5.27542 4.87718C5.29603 4.89774 5.31723 4.91768 5.33782 4.93705C5.356 4.95526 5.37478 4.97287 5.39355 4.99047C5.3996 4.99575 5.40566 5.00161 5.41111 5.0069C5.41898 5.01393 5.42625 5.02098 5.43352 5.02802C5.47045 5.06205 5.50678 5.09549 5.5437 5.12892C5.62721 5.20397 5.71129 5.27663 5.79651 5.34629C5.80499 5.35391 5.81405 5.36092 5.82251 5.36795L5.82553 5.37029C5.86239 5.40014 5.89865 5.4294 5.9355 5.45806L5.93852 5.4604L5.94033 5.46156C6.11733 5.60018 6.29712 5.72682 6.48028 5.83969C6.48752 5.84495 6.49534 5.849 6.50257 5.85366C6.50558 5.8554 6.508 5.85716 6.51101 5.8589C6.52124 5.86471 6.53149 5.8711 6.54172 5.87691C6.54354 5.87867 6.54594 5.87982 6.54775 5.88099C6.59835 5.91122 6.64832 5.94026 6.69948 5.9681C6.71634 5.97797 6.73379 5.98725 6.75123 5.99652C6.75725 5.99941 6.76267 6.0029 6.76868 6.00579C6.8114 6.02838 6.85411 6.05039 6.89681 6.07179C6.93348 6.08971 6.97016 6.10763 7.00742 6.12434C7.02184 6.13068 7.03566 6.13703 7.05008 6.14336C7.0579 6.14742 7.0651 6.15028 7.07291 6.15374C7.09334 6.16296 7.11377 6.1716 7.13419 6.18023C7.14921 6.18715 7.16422 6.19287 7.17924 6.1992C7.18885 6.20323 7.19905 6.20724 7.20866 6.21126C7.22127 6.21644 7.23387 6.22102 7.24649 6.22619C7.25069 6.22791 7.25429 6.22904 7.25849 6.23077C7.2729 6.23651 7.2879 6.24164 7.30231 6.24738C7.31131 6.25082 7.32032 6.25425 7.32871 6.25711C7.33712 6.26055 7.34551 6.26341 7.35391 6.26626C7.36292 6.2697 7.37131 6.27255 7.37912 6.27541L7.38451 6.27711C7.42591 6.29137 7.46669 6.30506 7.50807 6.31813C7.52725 6.3238 7.54704 6.33004 7.56622 6.33571C7.57221 6.3374 7.57821 6.3391 7.58421 6.34139C7.60159 6.34649 7.61956 6.35098 7.63635 6.35608C7.65253 6.3606 7.6687 6.36453 7.68488 6.36905C7.68907 6.37017 7.69327 6.3713 7.69685 6.37184C7.75377 6.38705 7.81126 6.40046 7.86873 6.41209C7.88849 6.41655 7.90764 6.42043 7.92739 6.4243C7.93936 6.4265 7.95073 6.4287 7.9627 6.4309C7.9962 6.43693 8.02971 6.44297 8.06379 6.4478C8.07874 6.44995 8.09369 6.45211 8.10864 6.45426C8.11762 6.45591 8.12658 6.45696 8.13555 6.45801L8.13674 6.45799C8.14572 6.45964 8.15469 6.46069 8.16306 6.46175C8.17502 6.46335 8.18636 6.46437 8.19832 6.46597C8.21506 6.46809 8.2318 6.46962 8.24793 6.47116C8.26347 6.4727 8.279 6.47425 8.29454 6.47579C8.3041 6.47684 8.31246 6.4773 8.32202 6.47834C8.32441 6.47831 8.3274 6.47885 8.32979 6.47882C8.33457 6.47934 8.33875 6.47927 8.34353 6.47979C8.35607 6.48078 8.36862 6.48179 8.38176 6.48278C8.46656 6.488 8.55133 6.49085 8.63784 6.49068C8.64321 6.49059 8.64917 6.4905 8.65514 6.49041C8.78465 6.68228 8.9136 6.87654 9.04138 7.07261C9.12025 7.19309 9.19615 7.3148 9.27026 7.43654C9.36764 7.5961 9.46085 7.75633 9.55049 7.9172C9.26608 7.96703 8.98311 7.99475 8.70157 7.99918Z" fill="#C9996A"/>
</svg>
