<svg width="14" height="14" viewBox="0 0 14 14" fill="none" xmlns="http://www.w3.org/2000/svg">
<path fill-rule="evenodd" clip-rule="evenodd" d="M1.83659 1.83659C3.06237 0.611852 4.83052 0 7 0C9.16948 0 10.9376 0.611852 12.1634 1.83659C13.3881 3.06237 14 4.83052 14 7C14 9.16948 13.3881 10.9376 12.1634 12.1634C10.9376 13.3881 9.16948 14 7 14C4.83052 14 3.06237 13.3881 1.83659 12.1634C0.611852 10.9376 0 9.16948 0 7C0 4.83052 0.611852 3.06237 1.83659 1.83659ZM7.77778 4.41985C7.77778 4.21357 7.69583 4.01574 7.54997 3.86988C7.40411 3.72402 7.20628 3.64207 7 3.64207C6.79372 3.64207 6.59589 3.72402 6.45003 3.86988C6.30417 4.01574 6.22222 4.21357 6.22222 4.41985C6.22222 4.62613 6.22222 7.01244 6.22222 7.01244C6.22222 7.21985 6.30415 7.41689 6.45037 7.56207L8.00593 9.11763C8.15337 9.25502 8.34838 9.32981 8.54987 9.32625C8.75137 9.3227 8.94362 9.24107 9.08613 9.09857C9.22863 8.95607 9.31026 8.76382 9.31381 8.56232C9.31737 8.36082 9.24257 8.16581 9.10518 8.01837L7.77778 6.69096V4.41985Z" fill="white"/>
<path d="M5.6875 10.0625L5.25 3.5L8.75 3.0625L10.5 4.375V7.4375L8.75 10.5L5.6875 10.0625Z" fill="white" stroke="white" stroke-width="0.875"/>
<path d="M5.25 7L6.5625 8.75L9.625 5.25" stroke="#CD2127" stroke-width="1.75" stroke-linecap="round" stroke-linejoin="round"/>
</svg>
