<svg width="36" height="36" viewBox="0 0 36 36" fill="none" xmlns="http://www.w3.org/2000/svg">
<rect width="36" height="36" rx="18" fill="#BD3430" fill-opacity="0.16"/>
<g clip-path="url(#clip0_1585_16730)">
<path fill-rule="evenodd" clip-rule="evenodd" d="M19.3143 13.7174C19.3143 15.7254 18.184 16.8557 16.1749 16.8557C14.1669 16.8557 13.0366 15.7254 13.0366 13.7174C13.0366 11.7082 14.1669 10.5791 16.176 10.5791C18.184 10.5791 19.3143 11.7082 19.3143 13.7174ZM22.3154 19.4797C22.3154 18.9837 22.8 18.586 23.2869 18.6831C23.4429 18.7183 23.5857 18.797 23.6988 18.9101C23.8118 19.0231 23.8905 19.166 23.9257 19.322C23.9554 19.4728 23.9326 19.5562 23.9017 19.6168C23.8629 19.6922 23.776 19.802 23.5806 19.9322C23.2983 20.1208 22.9863 20.3322 22.752 20.5757C22.4869 20.8511 22.272 21.2202 22.272 21.7071C22.2722 21.9289 22.3584 22.1421 22.5125 22.3016C22.6666 22.4612 22.8766 22.5549 23.0983 22.5629C23.32 22.5708 23.5361 22.4926 23.7013 22.3445C23.8665 22.1964 23.9678 21.9901 23.984 21.7688L23.9886 21.7631C24.0229 21.7288 24.08 21.6774 24.1749 21.6065C24.2697 21.5357 24.3852 21.4557 24.5326 21.3574C24.8869 21.1208 25.2183 20.8088 25.4297 20.394C25.6492 19.9631 25.7063 19.4842 25.6069 18.9882C25.5058 18.4996 25.264 18.0512 24.9113 17.6983C24.5585 17.3454 24.1103 17.1033 23.6217 17.002C22.0743 16.6934 20.6012 17.9025 20.6012 19.4797C20.6012 19.707 20.6915 19.925 20.8522 20.0858C21.0129 20.2465 21.231 20.3368 21.4583 20.3368C21.6856 20.3368 21.9036 20.2465 22.0644 20.0858C22.2251 19.925 22.3154 19.707 22.3154 19.4797ZM19.1726 19.4797C19.1724 19.9788 19.3356 20.4644 19.6374 20.862C19.9391 21.2597 20.3627 21.5477 20.8434 21.682V21.7071C20.8434 22.114 20.9497 22.4957 21.136 22.8271C20.6903 23.1734 20.1074 23.386 19.4549 23.386H12.8949C11.8206 23.386 10.928 22.8077 10.5429 22.0065C10.34 21.5947 10.2933 21.1233 10.4114 20.6797C10.5372 20.218 10.8434 19.8111 11.3063 19.5025C12.7482 18.5423 14.4425 18.0312 16.1749 18.034C17.2652 18.034 18.3097 18.2328 19.2732 18.5951C19.2061 18.8856 19.1724 19.1827 19.1726 19.4808V19.4797ZM23.1269 23.4202C23.3542 23.4202 23.5722 23.5106 23.733 23.6713C23.8937 23.832 23.984 24.0501 23.984 24.2774V24.5631C23.984 24.7904 23.8937 25.0084 23.733 25.1692C23.5722 25.3299 23.3542 25.4202 23.1269 25.4202C22.8995 25.4202 22.6815 25.3299 22.5208 25.1692C22.36 25.0084 22.2697 24.7904 22.2697 24.5631V24.2774C22.2697 24.0501 22.36 23.832 22.5208 23.6713C22.6815 23.5106 22.8995 23.4202 23.1269 23.4202Z" fill="#CD2127"/>
</g>
<defs>
<clipPath id="clip0_1585_16730">
<rect width="16" height="16" fill="white" transform="translate(10 10)"/>
</clipPath>
</defs>
</svg>
