<svg width="22" height="22" viewBox="0 0 22 22" fill="none" xmlns="http://www.w3.org/2000/svg">
<path d="M20.625 4.78516V6.85454H1.375V4.78516C1.375 3.65081 2.30311 2.72266 3.4375 2.72266H5.84375V4.75767C5.84375 5.13579 6.15313 5.44517 6.53125 5.44517C6.90937 5.44517 7.21875 5.13579 7.21875 4.75767V2.72266H14.7812V4.75767C14.7812 5.13579 15.0906 5.44517 15.4688 5.44517C15.8469 5.44517 16.1562 5.13579 16.1562 4.75767V2.72266H18.5625C19.6969 2.72266 20.625 3.65081 20.625 4.78516Z" fill="#9BA7AE"/>
<path d="M15.125 15.1113H20.2056L14.4375 20.2538V15.7988C14.4375 15.4207 14.7469 15.1113 15.125 15.1113Z" fill="#9BA7AE"/>
<path d="M20.625 8.22852V13.7354H15.125C13.9906 13.7354 13.0625 14.6635 13.0625 15.7979V20.6242H3.4375C2.30311 20.6242 1.375 19.696 1.375 18.5617V8.22852H20.625Z" fill="#9BA7AE"/>
<path d="M7.21875 2.0625V2.72247H5.84375V2.0625C5.84375 1.68438 6.15313 1.375 6.53125 1.375C6.90937 1.375 7.21875 1.68438 7.21875 2.0625Z" fill="#9BA7AE"/>
<path d="M16.1562 2.0625V2.72247H14.7812V2.0625C14.7812 1.68438 15.0906 1.375 15.4688 1.375C15.8469 1.375 16.1562 1.68438 16.1562 2.0625Z" fill="#9BA7AE"/>
</svg>
