<svg width="36" height="36" viewBox="0 0 36 36" fill="none" xmlns="http://www.w3.org/2000/svg">
<rect width="36" height="36" rx="18" fill="#BD3430" fill-opacity="0.16"/>
<g clip-path="url(#clip0_1585_16761)">
<path fill-rule="evenodd" clip-rule="evenodd" d="M11.5713 12.0718C11.5713 11.0445 12.4023 10.2148 13.4287 10.2148H22.5717C23.5967 10.2148 24.4287 11.0458 24.4287 12.0718V13.3575H24.857C25.0465 13.3575 25.2282 13.4328 25.3621 13.5667C25.4961 13.7007 25.5713 13.8824 25.5713 14.0718C25.5713 14.2613 25.4961 14.443 25.3621 14.577C25.2282 14.7109 25.0465 14.7862 24.857 14.7862H24.4283V16.8512H24.857C25.0465 16.8512 25.2282 16.9264 25.3621 17.0604C25.4961 17.1944 25.5713 17.3761 25.5713 17.5655C25.5713 17.755 25.4961 17.9367 25.3621 18.0706C25.2282 18.2046 25.0465 18.2798 24.857 18.2798H24.4283V20.0455C24.6753 20.1185 24.906 20.2455 25.0993 20.4215C25.5027 20.7885 25.6743 21.2902 25.7073 21.7758C25.7417 22.2605 25.6423 22.7688 25.4673 23.2295C25.2932 23.6948 25.0313 24.1223 24.696 24.4888C24.3703 24.8362 23.945 25.1312 23.447 25.2135C19.423 25.8765 16.599 26.0718 12.527 25.2088C12.048 25.1058 11.6357 24.8112 11.3157 24.4658C10.9835 24.1013 10.7215 23.6786 10.543 23.2188C10.207 22.3618 10.088 21.1595 10.8997 20.4212C11.094 20.2452 11.3237 20.1182 11.5717 20.0442V18.2808H11.143C10.9536 18.2808 10.7719 18.2056 10.6379 18.0716C10.5039 17.9377 10.4287 17.756 10.4287 17.5665C10.4287 17.3771 10.5039 17.1954 10.6379 17.0614C10.7719 16.9274 10.9536 16.8522 11.143 16.8522H11.5717V14.7848H11.143C10.9536 14.7848 10.7719 14.7096 10.6379 14.5756C10.5039 14.4417 10.4287 14.26 10.4287 14.0705C10.4287 13.8811 10.5039 13.6994 10.6379 13.5654C10.7719 13.4314 10.9536 13.3562 11.143 13.3562H11.5717L11.5713 12.0718ZM13 14.7862V16.8512H23V14.7848H13V14.7862ZM23 13.3575H13V12.0708C13 11.8342 13.192 11.6422 13.4287 11.6422H22.5717C22.8083 11.6422 23.0003 11.8342 23.0003 12.0708V13.3565L23 13.3575ZM13 19.9712V18.2798H23V19.9712H20.817C20.6919 19.9711 20.5703 20.0121 20.4708 20.0879C20.3712 20.1636 20.2993 20.2699 20.266 20.3905L20.1653 20.7585C20.0657 21.1204 19.8501 21.4396 19.5515 21.6671C19.253 21.8946 18.888 22.0178 18.5127 22.0178H17.4857C17.1103 22.0178 16.7454 21.8946 16.4468 21.6671C16.1483 21.4396 15.9326 21.1204 15.833 20.7585L15.7323 20.3905C15.6991 20.2699 15.6271 20.1636 15.5276 20.0879C15.4281 20.0121 15.3064 19.9711 15.1813 19.9712H12.9983H13Z" fill="#CD2127"/>
</g>
<defs>
<clipPath id="clip0_1585_16761">
<rect width="16" height="16" fill="white" transform="translate(10 10)"/>
</clipPath>
</defs>
</svg>
