<svg width="7" height="17" viewBox="0 0 7 17" fill="none" xmlns="http://www.w3.org/2000/svg">
<path d="M2.32754 16.9996C2.18539 16.7318 2.03387 16.4654 1.8736 16.202C1.79225 16.0683 1.70738 15.934 1.62317 15.8051C1.60331 15.7737 1.58287 15.7429 1.56301 15.7121C1.5461 15.7188 1.52918 15.7256 1.51226 15.7323L1.51751 15.7298C1.62193 15.6889 1.72803 15.6426 1.83524 15.5928C1.83874 15.591 1.84165 15.5897 1.84515 15.5879C1.89001 15.5667 1.93486 15.5448 1.98029 15.5224C1.99194 15.5164 2.00416 15.5103 2.01581 15.5042L2.01872 15.503C2.02512 15.4994 2.03211 15.4958 2.03852 15.4927L2.0391 15.4927C2.04726 15.4885 2.05599 15.4842 2.06413 15.4794L2.07811 15.4721C2.10605 15.4576 2.13341 15.4431 2.16017 15.428L2.1689 15.4232L2.1724 15.4214C2.22127 15.3942 2.27013 15.3658 2.3184 15.3375C2.32944 15.3303 2.34049 15.3236 2.35212 15.317C2.36491 15.3092 2.3777 15.3013 2.39048 15.2929C2.40211 15.2857 2.41373 15.2784 2.42536 15.2712L2.4271 15.27C2.4765 15.2387 2.52646 15.2062 2.57466 15.1732C2.61299 15.1474 2.65072 15.1203 2.68845 15.0933C2.75287 15.0465 2.81667 14.998 2.87927 14.9483C2.89609 14.9351 2.91232 14.922 2.92854 14.9088C2.93549 14.9028 2.94187 14.8974 2.9494 14.8914C2.95462 14.8872 2.96041 14.8824 2.96563 14.8783C2.97027 14.8747 2.9749 14.8705 2.97894 14.8663C2.98996 14.8579 3.00038 14.8484 3.01139 14.8394C3.02703 14.8262 3.04209 14.8131 3.05773 14.7999C3.08204 14.7784 3.10577 14.7569 3.13008 14.7354C3.16076 14.7079 3.192 14.6792 3.22207 14.6506L3.22554 14.647C3.27008 14.6052 3.31284 14.5629 3.35618 14.5193C3.36253 14.5128 3.36947 14.5056 3.37582 14.4991C3.40124 14.4734 3.42549 14.4478 3.45031 14.4216L3.46474 14.4061L3.47629 14.3936C3.49187 14.3769 3.50746 14.3603 3.52245 14.343C3.55937 14.3025 3.5957 14.2614 3.63085 14.2198C3.65219 14.1954 3.67294 14.171 3.69309 14.146C3.74493 14.0836 3.79558 14.02 3.84503 13.9546C3.85939 13.935 3.87377 13.916 3.88813 13.8964C3.89504 13.8875 3.90194 13.878 3.90883 13.8685C3.91171 13.8649 3.914 13.8614 3.91687 13.8572C3.93411 13.8341 3.95076 13.8103 3.968 13.7866C3.97144 13.7818 3.97488 13.7765 3.97832 13.7712C3.98521 13.7617 3.9921 13.7516 3.99957 13.7415C4.01105 13.7249 4.02251 13.7077 4.03399 13.6911C4.04603 13.6727 4.05807 13.6549 4.07069 13.6365C4.0793 13.624 4.08732 13.611 4.09592 13.5979C4.12801 13.5487 4.16009 13.4983 4.19099 13.4479C4.19442 13.442 4.19786 13.4367 4.2013 13.4313C4.20472 13.4248 4.20815 13.4195 4.21217 13.4135C4.22646 13.3893 4.24076 13.3656 4.25505 13.3413C4.28192 13.2956 4.30877 13.2489 4.33445 13.2021C4.33901 13.1938 4.34416 13.1855 4.34872 13.1766C4.35443 13.1665 4.36013 13.1559 4.36584 13.1452C4.37611 13.1269 4.3858 13.1085 4.39549 13.0902C4.40461 13.073 4.41372 13.0553 4.42284 13.0381C4.42969 13.0257 4.43595 13.0132 4.44221 13.0008C4.44962 12.9866 4.45645 12.973 4.46328 12.9594C4.4724 12.9422 4.48035 12.9251 4.48888 12.9079C4.53609 12.8121 4.58151 12.7145 4.62515 12.6158C4.63421 12.5945 4.64386 12.5733 4.65291 12.552L4.6529 12.5514L4.65348 12.5508C4.69878 12.4456 4.74112 12.3387 4.78109 12.2307C4.8115 12.1486 4.84072 12.066 4.86875 11.9822C4.8727 11.9721 4.87605 11.9615 4.87941 11.9509C4.89343 11.9096 4.90628 11.8683 4.91912 11.8264C4.92415 11.8105 4.92919 11.7952 4.93365 11.7798C4.93589 11.7733 4.93754 11.7663 4.93979 11.7598C4.95876 11.6973 4.97655 11.6342 4.99433 11.5705C4.99989 11.5505 5.00544 11.5304 5.01098 11.5098C5.02039 11.4733 5.02978 11.4361 5.03918 11.3996C5.0403 11.396 5.04083 11.3925 5.04195 11.389L5.04361 11.3825C5.04473 11.379 5.04526 11.3754 5.04637 11.3713C5.05797 11.3248 5.06897 11.2782 5.07997 11.2311C5.08052 11.2287 5.08106 11.2258 5.08161 11.2234C5.0871 11.1993 5.09259 11.1751 5.09749 11.151C5.20156 10.6774 5.26659 10.1851 5.29153 9.68111C5.29151 9.67994 5.2915 9.67935 5.29148 9.67818L5.29147 9.67759C5.30873 9.31986 5.30594 8.95599 5.28137 8.58836C5.28128 8.58249 5.28059 8.57604 5.28049 8.56958C5.27979 8.56255 5.27968 8.55551 5.27898 8.54848L5.27829 8.54203C5.27827 8.54086 5.27825 8.53969 5.27824 8.53852L5.27749 8.52854C5.27671 8.51623 5.27534 8.50392 5.27455 8.49102C5.27311 8.47402 5.27226 8.45702 5.27082 8.44002C5.27019 8.43768 5.27016 8.43534 5.27012 8.43299C5.2687 8.41716 5.26787 8.40192 5.26645 8.38609C5.26444 8.37027 5.26359 8.35385 5.26157 8.33745C5.24025 8.10124 5.2095 7.86342 5.17054 7.62572C5.16992 7.62339 5.16989 7.62163 5.16927 7.61929C5.15043 7.50396 5.12925 7.38924 5.10572 7.27398C5.10446 7.26813 5.10378 7.26227 5.10252 7.25701C5.09743 7.23185 5.09234 7.20669 5.08666 7.18154C5.08347 7.16574 5.0797 7.14937 5.0765 7.13299L5.07397 7.12129C5.07335 7.11895 5.07273 7.11719 5.07211 7.11485C5.05566 7.0394 5.03862 6.96337 5.01982 6.88794L5.0198 6.88676L5.01729 6.87625C5.00788 6.83765 4.99787 6.79848 4.98787 6.7599C4.97224 6.6991 4.95661 6.63889 4.93981 6.57812C4.93608 6.56467 4.93175 6.55066 4.92802 6.53721C4.91745 6.49981 4.90687 6.46182 4.89573 6.42502C4.89261 6.41333 4.88891 6.40166 4.8858 6.39055C4.87217 6.34557 4.85855 6.30058 4.84493 6.2556C4.83566 6.2264 4.8264 6.19721 4.81715 6.16859L4.81714 6.16799C4.8122 6.15281 4.80728 6.13822 4.80235 6.12304C4.79308 6.09383 4.78323 6.06464 4.77338 6.03545C4.76538 6.0121 4.75738 5.98874 4.74938 5.96539C4.73709 5.93037 4.72539 5.89533 4.71251 5.86032C4.707 5.84573 4.70208 5.83114 4.69655 5.81596C4.67078 5.74476 4.64384 5.67416 4.61691 5.60356C4.60773 5.58023 4.59856 5.55689 4.58939 5.53356C4.56982 5.48339 4.54906 5.43265 4.52832 5.3825C4.49723 5.30903 4.46613 5.23557 4.43387 5.16212C4.4211 5.13415 4.40892 5.10617 4.39556 5.07761C4.38401 5.05197 4.37185 5.02574 4.36029 5.0001C4.34874 4.97446 4.3366 4.94941 4.32506 4.92435C4.32143 4.91736 4.31779 4.90979 4.31415 4.90221C4.31109 4.89463 4.30746 4.88765 4.30382 4.88008C4.3014 4.87542 4.29897 4.87076 4.29655 4.8661C4.2401 4.74725 4.18013 4.62904 4.11842 4.51203C4.11539 4.50621 4.11237 4.50098 4.10935 4.49516C4.06156 4.40494 4.01141 4.31416 3.9607 4.22515C3.9583 4.22167 3.95648 4.21817 3.95467 4.21468C3.68186 3.73825 3.39822 3.28137 3.10494 2.84694C3.09894 2.83823 3.09293 2.82952 3.08692 2.82081C2.86578 2.49443 2.63899 2.18162 2.40713 1.8824L2.77016 -0.000404857C3.65132 0.977685 4.48025 2.14266 5.24317 3.47713C6.02418 4.84184 6.51522 6.31794 6.70447 7.86278C6.88312 9.33029 6.76966 10.8106 6.37507 12.1434C5.74695 14.264 4.44828 15.922 2.71845 16.8127C2.58803 16.8799 2.45812 16.9424 2.32754 16.9996ZM0.0256986 16.0433C0.0174832 16.0434 0.00867868 16.0436 -0.00012352 16.0437L0.0104437 16.0435L0.0110282 16.0435C0.0163095 16.0434 0.0210018 16.0434 0.0262831 16.0433C0.0573842 16.0428 0.0884759 16.0417 0.120155 16.0406L0.120745 16.0406C0.127787 16.0405 0.134229 16.0398 0.140684 16.0397L0.144208 16.0397C0.10491 16.0414 0.065015 16.0427 0.0256986 16.0433ZM0.145967 16.0396C0.150075 16.0396 0.154171 16.0389 0.158279 16.0388C0.193469 16.0371 0.22865 16.0348 0.263822 16.0319L0.265587 16.0319C0.225721 16.0349 0.185852 16.0378 0.145967 16.0396ZM0.289617 16.0297C0.29079 16.0297 0.292552 16.0297 0.293725 16.0297C0.298997 16.029 0.303681 16.0283 0.308962 16.0283C0.310135 16.0282 0.311886 16.0276 0.313646 16.0276C0.396285 16.0198 0.480053 16.0091 0.563782 15.9961C0.565543 15.996 0.566708 15.9954 0.567882 15.9954C0.569055 15.9954 0.570227 15.9954 0.571391 15.9948C0.476549 16.0104 0.382818 16.0218 0.289617 16.0297ZM0.603592 15.9896C0.60593 15.9889 0.608278 15.9889 0.610616 15.9883C0.62525 15.9857 0.640471 15.9831 0.655691 15.9805C0.657443 15.9799 0.659787 15.9799 0.662125 15.9793C0.642816 15.9831 0.622911 15.9863 0.603592 15.9896ZM0.686708 15.9748C0.689046 15.9741 0.691973 15.9735 0.694898 15.9729C0.711869 15.9697 0.72884 15.9665 0.746389 15.9627C0.752825 15.9614 0.759261 15.9601 0.765697 15.9589C0.799621 15.9513 0.833546 15.9437 0.868057 15.9361C0.869808 15.9355 0.872146 15.9349 0.873897 15.9343C0.81133 15.9493 0.748735 15.9626 0.686708 15.9748ZM0.899046 15.9286C0.901971 15.9279 0.904313 15.9273 0.906651 15.9267C0.920093 15.923 0.93354 15.9198 0.946981 15.9161C0.954582 15.9142 0.962185 15.9123 0.969786 15.9104C0.970373 15.9104 0.970961 15.9104 0.970961 15.9104C0.946994 15.9167 0.923013 15.9223 0.899046 15.9286ZM0.997841 15.903C0.998428 15.9029 0.999594 15.9023 1.00018 15.9023C1.00369 15.9017 1.00719 15.9005 1.01128 15.8992C1.04752 15.8893 1.08433 15.8787 1.12113 15.8676C1.1223 15.8675 1.12289 15.8675 1.12405 15.8669L1.12464 15.8669C1.15443 15.8576 1.18481 15.8484 1.21459 15.8385C1.21867 15.8373 1.22277 15.836 1.22686 15.8348C1.14978 15.8601 1.07382 15.8824 0.997841 15.903ZM1.26832 15.8212L1.2724 15.8194C1.32086 15.8034 1.36931 15.7862 1.41832 15.7678L1.41891 15.7678C1.42766 15.7647 1.437 15.761 1.44576 15.758C1.38624 15.7806 1.32729 15.8015 1.26832 15.8212ZM1.47668 15.7463C1.47901 15.7451 1.48135 15.7445 1.48368 15.7433L1.49009 15.7408L1.49184 15.7402C1.49476 15.739 1.49768 15.7378 1.50059 15.7366L1.50235 15.736C1.4936 15.7396 1.48543 15.7427 1.47668 15.7463Z" fill="#5299BB"/>
</svg>
