<svg width="6" height="10" viewBox="0 0 6 10" fill="none" xmlns="http://www.w3.org/2000/svg">
<path d="M0 10L0.287875 8.50586C0.432552 8.48229 0.578224 8.44891 0.72546 8.40515C0.755257 8.39662 0.785611 8.38694 0.815389 8.37726C0.854896 8.36397 0.894397 8.35068 0.933885 8.33625C0.953342 8.32904 0.972235 8.32241 0.991682 8.31462C0.99741 8.3128 1.00255 8.31042 1.00828 8.3086C1.02658 8.30141 1.04604 8.2942 1.06434 8.28643C1.08893 8.27626 1.11409 8.26607 1.13868 8.25532C1.15469 8.24874 1.17012 8.2416 1.18613 8.23501C1.20157 8.22844 1.21699 8.22129 1.23242 8.21414C1.25357 8.2046 1.27471 8.19448 1.29584 8.18436C1.30727 8.179 1.3187 8.17363 1.32955 8.16828C1.34326 8.16174 1.35639 8.1552 1.36953 8.14867C1.44377 8.11124 1.51798 8.07207 1.59271 8.02945C1.59328 8.02887 1.59442 8.02828 1.59556 8.02769C1.60698 8.02175 1.61781 8.01524 1.62864 8.00874C1.63149 8.00697 1.63435 8.00521 1.6372 8.00343C1.67256 7.98331 1.70792 7.9626 1.74326 7.94017C1.85157 7.87342 1.96094 7.80091 2.07078 7.72205L2.07135 7.72147L2.08729 7.71028C2.10949 7.69439 2.13168 7.67793 2.15387 7.66146C2.17322 7.64734 2.19198 7.63266 2.21132 7.61796C2.34954 7.51333 2.48074 7.4019 2.6061 7.28481C2.64525 7.24851 2.68323 7.21165 2.72063 7.17422L2.72743 7.16721C2.73367 7.16136 2.73933 7.15551 2.74556 7.14908C2.77049 7.12394 2.79599 7.09821 2.82032 7.07192C2.82485 7.06725 2.82938 7.062 2.83448 7.05731C2.83901 7.05264 2.84297 7.04798 2.8475 7.0433C2.8526 7.03804 2.85712 7.03278 2.86164 7.02753C2.89053 6.99772 2.91767 6.96679 2.94481 6.93586C2.95273 6.9271 2.96065 6.91834 2.968 6.90959C2.9991 6.87457 3.02905 6.83898 3.05842 6.80341C3.06519 6.79467 3.07196 6.78651 3.07931 6.77776C3.1019 6.75035 3.12392 6.72295 3.14592 6.6944C3.16003 6.67633 3.17413 6.65827 3.18823 6.63963C3.21361 6.60642 3.23898 6.57322 3.26261 6.53889C3.27163 6.52666 3.28065 6.51443 3.28966 6.50162C3.3167 6.46436 3.34257 6.42596 3.36846 6.38814C3.39827 6.3445 3.4275 6.29972 3.45557 6.25496C3.45839 6.25089 3.46119 6.24623 3.464 6.24158C3.48814 6.20321 3.51171 6.16486 3.5347 6.12594C3.54312 6.11257 3.55096 6.09863 3.55881 6.08527C3.58403 6.04228 3.60867 5.99872 3.63273 5.9546C3.65178 5.92149 3.66966 5.88725 3.68697 5.85359C3.70262 5.82399 3.7177 5.79439 3.73276 5.76423C3.74839 5.7329 3.76401 5.70157 3.77904 5.6691C3.78071 5.66562 3.78238 5.66215 3.78405 5.65867C3.78684 5.65287 3.78963 5.64707 3.79241 5.64127C3.81023 5.603 3.82804 5.56473 3.84528 5.52589C3.85196 5.51197 3.85807 5.49748 3.86418 5.48357C3.8775 5.45228 3.89083 5.42099 3.90415 5.3897C3.91245 5.36885 3.92133 5.34799 3.92964 5.32713C3.93851 5.3057 3.94681 5.28427 3.9551 5.26227C3.96672 5.23273 3.97833 5.20262 3.98937 5.17252C3.99322 5.16152 3.99765 5.15051 4.00151 5.13951L4.00262 5.13662C4.00317 5.13488 4.00371 5.13315 4.00426 5.13142C4.01475 5.10305 4.02524 5.07467 4.03458 5.04632C4.04724 5.00986 4.05932 4.97284 4.0714 4.93581C4.07911 4.91324 4.08623 4.89068 4.09336 4.86812C4.095 4.86234 4.0972 4.85597 4.09884 4.85019C4.10321 4.83573 4.10759 4.82127 4.11197 4.80681C4.11908 4.7831 4.12618 4.7594 4.13329 4.73511C4.13491 4.72875 4.1371 4.72181 4.13873 4.71545L4.13929 4.71429C4.13982 4.7114 4.14092 4.7085 4.14145 4.70562C4.15347 4.66456 4.16433 4.62295 4.17576 4.58133C4.17575 4.58075 4.17575 4.58076 4.17574 4.58018C4.18009 4.564 4.18444 4.54724 4.18821 4.53106L4.19636 4.50042C4.20554 4.46171 4.21471 4.42301 4.22388 4.38372C4.2255 4.37679 4.22711 4.36986 4.22816 4.36351C4.23569 4.33001 4.24266 4.2971 4.24962 4.26418C4.25283 4.24859 4.25605 4.23357 4.25926 4.21855C4.2662 4.18391 4.27256 4.1487 4.27892 4.11406C4.28053 4.10656 4.28157 4.09963 4.28318 4.09269C4.28317 4.09154 4.28373 4.09039 4.28371 4.08923C4.28637 4.07538 4.28846 4.06211 4.29112 4.04825C4.29164 4.04479 4.29217 4.0419 4.2927 4.03844C4.29587 4.02054 4.29903 4.00266 4.30163 3.98477C4.30424 3.96747 4.30742 3.95015 4.31003 3.93284C4.31156 3.92073 4.31367 3.9086 4.31521 3.89649C4.31731 3.8838 4.31941 3.8711 4.32095 3.85899L4.32199 3.85207C4.32302 3.84399 4.32405 3.8365 4.32507 3.82842C4.32974 3.79612 4.33384 3.76382 4.33794 3.73152C4.34102 3.70787 4.34353 3.68481 4.34661 3.66117L4.34659 3.65943C4.35218 3.61272 4.35663 3.56603 4.36107 3.51876L4.36102 3.51588C4.36154 3.51242 4.36205 3.50839 4.36257 3.50435C4.36301 3.49571 4.36401 3.48648 4.36445 3.47784C4.36595 3.46343 4.36688 3.44903 4.36838 3.43461C4.37173 3.39197 4.3751 3.3499 4.3773 3.30727L4.37776 3.2992C4.38096 3.24677 4.38359 3.19435 4.38563 3.14137C4.38597 3.1264 4.3863 3.11085 4.38663 3.0953C4.38758 3.08263 4.38795 3.06939 4.38774 3.05615C4.38851 3.03197 4.38928 3.00777 4.38948 2.98359L4.38946 2.98245C4.38981 2.96805 4.38957 2.95309 4.38991 2.93812C4.38981 2.93179 4.3903 2.92602 4.3902 2.91969L4.39006 2.91049C4.39013 2.87826 4.3902 2.8466 4.38969 2.81438C4.38955 2.80517 4.38941 2.79653 4.38927 2.7879C4.38882 2.75913 4.38838 2.73094 4.38793 2.70274C4.38685 2.67052 4.38635 2.63887 4.3847 2.60666C4.38371 2.58077 4.38272 2.55432 4.38116 2.52844C4.38034 2.51234 4.3795 2.49623 4.37867 2.48013C4.37619 2.43182 4.37255 2.38353 4.3689 2.33466C4.3653 2.28867 4.36169 2.24211 4.35694 2.19614C4.35622 2.18694 4.35551 2.17831 4.35421 2.16912C4.3515 2.14326 4.3488 2.11798 4.34609 2.09212C4.34479 2.08235 4.34348 2.07259 4.34275 2.06282C4.34146 2.05363 4.34016 2.04445 4.33944 2.03525C4.33881 2.03181 4.33876 2.02892 4.33813 2.02548C4.33549 2.00365 4.33283 1.98124 4.32961 1.95942C4.32831 1.94966 4.32701 1.93989 4.3257 1.93013C4.32565 1.92668 4.32501 1.92266 4.32437 1.91864C4.32435 1.91749 4.32376 1.91692 4.32374 1.91577C4.31979 1.88418 4.31527 1.85259 4.31017 1.82101C4.30883 1.80952 4.30692 1.79747 4.30501 1.78599C4.29797 1.74063 4.29035 1.69585 4.28274 1.65107C4.28213 1.64878 4.28209 1.64647 4.28148 1.64418L4.27958 1.6327C4.27895 1.62983 4.27833 1.62696 4.27771 1.62409C4.27645 1.61721 4.2752 1.6109 4.27453 1.60458C4.49566 1.50153 4.71714 1.38407 4.9384 1.25281C5.16651 1.11798 5.38465 0.97123 5.5934 0.813112C5.95362 2.27 5.9306 3.76918 5.52764 5.15521C5.09518 6.64242 4.25381 7.89432 3.09294 8.77712C2.09473 9.53591 1.05937 9.94534 0 10ZM3.9196 0.155087C4.01094 0.107027 4.10336 0.0549251 4.19631 -6.80369e-05C4.10337 0.0555004 4.01094 0.107027 3.9196 0.155087Z" fill="#5299BB"/>
</svg>
