<svg width="22" height="22" viewBox="0 0 22 22" fill="none" xmlns="http://www.w3.org/2000/svg">
<path d="M8.03329 2.34329C5.20999 3.00554 3.00555 5.20999 2.34329 8.03328C1.88557 9.98461 1.88557 12.0154 2.34329 13.9667C3.00555 16.79 5.21 18.9945 8.03329 19.6567C9.98461 20.1144 12.0154 20.1144 13.9667 19.6567C16.79 18.9945 18.9945 16.79 19.6567 13.9667C20.1144 12.0154 20.1144 9.98461 19.6567 8.03329C18.9945 5.21 16.79 3.00554 13.9667 2.34329C12.0154 1.88557 9.98461 1.88557 8.03329 2.34329Z" fill="#CD2127" stroke="#CD2127" stroke-width="1.5"/>
<path d="M9.3333 10.355C9.51964 9.88913 9.88877 9.52001 10.3546 9.33366L12.2225 8.5865C12.9708 8.28719 13.7134 9.02976 13.4141 9.77805L12.6669 11.646C12.4806 12.1118 12.1114 12.4809 11.6456 12.6673L9.77768 13.4144C9.0294 13.7138 8.28682 12.9712 8.58614 12.2229L9.3333 10.355Z" fill="#CD2127" stroke="white" stroke-width="1.5" stroke-linecap="round" stroke-linejoin="round"/>
</svg>
