<svg width="4" height="14" viewBox="0 0 4 14" fill="none" xmlns="http://www.w3.org/2000/svg">
<path d="M-9.82959e-05 13.9045C0.0108308 13.6248 0.0264112 13.3409 0.0454546 13.0523L0.0454454 13.0517C0.133587 11.7583 0.310604 10.3798 0.583715 8.96207C0.310613 10.3804 0.133615 11.7601 0.0454731 13.0535C0.0258309 13.3415 0.0108401 13.6254 -9.82959e-05 13.9045ZM0.600092 8.87867C0.601731 8.87039 0.603363 8.86152 0.605002 8.85324C0.603372 8.86211 0.601731 8.87039 0.600092 8.87867ZM0.610461 8.82543C0.833441 7.70684 1.13598 6.62239 1.48248 5.59679C1.48248 5.59679 1.48306 5.59619 1.48305 5.5956C1.48304 5.59501 1.48362 5.59442 1.48361 5.59383C1.13594 6.62062 0.833422 7.70567 0.610461 8.82543ZM1.5304 5.45688C1.53153 5.45332 1.53266 5.45035 1.5332 5.44739C1.53207 5.45036 1.53153 5.45332 1.5304 5.45688ZM1.55521 5.38454C1.5552 5.38395 1.55577 5.38276 1.55576 5.38217C1.55577 5.38276 1.55578 5.38335 1.55521 5.38454ZM2.71642 2.50869C2.71814 2.50572 2.71985 2.50216 2.72097 2.4986C2.71926 2.50217 2.71814 2.50572 2.71642 2.50869ZM2.72668 2.48672C2.7284 2.48374 2.72953 2.48018 2.73124 2.47661C2.72953 2.48018 2.72839 2.48315 2.72668 2.48672ZM2.74037 2.45702C3.16865 1.53156 3.60257 0.702716 3.99957 5.95614e-05L4.00017 5.01366e-05C3.60258 0.702716 3.16865 1.53156 2.74037 2.45702Z" fill="#9E7855"/>
</svg>
