<svg width="3" height="2" viewBox="0 0 3 2" fill="none" xmlns="http://www.w3.org/2000/svg">
<path d="M2.29934 1.99953C1.96278 2.00483 1.62333 1.97418 1.28274 1.90815C1.17387 1.88723 1.06378 1.86226 0.954795 1.83379C0.638334 1.75171 0.320801 1.63831 -0.00013713 1.49303L0.28746 -0.000278511C0.28747 0.0003019 0.28747 0.000299487 0.28747 0.000299487C0.300345 0.00706202 0.313219 0.0138222 0.326094 0.0205845C0.326675 0.0205753 0.327256 0.020564 0.327265 0.0211442C0.3454 0.0301455 0.362965 0.0397385 0.3811 0.0487397C0.400413 0.0588834 0.420298 0.0684329 0.439602 0.0779963C0.441942 0.0791202 0.444869 0.0808223 0.447209 0.0819462C0.472951 0.0948908 0.498095 0.106684 0.523239 0.118477L0.524409 0.119037C0.530838 0.121837 0.537275 0.125216 0.543704 0.128017C0.578794 0.144878 0.61446 0.161146 0.649523 0.176266C0.650692 0.176828 0.65186 0.177394 0.65303 0.177956C0.662378 0.181872 0.671734 0.186364 0.681083 0.190279L0.697439 0.196994L0.698032 0.197563C0.705621 0.200345 0.713216 0.203704 0.720815 0.207067C0.738351 0.214917 0.756462 0.222179 0.77398 0.228869C0.774569 0.22944 0.775148 0.229437 0.775738 0.230009C0.797354 0.238955 0.818383 0.247328 0.83941 0.255703C0.857518 0.262964 0.875613 0.269639 0.894291 0.276311C0.90363 0.279646 0.913559 0.283553 0.923488 0.287459C0.976613 0.306938 1.02914 0.325267 1.08223 0.342425C1.09273 0.345742 1.10323 0.349064 1.11373 0.352381C1.14407 0.362351 1.17439 0.371158 1.20472 0.380548C1.2053 0.380539 1.2053 0.380539 1.20588 0.38053C1.21521 0.383285 1.22396 0.386049 1.23329 0.388805C1.23854 0.390463 1.24378 0.391535 1.24903 0.393193C1.26243 0.396465 1.27584 0.400317 1.28983 0.404159C1.29508 0.405818 1.30032 0.406901 1.30615 0.40855C1.41106 0.43592 1.5159 0.459233 1.62183 0.47788C1.63871 0.481097 1.65502 0.48432 1.67188 0.486377L1.67246 0.486367C1.7004 0.491152 1.72774 0.495367 1.75566 0.49899C1.75973 0.499507 1.76322 0.500025 1.76729 0.500541C1.77078 0.501067 1.77428 0.501599 1.77776 0.501544C1.8493 0.510866 1.92081 0.51844 1.99286 0.52311C1.99751 0.523617 2.00215 0.524131 2.0068 0.524058C2.09569 0.529624 2.18511 0.531692 2.27447 0.530285C2.35571 0.529007 2.4369 0.524826 2.51863 0.517736C2.52443 0.517644 2.52907 0.516996 2.53486 0.516324C2.53544 0.516315 2.5366 0.516297 2.53718 0.516287C2.61252 0.508717 2.68841 0.499396 2.76424 0.486594L2.47395 1.99329L2.47337 1.9933C2.41538 1.99653 2.35737 1.99862 2.29934 1.99953Z" fill="#262424"/>
</svg>
