<svg width="2" height="6" viewBox="0 0 2 6" fill="none" xmlns="http://www.w3.org/2000/svg">
<path d="M2 -0.000806006C2 -0.000806006 1.69336 0.390945 1.41334 0.413326C1.13032 0.437998 0.899812 0.305119 0.708077 0.286263C0.694331 0.56382 0.623666 3.14413 0.387522 3.58646C0.155079 4.02897 0.0835314 4.02897 0 4.05328C0.0974533 4.19761 0.198604 4.22757 0.26927 4.30441C0.342757 4.38336 0.378535 4.47922 0.365494 4.62866C0.354744 4.77863 0.378534 5.21444 0.378534 5.31683C0.378534 5.4201 0.401268 5.61465 0.401268 5.61465C0.401268 5.61465 0.700145 4.80348 0.816455 4.35904C0.928535 3.91618 1.57511 1.66453 2 -0.000806006Z" fill="#111010"/>
</svg>
