<svg width="24" height="24" viewBox="0 0 24 24" fill="none" xmlns="http://www.w3.org/2000/svg">
<path fill-rule="evenodd" clip-rule="evenodd" d="M4.40066 5.05132C4.809 3.82627 5.95541 3 7.24673 3H16.7533C18.0446 3 19.191 3.82627 19.5993 5.05132L20.7052 8.36891L21.2243 8.06921C21.583 7.86214 22.0417 7.98502 22.2488 8.34375C22.4559 8.70248 22.333 9.16117 21.9743 9.36829L21.1894 9.82144L21.3229 10.2221C22.4725 10.8628 23.25 12.0906 23.25 13.5V18C23.25 19.6569 21.9069 21 20.25 21C18.7201 21 17.4578 19.8549 17.2732 18.375H6.72679C6.54225 19.8549 5.27985 21 3.75 21C2.09314 21 0.75 19.6569 0.75 18V13.5C0.75 12.0906 1.52753 10.8628 2.67706 10.2221L2.79846 9.85792L1.95038 9.36829C1.59165 9.16117 1.46875 8.70248 1.67586 8.34375C1.88296 7.98502 2.34165 7.86214 2.70038 8.06921L3.28263 8.4054L4.40066 5.05132ZM19.5844 9.75L18.1763 5.52566C17.9721 4.91314 17.399 4.5 16.7533 4.5H7.24673C6.60105 4.5 6.02786 4.91314 5.82368 5.52566L4.41559 9.75H19.5844ZM7.875 13.125C7.875 13.5392 7.53923 13.875 7.125 13.875H5.625C5.21077 13.875 4.875 13.5392 4.875 13.125C4.875 12.7108 5.21077 12.375 5.625 12.375H7.125C7.53923 12.375 7.875 12.7108 7.875 13.125ZM18.375 13.875C18.7892 13.875 19.125 13.5392 19.125 13.125C19.125 12.7108 18.7892 12.375 18.375 12.375H16.875C16.4608 12.375 16.125 12.7108 16.125 13.125C16.125 13.5392 16.4608 13.875 16.875 13.875H18.375Z" fill="#9BA7AE"/>
</svg>
