<svg width="7" height="8" viewBox="0 0 7 8" fill="none" xmlns="http://www.w3.org/2000/svg">
<path d="M3.37455 8.00027C2.83002 8.00884 2.3499 7.52555 1.5834 6.80725C0.951958 6.21635 0.17751 4.80566 0.163428 4.77513C-0.179559 4.02474 0.0825477 3.16844 0.357716 2.39058C0.561581 1.81668 0.800481 1.13933 1.25733 0.632421C1.31371 0.570029 1.37313 0.512915 1.435 0.460491C1.88204 0.983925 2.32917 1.47483 2.78384 1.9189C3.49315 2.61089 4.17272 3.14072 4.84878 3.52335C5.34882 3.80644 5.84699 4.00913 6.35465 4.13775C6.15964 5.23666 5.2119 6.75487 4.44978 7.44223C4.02529 7.82621 3.68909 7.99532 3.37455 8.00027ZM6.0091 2.43527C6.00909 2.43468 6.00909 2.43468 6.0085 2.43469C6.0085 2.43469 6.00909 2.43468 6.0091 2.43527ZM5.85776 2.36373C5.85538 2.36258 5.85299 2.36144 5.85061 2.36029C5.85299 2.36144 5.85597 2.36257 5.85776 2.36373ZM5.66755 2.26501C5.6592 2.26041 5.65026 2.25582 5.64191 2.25122C5.65026 2.25582 5.65861 2.26042 5.66755 2.26501ZM5.33389 2.06919C5.3315 2.06804 5.3297 2.06629 5.32732 2.06515C5.32911 2.0663 5.3315 2.06804 5.33389 2.06919ZM5.12953 1.9352C4.41396 1.44733 3.71981 0.77994 3.01975 -0.000312115C3.7198 0.779349 4.41396 1.44733 5.12953 1.9352Z" fill="#FCD9B9"/>
</svg>
