<svg width="26" height="28" viewBox="0 0 26 28" fill="none" xmlns="http://www.w3.org/2000/svg">
<path d="M22.017 0H2.92261C1.31108 0 0 1.31108 0 2.92261V22.017C0 23.6285 1.31108 24.9396 2.92261 24.9396H22.017C23.6285 24.9396 24.9396 23.6285 24.9396 22.017V2.92261C24.9396 1.31108 23.6285 0 22.017 0ZM2.92261 1.94841H22.017C22.5542 1.94841 22.9912 2.38544 22.9912 2.92261V17.2295L19.6754 13.9137C18.5358 12.7742 16.6817 12.7742 15.5421 13.9137L14.4669 14.9889L11.4433 11.9653C10.3038 10.8257 8.44966 10.8257 7.31009 11.9653L1.94841 17.327V2.92261C1.94841 2.38544 2.38544 1.94841 2.92261 1.94841ZM22.017 22.9912H2.92261C2.38544 22.9912 1.94841 22.5542 1.94841 22.017V20.0825L8.68781 13.343C9.06775 12.9632 9.68568 12.9632 10.0655 13.343L14.4669 17.7444L16.9199 15.2914C17.2997 14.9116 17.9178 14.9116 18.2976 15.2914L22.9912 19.9851V22.017C22.9912 22.5542 22.5542 22.9912 22.017 22.9912ZM15.7821 9.74204C17.3936 9.74204 18.7047 8.43096 18.7047 6.81943C18.7047 5.2079 17.3936 3.89682 15.7821 3.89682C14.1706 3.89682 12.8595 5.2079 12.8595 6.81943C12.8595 8.43096 14.1706 9.74204 15.7821 9.74204ZM15.7821 5.84523C16.3193 5.84523 16.7563 6.28225 16.7563 6.81943C16.7563 7.35661 16.3193 7.79363 15.7821 7.79363C15.2449 7.79363 14.8079 7.35661 14.8079 6.81943C14.8079 6.28225 15.2449 5.84523 15.7821 5.84523Z" fill="#2679C6"/>
<path d="M9.35254 11.846L1.66282 18.9122V23.2767L23.6928 23.6923V18.9122L17.8736 14.1321L14.3405 16.2104L9.35254 11.846Z" fill="#2679C6"/>
</svg>
