<svg width="4" height="3" viewBox="0 0 4 3" fill="none" xmlns="http://www.w3.org/2000/svg">
<path d="M3.95682 2.85807C3.72806 2.66701 3.4843 2.37456 3.36278 2.20437C3.24127 2.02795 3.27604 2.07663 3.14611 2.09493C3.01434 2.1103 3.11316 2.19595 2.41408 2.02466C1.71683 1.85666 0.607092 1.58434 0.376505 1.51846C0.14116 1.45551 0.0361154 1.50199 0.0112266 0.950046C-0.0176882 0.396272 0.0112266 -0.0385442 0.0752785 0.00354704C0.143357 0.0467364 0.269251 0.502421 0.382349 0.763752C0.498008 1.02033 1.03642 1.53823 1.21173 1.57703C1.38486 1.61948 2.7025 1.88045 2.82438 1.88447C2.95029 1.88447 3.37302 1.73697 3.37302 1.73697C3.37302 1.73697 3.60801 2.37456 4.00001 2.70653L3.95682 2.85807Z" fill="#861818"/>
</svg>
