<svg width="74" height="117" viewBox="0 0 74 117" fill="none" xmlns="http://www.w3.org/2000/svg">
<path d="M68.4243 27.7557L67.9706 30.1113L66.9247 35.5352L66.9247 35.5357L65.6657 42.07L65.0041 45.5008L62.5989 57.9794L62.5984 57.9805L62.2994 59.534L61.5872 63.2285L61.456 63.9087L61.456 63.9092L61.4549 63.9121L61.455 63.9133L60.0498 71.2034L60.0493 71.2075L59.6618 73.219L59.2353 75.4301L58.9591 76.8621L58.9592 76.8632L58.3584 79.98L55.6078 94.2497L52.2895 111.467C52.2762 111.538 52.2605 111.608 52.242 111.677C52.2252 111.746 52.2061 111.814 52.1841 111.881C52.1742 111.914 52.1627 111.947 52.1511 111.98C52.1401 112.013 52.1279 112.046 52.1157 112.078L52.1151 112.079C52.0659 112.209 52.0096 112.334 51.9464 112.456L51.9458 112.456C51.9329 112.482 51.9195 112.506 51.906 112.531C51.8965 112.547 51.8875 112.563 51.8785 112.579C51.8645 112.605 51.8494 112.63 51.8348 112.655C51.8213 112.677 51.8072 112.7 51.7931 112.722C51.7751 112.75 51.7566 112.779 51.738 112.807C51.6811 112.891 51.6207 112.973 51.5579 113.052C51.4946 113.13 51.4283 113.205 51.3597 113.279C51.3364 113.303 51.3131 113.327 51.2893 113.351L51.2887 113.351C51.2416 113.398 51.1933 113.443 51.1433 113.488C51.1154 113.513 51.087 113.538 51.0579 113.562C51.0221 113.592 50.9857 113.622 50.948 113.65C50.9293 113.665 50.9099 113.68 50.8899 113.694C50.8819 113.7 50.874 113.707 50.8654 113.712C50.8483 113.725 50.8312 113.737 50.8135 113.75C50.793 113.764 50.7719 113.779 50.7508 113.793C50.7126 113.819 50.6737 113.844 50.6343 113.868C50.6178 113.878 50.6006 113.889 50.5835 113.899C50.5772 113.903 50.5709 113.906 50.5641 113.91C50.5407 113.924 50.5167 113.938 50.4921 113.951C50.4629 113.968 50.4332 113.984 50.4035 113.999C50.3686 114.017 50.3337 114.035 50.2988 114.052C50.2713 114.065 50.2444 114.077 50.2169 114.089C50.1854 114.104 50.1534 114.118 50.1213 114.131C50.0571 114.158 49.9924 114.183 49.9264 114.206C49.9017 114.214 49.8771 114.223 49.8518 114.231C49.8364 114.236 49.8209 114.242 49.8048 114.246C49.7417 114.266 49.6774 114.284 49.6125 114.3C49.5832 114.308 49.5533 114.316 49.5235 114.322C49.489 114.33 49.4545 114.337 49.42 114.344C49.3855 114.35 49.3505 114.357 49.316 114.363C49.2855 114.368 49.2556 114.372 49.2251 114.376C49.2193 114.377 49.2136 114.378 49.2072 114.379C49.1739 114.383 49.1399 114.387 49.1059 114.391C49.0737 114.394 49.0415 114.397 49.0086 114.4C49.0011 114.4 48.9937 114.401 48.9856 114.401C48.9551 114.403 48.924 114.406 48.8928 114.407C48.8577 114.408 48.822 114.409 48.7862 114.41C48.7246 114.411 48.6623 114.411 48.6 114.408C48.5382 114.406 48.4765 114.402 48.4147 114.397C48.3835 114.394 48.3517 114.391 48.3205 114.387C48.2951 114.384 48.2703 114.381 48.2449 114.378C48.2229 114.375 48.2015 114.372 48.1796 114.368C48.1328 114.362 48.0853 114.353 48.0385 114.344L11.3263 107.268L5.52829 106.151C5.48781 106.143 5.44789 106.135 5.40854 106.126C5.38076 106.119 5.35356 106.113 5.32577 106.106L5.32056 106.104C5.28815 106.096 5.25515 106.088 5.22271 106.078C5.18912 106.069 5.1561 106.059 5.12364 106.049C5.09061 106.038 5.05816 106.028 5.02569 106.016C4.99323 106.005 4.96133 105.994 4.92942 105.981C4.90274 105.972 4.87664 105.962 4.8511 105.951C4.81396 105.936 4.77739 105.92 4.74081 105.904C4.7083 105.89 4.67635 105.875 4.64497 105.86C4.60546 105.841 4.56711 105.822 4.52816 105.802C4.48979 105.781 4.45198 105.761 4.41475 105.739L4.41417 105.739C4.37692 105.717 4.33967 105.696 4.30357 105.673C4.26689 105.651 4.23077 105.627 4.19522 105.603C4.05304 105.508 3.91819 105.403 3.79186 105.29C3.75385 105.256 3.71698 105.221 3.68067 105.186L3.62619 105.131C3.59102 105.095 3.55642 105.058 3.5224 105.021L3.52181 105.021C3.49657 104.992 3.47132 104.964 3.44723 104.935C3.42255 104.906 3.39846 104.877 3.37493 104.847L3.37434 104.846C3.34316 104.807 3.31254 104.767 3.28308 104.726L3.28249 104.726C3.25244 104.685 3.22412 104.644 3.19578 104.601C3.17688 104.573 3.15856 104.545 3.14081 104.516C3.12249 104.488 3.10531 104.459 3.08813 104.429C3.07095 104.4 3.05435 104.371 3.03773 104.341C3.02171 104.312 3.00567 104.283 2.9902 104.252C2.97416 104.222 2.95868 104.191 2.94435 104.16C2.91633 104.102 2.89004 104.043 2.86489 103.984C2.85231 103.954 2.8403 103.924 2.82888 103.894C2.81687 103.863 2.80543 103.833 2.79457 103.803C2.78372 103.772 2.77343 103.741 2.76315 103.711C2.74314 103.649 2.72487 103.587 2.70773 103.524C2.69917 103.493 2.69118 103.461 2.68376 103.43C2.67697 103.401 2.67017 103.372 2.66394 103.343L2.66207 103.334C2.65523 103.302 2.64896 103.27 2.64326 103.238C2.62625 103.146 2.61327 103.054 2.60372 102.96C2.60235 102.947 2.60097 102.932 2.5996 102.918C2.59749 102.894 2.59538 102.87 2.59385 102.846C2.59167 102.818 2.59007 102.789 2.58848 102.761C2.58837 102.754 2.58768 102.747 2.58758 102.74C2.58652 102.71 2.58545 102.679 2.58496 102.648C2.58399 102.586 2.58475 102.524 2.58666 102.462C2.58734 102.432 2.58918 102.403 2.59102 102.373C2.59285 102.343 2.5947 102.314 2.59768 102.284C2.60113 102.246 2.60457 102.208 2.60916 102.17C2.61169 102.148 2.6148 102.125 2.6179 102.103C2.61993 102.085 2.62255 102.068 2.62515 102.05C2.62617 102.042 2.62777 102.034 2.6288 102.026C2.63564 101.984 2.64305 101.942 2.65103 101.9L3.09292 99.6055L3.09348 99.6049L3.67985 96.5622L3.96823 95.0654L3.96822 95.0649L5.19214 88.7151L5.47091 87.2675L5.47149 87.2675L6.01146 84.4642L6.02904 84.3723L6.36593 82.6239L7.77268 75.3251L7.77326 75.325L8.05045 73.8867L8.11761 73.5379L8.1176 73.5374L8.56431 71.2193L9.15013 68.1789L9.15012 68.1783L9.15068 68.1772L9.25784 67.622L9.44916 66.626L9.48222 66.4554L9.4828 66.4554L10.4524 61.4226L10.7291 59.9871L11.0857 58.1369L12.9354 48.5392L12.936 48.5392L13.9451 43.3022L14.7825 38.9564L15.3992 35.7558L16.0544 32.3574L17.0582 27.151L17.2117 26.3541L21.2246 5.5333C21.2806 5.24354 21.3696 4.96827 21.4873 4.71157L21.4873 4.71098C21.4984 4.68775 21.509 4.66451 21.5202 4.64127C21.533 4.61454 21.5464 4.58725 21.5604 4.5605C21.5699 4.5419 21.58 4.52269 21.5901 4.50408C21.6142 4.45872 21.6394 4.41452 21.6653 4.37087C21.6911 4.32664 21.7181 4.28354 21.7457 4.24102C21.7597 4.21946 21.7738 4.19849 21.7879 4.17751C21.802 4.15653 21.8166 4.13554 21.8313 4.11513C21.8477 4.09238 21.8646 4.06904 21.881 4.04687C21.8945 4.02878 21.9081 4.01128 21.9222 3.99318C21.9545 3.95174 21.9873 3.91145 22.0212 3.87112C22.0365 3.85359 22.0512 3.83604 22.0665 3.81908C22.0835 3.80036 22.1005 3.78165 22.1175 3.76294C22.1346 3.74421 22.1516 3.72606 22.1691 3.70791C22.1833 3.69269 22.1981 3.67749 22.2134 3.66225C22.2281 3.64703 22.2429 3.63238 22.2583 3.61772C22.2736 3.60307 22.2889 3.58841 22.3043 3.57434C22.3196 3.55968 22.335 3.54502 22.3509 3.53151C22.3662 3.51685 22.3821 3.50334 22.3981 3.48925C22.4299 3.46107 22.4618 3.43404 22.4942 3.40758C22.5193 3.38758 22.5438 3.36759 22.5688 3.34874C22.5939 3.32932 22.619 3.3099 22.6446 3.29162C22.6617 3.27924 22.6788 3.26688 22.6959 3.25507C22.713 3.24212 22.7302 3.2303 22.7479 3.21907C22.765 3.20669 22.7827 3.19489 22.8003 3.18365C22.8357 3.16061 22.8711 3.13814 22.9071 3.11682C22.9248 3.10558 22.9431 3.09433 22.9614 3.08425C22.9797 3.073 22.9979 3.06293 23.0162 3.05283C23.0528 3.03207 23.09 3.01189 23.1272 2.99285C23.146 2.98275 23.1649 2.97323 23.1838 2.96428C23.2027 2.95475 23.2216 2.94582 23.241 2.93687C23.2599 2.92734 23.2788 2.91838 23.2983 2.91057C23.3366 2.89267 23.3756 2.87593 23.4145 2.86032C23.434 2.85195 23.4535 2.84413 23.4735 2.8369C23.493 2.82852 23.5125 2.82131 23.5326 2.81407C23.5521 2.80627 23.5721 2.79902 23.5928 2.79236C23.6524 2.77124 23.7132 2.75182 23.7746 2.73413C23.8154 2.72195 23.8562 2.71094 23.8975 2.70049C23.9182 2.69497 23.9388 2.69003 23.9595 2.68509C24.0422 2.66533 24.1262 2.64904 24.2113 2.63559C24.2958 2.62158 24.3816 2.611 24.4674 2.60331L24.4697 2.60327C24.7985 2.57388 25.1366 2.58988 25.4761 2.65545L67.9863 10.8492C68.0401 10.8593 68.0933 10.8712 68.146 10.8842C68.1986 10.896 68.2508 10.9096 68.3023 10.925C68.3284 10.932 68.3539 10.9397 68.3788 10.948C68.4049 10.9556 68.4298 10.9639 68.4553 10.9727C68.4802 10.9804 68.5051 10.9892 68.5301 10.9986C68.555 11.0069 68.58 11.0163 68.6049 11.0263C68.6293 11.0351 68.6536 11.0451 68.678 11.0551C68.7146 11.0701 68.7511 11.0857 68.7866 11.1019C68.8226 11.1174 68.858 11.1342 68.8934 11.1515C68.9637 11.1855 69.0324 11.2219 69.0999 11.2607C69.19 11.3117 69.2774 11.3669 69.3619 11.4255C69.4039 11.4542 69.4453 11.4847 69.4861 11.5152C69.5474 11.5616 69.607 11.6096 69.6649 11.66C69.6841 11.6764 69.7034 11.6929 69.7222 11.7104C69.8011 11.7807 69.8767 11.855 69.9488 11.9323C69.9635 11.9476 69.9781 11.9636 69.9922 11.9795C70.0092 11.9982 70.0262 12.017 70.0427 12.0364C70.0685 12.0665 70.0938 12.0967 70.1185 12.1274C70.1326 12.1445 70.1461 12.1616 70.1597 12.1792C70.1821 12.2077 70.2038 12.2362 70.2256 12.2658L70.2315 12.2744C70.241 12.2869 70.2504 12.3001 70.2592 12.3132C70.2799 12.3411 70.2993 12.3696 70.3188 12.3987C70.3519 12.4484 70.3838 12.4992 70.4146 12.5506C70.4229 12.5643 70.4312 12.5786 70.4389 12.5923C70.4519 12.614 70.4644 12.6357 70.4763 12.658C70.5042 12.7083 70.5309 12.7592 70.556 12.8107C70.5649 12.8273 70.5726 12.8445 70.5804 12.8611C70.5917 12.884 70.6024 12.9069 70.6126 12.9304C70.6233 12.9532 70.6335 12.9767 70.6431 13.0002C70.6635 13.0466 70.6821 13.0942 70.6995 13.1417L70.7001 13.1423C70.77 13.3292 70.8249 13.5226 70.8632 13.7209C70.865 13.7284 70.8663 13.7359 70.8676 13.7434C70.95 14.1797 70.9526 14.6386 70.8636 15.1007L68.8507 25.5441L68.4243 27.7557ZM68.8967 8.46391L25.5184 0.103331C22.5688 -0.464892 19.7042 1.36247 18.939 4.22003C18.9048 4.35031 18.8734 4.48344 18.8478 4.61761L17.1042 13.6619L16.4256 17.1852L15.4176 22.4141L14.5081 27.1318L13.9101 30.2364L13.5273 32.2213L13.2432 33.6961L12.0198 40.0441L12.0192 40.0441L10.5795 47.5159L8.90722 56.1906L8.60127 57.7799L8.60069 57.7799L7.64065 62.7613L6.07664 70.8762L6.06812 70.9207L5.69339 72.8657L5.38954 74.4423L5.07554 76.0698L4.14857 80.8806L3.85002 82.4277L3.61707 83.6364L3.24818 85.5496L3.07814 86.4322L3.07815 86.4328L2.78285 87.966L1.98485 92.1064L1.98486 92.107L1.50776 94.5818L1.22206 96.0653L0.103649 101.866C-0.490708 104.95 1.5347 107.942 4.61849 108.536L11.2927 109.822L47.9968 116.897C49.3918 117.166 50.768 116.899 51.912 116.24C51.9714 116.206 52.0308 116.17 52.089 116.133C52.2089 116.058 52.3264 115.979 52.4404 115.895C52.8115 115.623 53.1502 115.306 53.4479 114.951C53.5583 114.819 53.6628 114.682 53.7609 114.539C54.1612 113.962 54.4598 113.301 54.6249 112.58C54.6406 112.514 54.654 112.449 54.6668 112.382L60.7927 80.5984L61.1472 78.7581L61.1478 78.7581L61.6973 75.9045L62.1238 73.6934L64.4394 61.6798L65.2358 57.5469L65.3669 56.8656L65.3669 56.865L65.3675 56.8627L65.3675 56.8622L65.5077 56.1369L65.5077 56.1363L65.9123 54.038L67.3361 46.6496L68.9971 38.0321L69.8543 33.5845L70.3175 31.1809L70.8863 28.2307L71.3128 26.0185L73.4104 15.1345C74.0047 12.0513 71.9799 9.05829 68.8967 8.46391Z" fill="#2E2D2D"/>
</svg>
