<svg width="70" height="70" viewBox="0 0 70 70" fill="none" xmlns="http://www.w3.org/2000/svg">
<circle cx="35" cy="35" r="34" fill="white" stroke="#E9F2F9" stroke-width="2"/>
<g clip-path="url(#clip0_980_30197)">
<path d="M47.1484 19.1328H22.8525C20.802 19.1328 19.1338 20.801 19.1338 22.8516V47.1474C19.1338 49.1979 20.802 50.8661 22.8525 50.8661H47.1484C49.1989 50.8661 50.8671 49.1979 50.8671 47.1474V22.8516C50.8671 20.801 49.1989 19.1328 47.1484 19.1328ZM22.8525 21.612H47.1484C47.8319 21.612 48.388 22.1681 48.388 22.8516V41.0558L44.1688 36.8367C42.7188 35.3867 40.3597 35.3867 38.9097 36.8367L37.5416 38.2048L33.6943 34.3575C32.2444 32.9076 29.8852 32.9076 28.4352 34.3575L21.613 41.1797V22.8516C21.613 22.1681 22.169 21.612 22.8525 21.612ZM47.1484 48.387H22.8525C22.169 48.387 21.613 47.8309 21.613 47.1474V44.6859L30.1882 36.1106C30.6716 35.6273 31.4579 35.6273 31.9412 36.1106L37.5416 41.7108L40.6627 38.5897C41.146 38.1064 41.9325 38.1064 42.4157 38.5897L48.388 44.5619V47.1474C48.388 47.8309 47.8319 48.387 47.1484 48.387ZM39.215 31.5286C41.2656 31.5286 42.9338 29.8604 42.9338 27.8099C42.9338 25.7594 41.2656 24.0911 39.215 24.0911C37.1645 24.0911 35.4963 25.7594 35.4963 27.8099C35.4963 29.8604 37.1645 31.5286 39.215 31.5286ZM39.215 26.5703C39.8985 26.5703 40.4546 27.1264 40.4546 27.8099C40.4546 28.4934 39.8985 29.0495 39.215 29.0495C38.5315 29.0495 37.9755 28.4934 37.9755 27.8099C37.9755 27.1264 38.5315 26.5703 39.215 26.5703Z" fill="#2679C6"/>
<path d="M31.0335 34.2061L21.249 43.1972V48.7505L49.2801 49.2794V43.1972L41.8757 37.1149L37.3801 39.7594L31.0335 34.2061Z" fill="#2679C6"/>
<path d="M37.3807 29.7106L37.1162 26.2728L40.0251 25.4795L41.6118 26.5373V29.7106H37.3807Z" fill="#2679C6"/>
</g>
<defs>
<clipPath id="clip0_980_30197">
<rect width="31.7333" height="31.7333" fill="white" transform="translate(19.1338 19.1328)"/>
</clipPath>
</defs>
</svg>
