<svg width="24" height="24" viewBox="0 0 24 24" fill="none" xmlns="http://www.w3.org/2000/svg">
<g clip-path="url(#clip0_1844_75623)">
<path d="M7.5 2.5L11.5 1.5H14L18.5 4L21.5 7.5L22.5 14.5L19.5 19L15.5 21.5H11.5L6.5 21L3 22V18L1.5 13.5L2.5 8L4.5 5.5L7.5 2.5Z" fill="#064782"/>
<path d="M17.7584 13.7914C17.7116 13.769 15.962 12.9074 15.651 12.7955C15.5241 12.7499 15.3881 12.7054 15.2435 12.7054C15.0073 12.7054 14.8088 12.8232 14.6542 13.0544C14.4794 13.3142 13.9503 13.9327 13.7868 14.1174C13.7655 14.1418 13.7363 14.171 13.7189 14.171C13.7032 14.171 13.4324 14.0595 13.3505 14.0239C11.4736 13.2086 10.0489 11.248 9.85357 10.9173C9.82567 10.8698 9.8245 10.8482 9.82427 10.8482C9.83112 10.8231 9.89424 10.7598 9.92681 10.7271C10.0221 10.6328 10.1254 10.5086 10.2253 10.3883C10.2726 10.3314 10.3199 10.2743 10.3664 10.2206C10.5114 10.0519 10.5759 9.92103 10.6507 9.76939L10.6899 9.69062C10.8726 9.32773 10.7166 9.0215 10.6661 8.92262C10.6248 8.83986 9.88598 7.05685 9.80744 6.86952C9.61855 6.4175 9.36897 6.20703 9.02214 6.20703C8.98996 6.20703 9.02214 6.20703 8.88718 6.21272C8.72284 6.21965 7.8279 6.33747 7.43222 6.5869C7.0126 6.85145 6.30273 7.69472 6.30273 9.17773C6.30273 10.5125 7.14975 11.7727 7.51341 12.252C7.52245 12.2641 7.53905 12.2886 7.56312 12.3238C8.95583 14.3578 10.692 15.8651 12.452 16.5682C14.1464 17.245 14.9488 17.3232 15.405 17.3232H15.405C15.5967 17.3232 15.7502 17.3082 15.8855 17.2949L15.9714 17.2867C16.5567 17.2348 17.8431 16.5683 18.1357 15.7551C18.3662 15.1147 18.4269 14.415 18.2736 14.161C18.1686 13.9883 17.9875 13.9014 17.7584 13.7914Z" fill="white"/>
<path d="M12.213 0C5.71307 0 0.424969 5.24836 0.424969 11.6995C0.424969 13.786 0.983358 15.8284 2.04115 17.6159L0.0165014 23.5883C-0.0212129 23.6996 0.00683904 23.8227 0.0892027 23.9066C0.148657 23.9673 0.229307 24 0.31167 24C0.343229 24 0.375021 23.9952 0.406034 23.9854L6.63357 22.0064C8.33772 22.917 10.2638 23.3976 12.2131 23.3976C18.7124 23.3977 24 18.1498 24 11.6995C24 5.24836 18.7124 0 12.213 0ZM12.213 20.9606C10.3788 20.9606 8.60227 20.4309 7.07515 19.4289C7.0238 19.3951 6.96419 19.3778 6.90419 19.3778C6.87248 19.3778 6.84068 19.3826 6.80975 19.3925L3.69014 20.3841L4.6972 17.413C4.72977 17.3169 4.71349 17.2108 4.65349 17.1288C3.49058 15.5398 2.87585 13.6625 2.87585 11.6995C2.87585 6.59221 7.06448 2.43709 12.2129 2.43709C17.3608 2.43709 21.5489 6.59221 21.5489 11.6995C21.549 16.8061 17.3609 20.9606 12.213 20.9606Z" fill="#064782"/>
</g>
<defs>
<clipPath id="clip0_1844_75623">
<rect width="24" height="24" fill="white"/>
</clipPath>
</defs>
</svg>
