<svg width="20" height="20" viewBox="0 0 20 20" fill="none" xmlns="http://www.w3.org/2000/svg">
<path fill-rule="evenodd" clip-rule="evenodd" d="M4.09896 4.09896C5.49985 2.69926 7.52059 2 10 2C12.4794 2 14.5001 2.69926 15.901 4.09896C17.3007 5.49985 18 7.52059 18 10C18 12.4794 17.3007 14.5001 15.901 15.901C14.5001 17.3007 12.4794 18 10 18C7.52059 18 5.49985 17.3007 4.09896 15.901C2.69926 14.5001 2 12.4794 2 10C2 7.52059 2.69926 5.49985 4.09896 4.09896ZM10.8889 7.05126C10.8889 6.81551 10.7952 6.58942 10.6285 6.42272C10.4618 6.25602 10.2357 6.16237 10 6.16237C9.76425 6.16237 9.53816 6.25602 9.37146 6.42272C9.20476 6.58942 9.11111 6.81551 9.11111 7.05126V10.0142C9.11111 10.2513 9.20474 10.4764 9.37185 10.6424L11.1496 12.4201C11.3181 12.5772 11.541 12.6626 11.7713 12.6586C12.0016 12.6545 12.2213 12.5612 12.3841 12.3984C12.547 12.2355 12.6403 12.0158 12.6444 11.7855C12.6484 11.5552 12.5629 11.3324 12.4059 11.1639L10.8889 9.64681V7.05126Z" fill="#064782"/>
</svg>
