<svg width="2" height="6" viewBox="0 0 2 6" fill="none" xmlns="http://www.w3.org/2000/svg">
<path d="M0.629486 0.280297C0.629486 0.280297 0.375936 0.396394 0.265175 0.312514C0.156893 0.22768 0.0449905 0.130457 0 -0.000129941C0.0922687 0.409741 0.953949 4.24423 1.14192 4.98218C1.32989 5.72072 1.39432 6 1.39432 6C1.39432 6 1.23209 5.11163 1.32131 4.92957C1.41377 4.74903 1.46619 4.71091 1.47058 4.65181C1.47706 4.59271 1.3867 4.71625 1.26545 4.63313C1.14192 4.5481 1.23743 4.37367 1.30186 4.32105C1.36744 4.27263 1.41377 4.22002 1.41377 4.22002C1.41377 4.22002 1.12896 3.95198 1.01076 3.31125C0.895807 2.66994 0.602606 0.718573 0.629486 0.280297Z" fill="#111010"/>
</svg>
