<svg width="11" height="8" viewBox="0 0 11 8" fill="none" xmlns="http://www.w3.org/2000/svg">
<path d="M11 6.45832C11 6.45832 10.1806 6.40048 9.05296 4.79644C7.37653 5.23744 4.77416 6.0853 3.68036 6.01417C2.59193 5.93988 2.00394 5.27095 2.63303 4.51034C3.26876 3.75069 6.05669 2.34677 6.78885 1.98701C7.521 1.62726 8.01796 1.42494 8.01796 1.42494C8.01796 1.42494 8.65211 0.342831 8.99416 -0.000799414C7.65093 0.839785 3.37941 3.57872 0.869352 4.97095C0.244051 5.2798 0 5.4679 0 5.4679C0 5.4679 1.30561 4.79644 1.59076 4.76957C1.87749 4.73669 2.15916 4.98074 2.12154 5.29782C2.06305 5.74483 2.33365 5.71827 2.40826 6.01417C2.49583 6.37108 2.34978 6.599 2.07728 6.68626C1.80288 6.77098 1.01541 6.84148 0.848174 6.88478C0.677148 6.92873 0.518454 7.07035 0.518454 7.07035C0.518454 7.07035 9.88311 6.61228 11 6.45832Z" fill="#0C0C0C"/>
</svg>
