<svg width="18" height="18" viewBox="0 0 18 18" fill="none" xmlns="http://www.w3.org/2000/svg">
<g clip-path="url(#clip0_980_41751)">
<path d="M1.86481 5.97487L15.2298 1.08487C15.4657 0.99744 15.7218 0.979533 15.9676 1.03328C16.2134 1.08702 16.4387 1.21016 16.6166 1.38808C16.7945 1.56601 16.9177 1.79124 16.9714 2.03705C17.0252 2.28286 17.0072 2.53893 16.9198 2.77487L12.0248 16.1349C11.9351 16.3818 11.7736 16.5962 11.561 16.7504C11.3484 16.9047 11.0944 16.9917 10.8319 17.0003C10.5693 17.0089 10.3102 16.9387 10.088 16.7987C9.8657 16.6587 9.69045 16.4554 9.58481 16.2149L7.18481 10.8099L1.77981 8.40987C1.53931 8.30423 1.33595 8.12899 1.19596 7.90672C1.05597 7.68445 0.985751 7.42535 0.994359 7.16281C1.00297 6.90027 1.09001 6.64633 1.24426 6.4337C1.39851 6.22108 1.6129 6.05953 1.85981 5.96987L1.86481 5.97487Z" fill="white"/>
<path d="M6.5 11.5L20.5 -2.5" stroke="#CD2127" stroke-width="2" stroke-linecap="round" stroke-linejoin="round"/>
</g>
<defs>
<clipPath id="clip0_980_41751">
<rect width="18" height="18" fill="white"/>
</clipPath>
</defs>
</svg>
