<svg width="7" height="5" viewBox="0 0 7 5" fill="none" xmlns="http://www.w3.org/2000/svg">
<path d="M3.0878 2.75398C3.18184 2.48816 3.28526 2.10815 3.50423 1.79409C3.71939 1.47725 4.64458 0.929987 5.0395 0.819284C5.44448 0.708928 6.01535 0.534714 6.24994 0.449691C6.48245 0.360504 6.70351 0.279648 6.6879 0.173803C6.67055 0.0731639 6.74065 0.00965685 6.36724 -5.99054e-05C6.00147 -0.00804151 4.48008 0.0762853 3.85438 0.35391C3.23459 0.630494 2.72411 0.908473 2.4562 0.959834C2.18829 1.01848 1.41788 1.28396 0.905661 1.91937C0.389279 2.54784 0.201537 3.11697 0.213336 3.43381C0.227217 3.74753 0.05301 3.22768 0.0686264 2.97538C0.0821606 2.72483 0.0821576 2.26328 0.273719 1.83122C0.465627 1.39396 0.543711 1.24752 0.614158 1.1264C0.682523 1.00806 0.103678 1.88675 0.0353128 2.47358C-0.0351345 3.05624 -0.103502 3.7038 0.926834 4.46727C1.95786 5.23282 1.97695 4.94826 1.97695 4.94826C1.97695 4.94826 1.96723 4.26773 1.97695 4.03209C1.98111 3.79438 1.98909 3.30889 2.52075 3.03404L3.0878 2.75398Z" fill="#B21919"/>
</svg>
