<svg width="74" height="88" viewBox="0 0 74 88" fill="none" xmlns="http://www.w3.org/2000/svg">
<g filter="url(#filter0_b_0_262)">
<circle cx="30.4356" cy="30.4351" r="28.0484" fill="#064782" fill-opacity="0.1"/>
</g>
<path d="M23.3312 0.894131C29.9032 -0.728091 36.8272 -0.131521 43.0249 2.59094C49.2225 5.31339 54.3459 10.0089 57.5972 15.9462C60.8486 21.8836 62.0452 28.7294 61.0009 35.4176C59.9566 42.1058 56.7299 48.261 51.8233 52.9245L73.9267 84.5009L74 84.6393L71.7405 86.2265L69.481 87.8167L47.471 56.3759C43.7331 58.818 39.5074 60.4151 35.0886 61.0556C30.6698 61.696 26.1645 61.3645 21.8871 60.0842C17.6096 58.8038 13.6631 56.6055 10.323 53.6425C6.98278 50.6796 4.32941 47.0234 2.54805 42.9292C0.766678 38.835 -0.0997772 34.4014 0.00912476 29.9378C0.118034 25.4741 1.19968 21.088 3.1786 17.0856C5.15752 13.0831 7.98602 9.5607 11.4667 6.76417C14.9474 3.96764 18.9964 1.96436 23.3312 0.894131ZM36.8175 55.506C42.5617 54.0868 47.636 50.7199 51.1759 45.9789C54.7159 41.2379 56.5025 35.4161 56.2312 29.5055C55.96 23.5949 53.6477 17.9612 49.6884 13.5643C45.7291 9.1674 40.3677 6.27939 34.5178 5.39234C28.6678 4.50528 22.6913 5.67406 17.6065 8.69954C12.5216 11.725 8.64317 16.42 6.6319 21.9845C4.62064 27.549 4.60101 33.6387 6.57637 39.216C8.55172 44.7934 12.3998 49.5133 17.465 52.5715C20.3386 54.3109 23.5275 55.4656 26.8486 55.9692C30.1696 56.4728 33.5575 56.3154 36.8175 55.506Z" fill="#1590FF"/>
<defs>
<filter id="filter0_b_0_262" x="-4.61279" y="-4.61328" width="70.0967" height="70.0967" filterUnits="userSpaceOnUse" color-interpolation-filters="sRGB">
<feFlood flood-opacity="0" result="BackgroundImageFix"/>
<feGaussianBlur in="BackgroundImageFix" stdDeviation="3.5"/>
<feComposite in2="SourceAlpha" operator="in" result="effect1_backgroundBlur_0_262"/>
<feBlend mode="normal" in="SourceGraphic" in2="effect1_backgroundBlur_0_262" result="shape"/>
</filter>
</defs>
</svg>
