<svg width="4" height="5" viewBox="0 0 4 5" fill="none" xmlns="http://www.w3.org/2000/svg">
<path d="M0.0366478 4.61907C0.119066 4.48109 0.366997 4.04351 0.480852 3.88972C0.596747 3.7361 0.559361 3.7361 0.697347 3.64229C0.836183 3.55036 1.91339 2.40416 2.12122 2.16523C2.32905 1.92681 3.02425 1.05693 3.09018 0.94154C3.16121 0.825136 3.18416 0.795907 3.00709 0.656561C2.83069 0.518236 2.27722 0.179729 2.27722 0.179729L2.3683 0.000619053C2.3683 0.000619053 3.4914 0.825136 3.69922 1.00272C3.79218 1.03534 3.93101 0.971618 4.00001 0.917579C4.00001 0.917579 0.566159 4.59749 0.133339 4.86649C0.0279802 4.88281 -0.0486588 4.75978 0.0366478 4.61907Z" fill="#0C0C0C"/>
</svg>
