<svg width="14" height="14" viewBox="0 0 14 14" fill="none" xmlns="http://www.w3.org/2000/svg">
<g clip-path="url(#clip0_500_2904)">
<path fill-rule="evenodd" clip-rule="evenodd" d="M7 1.52362C6.415 1.52362 5.892 1.88962 5.692 2.43962L5.543 2.84962H8.457L8.307 2.43962C8.20962 2.17117 8.03192 1.93923 7.79807 1.77534C7.56422 1.61145 7.28556 1.52356 7 1.52362ZM4.283 1.92762L3.947 2.84962H0.75C0.651509 2.84962 0.553982 2.86902 0.462987 2.90671C0.371993 2.9444 0.289314 2.99965 0.21967 3.06929C0.150026 3.13894 0.0947814 3.22162 0.0570904 3.31261C0.0193993 3.4036 0 3.50113 0 3.59962C0 3.69811 0.0193993 3.79564 0.0570904 3.88664C0.0947814 3.97763 0.150026 4.06031 0.21967 4.12995C0.289314 4.1996 0.371993 4.25484 0.462987 4.29253C0.553982 4.33022 0.651509 4.34962 0.75 4.34962H13.25C13.4489 4.34962 13.6397 4.2706 13.7803 4.12995C13.921 3.9893 14 3.79853 14 3.59962C14 3.40071 13.921 3.20994 13.7803 3.06929C13.6397 2.92864 13.4489 2.84962 13.25 2.84962H10.053L9.717 1.92762C9.51378 1.37032 9.1441 0.888985 8.65808 0.548884C8.17205 0.208784 7.5932 0.0263672 7 0.0263672C6.4068 0.0263672 5.82795 0.208784 5.34192 0.548884C4.8559 0.888985 4.48622 1.37032 4.283 1.92762ZM1.634 5.68362C1.68073 5.63323 1.73736 5.59302 1.80033 5.56549C1.8633 5.53796 1.93127 5.52371 2 5.52362H12C12.0687 5.52358 12.1367 5.53771 12.1997 5.56512C12.2627 5.59252 12.3194 5.63263 12.3663 5.68293C12.4131 5.73322 12.449 5.79263 12.4719 5.85744C12.4947 5.92226 12.5039 5.99108 12.499 6.05962L12.107 11.5396C12.027 12.6546 11.21 13.6176 10.064 13.7696C8.0308 14.0428 5.9702 14.0428 3.937 13.7696C2.79 13.6176 1.972 12.6546 1.893 11.5396L1.5 6.05962C1.49518 5.99118 1.50451 5.92247 1.52739 5.85779C1.55027 5.7931 1.58722 5.73382 1.634 5.68362Z" fill="#F43636"/>
</g>
<defs>
<clipPath id="clip0_500_2904">
<rect width="14" height="14" fill="white"/>
</clipPath>
</defs>
</svg>
