<svg width="2" height="3" viewBox="0 0 2 3" fill="none" xmlns="http://www.w3.org/2000/svg">
<path d="M5.56985e-05 3.00038C0.358215 1.96893 0.75784 0.997326 1.16424 0.110284C0.75784 0.997326 0.358205 1.96833 5.56985e-05 3.00038ZM1.16541 0.107843C1.16833 0.101749 1.17125 0.0950521 1.17418 0.0889578C1.17126 0.095657 1.16833 0.101749 1.16541 0.107843ZM1.18471 0.0658035C1.18646 0.0615421 1.18881 0.0572735 1.19056 0.0530122C1.18881 0.0572735 1.18647 0.0621467 1.18471 0.0658035ZM1.19522 0.0426611C1.19698 0.0390044 1.19933 0.0347335 1.20108 0.0304722C1.19933 0.0347335 1.19758 0.0383903 1.19522 0.0426611ZM1.20576 0.0201091C1.20694 0.0182761 1.20751 0.0158478 1.20869 0.0140148C1.20752 0.0164526 1.20694 0.0182761 1.20576 0.0201091ZM1.21395 0.00243758C1.21454 0.00121866 1.21452 0.000623468 1.21512 9.37337e-06C1.21513 0.000613949 1.21455 0.00182324 1.21395 0.00243758Z" fill="#262424"/>
</svg>
