<svg width="16" height="16" viewBox="0 0 16 16" fill="none" xmlns="http://www.w3.org/2000/svg">
<g clip-path="url(#clip0_1585_17038)">
<path fill-rule="evenodd" clip-rule="evenodd" d="M6.44106 1.93686C6.96335 1.89115 7.48106 1.85686 7.99992 1.85686C8.51877 1.85686 9.03649 1.89115 9.55877 1.93686C10.2605 1.99972 10.8342 2.56544 10.9016 3.23972C10.9176 3.40544 10.9313 3.57115 10.9428 3.73458C9.98392 3.66144 8.99992 3.60658 7.99992 3.60658C6.99992 3.60658 6.01592 3.66144 5.05706 3.73458C5.06849 3.57115 5.0822 3.40544 5.0982 3.23972C5.16563 2.56544 5.7382 1.99972 6.44106 1.93686ZM3.33249 3.88201C3.34392 3.60544 3.36678 3.33344 3.39192 3.07058C3.54392 1.54944 4.79306 0.362007 6.28792 0.228292C6.83535 0.182578 7.40906 0.142578 7.99992 0.142578C8.59078 0.142578 9.16449 0.181435 9.71192 0.229435C11.2068 0.36315 12.4559 1.55058 12.6068 3.06944C12.6331 3.33344 12.6548 3.60544 12.6673 3.88201L12.7622 3.89115C13.4243 3.95241 14.0466 4.23458 14.529 4.69227C15.0113 5.14996 15.3257 5.75658 15.4216 6.41458C15.5073 7.01458 15.5908 7.63744 15.6468 8.27401C15.6499 8.31188 15.6423 8.34988 15.6251 8.38372C15.3188 8.88086 14.8022 9.13458 14.0971 9.19744C12.7942 9.31515 10.7439 9.43286 9.11535 9.47629C9.07731 9.47721 9.03947 9.47049 9.00407 9.45653C8.96868 9.44257 8.93644 9.42165 8.90927 9.39501C8.8821 9.36837 8.86054 9.33655 8.84588 9.30144C8.83122 9.26633 8.82375 9.22863 8.82392 9.19058V8.67858C8.82392 8.48914 8.74866 8.30746 8.61471 8.1735C8.48075 8.03955 8.29907 7.96429 8.10963 7.96429C7.92019 7.96429 7.73851 8.03955 7.60456 8.1735C7.4706 8.30746 7.39535 8.48914 7.39535 8.67858V9.19629C7.39535 9.2342 7.38781 9.27173 7.37317 9.3067C7.35853 9.34166 7.33707 9.37337 7.31005 9.39996C7.28304 9.42655 7.251 9.4475 7.2158 9.46158C7.18061 9.47567 7.14296 9.48261 7.10506 9.48201C5.36893 9.43817 3.63447 9.34327 1.90392 9.19744C1.19763 9.13344 0.681061 8.88086 0.374776 8.38372C0.357728 8.34941 0.350603 8.31101 0.354204 8.27286C0.411541 7.65147 0.486237 7.0318 0.578204 6.41458C0.674105 5.75658 0.988517 5.14996 1.47088 4.69227C1.95324 4.23458 2.57551 3.95241 3.23763 3.89115L3.33249 3.88201ZM7.39535 11.1963C7.39536 11.1215 7.36605 11.0497 7.31369 10.9963C7.26134 10.9428 7.19013 10.9121 7.11535 10.9106C5.33764 10.8668 3.56163 10.7704 1.78963 10.6214H1.77478C1.42398 10.5916 1.07838 10.5175 0.746204 10.4009C0.538204 10.3266 0.302776 10.4752 0.31649 10.6946C0.366776 11.506 0.470776 12.2946 0.578204 13.0489C0.67387 13.7071 0.988179 14.314 1.47056 14.7719C1.95294 15.2298 2.57535 15.5121 3.23763 15.5734L3.33478 15.5814C4.82163 15.7152 6.38963 15.8569 7.99992 15.8569C9.6102 15.8569 11.1771 15.7163 12.6651 15.5826L12.7622 15.5734C13.4243 15.5122 14.0466 15.23 14.529 14.7723C15.0113 14.3146 15.3257 13.708 15.4216 13.05C15.5291 12.2946 15.6331 11.506 15.6833 10.6957C15.6971 10.4763 15.4616 10.3266 15.2548 10.4009C14.9222 10.5172 14.5762 10.5909 14.2251 10.6203L14.2113 10.6214C12.5115 10.764 10.808 10.8586 9.10277 10.9049C9.02819 10.9067 8.95727 10.9375 8.90516 10.9909C8.85306 11.0443 8.8239 11.116 8.82392 11.1906V11.8923C8.82392 11.9861 8.80544 12.079 8.76955 12.1656C8.73365 12.2523 8.68104 12.331 8.61471 12.3974C8.54838 12.4637 8.46964 12.5163 8.38298 12.5522C8.29632 12.5881 8.20343 12.6066 8.10963 12.6066C8.01583 12.6066 7.92295 12.5881 7.83629 12.5522C7.74963 12.5163 7.67088 12.4637 7.60456 12.3974C7.53823 12.331 7.48561 12.2523 7.44972 12.1656C7.41382 12.079 7.39535 11.9861 7.39535 11.8923V11.1963Z" fill="#76869A"/>
<path d="M15 7.5L15.5 11L8 13L0.5 12L0.404304 11.5215C0.138092 10.1905 0.170777 8.81689 0.5 7.5H15Z" fill="#76869A"/>
<path d="M4 11.5L4 7.99999L8 5.99999L15.5 6.99999L15.5957 7.47847C15.8619 8.80953 15.8292 10.1831 15.5 11.5L4 11.5Z" fill="#76869A"/>
<circle cx="8" cy="9" r="2" fill="white"/>
</g>
<defs>
<clipPath id="clip0_1585_17038">
<rect width="16" height="16" fill="white"/>
</clipPath>
</defs>
</svg>
