<svg width="18" height="18" viewBox="0 0 18 18" fill="none" xmlns="http://www.w3.org/2000/svg">
<path fill-rule="evenodd" clip-rule="evenodd" d="M6.34123 1.90039C5.12623 1.90039 3.94208 2.09068 2.85437 2.26425L2.45965 2.32725C2.02026 2.3959 1.61674 2.61038 1.31403 2.93618C1.01132 3.26198 0.827024 3.68015 0.790797 4.12339L0.72394 4.94368C0.659654 5.72153 0.595368 6.52253 0.546511 7.33896C0.536225 7.51896 0.675083 7.66939 0.852511 7.6771C2.65251 7.75168 4.48465 7.80825 6.34123 7.80825C8.1978 7.80825 10.0287 7.75168 11.8287 7.67582C11.8711 7.67401 11.9127 7.6638 11.9511 7.64576C11.9895 7.62773 12.0239 7.60224 12.0524 7.57078C12.0809 7.53931 12.1028 7.5025 12.1169 7.46248C12.1311 7.42247 12.1371 7.38004 12.1347 7.33768C12.0841 6.53906 12.025 5.74101 11.9572 4.94368L11.8917 4.12339C11.8554 3.67996 11.6709 3.26165 11.3679 2.93582C11.065 2.61 10.6611 2.39563 10.2215 2.32725L9.82808 2.26425C8.74037 2.09068 7.55494 1.90039 6.34123 1.90039ZM0.468083 9.60053C0.468083 9.41925 0.619797 9.27653 0.801083 9.28425C2.60751 9.35882 4.45894 9.41539 6.34123 9.41539C8.22351 9.41539 10.0737 9.35882 11.8814 9.28425C11.9242 9.28234 11.967 9.2891 12.0071 9.30411C12.0473 9.31912 12.084 9.34207 12.1151 9.3716C12.1462 9.40112 12.171 9.43662 12.1881 9.47595C12.2051 9.51529 12.2141 9.55766 12.2144 9.60053V9.75868C12.2078 10.8889 12.1598 12.0185 12.0704 13.1452C12.2761 13.3638 12.4497 13.5927 12.5911 13.7881C12.7217 13.9706 12.9069 14.1068 13.12 14.1773C13.333 14.2477 13.5629 14.2487 13.7766 14.18C13.9902 14.1114 14.1765 13.9767 14.3087 13.7953C14.4409 13.614 14.512 13.3954 14.5119 13.171V6.32582C14.5119 5.34868 14.9157 4.41525 15.6292 3.74668L16.2207 3.19382C16.4079 3.02329 16.6548 2.9333 16.9079 2.94328C17.161 2.95327 17.4 3.06243 17.5732 3.24718C17.7465 3.43193 17.8401 3.67743 17.8339 3.93064C17.8276 4.18384 17.722 4.42442 17.5398 4.60039L16.9484 5.15325C16.788 5.30358 16.6602 5.48521 16.5729 5.68689C16.4855 5.88857 16.4405 6.10603 16.4405 6.32582V6.98282H16.8802C17.136 6.98282 17.3812 7.08441 17.5621 7.26525C17.7429 7.44609 17.8445 7.69136 17.8445 7.9471C17.8445 8.20285 17.7429 8.44812 17.5621 8.62896C17.3812 8.8098 17.136 8.91139 16.8802 8.91139H16.4405V13.1722C16.4407 13.7081 16.2968 14.2341 16.0239 14.6952C15.751 15.1563 15.3591 15.5355 14.8893 15.7932C14.4195 16.0508 13.889 16.1774 13.3535 16.1596C12.818 16.1419 12.2971 15.9804 11.8454 15.6922C11.7534 16.0746 11.55 16.4211 11.2609 16.6877C10.9718 16.9544 10.6101 17.1292 10.2215 17.1901L9.82808 17.2544C8.74037 17.4267 7.55494 17.617 6.34123 17.617C5.12623 17.617 3.94208 17.4267 2.85437 17.2531C2.72283 17.2319 2.59126 17.2109 2.45965 17.1901C2.02046 17.1215 1.61709 16.9072 1.31441 16.5817C1.01172 16.2561 0.827299 15.8383 0.790797 15.3952L0.72394 14.5737C0.599225 13.0398 0.466797 11.4185 0.466797 9.75996V9.60182L0.468083 9.60053ZM5.19051 4.2391C4.97739 4.2391 4.773 4.32377 4.6223 4.47447C4.4716 4.62516 4.38694 4.82956 4.38694 5.04268C4.38694 5.2558 4.4716 5.46019 4.6223 5.61089C4.773 5.76159 4.97739 5.84625 5.19051 5.84625H7.49194C7.70506 5.84625 7.90945 5.76159 8.06015 5.61089C8.21085 5.46019 8.29551 5.2558 8.29551 5.04268C8.29551 4.82956 8.21085 4.62516 8.06015 4.47447C7.90945 4.32377 7.70506 4.2391 7.49194 4.2391H5.19051Z" fill="#064782"/>
</svg>
