<svg width="10" height="11" viewBox="0 0 10 11" fill="none" xmlns="http://www.w3.org/2000/svg">
<path d="M4.11494 8.86869C4.11494 8.86869 7.26896 4.72041 7.31307 3.46116C7.3611 2.58583 6.84191 2.12088 6.29135 2.28033C5.7408 2.44043 4.99158 3.00406 4.44266 3.50756C3.89603 4.01172 1.21514 6.76155 1.17103 6.76155C1.12529 6.76155 0.723726 6.57008 0 6.91446C1.80817 5.40297 8.05345 -0.000957852 8.05345 -0.000957852C8.05345 -0.000957852 6.79583 1.42133 6.68899 1.58536C6.94319 1.68664 7.60941 1.96829 7.76788 2.64856C7.86002 2.90244 8.23185 2.69431 8.37562 2.4718C8.52657 2.25256 9.4617 0.944294 9.4617 0.944294L5.58233 11C5.52189 10.4217 5.35786 9.68259 4.11494 8.86869Z" fill="#0C0C0C"/>
</svg>
