<svg width="7" height="2" viewBox="0 0 7 2" fill="none" xmlns="http://www.w3.org/2000/svg">
<path d="M7 0.981054C7 0.981054 6.98346 0.464821 6.95247 0.361505C6.9349 0.30141 6.91459 0.284879 6.83107 0.266283C6.75066 0.251818 5.39327 0.00695953 5.39327 0.00695953C5.39327 0.00695953 5.40187 -0.00423268 5.27187 0.00299944C5.14272 0.0069599 4.61891 0.0761815 3.35657 0.09805C2.09319 0.118024 1.42767 0.0961583 1.27821 0.0703294C1.20451 0.0577593 1.12978 0.084962 0.948286 0.13111C0.766795 0.174674 0.190471 0.361505 0.105063 0.391467C0.0206891 0.422117 0.00604705 0.435203 0.000192505 0.515789C-0.00359573 0.60223 0.0497819 1.03099 0.0497819 1.03099C0.0497819 1.03099 0.0506483 1.10176 0.137089 1.13327C0.22353 1.16392 1.28113 1.38416 1.36447 1.39518C1.45281 1.40981 1.5284 1.35988 1.60812 1.322C1.68957 1.28325 2.1786 1.15893 3.37396 1.13086C4.57225 1.10434 4.96622 1.15669 5.13411 1.22453C5.30475 1.29289 5.2097 1.37297 5.52516 1.322C5.84337 1.26724 6.92233 1.05768 6.92233 1.05768C6.92233 1.05768 6.98829 1.05045 7 0.981054Z" fill="#185486"/>
</svg>
