<svg width="15" height="15" viewBox="0 0 15 15" fill="none" xmlns="http://www.w3.org/2000/svg">
<g clip-path="url(#clip0_0_275)">
<path fill-rule="evenodd" clip-rule="evenodd" d="M2.15357 6.44146C2.15357 4.92431 2.57678 3.88931 3.23357 3.2336C3.88928 2.57681 4.92428 2.1536 6.44143 2.1536C7.95964 2.1536 8.99357 2.57681 9.65035 3.2336C10.3061 3.88931 10.7293 4.92431 10.7293 6.44146C10.7293 7.95967 10.3061 8.9936 9.65035 9.65038C8.99357 10.3061 7.95964 10.7293 6.44143 10.7293C4.92428 10.7293 3.88928 10.3061 3.23357 9.65038C2.57678 8.9936 2.15357 7.95967 2.15357 6.44146ZM6.44143 0.0107422C4.52893 0.0107422 2.88428 0.551814 1.7175 1.71753C0.551783 2.88431 0.0107117 4.52896 0.0107117 6.44253C0.0107117 8.35396 0.551783 9.99967 1.7175 11.1654C2.88428 12.3311 4.52893 12.8722 6.4425 12.8722C7.93393 12.8722 9.2625 12.5432 10.3286 11.8436L13.155 14.67C13.3571 14.8652 13.6277 14.9732 13.9086 14.9707C14.1896 14.9683 14.4583 14.8556 14.6569 14.657C14.8556 14.4583 14.9683 14.1896 14.9707 13.9087C14.9732 13.6277 14.8652 13.3571 14.67 13.155L11.8446 10.3297C12.5432 9.26253 12.8732 7.93396 12.8732 6.44146C12.8732 4.52896 12.3311 2.88431 11.1654 1.71753C9.99857 0.551814 8.35393 0.0107422 6.44143 0.0107422Z" fill="#525A6C"/>
</g>
<defs>
<clipPath id="clip0_0_275">
<rect width="15" height="15" fill="white"/>
</clipPath>
</defs>
</svg>
