<svg width="82" height="103" viewBox="0 0 82 103" fill="none" xmlns="http://www.w3.org/2000/svg">
<g opacity="0.15" filter="url(#filter0_f_1316_74890)">
<ellipse cx="41.3208" cy="92.0524" rx="25.6868" ry="5.13737" fill="black"/>
</g>
<path fill-rule="evenodd" clip-rule="evenodd" d="M0.864251 40.5986C0.864251 18.6564 18.8361 0.864251 40.9999 0.864251C63.1638 0.864251 81.1356 18.6564 81.1356 40.5986C81.1356 59.0088 68.4706 74.4611 51.3014 78.9643L40.9999 89.1628L30.6984 78.9643C13.5293 74.4611 0.864251 59.0088 0.864251 40.5986ZM37.1795 49.4073H47.2036L48.7528 20.6715H35.6303L37.1795 49.4073ZM37.6351 55.513C36.3796 56.3837 35.7518 57.8924 35.7518 60.039C35.7518 62.0843 36.3796 63.5626 37.6351 64.4739C38.9109 65.3852 40.4196 65.8409 42.1612 65.8409C43.8825 65.8409 45.3608 65.3852 46.5961 64.4739C47.8314 63.5626 48.449 62.0843 48.449 60.039C48.449 57.8924 47.8314 56.3837 46.5961 55.513C45.3608 54.6422 43.8825 54.2068 42.1612 54.2068C40.4196 54.2068 38.9109 54.6422 37.6351 55.513Z" fill="#CD2127"/>
<path d="M51.3014 78.9643L51.0822 78.1285C50.9354 78.167 50.8014 78.2435 50.6935 78.3503L51.3014 78.9643ZM40.9999 89.1628L40.3921 89.7768C40.7288 90.1101 41.2711 90.1101 41.6078 89.7768L40.9999 89.1628ZM30.6984 78.9643L31.3063 78.3503C31.1985 78.2435 31.0644 78.167 30.9177 78.1285L30.6984 78.9643ZM47.2036 49.4073V50.2714C47.6627 50.2714 48.0417 49.9123 48.0664 49.4539L47.2036 49.4073ZM37.1795 49.4073L36.3167 49.4539C36.3414 49.9123 36.7203 50.2714 37.1795 50.2714V49.4073ZM48.7528 20.6715L49.6156 20.718C49.6283 20.4811 49.5431 20.2494 49.38 20.0772C49.2168 19.905 48.99 19.8074 48.7528 19.8074V20.6715ZM35.6303 20.6715V19.8074C35.393 19.8074 35.1663 19.905 35.0031 20.0772C34.8399 20.2494 34.7547 20.4811 34.7675 20.718L35.6303 20.6715ZM37.6351 55.513L37.148 54.7993L37.1427 54.803L37.6351 55.513ZM37.6351 64.4739L37.1276 65.1732L37.1329 65.177L37.6351 64.4739ZM40.9999 0.000217757C18.3671 0.000217757 0.000217757 18.171 0.000217757 40.5986H1.72828C1.72828 19.1418 19.3051 1.72828 40.9999 1.72828V0.000217757ZM81.9997 40.5986C81.9997 18.171 63.6327 0.000217757 40.9999 0.000217757V1.72828C62.6948 1.72828 80.2716 19.1418 80.2716 40.5986H81.9997ZM51.5206 79.8C69.0537 75.2014 81.9997 59.4179 81.9997 40.5986H80.2716C80.2716 58.5998 67.8874 73.7207 51.0822 78.1285L51.5206 79.8ZM41.6078 89.7768L51.9093 79.5783L50.6935 78.3503L40.3921 88.5487L41.6078 89.7768ZM30.0906 79.5783L40.3921 89.7768L41.6078 88.5487L31.3063 78.3503L30.0906 79.5783ZM0.000217757 40.5986C0.000217757 59.4179 12.9462 75.2014 30.4792 79.8L30.9177 78.1285C14.1124 73.7207 1.72828 58.5998 1.72828 40.5986H0.000217757ZM47.2036 48.5433H37.1795V50.2714H47.2036V48.5433ZM47.89 20.625L46.3408 49.3608L48.0664 49.4539L49.6156 20.718L47.89 20.625ZM35.6303 21.5355H48.7528V19.8074H35.6303V21.5355ZM38.0422 49.3608L36.4931 20.625L34.7675 20.718L36.3167 49.4539L38.0422 49.3608ZM36.6158 60.039C36.6158 58.052 37.1906 56.8727 38.1275 56.2229L37.1427 54.803C35.5685 55.8948 34.8877 57.7329 34.8877 60.039H36.6158ZM38.1426 63.7747C37.1791 63.0753 36.6158 61.9041 36.6158 60.039H34.8877C34.8877 62.2646 35.58 64.0499 37.1276 65.1732L38.1426 63.7747ZM42.1612 64.9768C40.5788 64.9768 39.2504 64.5659 38.1373 63.7708L37.1329 65.177C38.5714 66.2045 40.2604 66.7049 42.1612 66.7049V64.9768ZM46.0831 63.7786C45.0142 64.5672 43.7213 64.9768 42.1612 64.9768V66.7049C44.0436 66.7049 45.7073 66.2033 47.109 65.1692L46.0831 63.7786ZM47.585 60.039C47.585 61.9092 47.0284 63.0813 46.0831 63.7786L47.109 65.1692C48.6343 64.044 49.3131 62.2595 49.3131 60.039H47.585ZM46.0983 56.2192C47.017 56.8668 47.585 58.0469 47.585 60.039H49.3131C49.3131 57.738 48.6457 55.9006 47.0939 54.8067L46.0983 56.2192ZM42.1612 55.0708C43.7299 55.0708 45.0283 55.4649 46.0983 56.2192L47.0939 54.8067C45.6932 53.8194 44.035 53.3427 42.1612 53.3427V55.0708ZM38.1222 56.2266C39.2366 55.466 40.5704 55.0708 42.1612 55.0708V53.3427C40.2688 53.3427 38.5852 53.8183 37.148 54.7993L38.1222 56.2266Z" fill="#CD2127"/>
<defs>
<filter id="filter0_f_1316_74890" x="10.4497" y="81.7309" width="61.7424" height="20.6429" filterUnits="userSpaceOnUse" color-interpolation-filters="sRGB">
<feFlood flood-opacity="0" result="BackgroundImageFix"/>
<feBlend mode="normal" in="SourceGraphic" in2="BackgroundImageFix" result="shape"/>
<feGaussianBlur stdDeviation="2.58333" result="effect1_foregroundBlur_1316_74890"/>
</filter>
</defs>
</svg>
