<svg width="28" height="26" viewBox="0 0 28 26" fill="none" xmlns="http://www.w3.org/2000/svg">
<path fill-rule="evenodd" clip-rule="evenodd" d="M7.60319 6.13037C6.5118 8.25085 6.2592 11.4995 7.1954 15.7077C7.2286 15.8561 7.23835 16.0088 7.22429 16.1602C7.23882 16.3278 7.21833 16.4967 7.16412 16.656C7.10991 16.8153 7.02318 16.9615 6.90941 17.0855C6.79565 17.2095 6.65735 17.3085 6.5033 17.3762C6.34924 17.4439 6.1828 17.4788 6.01453 17.4787H5.96978H5.85311C5.79615 17.4821 5.73903 17.4821 5.68207 17.4787C4.75832 17.4691 3.43982 17.4124 2.31728 16.8415C1.58967 16.4785 0.991627 15.9 0.604578 15.1849C0.181501 14.4146 -0.0144625 13.4728 0.000829442 12.3621C0.0280151 10.4166 0.680471 9.05113 1.83756 8.22593C2.54269 7.72696 3.34467 7.49588 4.08208 7.38714C4.2956 6.4549 4.60654 5.58892 5.01205 4.79657C6.60412 1.69741 9.57755 0 13.5404 0C17.5016 0 20.4728 1.69741 22.0688 4.79657C22.4749 5.58496 22.7813 6.44697 22.9971 7.37355C23.7311 7.47436 24.5331 7.69185 25.2416 8.17156C26.4457 8.98543 27.131 10.3657 27.1582 12.3621C27.1735 13.4824 26.9735 14.4322 26.5448 15.2087C26.1508 15.9269 25.5434 16.505 24.8066 16.863C24.0301 17.2476 23.1619 17.3915 22.3967 17.4458C20.8783 21.8188 17.2218 25.3297 13.2776 25.9804C13.0889 26.0117 12.8959 26.0054 12.7097 25.9621C12.5234 25.9187 12.3475 25.8391 12.1919 25.7278C12.0364 25.6165 11.9044 25.4756 11.8033 25.3132C11.7022 25.1508 11.6341 24.9701 11.6029 24.7814C11.5716 24.5927 11.5779 24.3997 11.6212 24.2135C11.6646 24.0272 11.7442 23.8513 11.8555 23.6957C11.9669 23.5402 12.1077 23.4082 12.2701 23.3071C12.4325 23.206 12.6132 23.1379 12.8019 23.1067C15.6819 22.6309 18.849 19.662 19.8894 15.681C20.8194 11.4848 20.5651 8.24406 19.4777 6.12924C18.4486 4.13109 16.5671 2.91566 13.5393 2.91566C10.5098 2.91566 8.62662 4.13109 7.60092 6.12924L7.60319 6.13037Z" fill="#064782"/>
</svg>
