<svg width="24" height="24" viewBox="0 0 24 24" fill="none" xmlns="http://www.w3.org/2000/svg">
<g clip-path="url(#clip0_1844_75628)">
<path fill-rule="evenodd" clip-rule="evenodd" d="M12.4279 0.479492C8.97873 0.479492 6.16216 1.45321 4.20959 3.40578C2.25702 5.36006 1.28502 8.17664 1.28502 11.6241C1.28502 13.5852 1.59873 15.3424 2.23131 16.8526L0.657592 21.1829C0.547644 21.4858 0.525268 21.8135 0.593031 22.1285C0.660793 22.4434 0.81595 22.733 1.04071 22.9638C1.26547 23.1947 1.55074 23.3575 1.8638 23.4336C2.17687 23.5098 2.50505 23.4962 2.81073 23.3944L7.34845 21.8824C8.82616 22.4738 10.5302 22.7669 12.4279 22.7669C15.877 22.7669 18.6936 21.7932 20.6444 19.8406C22.5987 17.8881 23.5707 15.0732 23.5707 11.6241C23.5707 8.17492 22.597 5.35835 20.6444 3.40578C18.6936 1.45321 15.877 0.479492 12.4279 0.479492ZM7.17702 9.42806C7.17702 8.83663 7.65702 8.35663 8.24845 8.35663H16.6056C16.8897 8.35663 17.1623 8.46952 17.3632 8.67045C17.5641 8.87138 17.677 9.1439 17.677 9.42806C17.677 9.71222 17.5641 9.98475 17.3632 10.1857C17.1623 10.3866 16.8897 10.4995 16.6056 10.4995H8.25188C7.96772 10.4995 7.69519 10.3866 7.49426 10.1857C7.29333 9.98475 7.18045 9.71222 7.18045 9.42806H7.17702ZM8.24845 13.4995C7.96429 13.4995 7.69177 13.6124 7.49083 13.8133C7.2899 14.0142 7.17702 14.2868 7.17702 14.5709C7.17702 14.8551 7.2899 15.1276 7.49083 15.3285C7.69177 15.5295 7.96429 15.6424 8.24845 15.6424H14.5707C14.8549 15.6424 15.1274 15.5295 15.3283 15.3285C15.5293 15.1276 15.6422 14.8551 15.6422 14.5709C15.6422 14.2868 15.5293 14.0142 15.3283 13.8133C15.1274 13.6124 14.8549 13.4995 14.5707 13.4995H8.24845Z" fill="#064782"/>
</g>
<defs>
<clipPath id="clip0_1844_75628">
<rect width="24" height="24" fill="white"/>
</clipPath>
</defs>
</svg>
