<svg width="62" height="27" viewBox="0 0 62 27" fill="none" xmlns="http://www.w3.org/2000/svg">
<path d="M53.3042 13.5484C53.6176 12.9241 53.8943 12.2679 54.356 11.7438C54.9337 11.088 55.6081 10.5979 56.48 10.656C56.7217 10.6722 57.4128 10.6185 57.7502 11.3291C58.0376 11.9342 57.9871 12.6346 57.784 13.2909C57.784 13.2909 57.9133 13.7734 57.5425 13.8686C56.2112 14.2105 52.8363 14.4802 53.3042 13.5484Z" fill="#15170C"/>
<path d="M28.8697 16.5718C29.2258 16.1099 29.5209 15.6018 29.8977 15.1565C30.8657 14.012 32.3751 13.3469 33.8729 13.4049C34.5346 13.4304 35.1415 13.6574 35.7334 14.3712C35.9734 14.6606 36.9244 16.1102 35.7948 19.4211C35.7948 19.4211 27.8406 17.9064 28.8697 16.5718Z" fill="#15170C"/>
<path d="M15.283 16.7175C15.283 13.9745 13.6916 11.751 11.7284 11.751C9.76517 11.751 7.34204 13.9745 7.34204 16.7175C7.34204 19.4604 8.93351 21.6838 10.8967 21.6838H13.5091L15.283 16.7175Z" fill="#545454"/>
<path d="M13.5091 21.6837C15.4723 21.6837 17.0638 19.4602 17.0638 16.7174C17.0638 13.9745 15.4723 11.751 13.5091 11.751C11.5459 11.751 9.95447 13.9745 9.95447 16.7174C9.95447 19.4602 11.5459 21.6837 13.5091 21.6837Z" fill="#2C2B2C"/>
<g opacity="0.4" filter="url(#filter0_f_715_21365)">
<path d="M31 25L10 21.5L36 14.5L57.5 19.5L31 25Z" fill="#1F1F1F"/>
</g>
<path d="M61.764 7.64885L58.5996 5.98244L55.8759 4.54883L60.3231 4.86483L60.6565 4.88862C60.7849 4.89778 60.9026 4.96844 60.9661 5.08041C61.4118 5.86579 61.6866 6.74841 61.764 7.64885Z" fill="#006BD9"/>
<path opacity="0.4" d="M61.764 7.64885L58.5996 5.98244L55.8759 4.54883L60.3231 4.86483L60.6565 4.88862C60.7849 4.89778 60.9026 4.96844 60.9661 5.08041C61.4118 5.86579 61.6866 6.74841 61.764 7.64885Z" fill="#006BD9"/>
<path opacity="0.4" d="M60.6534 4.8822L60.3245 4.85742C59.9525 6.13139 58.5295 5.97881 58.5295 5.97881L61.7761 7.80775C61.7192 6.85367 61.4391 5.91412 60.9671 5.08315C60.9019 4.9683 60.7852 4.89206 60.6534 4.8822Z" fill="#006BD9"/>
<path d="M60.3236 4.91797C60.1949 5.49205 59.5578 5.87663 59.021 5.97377" stroke="#17488D" stroke-width="1.4623" stroke-miterlimit="10" stroke-linecap="round" stroke-linejoin="round"/>
<path d="M2.39697 16.3047C2.71477 16.7753 3.24217 17.6694 4.56531 18.4089C5.29634 18.8175 17.8635 20.1592 22.8909 20.0684C24.5374 20.0386 26.5194 19.9862 27.8584 17.8733L2.39697 16.3047Z" fill="#545454"/>
<path d="M59.7766 13.5873C58.9493 13.9276 58.104 14.2238 57.2459 14.4747C57.7792 13.5838 58.2242 12.327 57.7501 11.3289C57.4133 10.6189 56.722 10.6719 56.4798 10.6563C55.6076 10.5981 54.9339 11.0888 54.3559 11.7437C53.8943 12.2676 53.6178 12.9247 53.3039 13.5483C52.7311 14.6887 51.9827 15.7844 50.9794 16.5548C46.1141 17.9208 39.8539 18.8803 35.7933 19.4251C36.9254 16.111 35.9732 14.6607 35.733 14.3717C35.1415 13.6575 34.5344 13.4309 33.8732 13.4049C32.3752 13.3467 30.8657 14.012 29.8979 15.1566C29.5205 15.6015 29.2264 16.1099 28.8698 16.5725C27.8596 17.8818 26.3445 18.7924 24.7138 19.0712C24.6526 19.0816 24.5911 19.086 24.5289 19.0854C23.148 19.0726 6.81552 18.8772 2.83885 16.7679L1.77429 13.3747C1.33586 12.5776 1.07102 11.2507 1.15721 10.0544C1.17562 9.79946 1.34253 9.57841 1.58548 9.49899C7.25733 7.64566 13.1822 6.72791 19.1528 6.64351C20.1769 5.82667 23.9278 2.85246 26.7948 0.837299C27.35 0.447047 28.0011 0.215741 28.6783 0.17165C34.8007 -0.227062 41.9774 0.0903356 47.3638 0.900798C47.8023 0.966786 48.2326 1.07159 48.6533 1.21133C51.0904 2.0207 55.2647 3.72592 61.7711 7.30478C62.0149 8.84439 61.8509 10.6404 61.3013 12.039C61.0253 12.7413 60.4744 13.3003 59.7766 13.5873Z" fill="#006BD9"/>
<path d="M35.9026 19.0889C39.724 18.5704 46.0551 17.6124 51.1135 16.4469C51.2606 16.327 51.4023 16.2005 51.5384 16.0674C46.4522 17.2686 39.9285 18.2607 35.9896 18.7967C35.9625 18.8922 35.9334 18.9896 35.9026 19.0889Z" fill="#61A0CE"/>
<path d="M36.3355 16.6029C40.8349 15.7918 48.9795 14.6152 53.0766 13.9803C53.1382 13.8684 53.1975 13.7557 53.2554 13.6426C49.2188 14.2708 40.8939 15.4709 36.3298 16.294C36.3343 16.3927 36.3363 16.4957 36.3355 16.6029Z" fill="#61A0CE"/>
<path d="M36.0544 18.5578C40.0749 18.0096 46.7276 16.9942 51.8255 15.7689C52.2379 15.3148 52.5965 14.8049 52.9106 14.2705C48.7605 14.9115 40.7654 16.0686 36.3276 16.8689C36.3035 17.3523 36.2219 17.9128 36.0544 18.5578Z" fill="#61A0CE"/>
<path opacity="0.15" d="M38.2757 8.08022L38.3025 7.33167C38.3025 7.33167 29.4754 6.35032 26.6757 6.24661C24.0608 6.14976 21.7294 6.12369 19.7982 6.13105C19.5287 6.34434 19.3088 6.51931 19.1529 6.64363C13.7848 6.71947 8.4537 7.46982 3.31006 8.96742C3.76182 9.1205 4.0186 9.29507 4.33033 9.65338C4.33033 9.65338 7.14301 9.40953 10.3141 9.79331C13.4852 10.1771 16.4341 10.4599 17.4035 11.1668C17.4035 11.1668 19.899 10.732 21.3525 11.3857L21.8627 11.6523C26.3823 9.65915 31.6336 8.71343 38.4293 8.67999L38.2757 8.08022Z" fill="white"/>
<path d="M38.4346 7.23633C38.2479 7.59244 38.2253 8.21002 38.4049 8.56802C38.5149 8.78758 38.6055 9.0156 38.6481 9.25746C38.831 10.2966 39.1748 13.0049 38.5668 16.3489C38.2959 17.8389 38.1968 18.252 38.2212 18.8384" stroke="#00489A" stroke-width="1.6712" stroke-miterlimit="10" stroke-linecap="round" stroke-linejoin="round"/>
<path d="M50.2153 6.71582C50.4411 6.94394 50.6317 7.20391 50.8214 7.46278C51.1207 7.87115 51.4224 8.2839 51.6242 8.7482C51.8259 9.2125 51.9386 9.78091 51.7474 10.4694C51.3087 12.0489 51.4988 15.1933 50.7639 16.7047" stroke="#00489A" stroke-width="1.6712" stroke-miterlimit="10" stroke-linecap="round" stroke-linejoin="round"/>
<path d="M40.4283 1.76195C42.7927 1.10257 46.6758 1.00105 50.5487 2.03386" stroke="#00489A" stroke-width="1.6712" stroke-miterlimit="10" stroke-linecap="round" stroke-linejoin="round"/>
<path opacity="0.1" d="M56.9614 10.3256C56.4265 10.2073 55.7905 10.2907 55.284 10.4996C54.6426 10.7642 54.0558 11.2689 53.6277 11.8629C53.2143 12.4367 52.5813 12.8121 51.8806 12.9078C47.4367 13.515 42.4093 14.237 37.9829 14.7241C37.4845 14.779 36.9836 14.5867 36.6713 14.1943C35.9653 13.3075 34.8019 12.7876 33.6566 12.813C32.2624 12.8438 30.9389 13.6133 30.0855 14.7163C29.7727 15.1206 29.519 15.5645 29.2703 16.012C29.4705 15.7197 29.6689 15.4264 29.8979 15.1564C30.8657 14.0118 32.3752 13.3464 33.8732 13.4047C34.5343 13.4306 35.1415 13.6573 35.733 14.3715C35.9731 14.6605 36.9253 16.1107 35.7933 19.4249C39.8539 18.8801 46.1141 17.9206 50.9794 16.5546C51.9825 15.7842 52.7311 14.6885 53.3039 13.5481C53.6178 12.9243 53.8944 12.2674 54.3559 11.7434C54.9338 11.0885 55.6076 10.5979 56.4797 10.6561C56.722 10.6717 57.4133 10.6187 57.7501 11.3287C58.2242 12.3267 57.7793 13.5835 57.2459 14.4745C57.4438 14.4167 57.6407 14.3555 57.8373 14.2928C57.9802 13.8137 58.0965 13.3266 58.1832 12.8343C58.2672 12.3566 58.3213 11.8489 58.1379 11.4001C57.9307 10.8931 57.4962 10.444 56.9614 10.3256Z" fill="#005AD3"/>
<path d="M51.8573 13.447C52.2096 13.3924 52.9522 13.2602 53.2581 13.2119" stroke="#00489A" stroke-width="1.0445" stroke-miterlimit="10" stroke-linecap="round" stroke-linejoin="round"/>
<path d="M38.9886 15.4296C42.6147 14.8364 47.6124 14.0638 51.0591 13.5352" stroke="#00489A" stroke-width="1.0445" stroke-miterlimit="10" stroke-linecap="round" stroke-linejoin="round"/>
<path d="M36.6868 15.7979C37.2109 15.7051 37.7781 15.6079 38.378 15.5078" stroke="#00489A" stroke-width="1.0445" stroke-miterlimit="10" stroke-linecap="round" stroke-linejoin="round"/>
<path opacity="0.2" d="M52.6282 9.21823C52.0581 9.37907 51.4846 9.52537 50.9045 9.64511C49.0294 10.0323 44.8629 10.8481 41.3524 11.2199C40.2621 11.3353 39.1669 11.3867 38.0706 11.3876C36.132 11.389 30.942 11.6935 29.2386 14.8102C28.0029 17.0713 25.6948 18.4414 24.3527 19.0839C24.4366 19.0849 24.502 19.0855 24.5472 19.0859C24.5972 19.0864 24.6466 19.0828 24.6958 19.0746C26.3332 18.7993 27.8557 17.8869 28.8697 16.5728C29.2263 16.1102 29.5205 15.6018 29.8978 15.1569C30.8656 14.0123 32.3751 13.347 33.8731 13.4052C34.5343 13.4312 35.1414 13.6578 35.7329 14.372C35.973 14.6611 36.9252 16.1112 35.7932 19.4254C39.8538 18.8807 46.114 17.9211 50.9793 16.5551C51.9824 15.7847 52.731 14.689 53.3038 13.5486C53.6177 12.9249 53.8943 12.2679 54.3558 11.744C54.9338 11.0891 55.6075 10.5984 56.4796 10.6566C56.7219 10.6722 57.4132 10.6192 57.75 11.3292C58.2241 12.3272 57.7792 13.5841 57.2458 14.475C58.1037 14.2242 58.9489 13.928 59.776 13.5878C60.4694 13.3027 61.0201 12.7501 61.2958 12.0531C61.7365 10.939 61.9315 9.57036 61.8697 8.27957C58.6017 8.17228 55.7346 8.34198 52.6282 9.21823Z" fill="#006BD9"/>
<path d="M24.2592 16.1516L26.9196 16.0195L26.9441 16.795L24.285 16.9536L24.2592 16.1516Z" fill="#F79E0A"/>
<path opacity="0.6" d="M25.3763 16.5421C25.1898 16.5432 25.0016 16.5501 24.8209 16.5961C24.6401 16.6422 24.4656 16.7308 24.3446 16.8727L24.2857 16.9376L24.2848 16.9542L26.9439 16.7956L26.9214 16.085C26.6409 16.3139 26.2793 16.4436 25.9178 16.4993C25.4648 16.5691 25.8348 16.5393 25.3763 16.5421Z" fill="#F79E0A"/>
<path d="M26.8237 16.1235L26.842 16.7019L24.3808 16.8488L24.3614 16.2459L26.8237 16.1235ZM26.9196 16.0195L24.2592 16.1516L24.285 16.9537L26.9441 16.7951L26.9196 16.0195Z" fill="#9FB0C2"/>
<path d="M59.1727 11.6193L60.839 11.3223L60.8508 11.8456L59.1851 12.1606L59.1727 11.6193Z" fill="#F79E0A"/>
<path opacity="0.6" d="M59.9782 11.8438C59.4337 11.7427 59.2714 12.0091 59.2135 12.1049L59.1855 12.1487L59.1851 12.1599L60.8507 11.8449L60.8399 11.3652C60.4273 11.4846 60.1933 11.8837 59.9782 11.8438Z" fill="#F79E0A"/>
<path d="M60.7426 11.44L60.7499 11.7638L59.2815 12.0415L59.2737 11.7019L60.7426 11.44ZM60.839 11.3223L59.1727 11.6193L59.1851 12.1606L60.8507 11.8456L60.839 11.3223Z" fill="#9FB0C2"/>
<path d="M21.6717 15.3503C20.5441 15.4727 19.7054 15.3025 19.1536 15.042C19.0597 14.9978 18.9873 14.9197 18.9471 14.824C18.5984 13.9915 18.408 12.8023 18.5051 11.7369C18.5228 11.543 18.677 11.3879 18.8703 11.3652C19.9843 11.2336 20.8389 11.368 21.436 11.6016C21.5498 11.6461 21.6371 11.7396 21.6753 11.8557C21.9248 12.6127 22.1633 13.8 22.0368 14.9858C22.0164 15.1771 21.8631 15.3295 21.6717 15.3503Z" fill="#006BD9"/>
<path opacity="0.7" d="M21.6717 15.3503C20.5441 15.4727 19.7054 15.3025 19.1536 15.042C19.0597 14.9978 18.9873 14.9197 18.9471 14.824C18.5984 13.9915 18.408 12.8023 18.5051 11.7369C18.5228 11.543 18.677 11.3879 18.8703 11.3652C19.9843 11.2336 20.8389 11.368 21.436 11.6016C21.5498 11.6461 21.6371 11.7396 21.6753 11.8557C21.9248 12.6127 22.1633 13.8 22.0368 14.9858C22.0164 15.1771 21.8631 15.3295 21.6717 15.3503Z" fill="#17488D"/>
<mask id="mask0_715_21365" style="mask-type:luminance" maskUnits="userSpaceOnUse" x="18" y="11" width="5" height="5">
<path d="M21.6717 15.3503C20.5441 15.4727 19.7054 15.3025 19.1536 15.042C19.0597 14.9978 18.9873 14.9197 18.9471 14.824C18.5984 13.9915 18.408 12.8023 18.5051 11.7369C18.5228 11.543 18.677 11.3879 18.8703 11.3652C19.9843 11.2336 20.8389 11.368 21.436 11.6016C21.5498 11.6461 21.6371 11.7396 21.6753 11.8557C21.9248 12.6127 22.1633 13.8 22.0368 14.9858C22.0164 15.1771 21.8631 15.3295 21.6717 15.3503Z" fill="white"/>
</mask>
<g mask="url(#mask0_715_21365)">
<path opacity="0.4" d="M18.6108 11.4004C18.5886 11.4037 18.5671 11.4063 18.5447 11.4098C18.3607 12.6136 18.5843 14.0524 19.0115 14.9693C19.0416 14.9858 19.0734 15.0019 19.1056 15.0179C19.554 14.6511 19.6006 14.5956 20.0366 14.2501C20.0369 13.588 19.977 12.9257 19.9355 12.265C19.9355 12.265 19.3408 11.9065 18.6108 11.4004Z" fill="#006BD9"/>
</g>
<mask id="mask1_715_21365" style="mask-type:luminance" maskUnits="userSpaceOnUse" x="18" y="11" width="5" height="5">
<path d="M21.6717 15.3503C20.5441 15.4727 19.7054 15.3025 19.1536 15.042C19.0597 14.9978 18.9873 14.9197 18.9471 14.824C18.5984 13.9915 18.408 12.8023 18.5051 11.7369C18.5228 11.543 18.677 11.3879 18.8703 11.3652C19.9843 11.2336 20.8389 11.368 21.436 11.6016C21.5498 11.6461 21.6371 11.7396 21.6753 11.8557C21.9248 12.6127 22.1633 13.8 22.0368 14.9858C22.0164 15.1771 21.8631 15.3295 21.6717 15.3503Z" fill="white"/>
</mask>
<g mask="url(#mask1_715_21365)">
<path d="M21.0177 15.0772C21.8469 15.0231 22.4671 14.1804 22.4028 13.1949C22.3385 12.2094 21.6141 11.4544 20.7848 11.5085C19.9556 11.5626 19.3354 12.4053 19.3997 13.3908C19.464 14.3763 20.1884 15.1313 21.0177 15.0772Z" fill="#858585"/>
<path d="M19.3995 13.3892C19.4638 14.3746 20.1193 15.1342 20.8637 15.0857C21.6081 15.0371 22.1593 14.1989 22.095 13.2133C22.0308 12.2278 21.3753 11.4683 20.6309 11.5169C19.8865 11.5654 19.3352 12.4037 19.3995 13.3892Z" fill="#9FB0C2"/>
<path opacity="0.6" d="M19.6008 13.3758C19.6589 14.2667 20.2108 14.9559 20.8336 14.9153C21.4563 14.8747 21.9139 14.1196 21.8559 13.2287C21.7978 12.3378 21.2458 11.6486 20.6232 11.6892C20.0004 11.7298 19.5427 12.4849 19.6008 13.3758Z" fill="#9FB0C2"/>
<path opacity="0.6" d="M21.2851 12.4581C21.3537 12.3316 21.3932 12.1969 21.4088 12.0613C21.1915 11.8133 20.9155 11.6701 20.6231 11.6892C20.0004 11.7298 19.5428 12.4849 19.6008 13.3758C19.6098 13.5142 19.632 13.6469 19.6633 13.7735C19.7948 13.5986 19.9185 13.4147 20.1202 13.2937C20.2474 13.2175 20.3984 13.1711 20.5379 13.1099C20.8691 12.9647 21.1374 12.7306 21.2851 12.4581Z" fill="#9FB0C2"/>
</g>
<mask id="mask2_715_21365" style="mask-type:luminance" maskUnits="userSpaceOnUse" x="1" y="9" width="3" height="5">
<path d="M3.71152 13.0203C3.80299 11.8793 3.62732 10.7385 3.44289 10.0088C3.41353 9.8927 3.3361 9.79397 3.22831 9.74171C2.82761 9.54724 2.27701 9.43118 1.57782 9.50275C1.57653 9.50314 1.57534 9.50354 1.57404 9.50394C1.34045 9.58018 1.17692 9.78929 1.15851 10.0343C1.08138 11.0616 1.26471 12.187 1.59514 12.9927C1.63585 13.092 1.71149 13.173 1.80973 13.2161C2.19003 13.3831 2.70031 13.4754 3.34157 13.4001C3.53924 13.3769 3.6956 13.2187 3.71152 13.0203Z" fill="white"/>
</mask>
<g mask="url(#mask2_715_21365)">
<path d="M3.67779 13.3472C3.84878 12.0049 3.61329 10.6084 3.39612 9.83271C2.98696 9.58568 2.38033 9.42056 1.57783 9.50277C1.45352 9.54338 1.32861 9.5819 1.2046 9.6235C1.02495 10.8145 1.24212 12.2282 1.66044 13.1433C2.11061 13.386 2.78223 13.523 3.67779 13.3472Z" fill="#006BD9"/>
</g>
<mask id="mask3_715_21365" style="mask-type:luminance" maskUnits="userSpaceOnUse" x="1" y="9" width="3" height="5">
<path d="M3.71152 13.0203C3.80299 11.8793 3.62732 10.7385 3.44289 10.0088C3.41353 9.8927 3.3361 9.79397 3.22831 9.74171C2.82761 9.54724 2.27701 9.43118 1.57782 9.50275C1.57653 9.50314 1.57534 9.50354 1.57404 9.50394C1.34045 9.58018 1.17692 9.78929 1.15851 10.0343C1.08138 11.0616 1.26471 12.187 1.59514 12.9927C1.63585 13.092 1.71149 13.173 1.80973 13.2161C2.19003 13.3831 2.70031 13.4754 3.34157 13.4001C3.53924 13.3769 3.6956 13.2187 3.71152 13.0203Z" fill="white"/>
</mask>
<g mask="url(#mask3_715_21365)">
<path opacity="0.7" d="M3.67779 13.3472C3.84878 12.0049 3.61329 10.6084 3.39612 9.83271C2.98696 9.58568 2.38033 9.42056 1.57783 9.50277C1.45352 9.54338 1.32861 9.5819 1.2046 9.6235C1.02495 10.8145 1.24212 12.2282 1.66044 13.1433C2.11061 13.386 2.78223 13.523 3.67779 13.3472Z" fill="#17488D"/>
</g>
<mask id="mask4_715_21365" style="mask-type:luminance" maskUnits="userSpaceOnUse" x="1" y="9" width="3" height="5">
<path d="M3.71152 13.0203C3.80299 11.8793 3.62732 10.7385 3.44289 10.0088C3.41353 9.8927 3.3361 9.79397 3.22831 9.74171C2.82761 9.54724 2.27701 9.43118 1.57782 9.50275C1.57653 9.50314 1.57534 9.50354 1.57404 9.50394C1.34045 9.58018 1.17692 9.78929 1.15851 10.0343C1.08138 11.0616 1.26471 12.187 1.59514 12.9927C1.63585 13.092 1.71149 13.173 1.80973 13.2161C2.19003 13.3831 2.70031 13.4754 3.34157 13.4001C3.53924 13.3769 3.6956 13.2187 3.71152 13.0203Z" fill="white"/>
</mask>
<g mask="url(#mask4_715_21365)">
<path opacity="0.4" d="M2.68747 12.3769C2.68747 11.7058 2.61441 11.0337 2.56385 10.3636C2.56385 10.3636 1.97245 10.0681 1.2032 9.63477C1.03758 10.7481 1.21733 12.0534 1.5834 12.9643C1.86148 12.8441 2.32827 12.6133 2.68747 12.3769Z" fill="#006BD9"/>
</g>
<mask id="mask5_715_21365" style="mask-type:luminance" maskUnits="userSpaceOnUse" x="1" y="9" width="3" height="5">
<path d="M3.71152 13.0203C3.80299 11.8793 3.62732 10.7385 3.44289 10.0088C3.41353 9.8927 3.3361 9.79397 3.22831 9.74171C2.82761 9.54724 2.27701 9.43118 1.57782 9.50275C1.57653 9.50314 1.57534 9.50354 1.57404 9.50394C1.34045 9.58018 1.17692 9.78929 1.15851 10.0343C1.08138 11.0616 1.26471 12.187 1.59514 12.9927C1.63585 13.092 1.71149 13.173 1.80973 13.2161C2.19003 13.3831 2.70031 13.4754 3.34157 13.4001C3.53924 13.3769 3.6956 13.2187 3.71152 13.0203Z" fill="white"/>
</mask>
<g mask="url(#mask5_715_21365)">
<path d="M3.30092 13.1161C4.15521 13.0253 4.76589 12.181 4.66491 11.2301C4.56393 10.2792 3.78954 9.58193 2.93525 9.67265C2.08096 9.76337 1.47029 10.6077 1.57126 11.5586C1.67224 12.5095 2.44664 13.2068 3.30092 13.1161Z" fill="#858585"/>
<path d="M1.56472 11.49C1.6312 12.4438 2.30919 13.1789 3.07915 13.132C3.849 13.085 4.4192 12.2736 4.35272 11.3198C4.28623 10.3661 3.60814 9.63094 2.83829 9.67791C2.06843 9.72489 1.49823 10.5362 1.56472 11.49Z" fill="#9FB0C2"/>
<path opacity="0.6" d="M1.77285 11.4768C1.83296 12.339 2.40386 13.0061 3.04791 12.9667C3.69196 12.9274 4.16542 12.1966 4.1053 11.3344C4.04519 10.4722 3.47429 9.80511 2.83024 9.84443C2.18609 9.88374 1.71273 10.6146 1.77285 11.4768Z" fill="#9FB0C2"/>
<path opacity="0.6" d="M3.5149 10.5886C3.58586 10.4662 3.62677 10.3359 3.64289 10.2046C3.41806 9.96453 3.13261 9.82599 2.83024 9.8444C2.18619 9.88372 1.71273 10.6146 1.77285 11.4768C1.7822 11.6107 1.80509 11.7391 1.83744 11.8618C1.9734 11.6925 2.10139 11.5144 2.31 11.3974C2.44158 11.3235 2.59774 11.2787 2.74206 11.2195C3.08454 11.079 3.36212 10.8523 3.5149 10.5886Z" fill="#9FB0C2"/>
</g>
<path d="M16.8731 15.1852C10.6707 15.1852 5.31567 13.9816 4.72556 13.8443C4.6117 13.8178 4.52252 13.7253 4.49844 13.6084C4.29112 12.6061 4.29191 11.5055 4.50053 10.5095C4.52959 10.3706 4.64863 10.2721 4.78996 10.2699C4.84878 10.2691 4.91019 10.2686 4.97408 10.2686C7.51456 10.2686 13.7757 10.9661 16.2805 11.3244C16.3641 11.3363 16.4367 11.381 16.4851 11.4505C16.8604 11.9887 17.5104 13.1469 17.6468 14.8558C17.6536 14.9408 17.6257 15.0224 17.5682 15.0854C17.5116 15.1474 17.4346 15.1819 17.3513 15.1827C17.1914 15.1844 17.032 15.1852 16.8731 15.1852Z" fill="#2C2B2C"/>
<path d="M4.97435 10.3967C7.50865 10.3967 13.7604 11.0933 16.2622 11.4512C16.3102 11.4581 16.3518 11.4838 16.3795 11.5235C16.7475 12.0512 17.3847 13.187 17.5187 14.8657C17.5225 14.9147 17.5064 14.9619 17.4732 14.9982C17.4545 15.0186 17.4137 15.0531 17.3499 15.0538C17.191 15.0554 17.0317 15.0562 16.8736 15.0562C10.6854 15.0562 5.3434 13.8556 4.75469 13.7186C4.6895 13.7035 4.63834 13.6498 4.62431 13.5819C4.42047 12.5966 4.42127 11.5146 4.6263 10.5355C4.64302 10.4559 4.71099 10.3993 4.79181 10.398C4.84994 10.3971 4.91085 10.3967 4.97415 10.3967H4.97435ZM4.97395 10.1396C4.90965 10.1396 4.84735 10.1401 4.78803 10.141C4.58738 10.1441 4.41599 10.2864 4.37489 10.4828C4.1609 11.5044 4.1612 12.6114 4.3727 13.6341C4.40683 13.7994 4.53214 13.9309 4.69656 13.9691C6.35541 14.3549 11.3593 15.3134 16.8737 15.3134C17.0327 15.3134 17.1928 15.3126 17.3525 15.3109C17.6013 15.3083 17.7947 15.0933 17.7749 14.8453C17.6389 13.1405 16.9913 11.9514 16.5904 11.3765C16.5221 11.2784 16.4171 11.2137 16.2986 11.1967C13.6214 10.8138 7.47272 10.1396 4.97395 10.1396Z" fill="#9FB0C2"/>
<g opacity="0.7">
<mask id="mask6_715_21365" style="mask-type:luminance" maskUnits="userSpaceOnUse" x="4" y="10" width="14" height="6">
<path d="M17.3525 15.3099C11.6514 15.3681 6.40318 14.3649 4.69656 13.9681C4.53214 13.9299 4.40683 13.7984 4.3727 13.6331C4.1612 12.6104 4.1609 11.5034 4.37489 10.4818C4.41599 10.2853 4.58738 10.1432 4.78803 10.14C7.15363 10.1037 13.5526 10.8029 16.2987 11.1957C16.4171 11.2127 16.5222 11.2773 16.5905 11.3755C16.9913 11.9503 17.639 13.1394 17.775 14.8443C17.7946 15.0922 17.6013 15.3073 17.3525 15.3099Z" fill="white"/>
</mask>
<g mask="url(#mask6_715_21365)">
<path d="M4.01318 10.584L17.6389 11.9777" stroke="#9FB0C2" stroke-width="1.0575" stroke-miterlimit="10"/>
<path d="M4.01318 11.2939L17.6389 12.6877" stroke="#9FB0C2" stroke-width="1.0575" stroke-miterlimit="10"/>
<path d="M3.53186 11.9561L18.1202 13.4461" stroke="#9FB0C2" stroke-width="1.0575" stroke-miterlimit="10"/>
<path d="M3.53186 12.665L18.1202 14.1551" stroke="#9FB0C2" stroke-width="1.0575" stroke-miterlimit="10"/>
<path d="M3.53186 13.375L18.1202 14.8649" stroke="#9FB0C2" stroke-width="1.0575" stroke-miterlimit="10"/>
</g>
</g>
<path d="M6.844 13.0691L5.41904 12.9178C5.29583 12.9047 5.20227 12.8008 5.20227 12.6769V11.59C5.20227 11.4461 5.32698 11.3338 5.4702 11.349L6.89515 11.5003C7.01837 11.5135 7.11193 11.6174 7.11193 11.7413V12.8281C7.11193 12.9721 6.98722 13.0842 6.844 13.0691Z" fill="#9FB0C2"/>
<mask id="mask7_715_21365" style="mask-type:luminance" maskUnits="userSpaceOnUse" x="5" y="11" width="3" height="3">
<path d="M6.84412 13.0681L5.41917 12.9168C5.29595 12.9037 5.20239 12.7998 5.20239 12.6759V11.589C5.20239 11.4451 5.3271 11.3328 5.47032 11.3481L6.89528 11.4993C7.01849 11.5125 7.11205 11.6164 7.11205 11.7403V12.8272C7.11205 12.9711 6.98734 13.0832 6.84412 13.0681Z" fill="white"/>
</mask>
<g mask="url(#mask7_715_21365)">
<path opacity="0.6" d="M7.14667 12.9487L5.64846 12.7933C5.5762 12.7856 5.52136 12.7246 5.52136 12.652V11.6265C5.52136 11.5421 5.59452 11.4762 5.67852 11.4852L7.14667 11.6374V12.9487Z" fill="#9FB0C2"/>
</g>
<mask id="mask8_715_21365" style="mask-type:luminance" maskUnits="userSpaceOnUse" x="5" y="11" width="3" height="3">
<path d="M6.84412 13.0681L5.41917 12.9168C5.29595 12.9037 5.20239 12.7998 5.20239 12.6759V11.589C5.20239 11.4451 5.3271 11.3328 5.47032 11.3481L6.89528 11.4993C7.01849 11.5125 7.11205 11.6164 7.11205 11.7403V12.8272C7.11205 12.9711 6.98734 13.0832 6.84412 13.0681Z" fill="white"/>
</mask>
<g mask="url(#mask8_715_21365)">
<path opacity="0.4" d="M5.66167 12.5613C5.72677 12.4791 5.77245 12.3823 5.84182 12.3037C5.99808 12.1265 6.2472 12.0677 6.48119 12.0351C6.66164 12.01 6.85413 11.9905 6.99755 11.8782C7.06165 11.828 7.10962 11.7629 7.14654 11.6906V11.6374L5.6784 11.4852C5.59439 11.4762 5.52124 11.5421 5.52124 11.6265V12.652C5.52124 12.6607 5.52442 12.6685 5.52592 12.6768C5.57827 12.65 5.62495 12.6078 5.66167 12.5613Z" fill="#9FB0C2"/>
</g>
<path opacity="0.4" d="M5.5216 11.6272C5.5216 11.5907 5.53494 11.558 5.55684 11.5337C5.48199 11.4771 5.40297 11.4269 5.32145 11.3818C5.25069 11.4238 5.20251 11.5009 5.20251 11.5902V12.6771C5.20251 12.7504 5.23576 12.816 5.28791 12.8607C5.38027 12.8274 5.47204 12.7922 5.55813 12.7475C5.55813 12.7475 5.55694 12.7475 5.55813 12.7463C5.53504 12.722 5.5217 12.6892 5.5217 12.6528L5.5216 11.6272Z" fill="#9FB0C2"/>
<path d="M16.0295 14.0145L14.5779 13.8603C14.4524 13.847 14.3571 13.7411 14.3571 13.6149V12.5076C14.3571 12.3609 14.4842 12.2466 14.63 12.2622L16.0816 12.4163C16.2071 12.4297 16.3024 12.5356 16.3024 12.6618V13.769C16.3024 13.9156 16.1753 14.03 16.0295 14.0145Z" fill="#9FB0C2"/>
<mask id="mask9_715_21365" style="mask-type:luminance" maskUnits="userSpaceOnUse" x="14" y="12" width="3" height="3">
<path d="M16.0295 14.0145L14.5779 13.8603C14.4524 13.847 14.3571 13.7411 14.3571 13.6149V12.5076C14.3571 12.3609 14.4842 12.2466 14.63 12.2622L16.0816 12.4163C16.2071 12.4297 16.3024 12.5356 16.3024 12.6618V13.769C16.3024 13.9156 16.1753 14.03 16.0295 14.0145Z" fill="white"/>
</mask>
<g mask="url(#mask9_715_21365)">
<path opacity="0.6" d="M16.3377 13.8923L14.8114 13.7339C14.7377 13.726 14.6819 13.6639 14.6819 13.5899V12.5452C14.6819 12.4592 14.7564 12.3922 14.842 12.4012L16.3377 12.5563V13.8923Z" fill="#9FB0C2"/>
</g>
<mask id="mask10_715_21365" style="mask-type:luminance" maskUnits="userSpaceOnUse" x="14" y="12" width="3" height="3">
<path d="M16.0295 14.0145L14.5779 13.8603C14.4524 13.847 14.3571 13.7411 14.3571 13.6149V12.5076C14.3571 12.3609 14.4842 12.2466 14.63 12.2622L16.0816 12.4163C16.2071 12.4297 16.3024 12.5356 16.3024 12.6618V13.769C16.3024 13.9156 16.1753 14.03 16.0295 14.0145Z" fill="white"/>
</mask>
<g mask="url(#mask10_715_21365)">
<path opacity="0.4" d="M14.825 13.4973C14.8913 13.4135 14.9379 13.3151 15.0085 13.235C15.1678 13.0544 15.4215 12.9945 15.66 12.9614C15.8438 12.9358 16.0399 12.916 16.186 12.8016C16.2513 12.7505 16.3001 12.6841 16.3377 12.6105V12.5563L14.842 12.4012C14.7564 12.3922 14.6819 12.4592 14.6819 12.5452V13.59C14.6819 13.5988 14.6851 13.6068 14.6867 13.6153C14.74 13.5876 14.7875 13.5447 14.825 13.4973Z" fill="#9FB0C2"/>
</g>
<path opacity="0.4" d="M14.6822 12.5449C14.6822 12.5078 14.6958 12.4745 14.718 12.4497C14.6417 12.392 14.5613 12.3409 14.4782 12.2949C14.4061 12.3377 14.3569 12.4161 14.3569 12.5072V13.6145C14.3569 13.6891 14.3908 13.756 14.4439 13.8016C14.538 13.7676 14.6315 13.7317 14.7192 13.6861C14.7192 13.6861 14.718 13.6861 14.7192 13.6848C14.6957 13.6602 14.6821 13.6267 14.6821 13.5896L14.6822 12.5449Z" fill="#9FB0C2"/>
<path d="M35.011 0.0039148C33.3493 -0.009223 31.9675 0.0217315 30.3677 0.0960794C29.3773 0.417159 28.8793 1.03822 28.8793 1.03822L31.9502 1.0841C31.9502 1.0841 32.2177 0.402129 33.677 0.1759C34.1644 0.100258 34.6178 0.0446221 35.011 0.0039148Z" fill="#61A0CE"/>
<path d="M36.5724 0.794417C36.7943 0.684935 37.0412 0.638556 37.285 0.596554C38.4742 0.392023 39.6771 0.267412 40.8829 0.22153C39.5299 0.131456 38.143 0.0673602 36.749 0.0322266C36.1423 0.0555163 35.4221 0.0980138 34.7159 0.175547C32.9738 0.366741 32.6338 1.11042 32.6338 1.11042L36.0797 1.32222C36.1533 1.08594 36.3506 0.903898 36.5724 0.794417Z" fill="#61A0CE"/>
<path d="M5.92041 10.2186C7.42489 8.99785 9.28249 8.33588 11.1772 8.02605C12.9379 7.6986 21.2038 6.50077 23.9871 6.21582L26.9598 6.42274C26.9598 6.42274 12.5355 7.25799 9.17122 10.3656L5.92041 10.2186Z" fill="#61A0CE"/>
<path d="M9.84814 10.4394C9.84814 10.4394 10.4943 8.91345 17.9491 7.66715C24.4571 6.5792 27.547 6.5166 27.547 6.5166L31.2073 6.71735C31.2073 6.71735 15.0502 8.49623 13.7091 10.7946L9.84814 10.4394Z" fill="#61A0CE"/>
<mask id="mask11_715_21365" style="mask-type:luminance" maskUnits="userSpaceOnUse" x="24" y="13" width="13" height="12">
<path d="M35.7621 24.7593H24.6224V19.0867C26.2876 18.8266 27.8405 17.9073 28.8696 16.5727C29.2257 16.1108 29.5208 15.6027 29.8976 15.1574C30.8656 14.013 32.375 13.3479 33.8728 13.4058C34.5345 13.4314 35.1414 13.6583 35.7333 14.3722C35.9733 14.6616 36.9243 16.1111 35.7947 19.4221L35.7621 24.7593Z" fill="white"/>
</mask>
<g mask="url(#mask11_715_21365)">
<path d="M33.9674 19.361C33.9674 16.6181 32.3759 14.3945 30.4127 14.3945C28.4495 14.3945 26.0264 16.6181 26.0264 19.361C26.0264 22.1039 27.6178 24.3274 29.581 24.3274H32.1935L33.9674 19.361Z" fill="#2C2B2C"/>
<path d="M32.1935 24.3273C34.1567 24.3273 35.7481 22.1038 35.7481 19.3609C35.7481 16.6181 34.1567 14.3945 32.1935 14.3945C30.2303 14.3945 28.6388 16.6181 28.6388 19.3609C28.6388 22.1038 30.2303 24.3273 32.1935 24.3273Z" fill="#545454"/>
<g opacity="0.5">
<path d="M32.1935 22.8187C31.0373 22.8187 30.0603 21.2351 30.0603 19.3606C30.0603 17.486 31.0372 15.9023 32.1935 15.9023C33.3498 15.9023 34.3265 17.4861 34.3265 19.3606C34.3265 21.235 33.3498 22.8187 32.1935 22.8187Z" fill="#C0BFC1"/>
</g>
<path d="M32.0477 22.5825C30.9705 22.5825 30.0603 21.107 30.0603 19.3606C30.0603 17.6142 30.9705 16.1387 32.0477 16.1387C33.125 16.1387 34.035 17.6142 34.035 19.3606C34.035 21.107 33.1249 22.5825 32.0477 22.5825Z" fill="#C0BFC1"/>
<g opacity="0.55">
<path d="M32.0477 22.5824C33.1249 22.5824 34.035 21.107 34.035 19.3605C34.035 19.199 34.0271 19.0398 34.0121 18.8838C32.6348 18.9902 31.2859 19.5037 30.1616 20.3542C30.4269 21.632 31.1832 22.5824 32.0477 22.5824Z" fill="#C0BFC1"/>
</g>
<path opacity="0.5" d="M32.1935 20.2952C31.8813 20.2952 31.6176 19.8676 31.6176 19.3615C31.6176 18.8554 31.8813 18.4277 32.1935 18.4277C32.5058 18.4277 32.7694 18.8553 32.7694 19.3615C32.7694 19.8677 32.5057 20.2952 32.1935 20.2952Z" fill="#545454"/>
<path d="M32.1206 20.1768C31.848 20.1768 31.6176 19.8033 31.6176 19.3613C31.6176 18.9193 31.8479 18.5459 32.1206 18.5459C32.3933 18.5459 32.6236 18.9193 32.6236 19.3613C32.6235 19.8033 32.3932 20.1768 32.1206 20.1768Z" fill="#858585"/>
</g>
<path d="M38.3104 7.31053C37.6009 7.24305 36.8805 7.17328 36.1522 7.10271C30.8904 6.59293 25.4495 6.06582 20.6683 6.06582C20.483 6.06582 20.2985 6.06662 20.1167 6.06831C21.6721 4.84092 24.2806 2.81153 26.473 1.24714C27.4247 1.20693 28.4081 1.18652 29.3968 1.18652C33.4768 1.18652 37.4013 1.53577 40.4011 1.84819C39.7436 3.65752 39.0407 5.49363 38.3104 7.31053Z" fill="#566966"/>
<path d="M29.3968 1.33528C33.3846 1.33528 37.2251 1.6696 40.1962 1.97644C39.5708 3.69132 38.905 5.42979 38.2139 7.15214C37.5408 7.08804 36.858 7.02185 36.1681 6.95507C30.9023 6.44489 25.4572 5.91738 20.6685 5.91738C20.6284 5.91738 20.5884 5.91738 20.5484 5.91748C22.1146 4.68581 24.4931 2.84423 26.5233 1.3939C27.459 1.35499 28.4252 1.33538 29.3966 1.33528H29.3968ZM29.3965 1.03809C28.412 1.03809 27.4211 1.05779 26.4226 1.10069C23.9942 2.83159 21.0657 5.12693 19.682 6.22264C20.0072 6.21726 20.3355 6.21458 20.6685 6.21458C26.1522 6.21468 32.6509 6.92312 38.4067 7.46904C39.1729 5.56664 39.9068 3.64962 40.6054 1.72016C36.893 1.3307 33.19 1.03809 29.3965 1.03809Z" fill="#C0BFC1"/>
<g opacity="0.4">
<mask id="mask12_715_21365" style="mask-type:luminance" maskUnits="userSpaceOnUse" x="20" y="1" width="21" height="7">
<path d="M40.1959 1.97593C39.5709 3.69081 38.905 5.42957 38.2143 7.15242C37.5405 7.08772 36.8577 7.02203 36.168 6.95535C30.9019 6.44477 25.4577 5.91726 20.6684 5.91726H20.549C22.1145 4.68609 24.4933 2.84382 26.5237 1.39368C27.4592 1.35487 28.4257 1.33496 29.3971 1.33496C33.3842 1.33496 37.225 1.66938 40.1959 1.97593Z" fill="white"/>
</mask>
<g mask="url(#mask12_715_21365)">
<path d="M39.7246 -0.209961C35.902 2.85801 32.0995 5.94758 28.3174 9.05846" stroke="url(#paint0_linear_715_21365)" stroke-width="24.5614" stroke-miterlimit="10"/>
<path d="M38.0141 -2.15918C34.1915 0.908794 30.389 3.99837 26.6069 7.10924" stroke="url(#paint1_linear_715_21365)" stroke-width="12.9271" stroke-miterlimit="10"/>
</g>
</g>
<path opacity="0.3" d="M40.1958 1.97631C37.2248 1.66966 33.3846 1.33594 29.3968 1.33594C28.4248 1.33594 27.4589 1.35574 26.5234 1.39416C26.2268 1.60606 25.9223 1.82691 25.6144 2.05235C27.03 3.18966 28.8164 3.86765 30.6331 3.9213C32.1271 3.96539 33.6792 3.61694 35.0843 4.12633C36.3726 4.59331 37.6927 5.88231 38.2156 7.15489C38.8275 5.61557 39.6385 3.50656 40.1958 1.97631Z" fill="#6F8784"/>
<path opacity="0.4" d="M38.2135 7.1523C38.9048 5.42975 39.5711 3.69158 40.1959 1.9763C37.2248 1.66966 33.3846 1.33594 29.3968 1.33594C28.4248 1.33594 27.459 1.35574 26.5234 1.39416C26.3083 1.54773 26.0888 1.70648 25.8673 1.86772C30.5961 1.76282 38.0257 2.19835 38.9382 2.63359C39.3206 2.81593 38.5996 4.46721 37.3571 7.07058C37.644 7.09805 37.9301 7.12552 38.2135 7.1523Z" fill="#566966"/>
<path d="M42.7087 7.45243C41.4944 7.45243 40.2862 7.42188 39.4829 7.37161C40.0812 5.8528 40.8085 4.22551 41.5129 2.64987L41.7613 2.0936C41.8134 1.97686 41.9244 1.89713 42.0509 1.88549C42.962 1.80139 43.8303 1.75879 44.6313 1.75879C49.2032 1.75879 51.8112 3.1301 54.7456 4.92291C54.8107 4.96272 54.8452 5.03209 54.8377 5.10843C54.8303 5.18487 54.783 5.24628 54.7114 5.27265C51.777 6.35592 48.7247 7.058 45.6393 7.35927C45.0244 7.41939 43.9837 7.45243 42.7087 7.45243Z" fill="#566966"/>
<path d="M44.6314 1.90755C49.1644 1.90755 51.7539 3.2695 54.6682 5.04987C54.6743 5.05355 54.6928 5.0649 54.6899 5.09406C54.687 5.12342 54.6666 5.13098 54.6599 5.13347C51.7376 6.21226 48.6977 6.91145 45.6248 7.21163C45.0236 7.27025 43.9608 7.30399 42.7089 7.30399C41.5965 7.30399 40.49 7.27832 39.6969 7.23542C40.2786 5.77573 40.9733 4.22159 41.647 2.71442L41.8972 2.15438C41.9274 2.0867 41.9916 2.04042 42.0647 2.03365C42.9712 1.95004 43.8349 1.90764 44.6314 1.90755ZM44.6312 1.61035C43.8307 1.61035 42.9705 1.65156 42.0372 1.73765C41.8568 1.75427 41.6994 1.86773 41.6256 2.03325C40.8427 3.78794 39.955 5.74687 39.2706 7.50634C40.0783 7.56556 41.4166 7.60109 42.7088 7.60109C43.8651 7.60109 44.9845 7.57262 45.6536 7.50733C48.7632 7.20367 51.8322 6.49413 54.7627 5.41225C55.0318 5.31292 55.0678 4.94576 54.823 4.79617C51.6941 2.88462 49.0833 1.61025 44.6312 1.61035Z" fill="#C0BFC1"/>
<g opacity="0.3">
<mask id="mask13_715_21365" style="mask-type:luminance" maskUnits="userSpaceOnUse" x="39" y="1" width="16" height="7">
<path d="M54.6904 5.09414C54.6874 5.124 54.6665 5.13096 54.6595 5.13395C51.7374 6.21184 48.6978 6.91153 45.6253 7.21211C45.0232 7.26984 43.9612 7.30368 42.7091 7.30368C41.5964 7.30368 40.4896 7.2778 39.6974 7.235C40.2786 5.77591 40.9733 4.22127 41.6472 2.7144L41.897 2.15406C41.9278 2.08638 41.9915 2.0406 42.0652 2.03363C42.9709 1.95002 43.8348 1.90723 44.631 1.90723H44.632C49.1646 1.90723 51.7543 3.26978 54.6685 5.05034C54.6745 5.05333 54.6924 5.06527 54.6904 5.09414Z" fill="white"/>
</mask>
<g mask="url(#mask13_715_21365)">
<path d="M47.1488 -0.0615234C45.9649 3.38267 44.8035 6.83462 43.6646 10.2939" stroke="url(#paint2_linear_715_21365)" stroke-width="19" stroke-miterlimit="10"/>
<path d="M45.1931 -0.791016C44.0093 2.65318 42.8478 6.10513 41.7089 9.56445" stroke="url(#paint3_linear_715_21365)" stroke-width="10" stroke-miterlimit="10"/>
</g>
</g>
<path opacity="0.3" d="M54.6679 5.04985C51.754 3.26908 49.1643 1.90723 44.6318 1.90723C43.8345 1.90723 42.9716 1.94983 42.0651 2.03403C41.9912 2.0403 41.9278 2.08708 41.8967 2.15466L41.6471 2.71391C41.3283 3.42723 41.0052 4.1509 40.6912 4.8702C40.9064 4.77565 41.1217 4.68119 41.3369 4.58664C41.9145 4.33304 42.5104 4.07516 43.1411 4.05834C44.3743 4.0255 45.4632 4.91001 46.6918 5.02079C47.7384 5.11504 48.7523 4.63909 49.8007 4.56902C51.2485 4.47218 52.6518 5.14948 54.0781 5.34177C54.2723 5.27379 54.466 5.20432 54.6593 5.13295C54.6666 5.13086 54.6864 5.1236 54.6895 5.09454C54.6928 5.06438 54.6741 5.05403 54.6679 5.04985Z" fill="#6F8784"/>
<path opacity="0.4" d="M54.6897 5.09454C54.6928 5.06438 54.6741 5.05403 54.6679 5.04985C51.754 3.26908 49.1644 1.90723 44.6318 1.90723C43.8345 1.90723 42.9716 1.94983 42.0651 2.03403C41.9912 2.0403 41.9278 2.08708 41.8967 2.15466L41.6472 2.71391C41.6462 2.7161 41.6452 2.71829 41.6442 2.72048C43.3134 2.43135 45.0321 2.54799 46.723 2.70236C47.2888 2.75402 47.8554 2.80985 48.4132 2.91764C50.3907 3.29973 52.1747 4.31393 53.8725 5.41223C54.1356 5.32186 54.3982 5.2295 54.6594 5.13295C54.6668 5.13096 54.6866 5.1237 54.6897 5.09454Z" fill="#566966"/>
<path d="M43.2833 8.24324C43.3589 8.21198 43.3774 8.10997 43.3169 8.05493C43.2024 7.95082 43.109 7.82382 43.0503 7.681C42.9715 7.4896 42.9579 7.26955 43.0257 7.07397L42.6793 6.95215C42.6042 7.31364 42.3572 7.66219 42.0536 7.88443C41.9903 7.93071 41.9875 8.02248 42.046 8.07473C42.1356 8.15465 42.3042 8.25279 42.6135 8.30046C42.9301 8.34903 43.1502 8.29818 43.2833 8.24324Z" fill="#006BD9"/>
<path opacity="0.4" d="M43.2833 8.24324C43.3589 8.21198 43.3774 8.10997 43.3169 8.05493C43.2024 7.95082 43.109 7.82382 43.0503 7.681C42.9715 7.4896 42.9579 7.26955 43.0257 7.07397L42.6793 6.95215C42.6042 7.31364 42.3572 7.66219 42.0536 7.88443C41.9903 7.93071 41.9875 8.02248 42.046 8.07473C42.1356 8.15465 42.3042 8.25279 42.6135 8.30046C42.9301 8.34903 43.1502 8.29818 43.2833 8.24324Z" fill="#006BD9"/>
<path opacity="0.4" d="M43.0141 7.57171C42.9701 7.40859 42.9704 7.23332 43.0256 7.07397L42.6793 6.95215C42.6298 7.19032 42.5048 7.42202 42.339 7.6166C42.4276 7.59371 42.5195 7.58376 42.6249 7.59262C42.7143 7.60008 42.8042 7.6163 42.8933 7.60565C42.9352 7.60058 42.9752 7.58764 43.0141 7.57171Z" fill="#006BD9"/>
<path d="M44.5003 6.95215C44.4825 7.17032 44.2982 7.33782 44.0793 7.33633C43.5234 7.33265 42.9646 7.29702 42.4522 7.09109C42.2716 7.01854 42.0764 6.89771 42.0992 6.67586C42.1094 6.57693 42.1652 6.48894 42.2373 6.42037C42.3887 6.27625 42.5853 6.19782 42.7831 6.1381C43.1711 6.02096 43.5743 5.96851 43.9783 5.92879C44.1736 5.90959 44.3565 6.02793 44.4182 6.21414C44.4535 6.32084 44.485 6.45461 44.4996 6.61515C44.5105 6.73617 44.5084 6.85113 44.5003 6.95215Z" fill="#006BD9"/>
<path opacity="0.1" d="M44.5002 6.95214C44.5083 6.85112 44.5104 6.73626 44.4995 6.61514C44.4849 6.4547 44.4534 6.32093 44.4181 6.21414C44.3867 6.11948 44.3239 6.04265 44.2442 5.99219C43.9391 6.02762 43.6362 6.07649 43.3425 6.16517C43.1556 6.2216 42.9698 6.29575 42.8268 6.43191C42.7587 6.4967 42.706 6.5798 42.6963 6.67336C42.6747 6.88297 42.8591 6.99713 43.0298 7.0657C43.4222 7.22346 43.8433 7.27481 44.2684 7.29074C44.3957 7.22724 44.4879 7.10253 44.5002 6.95214Z" fill="white"/>
<path d="M42.0022 7.99805C42.0022 7.99805 42.5454 8.47499 43.3999 8.15043" stroke="#00489A" stroke-width="1.6712" stroke-miterlimit="10" stroke-linecap="round" stroke-linejoin="round"/>
<path d="M3.56641 9.06934C3.86191 9.2029 4.08495 9.37121 4.33019 9.65307C4.33019 9.65307 7.14287 9.40923 10.314 9.79301C13.485 10.1768 16.4339 10.4596 17.4034 11.1665C17.4034 11.1665 19.958 10.5244 21.8968 11.6678" stroke="#00489A" stroke-width="1.6712" stroke-miterlimit="10" stroke-linecap="round" stroke-linejoin="round"/>
<path d="M4.33016 9.65332C4.33016 9.65332 3.67625 11.3382 4.13657 14.3107" stroke="#00489A" stroke-width="1.6712" stroke-miterlimit="10" stroke-linecap="round" stroke-linejoin="round"/>
<path d="M17.4036 11.167C17.4036 11.167 18.45 13.7691 18.3294 15.8936" stroke="#00489A" stroke-width="1.6712" stroke-miterlimit="10" stroke-linecap="round" stroke-linejoin="round"/>
<path d="M16.5856 10.7624C20.6715 8.55442 27.0016 7.87295 31.9013 7.42676" stroke="#00489A" stroke-width="1.6712" stroke-miterlimit="10" stroke-linecap="round" stroke-linejoin="round"/>
<path d="M4.32996 9.64094C7.21191 8.23052 12.156 7.39637 16.6175 6.93555" stroke="#00489A" stroke-width="1.6712" stroke-miterlimit="10" stroke-linecap="round" stroke-linejoin="round"/>
<path d="M21.8961 11.6709C26.6533 9.43461 31.0651 8.95688 37.9375 8.67969" stroke="#00489A" stroke-width="1.6712" stroke-miterlimit="10" stroke-linecap="round" stroke-linejoin="round"/>
<path d="M21.9086 11.6602C22.5065 12.9428 22.7024 14.5057 22.2898 16.1759" stroke="#00489A" stroke-width="1.6712" stroke-miterlimit="10" stroke-linecap="round" stroke-linejoin="round"/>
<path d="M23.7776 17.2439L23.3852 18.0108C23.231 18.312 22.9436 18.5227 22.6099 18.5789L21.8752 18.7028C21.25 18.8083 20.6141 18.835 19.9822 18.7823L16.6299 18.5029C16.4823 18.4905 16.3343 18.4836 16.1862 18.484C14.5082 18.4901 6.03771 17.8581 3.26186 16.7484C2.96407 16.6293 2.65622 16.5409 2.34002 16.4872C1.99057 16.4277 1.53065 16.3489 1.12497 16.2776C0.755522 16.2127 0.447182 15.9594 0.311624 15.6098L0 14.8057L23.3069 16.9502L23.7776 17.2439Z" fill="#858585"/>
<path d="M1.7736 13.374L0 13.6548L3.16969 15.1307L21.871 17.1766L23.7776 16.0931L22.3124 15.9807C22.0468 15.9603 21.7801 15.9672 21.5156 15.999C21.007 16.0599 20.4933 16.0693 19.9822 16.0267L16.6213 15.7465C16.4763 15.7344 16.3314 15.7279 16.1859 15.7284C14.5074 15.7343 6.03881 15.1024 3.26245 13.9929C3.00796 13.8912 2.41327 13.764 2.0476 13.6954C1.94479 13.6761 1.8595 13.6046 1.82297 13.5066L1.7736 13.374Z" fill="#858585"/>
<path d="M23.7776 17.2438L22.4474 17.4681C21.7899 17.579 21.1212 17.6071 20.4567 17.5517L16.9225 17.2571C16.7621 17.2438 16.6013 17.2381 16.4404 17.2381C14.6197 17.2384 5.78083 16.5747 2.87449 15.4131C2.56087 15.2877 2.23671 15.1947 1.90379 15.138C1.33289 15.0408 0.48152 14.8945 0 14.8053V13.6553C0.48152 13.7445 1.33279 13.8907 1.90379 13.9879C2.23671 14.0446 2.56087 14.1376 2.87449 14.263C5.78093 15.4245 14.6198 16.0884 16.4404 16.0881C16.6013 16.0881 16.7621 16.0936 16.9225 16.1071L20.4567 16.4017C21.1212 16.457 21.7899 16.4289 22.4474 16.3181L23.7776 16.0937V17.2438Z" fill="#C0BFC1"/>
<path d="M22.9383 6.87633C22.9383 6.87633 20.5702 6.75302 19.3197 6.77511C19.3197 6.77511 15.8892 6.80835 14.9597 7.18457L20.5923 7.48336L22.9383 6.87633Z" fill="#61A0CE"/>
<path opacity="0.8" d="M22.9383 6.87633C22.9383 6.87633 20.5702 6.75302 19.3197 6.77511C19.3197 6.77511 15.8892 6.80835 14.9597 7.18457L20.5923 7.48336L22.9383 6.87633Z" fill="#61A0CE"/>
<path d="M19.6388 8.04753L24.8309 7.32545C24.8309 7.32545 24.9018 7.0179 22.9384 6.87598L18.8176 7.39253L19.0351 7.77074L19.6388 8.04753Z" fill="#61A0CE"/>
<path opacity="0.25" d="M19.6388 8.04753L24.8309 7.32545C24.8309 7.32545 24.9018 7.0179 22.9384 6.87598L18.8176 7.39253L19.0351 7.77074L19.6388 8.04753Z" fill="white"/>
<path d="M14.6293 7.69275C14.6777 7.57928 14.7288 7.46692 14.7823 7.35584C14.8385 7.23949 14.9525 7.16276 15.0816 7.15688C16.4021 7.09687 18.199 7.28886 18.8176 7.39287C18.9433 7.41397 19.0587 7.47339 19.1493 7.56306L19.6389 8.04787C19.6389 8.04787 18.3599 7.87837 16.9269 7.77048C15.4939 7.66269 14.6293 7.69275 14.6293 7.69275Z" fill="#2C2B2C"/>
<path d="M19.6389 8.04754C19.6389 8.04754 18.3599 7.87805 16.9269 7.77016C15.4939 7.66227 14.6293 7.69232 14.6293 7.69232" stroke="#00489A" stroke-width="1.0445" stroke-miterlimit="10" stroke-linecap="round" stroke-linejoin="round"/>
<g opacity="0.2">
<path d="M48.9222 9.48524C48.8936 9.54993 48.8259 9.59721 48.7553 9.59552C48.702 9.59422 48.6502 9.56297 48.6235 9.51689C48.5883 9.45608 48.5842 9.38034 48.6203 9.32609C48.679 9.23811 48.7968 9.21492 48.8857 9.29106C48.9409 9.33814 48.9505 9.42094 48.9222 9.48524Z" fill="white"/>
<path d="M33.5 0.727448C33.4715 0.792142 33.4038 0.839418 33.3331 0.837726C33.2799 0.836432 33.228 0.805179 33.2014 0.759098C33.1662 0.698286 33.162 0.622545 33.1982 0.568302C33.2569 0.480318 33.3746 0.457127 33.4636 0.533167C33.5188 0.580443 33.5284 0.663153 33.5 0.727448Z" fill="white"/>
<path d="M28.6662 8.56738C28.6437 8.61843 28.5902 8.65576 28.5345 8.65436C28.4925 8.65337 28.4515 8.62869 28.4305 8.59236C28.4027 8.54438 28.3995 8.48457 28.428 8.44187C28.4744 8.3724 28.5673 8.35409 28.6374 8.4142C28.6809 8.45142 28.6886 8.51672 28.6662 8.56738Z" fill="white"/>
<path d="M58.7997 7.65067C58.7644 7.71198 58.6921 7.75189 58.622 7.74264C58.5693 7.73567 58.5209 7.69904 58.4993 7.65047C58.4708 7.58628 58.4747 7.51054 58.5164 7.46047C58.5842 7.37916 58.7037 7.36861 58.7841 7.45381C58.8339 7.50646 58.8347 7.58976 58.7997 7.65067Z" fill="white"/>
<path d="M52.4065 3.02196C52.3875 3.06496 52.3425 3.09641 52.2956 3.09532C52.2601 3.09442 52.2256 3.07362 52.208 3.04306C52.1846 3.00266 52.1818 2.95229 52.2059 2.91616C52.2449 2.85764 52.3232 2.84222 52.3824 2.89288C52.419 2.92413 52.4254 2.97917 52.4065 3.02196Z" fill="white"/>
<path d="M32.3617 12.6567C32.3466 12.691 32.3107 12.7162 32.2731 12.7153C32.2448 12.7146 32.2172 12.698 32.2031 12.6736C32.1844 12.6414 32.1822 12.6011 32.2014 12.5723C32.2326 12.5255 32.2952 12.5133 32.3423 12.5537C32.3717 12.5787 32.3768 12.6226 32.3617 12.6567Z" fill="white"/>
<path d="M44.5688 13.5886C44.5458 13.6409 44.4911 13.6791 44.434 13.6777C44.391 13.6766 44.349 13.6514 44.3275 13.6142C44.2991 13.5651 44.2957 13.5038 44.3249 13.46C44.3724 13.3889 44.4675 13.3701 44.5394 13.4316C44.5839 13.4698 44.5917 13.5367 44.5688 13.5886Z" fill="white"/>
<path d="M57.1082 10.2175C57.0943 10.2489 57.0613 10.272 57.027 10.2711C57.0011 10.2705 56.9758 10.2553 56.9628 10.2329C56.9457 10.2033 56.9437 10.1664 56.9613 10.14C56.9899 10.0972 57.0472 10.0859 57.0905 10.1229C57.1173 10.1459 57.122 10.1862 57.1082 10.2175Z" fill="white"/>
<path d="M47.6638 9.54535C46.5237 9.79278 45.3595 9.98835 44.1967 10.1724C43.0327 10.3527 41.8652 10.5138 40.6997 10.6268C40.5336 10.6435 40.54 10.7302 40.7069 10.7199C41.8807 10.6502 43.0572 10.5477 44.2311 10.4131C45.4047 10.2745 46.576 10.1128 47.7342 9.85469C48.2961 9.72012 48.2097 9.41785 47.6638 9.54535Z" fill="white"/>
<path d="M57.7327 7.44932C56.8794 7.48565 56.0413 7.60598 55.2045 7.74153C54.3689 7.88267 53.538 8.04121 52.7193 8.25859C52.6024 8.29033 52.6252 8.37434 52.742 8.34906C53.5653 8.17588 54.4037 8.07615 55.2405 7.982C56.0772 7.89332 56.9178 7.80772 57.7454 7.76622C58.1379 7.75726 58.1539 7.44285 57.7327 7.44932Z" fill="white"/>
<path d="M27.8398 8.47492C26.9594 8.56539 26.0898 8.73429 25.2293 8.93394C24.3692 9.13539 23.5185 9.37267 22.6843 9.64567C22.5652 9.68439 22.591 9.7675 22.7113 9.73495C23.5569 9.50444 24.4179 9.32579 25.2811 9.17152C26.1444 9.01884 27.0107 8.88537 27.8735 8.79032C28.2885 8.75031 28.2693 8.4366 27.8398 8.47492Z" fill="white"/>
<path d="M52.7394 3.29996C53.1265 3.46956 53.5093 3.66414 53.8882 3.86479C54.2667 4.06653 54.6415 4.27734 55.0006 4.50645C55.0517 4.539 55.0895 4.48575 55.0405 4.44902C54.6966 4.19045 54.3426 3.94023 53.9774 3.70584C53.6116 3.47255 53.2354 3.25229 52.832 3.081C52.6341 3.00008 52.5527 3.22124 52.7394 3.29996Z" fill="white"/>
<path d="M30.2518 14.1592C30.7149 13.6255 31.2515 13.1401 31.8887 12.8235C31.9336 12.8005 31.9079 12.7404 31.8602 12.7596C31.1872 13.0176 30.5461 13.4404 30.0701 14.0055C29.9558 14.1434 30.1411 14.289 30.2518 14.1592Z" fill="white"/>
<path d="M34.9059 12.4082C34.5325 12.2785 34.1379 12.2674 33.7616 12.2964C33.3833 12.3261 33.0146 12.3967 32.6521 12.4768C32.6003 12.4882 32.6123 12.5524 32.6644 12.5457C33.0317 12.4981 33.404 12.4725 33.7713 12.4785C34.1381 12.4849 34.5001 12.5233 34.8294 12.6335C34.9822 12.6905 35.0878 12.4785 34.9059 12.4082Z" fill="white"/>
<path d="M45.2628 13.6184C46.9482 13.3696 48.6357 13.0436 50.3129 12.79C50.4324 12.7723 50.4222 12.6858 50.3016 12.6973C48.6065 12.8647 46.8975 13.0431 45.2144 13.3048C44.8086 13.367 44.8533 13.6778 45.2628 13.6184Z" fill="white"/>
<path d="M43.6809 13.4631C42.6945 13.5902 41.7049 13.7624 40.726 13.9415C40.6562 13.9543 40.6673 14.0406 40.7379 14.0341C41.7299 13.9419 42.7388 13.9175 43.7281 13.7768C43.967 13.7428 43.9196 13.4323 43.6809 13.4631Z" fill="white"/>
<path d="M54.0527 11.557C54.6671 10.839 55.5728 10.3464 56.532 10.2662C56.5999 10.2594 56.5982 10.1942 56.5283 10.1963C56.0379 10.2034 55.5415 10.3071 55.0814 10.5097C54.6218 10.7112 54.1971 11.0136 53.8702 11.4044C53.7151 11.5992 53.9099 11.7327 54.0527 11.557Z" fill="white"/>
<path d="M20.6253 7.65489C21.2368 7.59119 21.8501 7.49395 22.4574 7.39104C22.5007 7.38367 22.4943 7.31868 22.4505 7.32137C21.8352 7.35879 21.2081 7.34516 20.5932 7.41911C20.4446 7.43702 20.4773 7.67032 20.6253 7.65489Z" fill="white"/>
<path d="M20.2949 7.60571C20.2882 7.65537 20.2513 7.70086 20.2028 7.7135C20.1662 7.72305 20.1247 7.71191 20.0977 7.68573C20.0618 7.65119 20.0441 7.60043 20.0582 7.55634C20.0809 7.48488 20.1566 7.44607 20.2321 7.4805C20.2788 7.5019 20.3017 7.55634 20.2949 7.60571Z" fill="white"/>
<path d="M34.267 0.831738C35.1534 0.882995 36.0442 0.934453 36.9348 0.985909C37.8237 1.04294 38.7127 1.10674 39.5859 1.23393C39.7103 1.25195 39.7261 1.16635 39.6018 1.14197C38.7287 0.970183 37.8418 0.847165 36.9537 0.743456C36.0653 0.640743 35.1738 0.56301 34.2845 0.514938C33.8551 0.49135 33.8368 0.804865 34.267 0.831738Z" fill="white"/>
<path d="M32.5073 0.449199C31.7679 0.408691 31.0289 0.414562 30.2899 0.433771C29.5511 0.454871 28.8136 0.492095 28.08 0.5544C27.9753 0.563457 27.9813 0.650247 28.0856 0.647559C28.82 0.629246 29.5567 0.65144 30.2924 0.677019C31.0277 0.704389 31.7635 0.732656 32.4914 0.766098C32.84 0.786202 32.868 0.473185 32.5073 0.449199Z" fill="white"/>
</g>
<mask id="mask14_715_21365" style="mask-type:luminance" maskUnits="userSpaceOnUse" x="49" y="10" width="10" height="11">
<path d="M50.9864 16.5442C52.0578 15.7701 52.7059 14.7409 53.304 13.5493C53.6175 12.9251 53.8941 12.2689 54.3559 11.7448C54.9335 11.089 55.6079 10.5989 56.4799 10.657C56.7216 10.6731 57.4127 10.6195 57.7501 11.33C58.0374 11.9352 57.987 12.6356 57.7838 13.2918L58.1474 15.1031V20.4216H50.5799L49.6997 16.9019L50.917 16.5741C50.9169 16.574 50.9617 16.5621 50.9864 16.5442Z" fill="white"/>
</mask>
<g mask="url(#mask14_715_21365)">
<path d="M56.4766 15.3893C56.4766 12.6464 55.1538 10.4229 53.5221 10.4229C51.8904 10.4229 49.8763 12.6464 49.8763 15.3893C49.8763 18.1322 51.1991 20.3557 52.8309 20.3557H55.0023L56.4766 15.3893Z" fill="#2C2B2C"/>
<path d="M55.0021 20.3556C56.6338 20.3556 57.9566 18.1321 57.9566 15.3892C57.9566 12.6464 56.6338 10.4229 55.0021 10.4229C53.3704 10.4229 52.0476 12.6464 52.0476 15.3892C52.0476 18.1321 53.3704 20.3556 55.0021 20.3556Z" fill="#545454"/>
<g opacity="0.5">
<path d="M55.0021 18.847C54.0411 18.847 53.2291 17.2634 53.2291 15.3889C53.2291 13.5144 54.0411 11.9307 55.0021 11.9307C55.9632 11.9307 56.775 13.5145 56.775 15.3889C56.775 17.2633 55.9632 18.847 55.0021 18.847Z" fill="#C0BFC1"/>
</g>
<path d="M54.8811 18.6108C53.9858 18.6108 53.2292 17.1354 53.2292 15.3889C53.2292 13.6425 53.9858 12.167 54.8811 12.167C55.7765 12.167 56.5329 13.6425 56.5329 15.3889C56.5329 17.1354 55.7765 18.6108 54.8811 18.6108Z" fill="#C0BFC1"/>
<g opacity="0.55">
<path d="M54.8811 18.6117C55.7764 18.6117 56.5328 17.1363 56.5328 15.3898C56.5328 15.2283 56.5263 15.069 56.5138 14.9131C55.3691 15.0195 54.248 15.533 53.3135 16.3835C53.5339 17.6613 54.1626 18.6117 54.8811 18.6117Z" fill="#C0BFC1"/>
</g>
<path opacity="0.5" d="M55.0022 16.3225C54.7427 16.3225 54.5234 15.895 54.5234 15.3889C54.5234 14.8828 54.7427 14.4551 55.0022 14.4551C55.2616 14.4551 55.4809 14.8827 55.4809 15.3889C55.4808 15.8951 55.2616 16.3225 55.0022 16.3225Z" fill="#545454"/>
<path d="M54.9416 16.2051C54.7149 16.2051 54.5234 15.8317 54.5234 15.3897C54.5234 14.9476 54.7149 14.5742 54.9416 14.5742C55.1682 14.5742 55.3596 14.9476 55.3596 15.3897C55.3596 15.8317 55.1681 16.2051 54.9416 16.2051Z" fill="#858585"/>
</g>
<g opacity="0.5">
<path d="M6.19579 15.5829C6.17907 15.6208 6.13946 15.6485 6.09815 15.6474C6.067 15.6466 6.03665 15.6284 6.02102 15.6014C6.00042 15.5659 5.99803 15.5215 6.01913 15.4898C6.05347 15.4383 6.12244 15.4247 6.17439 15.4693C6.20664 15.4968 6.21241 15.5453 6.19579 15.5829Z" fill="white"/>
<path d="M16.0845 16.7051C16.06 16.7606 16.0019 16.8012 15.9413 16.7997C15.8956 16.7987 15.8511 16.7718 15.8282 16.7323C15.798 16.6801 15.7944 16.6151 15.8255 16.5685C15.8759 16.493 15.977 16.4731 16.0532 16.5385C16.1005 16.5789 16.1089 16.6499 16.0845 16.7051Z" fill="white"/>
<path d="M20.0212 17.0059C19.9968 17.0614 19.9387 17.102 19.878 17.1005C19.8323 17.0994 19.7877 17.0726 19.765 17.033C19.7348 16.9809 19.7312 16.9159 19.7623 16.8693C19.8126 16.7938 19.9138 16.7739 19.99 16.8393C20.0373 16.8797 20.0456 16.9507 20.0212 17.0059Z" fill="white"/>
<path d="M5.60946 15.367C4.57764 15.2955 3.55409 15.0165 2.60001 14.594C2.53183 14.5644 2.50326 14.6232 2.57005 14.6572C3.03704 14.899 3.52025 15.1196 4.02625 15.2879C4.53136 15.4564 5.05976 15.5715 5.59473 15.6045C5.8547 15.6175 5.85788 15.3818 5.60946 15.367Z" fill="white"/>
<path d="M15.2645 16.4407C14.4534 16.4173 13.6366 16.3641 12.8204 16.3041C12.0042 16.242 11.1875 16.1704 10.3777 16.0842C10.2626 16.0717 10.2505 16.1579 10.3653 16.1767C11.1726 16.307 11.9833 16.4374 12.7983 16.5463C13.6133 16.653 14.4332 16.7406 15.2577 16.7578C15.657 16.7649 15.6564 16.4508 15.2645 16.4407Z" fill="white"/>
<path d="M20.3323 17.0985C20.9852 17.1968 21.6631 17.1537 22.298 16.9963C22.3435 16.9854 22.3301 16.9215 22.2845 16.9277C21.6395 17.0187 20.9904 16.9473 20.3648 16.8628C20.2141 16.841 20.1733 17.073 20.3323 17.0985Z" fill="white"/>
</g>
<defs>
<filter id="filter0_f_715_21365" x="8" y="12.5" width="51.5" height="14.5" filterUnits="userSpaceOnUse" color-interpolation-filters="sRGB">
<feFlood flood-opacity="0" result="BackgroundImageFix"/>
<feBlend mode="normal" in="SourceGraphic" in2="BackgroundImageFix" result="shape"/>
<feGaussianBlur stdDeviation="1" result="effect1_foregroundBlur_715_21365"/>
</filter>
<linearGradient id="paint0_linear_715_21365" x1="40.9301" y1="1.53032" x2="27.1761" y2="7.50825" gradientUnits="userSpaceOnUse">
<stop stop-color="white"/>
<stop offset="1" stop-color="white" stop-opacity="0"/>
</linearGradient>
<linearGradient id="paint1_linear_715_21365" x1="39.0401" y1="-0.342475" x2="25.6513" y2="5.47672" gradientUnits="userSpaceOnUse">
<stop stop-color="white"/>
<stop offset="1" stop-color="white" stop-opacity="0"/>
</linearGradient>
<linearGradient id="paint2_linear_715_21365" x1="48.675" y1="0.715689" x2="42.1283" y2="9.52399" gradientUnits="userSpaceOnUse">
<stop stop-color="white"/>
<stop offset="1" stop-color="white" stop-opacity="0"/>
</linearGradient>
<linearGradient id="paint3_linear_715_21365" x1="46.6391" y1="0.0956865" x2="40.2576" y2="8.68154" gradientUnits="userSpaceOnUse">
<stop stop-color="white"/>
<stop offset="1" stop-color="white" stop-opacity="0"/>
</linearGradient>
</defs>
</svg>
