<svg width="4" height="2" viewBox="0 0 4 2" fill="none" xmlns="http://www.w3.org/2000/svg">
<path d="M3.97198 1.14693C3.97198 1.14693 4.06907 0.919989 3.90185 0.840133C3.73343 0.7584 3.7046 0.705165 3.82097 0.643566C3.82097 0.643566 3.77592 0.647489 3.51332 0.654827C3.25276 0.658069 1.56999 0.359122 0.439378 -0.000570654C0.41822 0.115289 0.410541 0.311856 0.39416 0.429593C0.378803 0.543575 0.352868 0.694584 0.256632 0.723421C0.214315 0.734512 0.201857 0.676156 0.201857 0.676156C0.201857 0.676156 0.238373 0.776317 0.201857 0.80413C0.17029 0.834503 0 0.938247 0 0.938247C0 0.938247 3.2758 1.11178 3.97198 1.14693Z" fill="#0C0C0C"/>
</svg>
