<svg width="22" height="22" viewBox="0 0 22 22" fill="none" xmlns="http://www.w3.org/2000/svg">
<path d="M9.67138 12.3272C10.168 12.8238 10.5648 13.8529 10.8323 14.7272C10.9987 15.2699 11.7437 15.4043 12.0329 14.914C13.1772 12.9749 14.0105 10.9103 14.095 8.96857C14.1021 8.82683 14.0795 8.68516 14.0285 8.55272C13.9775 8.42027 13.8993 8.29999 13.799 8.19963C13.6986 8.09928 13.5783 8.02109 13.4459 7.9701C13.3134 7.91912 13.1718 7.89648 13.03 7.90364C11.0883 7.98811 9.02372 8.82137 7.08456 9.96567C6.59561 10.2549 6.72873 10.9999 7.27144 11.1663C8.14566 11.4338 9.17475 11.8319 9.67138 12.3272Z" stroke="#BD3430" stroke-width="1.5" stroke-linecap="round" stroke-linejoin="round"/>
<path d="M10.7499 20C13.5279 20 15.8042 19.2164 17.3852 17.6353C18.9662 16.0543 19.7499 13.7781 19.7499 11C19.7499 8.22195 18.9662 5.94569 17.3852 4.36467C15.8042 2.78365 13.5279 2 10.7499 2C7.97183 2 5.69557 2.78365 4.11455 4.36467C2.53353 5.94569 1.74988 8.22195 1.74988 11C1.74988 13.7781 2.53353 16.0543 4.11455 17.6353C5.69557 19.2164 7.97183 20 10.7499 20Z" stroke="#5F676C" stroke-width="1.5" stroke-linecap="round" stroke-linejoin="round"/>
</svg>
