<svg width="15" height="15" viewBox="0 0 15 15" fill="none" xmlns="http://www.w3.org/2000/svg">
<g clip-path="url(#clip0_980_27319)">
<path d="M13.242 0H1.75779C0.788546 0 0 0.788546 0 1.75779V13.242C0 14.2113 0.788546 14.9998 1.75779 14.9998H13.242C14.2113 14.9998 14.9998 14.2113 14.9998 13.242V1.75779C14.9998 0.788546 14.2113 0 13.242 0ZM1.75779 1.17186H13.242C13.5651 1.17186 13.828 1.43471 13.828 1.75779V10.3626L11.8337 8.36832C11.1483 7.68296 10.0331 7.68296 9.34773 8.36832L8.70107 9.01501L6.88252 7.19646C6.19718 6.5111 5.08201 6.5111 4.39662 7.19646L1.17186 10.4212V1.75779C1.17186 1.43471 1.43471 1.17186 1.75779 1.17186ZM13.242 13.828H1.75779C1.43471 13.828 1.17186 13.5651 1.17186 13.242V12.0785L5.22524 8.02511C5.45375 7.79666 5.82541 7.79666 6.05387 8.02511L8.70107 10.6723L10.1764 9.19694C10.4048 8.96849 10.7766 8.96849 11.005 9.19694L13.828 12.0199V13.242C13.828 13.5651 13.5651 13.828 13.242 13.828ZM9.49208 5.85931C10.4613 5.85931 11.2499 5.07076 11.2499 4.10151C11.2499 3.13227 10.4613 2.34372 9.49208 2.34372C8.52283 2.34372 7.73428 3.13227 7.73428 4.10151C7.73428 5.07076 8.52283 5.85931 9.49208 5.85931ZM9.49208 3.51558C9.81516 3.51558 10.078 3.77843 10.078 4.10151C10.078 4.4246 9.81516 4.68745 9.49208 4.68745C9.16899 4.68745 8.90615 4.4246 8.90615 4.10151C8.90615 3.77843 9.16899 3.51558 9.49208 3.51558Z" fill="#2679C6"/>
<path d="M5.62461 7.12487L0.999663 11.3748V13.9998L14.2495 14.2498V11.3748L10.7496 8.49986L8.62457 9.74984L5.62461 7.12487Z" fill="#2679C6"/>
<path d="M8.62517 4.99998L8.50017 3.375L9.87515 3L10.6251 3.49999V4.99998H8.62517Z" fill="#2679C6"/>
</g>
<defs>
<clipPath id="clip0_980_27319">
<rect width="14.5067" height="14.5067" fill="white" transform="scale(1.034)"/>
</clipPath>
</defs>
</svg>
