<svg width="4" height="2" viewBox="0 0 4 2" fill="none" xmlns="http://www.w3.org/2000/svg">
<path d="M1.57314 1.9993C1.43687 2.00144 1.29993 1.99782 1.16406 1.98898C0.951304 1.97558 0.740061 1.94829 0.529188 1.90772C0.42607 1.88797 0.323478 1.86476 0.221415 1.83864C0.244767 1.70774 0.257228 1.58221 0.256547 1.46556C0.255504 1.10575 0.161964 0.667111 0.000234252 0.226086C0.297911 0.350775 0.600819 0.44073 0.910614 0.4913C0.912355 0.49185 0.914084 0.491818 0.915825 0.492368L0.916406 0.492359C1.09011 0.520236 1.26538 0.536537 1.44388 0.538925C1.48143 0.539489 1.51897 0.53948 1.55651 0.53889C1.98611 0.532127 2.43069 0.449463 2.89411 0.279295C2.89526 0.279277 2.89583 0.278692 2.89698 0.278674C2.89871 0.278069 2.90043 0.27746 2.90215 0.276855C3.10658 0.201442 3.31479 0.109803 3.52676 -0.000383166C3.52918 0.00650958 3.53159 0.0128271 3.53457 0.0191333C3.55204 0.0644862 3.57007 0.109248 3.58696 0.155187C3.60083 0.191934 3.61411 0.228684 3.6274 0.265439C3.63827 0.295879 3.64916 0.326897 3.65945 0.357345C3.66246 0.364806 3.6649 0.372854 3.66732 0.380324C3.67276 0.395255 3.67761 0.410198 3.68248 0.425716C3.68611 0.436055 3.68974 0.446969 3.69338 0.457886C3.69641 0.467079 3.69944 0.475704 3.70188 0.484329C3.73467 0.586042 3.76515 0.687787 3.79333 0.79015C3.79515 0.79532 3.79637 0.799919 3.79761 0.805098C3.80805 0.844208 3.81847 0.882745 3.82833 0.921865C3.84555 0.988591 3.86161 1.05475 3.87653 1.12209C3.88089 1.14224 3.88583 1.16238 3.89019 1.18252C3.89703 1.2136 3.90328 1.24412 3.90955 1.27521C3.91204 1.28673 3.91396 1.29825 3.91645 1.30976C3.92145 1.33394 3.92587 1.35812 3.93029 1.38231C3.93282 1.39613 3.93536 1.41054 3.9379 1.42494C3.14552 1.79492 2.35497 1.98699 1.57314 1.9993Z" fill="#C9996A"/>
</svg>
