<svg width="5" height="2" viewBox="0 0 5 2" fill="none" xmlns="http://www.w3.org/2000/svg">
<path d="M0.016016 1.88277L0 1.85975C0.265109 1.66654 1.13284 1.63935 1.16854 1.63935C1.17221 1.63784 1.84174 1.47051 2.00992 1.4001L2.04578 1.38225C2.22897 1.30083 2.56933 1.14767 3.85082 1.05875C4.822 0.991677 4.95631 0.87589 4.96949 0.828507C4.976 0.810655 4.95631 0.796475 4.95631 0.796475C4.02651 -0.156848 1.8379 0.0190002 1.01338 0.0862367C0.964497 0.0899071 0.918453 0.0934092 0.879079 0.0970796C0.250092 0.143127 0.239743 0.711051 0.239743 0.735743H0.211548C0.211548 0.728736 0.218058 0.116267 0.878076 0.0688846C0.915615 0.0650474 0.959825 0.0617121 1.01238 0.0580416C1.8389 -0.00919475 4.03785 -0.185047 4.97516 0.772113C4.97516 0.772113 5.00903 0.800143 4.99769 0.83935C4.96482 0.952634 4.57942 1.03772 3.8535 1.08744C2.576 1.17587 2.23849 1.32669 2.0588 1.40894L2.02026 1.42463C1.85209 1.49787 1.19958 1.66104 1.17221 1.66988C1.16003 1.66988 0.275452 1.69474 0.016016 1.88277Z" fill="#030303"/>
</svg>
