<svg width="22" height="22" viewBox="0 0 22 22" fill="none" xmlns="http://www.w3.org/2000/svg">
<g clip-path="url(#clip0_1844_63857)">
<path d="M10.9999 3.66602C6.95632 3.66602 3.6665 6.95583 3.6665 10.9994C3.6665 15.0429 6.95632 18.3327 10.9999 18.3327C15.0434 18.3327 18.3332 15.0429 18.3332 10.9994C18.3332 6.95583 15.0434 3.66602 10.9999 3.66602ZM14.7516 6.40527C14.834 6.31353 14.9503 6.25935 15.0738 6.25445C15.1804 6.24238 15.3174 6.29429 15.4069 6.37932C16.3575 7.27943 17.0039 8.42528 17.2742 9.69285C17.3172 9.89515 17.2196 10.1011 17.0361 10.1959C16.5876 10.4278 16.055 10.5401 15.5447 10.5401C14.8796 10.5401 14.2494 10.3494 13.8841 9.98418C13.1071 9.20765 13.4312 7.86982 14.7516 6.40527ZM7.24816 15.665C7.16579 15.7568 7.04943 15.8114 6.9259 15.8163C6.92053 15.8168 6.91425 15.8168 6.90798 15.8168C6.79072 15.8168 6.67793 15.772 6.59289 15.6914C5.64221 14.7913 4.99587 13.6455 4.72555 12.3775C4.68259 12.1752 4.78017 11.9693 4.96369 11.8744C5.99674 11.3413 7.47018 11.4407 8.11562 12.0861C8.89172 12.8627 8.56765 14.2005 7.24816 15.665ZM8.11557 9.98423C7.75034 10.3495 7.12012 10.5402 6.455 10.5402C5.94475 10.5402 5.41301 10.4278 4.96364 10.196C4.78013 10.1011 4.68254 9.8952 4.72551 9.6929C4.99587 8.42532 5.64216 7.27947 6.59285 6.37936C6.68235 6.29433 6.81396 6.24152 6.92586 6.2545C7.04939 6.25944 7.16575 6.31358 7.24812 6.40532C8.56855 7.86982 8.89258 9.20765 8.11557 9.98423ZM12.9531 17.1112C12.3184 17.3135 11.6614 17.4161 10.9999 17.4161C10.3383 17.4161 9.68123 17.3136 9.04658 17.1112C8.84514 17.0468 8.71357 16.8534 8.72788 16.6426C8.84248 14.9932 9.81911 13.7494 10.9999 13.7494C12.1806 13.7494 13.1572 14.9932 13.2718 16.6426C13.2861 16.8534 13.1546 17.0468 12.9531 17.1112ZM9.1665 10.9994C9.1665 9.98827 9.98918 9.16602 10.9999 9.16602C12.0105 9.16602 12.8332 9.98822 12.8332 10.9994C12.8332 12.0105 12.0105 12.8327 10.9999 12.8327C9.98918 12.8327 9.1665 12.0105 9.1665 10.9994ZM13.2718 5.39237C13.1572 7.0413 12.1806 8.28516 10.9999 8.28516C9.81911 8.28516 8.84248 7.0413 8.72788 5.39237C8.71357 5.18157 8.84424 4.98821 9.04568 4.92418C10.3151 4.51864 11.6847 4.51864 12.954 4.92418C13.1555 4.98821 13.2861 5.18157 13.2718 5.39237ZM17.2742 12.3045C17.0038 13.5725 16.3575 14.7184 15.4069 15.6185C15.3218 15.6991 15.209 15.7438 15.0918 15.7438C15.0855 15.7438 15.0792 15.7438 15.0738 15.7434C14.9503 15.7385 14.834 15.6843 14.7516 15.5926C13.4312 14.1281 13.1071 12.7898 13.8841 12.0132C14.5296 11.3673 16.0021 11.2693 17.0361 11.8015C17.2196 11.8963 17.3172 12.1022 17.2742 12.3045Z" fill="#064782"/>
<path d="M11 0C4.93423 0 0 4.9347 0 11C0 17.0653 4.93423 22 11 22C17.0658 22 22 17.0653 22 11C22 4.9347 17.0658 0 11 0ZM11 19.25C6.45068 19.25 2.75 15.5489 2.75 11C2.75 6.45111 6.45068 2.75 11 2.75C15.5493 2.75 19.25 6.45111 19.25 11C19.25 15.5489 15.5493 19.25 11 19.25Z" fill="#064782"/>
</g>
<defs>
<clipPath id="clip0_1844_63857">
<rect width="22" height="22" fill="white"/>
</clipPath>
</defs>
</svg>
