<svg width="5" height="3" viewBox="0 0 5 3" fill="none" xmlns="http://www.w3.org/2000/svg">
<path d="M4.98597 6.49734e-05C4.98597 6.49734e-05 5.0362 0.346517 4.94656 0.443141C4.85344 0.538175 4.55243 0.578542 4.23714 0.643064C3.92406 0.703771 2.21344 1.03273 2.07931 1.0839C1.94137 1.13126 1.81234 1.24855 1.6531 1.45069C1.49894 1.66142 1.31427 1.89758 0.995797 2.03044C0.680499 2.15821 0.404619 2.24339 0.23807 2.24339C0.0731108 2.24339 0 2.15471 0 2.15471C0 2.15471 1.48463 1.68176 1.57935 1.33627C1.67438 0.991411 1.76942 0.863325 1.76942 0.863325C1.76942 0.863325 1.88766 0.964714 2.13653 0.892882C2.38349 0.815965 4.81211 0.145955 4.87154 0.0887438C4.92494 0.0340752 4.98597 6.49734e-05 4.98597 6.49734e-05Z" fill="#861818"/>
</svg>
