<svg width="7" height="7" viewBox="0 0 7 7" fill="none" xmlns="http://www.w3.org/2000/svg">
<path d="M1.98609 6.99951C1.89677 7.00092 1.80739 6.99885 1.71854 6.99329L1.73131 6.99366C1.77371 6.99648 1.81608 6.99812 1.85845 6.9992C1.90314 7.00023 1.9478 7.00011 1.99246 6.99941C2.02958 6.99882 2.06669 6.99766 2.10379 6.99533C2.14553 6.99352 2.18725 6.99054 2.22955 6.98697L2.23012 6.98697C2.14844 6.99405 2.06728 6.99823 1.98609 6.99951ZM2.24867 6.98552C2.2533 6.98487 2.25792 6.98421 2.26255 6.98355C2.27299 6.98281 2.28283 6.98149 2.29326 6.98075C2.30831 6.97877 2.32337 6.97738 2.33784 6.97541C2.34537 6.97413 2.3529 6.97343 2.36042 6.97216C2.39864 6.96749 2.43742 6.96166 2.4756 6.95526C2.56356 6.94111 2.65145 6.92291 2.74046 6.90178C2.76242 6.89621 2.78438 6.89064 2.80692 6.88506C2.84331 6.87521 2.8797 6.86535 2.91666 6.85433C2.76826 6.89844 2.62143 6.93208 2.47561 6.95584C2.39982 6.96864 2.32396 6.97795 2.24867 6.98552ZM1.70461 6.99234C1.6326 6.98767 1.56112 6.9801 1.48962 6.97078C1.49486 6.97186 1.50008 6.97235 1.50531 6.97285C1.53844 6.97697 1.57216 6.98108 1.60527 6.98404L1.60643 6.98402L1.61747 6.98501C1.63375 6.98707 1.65059 6.98797 1.66685 6.98945C1.6744 6.98991 1.68137 6.99039 1.68892 6.99085C1.69415 6.99135 1.69938 6.99184 1.70461 6.99234ZM1.46753 6.96823C1.43963 6.96461 1.41229 6.96039 1.38437 6.95561C1.4117 6.95982 1.43962 6.96403 1.46753 6.96823ZM1.33377 6.94713C1.22789 6.92849 1.1231 6.90519 1.01825 6.87783C1.02815 6.88058 1.03864 6.88332 1.04911 6.88547C1.07358 6.89205 1.09862 6.89804 1.12366 6.90403C1.17315 6.91543 1.22321 6.92624 1.27267 6.9359C1.29071 6.9391 1.30933 6.94287 1.32795 6.94605C1.3297 6.94661 1.33202 6.94658 1.33377 6.94713ZM1.00193 6.87345C0.987945 6.8696 0.974541 6.86575 0.961147 6.86248C0.962887 6.86246 0.965216 6.86301 0.966965 6.86356L0.974546 6.86576C0.983871 6.86852 0.992603 6.87069 1.00193 6.87345ZM0.91686 6.84985C0.886545 6.84046 0.856241 6.83166 0.825918 6.82169C0.835832 6.82502 0.846322 6.82833 0.856228 6.83107C0.876637 6.83771 0.897039 6.84378 0.91686 6.84985ZM3.18498 6.76309C3.18556 6.76308 3.18613 6.76249 3.18671 6.76248C3.19191 6.76066 3.19652 6.75884 3.20171 6.75702C3.19594 6.75885 3.19076 6.76126 3.18498 6.76309ZM0.635769 6.7568C0.625845 6.7529 0.615921 6.74899 0.606587 6.74566C0.607756 6.74622 0.608919 6.74621 0.610088 6.74677C0.618843 6.75011 0.627594 6.75345 0.635769 6.7568ZM0.488092 6.69938C0.487503 6.69881 0.486924 6.69881 0.486335 6.69824C0.486924 6.69881 0.486925 6.69881 0.487505 6.6988C0.488085 6.69879 0.488092 6.69938 0.488092 6.69938ZM3.49155 6.6318C3.49558 6.62999 3.4996 6.62761 3.50364 6.62581C3.51112 6.62221 3.51861 6.6186 3.52552 6.61559C3.51458 6.62099 3.50307 6.6264 3.49155 6.6318ZM0.433196 6.67645C0.425601 6.67309 0.41801 6.66973 0.410424 6.66695L0.426186 6.67308C0.428524 6.67421 0.430858 6.67533 0.433196 6.67645ZM0.365444 6.64735C0.364275 6.64679 0.363108 6.64623 0.361939 6.64566C0.363108 6.64623 0.363689 6.64622 0.364858 6.64679C0.364858 6.64679 0.365435 6.64677 0.365444 6.64735ZM3.56582 6.59582C3.57042 6.59343 3.57444 6.59104 3.57905 6.58864C3.6297 6.56348 3.68033 6.53658 3.73152 6.5085C3.75108 6.49775 3.77121 6.48641 3.79076 6.47566C3.71544 6.51862 3.64064 6.55809 3.56582 6.59582ZM0.256172 6.59744C0.249747 6.59464 0.243313 6.59126 0.236888 6.58846L0.243311 6.59126C0.247408 6.59352 0.252076 6.59518 0.256172 6.59744ZM0.159725 6.55139C0.157387 6.55027 0.154461 6.54857 0.152122 6.54744C0.153292 6.54801 0.155049 6.54914 0.156798 6.54969C0.157967 6.55025 0.159136 6.55082 0.159725 6.55139ZM0.0936487 6.5182C0.0755229 6.5092 0.0579667 6.49962 0.0398409 6.49062C0.0527103 6.49738 0.0655739 6.50356 0.0784433 6.51032C0.0837089 6.51313 0.0883831 6.51538 0.0936487 6.5182ZM3.82698 6.45479C3.82755 6.4542 3.82813 6.4542 3.8287 6.45361C3.831 6.45241 3.83331 6.45122 3.8356 6.44944C3.83273 6.45123 3.82985 6.453 3.82698 6.45479ZM0.0386707 6.49006C0.0258014 6.4833 0.0129343 6.47654 6.49292e-05 6.46979L5.58354e-05 6.46921C0.0129252 6.47597 0.0258014 6.4833 0.0386707 6.49006ZM3.9425 6.38568C3.94939 6.38151 3.95629 6.37734 3.96318 6.37259C3.9965 6.35176 4.02982 6.33093 4.06312 6.30894C4.08608 6.29349 4.10962 6.27805 4.13317 6.26259C4.15613 6.24715 4.17966 6.23112 4.20319 6.2145C4.22614 6.19848 4.24909 6.18244 4.27262 6.16583C4.1619 6.24531 4.05167 6.3184 3.9425 6.38568ZM4.35636 6.10477C4.37528 6.09054 4.39477 6.07573 4.41426 6.06092C4.45095 6.03308 4.48705 6.00466 4.52256 5.97568C4.54205 5.96029 4.5621 5.94431 4.58098 5.92777L4.59587 5.91535C4.62451 5.89228 4.65314 5.86803 4.68117 5.84323C4.72467 5.80541 4.767 5.76704 4.80873 5.72809C4.80988 5.72691 4.81102 5.72632 4.81217 5.72514C4.68581 5.84315 4.55357 5.95546 4.41426 6.06092C4.39477 6.07573 4.37586 6.09054 4.35636 6.10477ZM4.93445 5.60661L4.94187 5.59894C4.9453 5.59541 4.9493 5.59187 4.95272 5.58834C4.94644 5.59482 4.94074 5.60071 4.93445 5.60661ZM5.02808 5.51057C5.0315 5.50703 5.0355 5.50291 5.03892 5.49879C5.04006 5.49762 5.04121 5.49702 5.04235 5.49584C5.0372 5.50056 5.03265 5.50585 5.02808 5.51057ZM5.05547 5.48172C5.05718 5.47995 5.05832 5.47819 5.06003 5.47642C5.06346 5.47289 5.06688 5.46935 5.06972 5.46582C5.06517 5.47112 5.06061 5.47642 5.05547 5.48172ZM5.15355 5.37343C5.15755 5.3693 5.16153 5.36459 5.16495 5.36048C5.16894 5.35577 5.17294 5.35166 5.17692 5.34695C5.16952 5.35577 5.16153 5.3646 5.15355 5.37343ZM5.26806 5.23993C5.27033 5.23699 5.27318 5.23347 5.27545 5.23053C5.28001 5.22524 5.28456 5.21995 5.28911 5.21408C5.28171 5.2229 5.27488 5.23112 5.26806 5.23993ZM5.35625 5.13006C5.36136 5.12302 5.36705 5.11597 5.37216 5.10893L5.37557 5.1048C5.38012 5.09893 5.38467 5.09306 5.38922 5.08718C5.39264 5.08307 5.39548 5.07897 5.39889 5.07485C5.38468 5.09364 5.37047 5.11185 5.35625 5.13006ZM5.47387 4.97332C5.47728 4.9692 5.48012 4.96509 5.48296 4.96098C5.48921 4.95276 5.49487 4.94398 5.50113 4.93576C5.49205 4.94866 5.48295 4.96099 5.47387 4.97332ZM5.67684 4.67366C5.67967 4.66898 5.68192 4.66489 5.68475 4.6602C5.68815 4.65493 5.69097 4.65024 5.69437 4.64497C5.71249 4.61626 5.72944 4.58756 5.74697 4.55885C5.74754 4.55827 5.74811 4.55768 5.7481 4.5571C5.72493 4.59634 5.70118 4.63499 5.67684 4.67366ZM5.90158 4.2826C5.90383 4.27792 5.90608 4.27382 5.90833 4.26915L5.91001 4.26564C5.92071 4.24517 5.93084 4.22528 5.94096 4.20482L5.94603 4.19546C5.9466 4.19429 5.94717 4.1937 5.94773 4.19253C5.93255 4.22294 5.91735 4.25277 5.90158 4.2826ZM5.99437 4.09665C5.99494 4.09548 5.99607 4.09373 5.99662 4.09198C5.99775 4.09023 5.99887 4.08789 5.99943 4.08614C5.99774 4.08965 5.99606 4.09315 5.99437 4.09665ZM6.00785 4.0686C6.00841 4.06743 6.00897 4.06568 6.00953 4.06451C6.02694 4.02768 6.04376 3.99087 6.06058 3.95348C6.06057 3.9529 6.06114 3.95289 6.06114 3.95231C6.04377 3.99146 6.02581 4.03003 6.00785 4.0686ZM6.12047 3.81505C6.12717 3.79812 6.13443 3.7806 6.14113 3.76367C6.14281 3.75958 6.14448 3.75549 6.14616 3.75198C6.13779 3.773 6.12884 3.79403 6.12047 3.81505ZM6.17182 3.68661C6.17516 3.67727 6.17907 3.66793 6.18239 3.65801L6.1863 3.64809C6.19299 3.63117 6.19968 3.61365 6.20636 3.59614C6.19524 3.62649 6.18354 3.65684 6.17182 3.68661ZM6.21972 3.55996L6.21971 3.55938C6.22026 3.55763 6.22082 3.55647 6.22138 3.55472C6.22082 3.55647 6.22027 3.55821 6.21972 3.55996ZM6.25193 3.46895C6.2547 3.46021 6.25803 3.45088 6.2608 3.44213L6.26247 3.43805L6.26302 3.43629C6.27189 3.41005 6.28076 3.3838 6.28905 3.35757C6.27688 3.39489 6.2647 3.4322 6.25193 3.46895ZM6.3167 3.27127C6.31669 3.27069 6.31726 3.27011 6.31724 3.26895C6.32166 3.25495 6.3261 3.24153 6.32994 3.22755C6.32552 3.24212 6.32111 3.25669 6.3167 3.27127ZM6.35966 3.12556C6.36569 3.10342 6.37172 3.08128 6.37775 3.05914L6.3816 3.04574C6.38602 3.03116 6.38983 3.01544 6.39423 3.00028C6.38271 3.04223 6.37177 3.08418 6.35966 3.12556ZM6.39421 2.99913L6.39529 2.99389L6.40678 2.94962C6.40298 2.96592 6.3986 2.98281 6.39421 2.99913ZM6.44705 2.78074C6.45029 2.76561 6.45353 2.75048 6.45678 2.73593C6.45786 2.73069 6.45894 2.72544 6.46002 2.7202C6.46329 2.70681 6.46599 2.69401 6.46868 2.68063C6.46166 2.7138 6.45464 2.74698 6.44705 2.78074ZM6.4784 2.63464C6.47945 2.62766 6.48108 2.62068 6.48213 2.6137L6.48482 2.60031L6.4875 2.58634L6.48966 2.57587C6.49289 2.56016 6.49554 2.54445 6.4982 2.52933C6.49179 2.56423 6.48539 2.59972 6.4784 2.63464ZM6.50303 2.5043C6.50513 2.49034 6.50781 2.47638 6.5105 2.46299C6.50782 2.47696 6.50571 2.49033 6.50303 2.5043ZM6.52956 2.34667C6.53006 2.34144 6.53113 2.33619 6.53163 2.33096C6.53268 2.32399 6.53373 2.31701 6.53478 2.31003C6.53324 2.32224 6.53111 2.33446 6.52956 2.34667ZM6.54472 2.24143C6.54577 2.23445 6.54682 2.22746 6.54729 2.22049C6.54835 2.21409 6.5494 2.20712 6.54988 2.20074C6.55248 2.18155 6.55509 2.16294 6.55769 2.14376C6.55356 2.17631 6.54943 2.20886 6.54472 2.24143ZM6.58096 1.92642L6.58146 1.92177C6.58201 1.91944 6.58197 1.91712 6.58251 1.91479C6.582 1.91886 6.58148 1.92293 6.58096 1.92642ZM6.58442 1.88808C6.58491 1.88285 6.58541 1.87762 6.58591 1.87239L6.58687 1.85961C6.58737 1.85438 6.58786 1.84915 6.58837 1.8445C6.58686 1.85903 6.58593 1.87355 6.58442 1.88808ZM6.60677 1.50251C6.60717 1.4909 6.60757 1.47987 6.60797 1.46826C6.60794 1.46652 6.60792 1.46479 6.60789 1.46305C6.6081 1.47639 6.60773 1.48973 6.60677 1.50251ZM6.60962 1.38876L6.60952 1.38238C6.60991 1.3702 6.6097 1.35686 6.61008 1.34409C6.60973 1.35918 6.60997 1.37425 6.60962 1.38876ZM6.61022 1.31624L6.61001 1.30289C6.61015 1.27504 6.61029 1.2472 6.60985 1.21936C6.61036 1.25184 6.61029 1.28375 6.61022 1.31624ZM6.60943 1.19267C6.60919 1.17701 6.60894 1.16136 6.60869 1.1457C6.60849 1.13294 6.60828 1.1196 6.60808 1.10684C6.60853 1.13526 6.60898 1.16368 6.60943 1.19267ZM6.60482 1.01001C6.60471 1.00305 6.60403 0.996683 6.60393 0.990303C6.60304 0.970593 6.60215 0.950875 6.60126 0.931165C6.60283 0.957246 6.60383 0.983914 6.60482 1.01001ZM6.56254 0.461865C6.56127 0.454923 6.56059 0.448552 6.5599 0.441601C6.55987 0.439281 6.55924 0.436397 6.55921 0.434077C6.55993 0.443348 6.56124 0.452603 6.56254 0.461865ZM6.54338 0.313654C6.5427 0.307283 6.54203 0.300908 6.54077 0.294546C6.53877 0.278334 6.53619 0.26214 6.53362 0.245936C6.53231 0.236675 6.53101 0.227409 6.5297 0.218147C6.53484 0.249973 6.5394 0.281809 6.54338 0.313654ZM6.5245 0.182843C6.52387 0.179372 6.52324 0.175897 6.5226 0.172426L6.52068 0.161431C6.52001 0.15564 6.51877 0.150448 6.5181 0.144657C6.51682 0.137135 6.51553 0.129034 6.51425 0.121512C6.51038 0.0966273 6.50593 0.0717494 6.50206 0.0468644C6.50973 0.0919944 6.5174 0.137124 6.5245 0.182843ZM6.49699 0.0196709C6.49573 0.0133095 6.49446 0.00637691 6.4932 1.5486e-05C6.4932 1.5486e-05 6.4932 1.54328e-05 6.49378 6.30485e-06C6.49446 0.00637685 6.49572 0.0127296 6.49699 0.0196709Z" fill="#C9996A"/>
</svg>
