<svg width="3" height="4" viewBox="0 0 3 4" fill="none" xmlns="http://www.w3.org/2000/svg">
<path d="M2.24231 4.00048C2.05254 3.75617 1.85986 3.52042 1.6643 3.29443C1.65131 3.27945 1.63831 3.26446 1.62531 3.24948C1.46567 3.06667 1.3037 2.88997 1.14002 2.7206L1.13631 2.71641C1.12519 2.70504 1.1147 2.69427 1.10358 2.6829C1.06405 2.6422 1.02454 2.60211 0.984412 2.56203C0.983786 2.56083 0.982551 2.55963 0.981317 2.55844C0.979466 2.55664 0.976998 2.55425 0.975147 2.55246C0.952299 2.52912 0.928851 2.5064 0.906002 2.48307C0.903544 2.48128 0.901075 2.47889 0.898607 2.4765C0.815281 2.39396 0.730767 2.31327 0.646283 2.23439C0.636411 2.22483 0.62717 2.21647 0.617308 2.20751C0.592029 2.18421 0.567353 2.16089 0.541477 2.13821C0.539009 2.13582 0.535925 2.13284 0.533457 2.13044C0.506337 2.10596 0.479216 2.08147 0.452105 2.05759C0.425602 2.0337 0.39911 2.01043 0.373234 1.98775C0.35721 1.97342 0.341803 1.95968 0.325789 1.94596C0.280824 1.90717 0.23526 1.869 0.190304 1.83082C0.176759 1.81949 0.162601 1.80757 0.149055 1.79624L0.142283 1.79087C0.141666 1.79028 0.141058 1.79029 0.141048 1.78968C0.0942604 1.75092 0.046878 1.71278 0.000109169 1.67523L0.322507 0.00047202C0.635162 0.215503 0.945765 0.454258 1.25308 0.716158C1.3898 0.832489 1.52599 0.953693 1.66164 1.07915C1.98658 1.38027 2.30521 1.70458 2.61811 2.05145L2.24231 4.00048Z" fill="#262424"/>
</svg>
