<svg width="22" height="22" viewBox="0 0 22 22" fill="none" xmlns="http://www.w3.org/2000/svg">
<path d="M8.03329 2.34329C5.20999 3.00554 3.00555 5.20999 2.34329 8.03328C1.88557 9.98461 1.88557 12.0154 2.34329 13.9667C3.00555 16.79 5.21 18.9945 8.03329 19.6567C9.98461 20.1144 12.0154 20.1144 13.9667 19.6567C16.79 18.9945 18.9945 16.79 19.6567 13.9667C20.1144 12.0154 20.1144 9.98461 19.6567 8.03329C18.9945 5.21 16.79 3.00554 13.9667 2.34329C12.0154 1.88557 9.98461 1.88557 8.03329 2.34329Z" stroke="#5F676C" stroke-width="1.5" stroke-linecap="round" stroke-linejoin="round"/>
<path d="M9.33366 10.355C9.52001 9.88913 9.88913 9.52001 10.355 9.33366L12.2229 8.5865C12.9712 8.28719 13.7138 9.02976 13.4144 9.77805L12.6673 11.646C12.4809 12.1118 12.1118 12.4809 11.646 12.6673L9.77805 13.4144C9.02976 13.7138 8.28719 12.9712 8.5865 12.2229L9.33366 10.355Z" stroke="#CD2127" stroke-width="1.5" stroke-linecap="round" stroke-linejoin="round"/>
</svg>
