<svg width="48" height="49" viewBox="0 0 48 49" fill="none" xmlns="http://www.w3.org/2000/svg">
<path d="M0 24C0 12.6863 0 7.02944 3.51472 3.51472C7.02944 0 12.6863 0 24 0C35.3137 0 40.9706 0 44.4853 3.51472C48 7.02944 48 12.6863 48 24V25C48 36.3137 48 41.9706 44.4853 45.4853C40.9706 49 35.3137 49 24 49C12.6863 49 7.02944 49 3.51472 45.4853C0 41.9706 0 36.3137 0 25V24Z" fill="#1C477E" fill-opacity="0.04"/>
<path d="M0.25 24C0.25 18.3361 0.250531 14.1133 0.68711 10.866C1.12272 7.62601 1.98833 5.39466 3.6915 3.6915C5.39466 1.98833 7.62601 1.12272 10.866 0.68711C14.1133 0.250531 18.3361 0.25 24 0.25C29.6639 0.25 33.8867 0.250531 37.134 0.68711C40.374 1.12272 42.6053 1.98833 44.3085 3.6915C46.0117 5.39466 46.8773 7.62601 47.3129 10.866C47.7495 14.1133 47.75 18.3361 47.75 24V25C47.75 30.6639 47.7495 34.8867 47.3129 38.134C46.8773 41.374 46.0117 43.6053 44.3085 45.3085C42.6053 47.0117 40.374 47.8773 37.134 48.3129C33.8867 48.7495 29.6639 48.75 24 48.75C18.3361 48.75 14.1133 48.7495 10.866 48.3129C7.62601 47.8773 5.39466 47.0117 3.6915 45.3085C1.98833 43.6053 1.12272 41.374 0.68711 38.134C0.250531 34.8867 0.25 30.6639 0.25 25V24Z" stroke="white" stroke-opacity="0.2" stroke-width="0.5"/>
</svg>
