<svg width="5" height="11" viewBox="0 0 5 11" fill="none" xmlns="http://www.w3.org/2000/svg">
<path d="M3.59999 11.0003C3.39711 10.9481 2.74631 10.7628 1.95603 10.3509C0.999302 9.85275 0.657373 9.07018 0.204913 7.92993C-0.247547 6.78968 0.17709 4.00367 0.265087 2.96756C0.353084 1.93146 0.575788 1.1227 1.36874 0.379475C1.66654 0.10061 2.14191 0.00790055 2.62041 0.000368446C3.41831 -0.0121913 4.22412 0.212934 4.22412 0.212934L4.25476 0.228552C4.42911 0.626941 4.55768 1.07015 4.62369 1.5525C4.70781 2.16331 4.69159 2.83769 4.54095 3.56722C4.07846 5.80309 3.80426 8.26307 3.59999 11.0003Z" fill="#C9AD90"/>
</svg>
