<svg width="23" height="26" viewBox="0 0 23 26" fill="none" xmlns="http://www.w3.org/2000/svg">
<path d="M22.4296 8.49756C21.0838 2.63805 15.9186 0 11.3814 0C11.3814 0 11.3814 0 11.3686 0C6.84421 0 1.66617 2.62537 0.320395 8.48488C-1.17919 15.0293 2.87097 20.5717 6.53661 24.0595C7.8952 25.3532 9.6383 26 11.3814 26C13.1245 26 14.8676 25.3532 16.2134 24.0595C19.879 20.5717 23.9292 15.042 22.4296 8.49756ZM11.3814 14.8517C9.15126 14.8517 7.34407 13.0634 7.34407 10.8566C7.34407 8.64976 9.15126 6.86146 11.3814 6.86146C13.6116 6.86146 15.4187 8.64976 15.4187 10.8566C15.4187 13.0634 13.6116 14.8517 11.3814 14.8517Z" fill="#ADB7C4"/>
</svg>
