<svg width="24" height="24" viewBox="0 0 24 24" fill="none" xmlns="http://www.w3.org/2000/svg">
<g clip-path="url(#clip0_2084_18280)">
<path d="M14.7297 8.2908C14.7056 8.14624 14.6369 8.01284 14.5333 7.9092L11.2187 4.59462C10.9441 4.32002 10.499 4.32002 10.2244 4.59462L9.06427 5.75473L8.23561 4.92607C7.96102 4.65148 7.51584 4.65148 7.24125 4.92607L4.25812 7.9092C4.02998 8.13734 3.98639 8.49148 4.15238 8.76813L4.86431 9.95463L0.943594 13.8754C0.669 14.15 0.669 14.5952 0.943594 14.8698L1.77225 15.6984L1.02975 16.4409C0.365719 17.1049 0 17.9877 0 18.9268V23.2963C0 23.6846 0.314812 23.9994 0.703125 23.9994C1.09144 23.9994 1.40625 23.6846 1.40625 23.2963V18.9268C1.40625 18.3634 1.62567 17.8337 2.02411 17.4353L2.76661 16.6928L4.58963 18.5158C5.96039 19.8866 8.19075 19.8865 9.56147 18.5158L15.1962 12.881C15.3568 12.7204 15.4299 12.4923 15.3926 12.2682L14.7297 8.2908ZM8.56711 17.5214C7.74469 18.3439 6.40645 18.3439 5.58398 17.5214L5.08678 17.0242L7.69819 14.4128V15.367C7.69819 15.7553 8.013 16.0701 8.40131 16.0701C8.78963 16.0701 9.10444 15.7553 9.10444 15.367V13.8529L11.1918 14.8966L8.56711 17.5214Z" fill="#9BA7AE"/>
<path d="M22.9676 8.91511C22.4904 8.09255 22.0202 7.41028 22.0004 7.38164C21.8691 7.19156 21.6529 7.07812 21.4219 7.07812C21.1909 7.07812 20.9746 7.19156 20.8433 7.38164C20.8236 7.41028 20.3534 8.09255 19.8762 8.91511C18.9508 10.5104 18.8438 11.1722 18.8438 11.5312C18.8438 12.9528 20.0003 14.1094 21.4219 14.1094C22.8435 14.1094 24 12.9528 24 11.5312C24 11.1722 23.893 10.5104 22.9676 8.91511Z" fill="#9BA7AE"/>
<path d="M21.0905 3.51539C21.2783 3.51539 21.4549 3.44222 21.5877 3.30942C21.7205 3.17658 21.7937 3 21.7936 2.81227V0.703172C21.7936 0.315516 21.4782 9.37581e-05 21.0905 4.68831e-05L19.8951 8.06987e-09C17.7977 -9.37419e-05 15.826 0.816656 14.3429 2.29969L12.6274 4.01517L15.1134 6.50109L16.829 4.78547C17.6479 3.96656 18.7367 3.51558 19.8948 3.51553L21.0905 3.51539Z" fill="#9BA7AE"/>
</g>
<defs>
<clipPath id="clip0_2084_18280">
<rect width="24" height="24" fill="white"/>
</clipPath>
</defs>
</svg>
