<svg width="26" height="26" viewBox="0 0 26 26" fill="none" xmlns="http://www.w3.org/2000/svg">
<g clip-path="url(#clip0_1844_69667)">
<path fill-rule="evenodd" clip-rule="evenodd" d="M15.4664 5.80585C15.4664 9.06885 13.6318 10.9056 10.3666 10.9056C7.10361 10.9056 5.26682 9.06885 5.26682 5.80585C5.26682 2.54285 7.10361 0.706055 10.3666 0.706055C13.6312 0.706055 15.4664 2.54285 15.4664 5.80585ZM19.29 11.6282H20.083C20.3799 11.629 20.6697 11.719 20.9148 11.8866C21.1598 12.0542 21.3488 12.2916 21.4572 12.568L21.8212 13.4894L22.9246 14.1264L23.9034 13.978C24.1976 13.9337 24.4984 13.9791 24.7664 14.1083C25.0344 14.2375 25.2573 14.4444 25.406 14.7022L25.8014 15.3874C25.9503 15.6449 26.018 15.9412 25.9958 16.2378C25.9736 16.5344 25.8624 16.8174 25.6768 17.0498L25.0604 17.8243V19.1L25.673 19.8724C25.8587 20.1051 25.9699 20.3883 25.9921 20.6852C26.0143 20.982 25.9466 21.2787 25.7976 21.5364L25.4022 22.22C25.2532 22.4774 25.0303 22.6841 24.7623 22.8132C24.4944 22.9424 24.1938 22.988 23.8996 22.9442L22.9208 22.7958L21.8158 23.4344L21.4556 24.3558C21.347 24.632 21.158 24.8693 20.9129 25.0369C20.6679 25.2044 20.3782 25.2945 20.0814 25.2956H19.2884C18.9915 25.2948 18.7017 25.2047 18.4567 25.0371C18.2116 24.8696 18.0226 24.6321 17.9142 24.3558L17.5518 23.4344L16.4468 22.7958L15.468 22.9442C15.1738 22.9882 14.8732 22.9427 14.6052 22.8135C14.3372 22.6844 14.1143 22.4776 13.9654 22.22L13.57 21.5364C13.4208 21.2787 13.3528 20.982 13.3751 20.6851C13.3973 20.3882 13.5087 20.1049 13.6946 19.8724L14.311 19.1V17.8243L13.6946 17.0498C13.5093 16.8172 13.3983 16.5343 13.3761 16.2378C13.3539 15.9413 13.4214 15.6449 13.57 15.3874L13.9654 14.7022C14.1141 14.4444 14.337 14.2375 14.605 14.1083C14.8731 13.9791 15.1738 13.9337 15.468 13.978L16.443 14.1264L17.5518 13.4856L17.9142 12.5664C18.0227 12.2902 18.2118 12.0531 18.4569 11.8859C18.702 11.7187 18.9917 11.6291 19.2884 11.6288L19.29 11.6282ZM19.6854 20.784C19.9933 20.7887 20.299 20.7321 20.5847 20.6176C20.8705 20.5031 21.1306 20.3328 21.3499 20.1168C21.5693 19.9008 21.7435 19.6433 21.8624 19.3593C21.9813 19.0753 22.0425 18.7706 22.0425 18.4627C22.0425 18.1548 21.9813 17.8501 21.8624 17.5661C21.7435 17.2821 21.5693 17.0246 21.3499 16.8086C21.1306 16.5926 20.8705 16.4223 20.5847 16.3078C20.299 16.1933 19.9933 16.1367 19.6854 16.1414C19.0759 16.1507 18.4945 16.3994 18.0668 16.8337C17.6391 17.268 17.3993 17.8531 17.3993 18.4627C17.3993 19.0723 17.6391 19.6574 18.0668 20.0917C18.4945 20.526 19.0759 20.7747 19.6854 20.784ZM12.7694 12.5566C12.4442 12.837 12.1679 13.1696 11.9521 13.5408L11.5583 14.2223C11.1799 14.8774 11.0057 15.6306 11.058 16.3853C11.1103 17.14 11.3868 17.862 11.8519 18.4586C11.3151 19.1474 11.0319 19.9999 11.0497 20.8728H4.14286C2.39328 20.8728 0.944861 19.9352 0.320861 18.6331C-0.0101634 17.9642 -0.0873396 17.1981 0.103652 16.4767C0.307861 15.7243 0.807277 15.0651 1.55803 14.5641C3.19064 13.4816 5.02776 12.7451 6.95602 12.4001C8.88428 12.0552 10.8628 12.109 12.7694 12.5583V12.5566Z" fill="#064782"/>
</g>
<defs>
<clipPath id="clip0_1844_69667">
<rect width="26" height="26" fill="white"/>
</clipPath>
</defs>
</svg>
