<svg width="36" height="36" viewBox="0 0 36 36" fill="none" xmlns="http://www.w3.org/2000/svg">
<rect width="36" height="36" rx="18" fill="#BD3430" fill-opacity="0.16"/>
<g clip-path="url(#clip0_1585_16854)">
<path fill-rule="evenodd" clip-rule="evenodd" d="M12.024 12.3101C13.375 10.9605 15.3233 10.2861 17.7143 10.2861C20.1053 10.2861 22.0537 10.9605 23.4047 12.3101C23.8263 12.7331 24.1817 13.2131 24.471 13.7455C24.1312 13.4981 23.7719 13.2788 23.3967 13.0895C23.0016 12.8919 22.5623 12.7994 22.1211 12.8209C21.6799 12.8424 21.2517 12.9772 20.8777 13.2123C20.5038 13.4474 20.1967 13.7749 19.9861 14.1632C19.7755 14.5515 19.6685 14.9875 19.6753 15.4291H16.576C15.894 15.4291 15.2399 15.7001 14.7577 16.1823C14.2754 16.6646 14.0045 17.3186 14.0045 18.0006C14.0045 18.6826 14.2754 19.3367 14.7577 19.819C15.2399 20.3012 15.894 20.5721 16.576 20.5721H19.6753C19.6686 21.0137 19.7756 21.4496 19.9862 21.8378C20.1969 22.226 20.5039 22.5534 20.8778 22.7885C21.2517 23.0236 21.6798 23.1583 22.121 23.1799C22.5621 23.2014 23.0013 23.109 23.3963 22.9115C23.7716 22.7222 24.1309 22.5028 24.4707 22.2555C24.1862 22.7828 23.8271 23.2662 23.4043 23.6908C22.0537 25.0405 20.105 25.7148 17.7143 25.7148C15.3237 25.7148 13.375 25.0405 12.024 23.6908C10.6743 22.3398 10 20.3915 10 18.0005C10 15.6095 10.6743 13.6611 12.024 12.3101ZM21.344 16.8575L21.121 15.5878C21.0843 15.3793 21.1062 15.1647 21.1843 14.9679C21.2624 14.7711 21.3936 14.5999 21.5633 14.4733C21.733 14.3467 21.9346 14.2698 22.1455 14.251C22.3563 14.2323 22.5683 14.2725 22.7577 14.3671C24.0227 15.0001 25.2467 16.2241 25.8787 17.4895C25.9579 17.6481 25.9992 17.823 25.9992 18.0003C25.9992 18.1776 25.9579 18.3525 25.8787 18.5111C25.2467 19.7761 24.0227 21.0001 22.7577 21.6335C22.5682 21.7282 22.3561 21.7684 22.1451 21.7496C21.9342 21.7309 21.7325 21.6538 21.5628 21.5271C21.393 21.4004 21.2618 21.229 21.1838 21.0321C21.1058 20.8351 21.0841 20.6204 21.121 20.4118L21.344 19.1435H16.576C16.2763 19.1383 15.9906 19.0157 15.7804 18.8019C15.5703 18.5882 15.4525 18.3004 15.4525 18.0006C15.4525 17.7009 15.5703 17.4131 15.7804 17.1993C15.9906 16.9856 16.2763 16.8629 16.576 16.8578H21.344V16.8575Z" fill="#CD2127"/>
</g>
<defs>
<clipPath id="clip0_1585_16854">
<rect width="16" height="16" fill="white" transform="translate(10 10)"/>
</clipPath>
</defs>
</svg>
