<svg width="6" height="4" viewBox="0 0 6 4" fill="none" xmlns="http://www.w3.org/2000/svg">
<path d="M6 3.52356C6 3.52356 5.55305 3.49201 4.93798 2.61708C4.02357 2.85762 2.60409 3.32009 2.00747 3.28129C1.41378 3.24077 1.09306 2.8759 1.4362 2.46103C1.78296 2.04667 3.30366 1.28089 3.70301 1.08466C4.10237 0.888433 4.37344 0.778075 4.37344 0.778075C4.37344 0.778075 4.71934 0.187835 4.90591 0.000400008C4.17324 0.458901 1.84332 1.95287 0.474192 2.71226C0.133119 2.88073 0 2.98333 0 2.98333C0 2.98333 0.712152 2.61708 0.867687 2.60242C1.02408 2.58449 1.17772 2.71761 1.1572 2.89056C1.1253 3.13438 1.2729 3.1199 1.3136 3.28129C1.36136 3.47597 1.2817 3.6003 1.13306 3.64789C0.983388 3.6941 0.553858 3.73255 0.462641 3.75618C0.369354 3.78015 0.282794 3.8574 0.282794 3.8574C0.282794 3.8574 5.39079 3.60754 6 3.52356Z" fill="#0C0C0C"/>
</svg>
