<svg width="13" height="3" viewBox="0 0 13 3" fill="none" xmlns="http://www.w3.org/2000/svg">
<path d="M13 1.82036C13 1.82036 12.9693 0.86164 12.9117 0.669768C12.8791 0.558163 12.8414 0.527463 12.6863 0.492926C12.5369 0.466064 10.0161 0.0113262 10.0161 0.0113262C10.0161 0.0113262 10.032 -0.00945944 9.7906 0.00397166C9.55077 0.0113266 8.57798 0.139881 6.23363 0.180494C3.88735 0.217589 2.65139 0.176981 2.37382 0.129013C2.23695 0.105669 2.09816 0.156188 1.7611 0.241891C1.42405 0.322797 0.353732 0.669768 0.195118 0.725411C0.0384227 0.782333 0.0112302 0.806636 0.000357509 0.956296C-0.00667778 1.11683 0.0924521 1.91309 0.0924521 1.91309C0.0924521 1.91309 0.0940611 2.04453 0.254594 2.10305C0.415126 2.15997 2.37925 2.56898 2.53402 2.58945C2.69807 2.61663 2.83845 2.52389 2.98652 2.45354C3.13777 2.38158 4.04598 2.1507 6.26593 2.09857C8.49132 2.04932 9.22298 2.14654 9.53478 2.27253C9.85168 2.39949 9.67516 2.54819 10.261 2.45354C10.852 2.35184 12.8558 1.96266 12.8558 1.96266C12.8558 1.96266 12.9782 1.94923 13 1.82036Z" fill="#861818"/>
</svg>
