<svg width="24" height="24" viewBox="0 0 24 24" fill="none" xmlns="http://www.w3.org/2000/svg">
<g clip-path="url(#clip0_591_4395)">
<path fill-rule="evenodd" clip-rule="evenodd" d="M10.5719 1.08682C11.4319 0.495798 12.5678 0.495798 13.4277 1.08682C18.3301 4.45624 20.6229 7.08458 23.3898 11.6057C23.4741 11.7435 23.5177 11.9024 23.5156 12.0639L23.428 19.0517C23.4277 19.0799 23.426 19.1082 23.4227 19.1365C23.1944 21.1712 21.5757 22.7874 19.5455 23.0235C18.074 23.1992 16.4967 23.2966 14.8586 23.336V16.7257C14.8586 15.1468 13.5787 13.8669 11.9999 13.8669C10.421 13.8669 9.14112 15.1468 9.14112 16.7257V23.2765C7.59072 23.217 6.03196 23.1291 4.4977 23.0274C4.48366 23.0266 4.46966 23.0252 4.45567 23.0237C2.42481 22.7883 0.805415 21.1717 0.576911 19.1365C0.573747 19.1082 0.571983 19.0799 0.571628 19.0517L0.483954 12.0639C0.481928 11.9024 0.525596 11.7435 0.609925 11.6057C3.37673 7.08458 5.66952 4.45624 10.5719 1.08682Z" fill="#ADB7C4"/>
</g>
<defs>
<clipPath id="clip0_591_4395">
<rect width="24" height="24" fill="white"/>
</clipPath>
</defs>
</svg>
