<svg width="6" height="3" viewBox="0 0 6 3" fill="none" xmlns="http://www.w3.org/2000/svg">
<path d="M5.35783 2.93688C5.35783 2.93688 5.18645 2.828 4.9812 2.69739C4.77504 2.56695 4.58809 2.2963 4.54533 2.27185C4.50548 2.2463 2.61691 1.43526 2.31384 1.29432C2.01167 1.1561 1.2807 0.777843 1.20533 0.697228C1.13269 0.612084 1.13269 0.350131 1.5104 0.416978C1.88503 0.480745 4.95674 1.0244 4.95674 1.0244C4.95674 1.0244 5.88354 1.0744 6.00003 1.10501C4.94841 0.91661 0.302807 -0.000953594 0.302807 -0.000953594C0.302807 -0.000953594 -0.0493617 -0.000953594 0.1231 0.15303C0.369293 0.238356 1.09084 0.480744 1.09084 0.480744C1.09084 0.480744 0.247555 0.268971 0.162954 0.261181C0.0814331 0.253572 -0.113675 0.292342 0.089403 0.457739C0.29556 0.623135 5.25366 2.88688 5.35783 2.93688Z" fill="#0C0C0C"/>
</svg>
