<svg width="2" height="1" viewBox="0 0 2 1" fill="none" xmlns="http://www.w3.org/2000/svg">
<path d="M0.000854452 0.448653L0 0.448666C0.000857802 0.448653 0.00171393 0.448639 0.00257173 0.448626C0.00171393 0.448639 0.00171225 0.448639 0.000854452 0.448653ZM0.178286 0.43728L0.177432 0.437293C0.189427 0.436246 0.200562 0.435206 0.212558 0.43416C0.201433 0.436051 0.189424 0.436247 0.178286 0.43728ZM0.624455 0.383066C0.639869 0.381107 0.656126 0.378271 0.671526 0.375454C0.656126 0.378271 0.640726 0.381094 0.624455 0.383066ZM0.757091 0.360382C0.769073 0.358478 0.781043 0.355722 0.793026 0.353817C0.792168 0.353831 0.792171 0.353831 0.792171 0.353831L0.782757 0.355688C0.774206 0.357539 0.765642 0.358532 0.757091 0.360382ZM1.06666 0.294594C1.07863 0.291831 1.09145 0.289052 1.10342 0.28629L1.10257 0.286303L1.08376 0.290889L1.06838 0.294567C1.06752 0.29458 1.06752 0.29458 1.06666 0.294594ZM1.20855 0.259749C1.22222 0.256102 1.23503 0.252475 1.24784 0.248841C1.23417 0.252488 1.22136 0.256115 1.20855 0.259749ZM1.58261 0.14919C1.60225 0.142874 1.62274 0.136552 1.64322 0.129366L1.63554 0.132051C1.61762 0.138339 1.60055 0.143759 1.58261 0.14919ZM1.98532 0.00471343C1.99044 0.00291682 1.9947 0.00113716 1.99982 -0.000659502L1.99726 0.000235457L1.98874 0.00380502L1.98532 0.00471343Z" fill="#5299BB"/>
</svg>
