<svg width="41" height="45" viewBox="0 0 41 45" fill="none" xmlns="http://www.w3.org/2000/svg">
<path d="M40 2V1H39H26H25.9211C20.331 0.99999 16.0337 0.999982 12.6995 1.44826C9.32084 1.90251 6.78174 2.83348 4.80761 4.80761C2.83348 6.78174 1.90251 9.32084 1.44826 12.6995C0.999982 16.0337 0.99999 20.331 1 25.9211V26V43V44H2H11H11.0794C17.6119 44 22.6162 44 26.4951 43.4785C30.4183 42.951 33.3396 41.8736 35.6066 39.6066C37.8736 37.3396 38.951 34.4183 39.4785 30.4951C40 26.6162 40 21.6119 40 15.0794V15V2Z" fill="#13835B" stroke="#F4F4F4" stroke-width="2"/>
</svg>
