<svg width="22" height="22" viewBox="0 0 22 22" fill="none" xmlns="http://www.w3.org/2000/svg">
<g clip-path="url(#clip0_278_4480)">
<path d="M20.6491 15.5375C20.5927 15.4928 16.5 12.5428 15.3766 12.7545C14.8404 12.8494 14.5338 13.2151 13.9184 13.9473C13.8194 14.0656 13.5816 14.3488 13.3966 14.5503C13.0078 14.4234 12.6285 14.269 12.2616 14.0883C10.3679 13.1663 8.83781 11.6363 7.91587 9.74256C7.73497 9.37572 7.58057 8.9964 7.45388 8.6075C7.656 8.42188 7.93925 8.184 8.06025 8.08225C8.789 7.47037 9.15544 7.16375 9.25031 6.62612C9.44487 5.51237 6.49687 1.3915 6.46594 1.35438C6.33218 1.1633 6.15763 1.00434 5.9549 0.889008C5.75217 0.773674 5.52634 0.704844 5.29375 0.6875C4.09887 0.6875 0.6875 5.11294 0.6875 5.85819C0.6875 5.9015 0.750063 10.3042 6.17925 15.8269C11.6964 21.2499 16.0985 21.3125 16.1418 21.3125C16.8878 21.3125 21.3125 17.9011 21.3125 16.7062C21.2953 16.4745 21.2269 16.2494 21.1122 16.0473C20.9975 15.8452 20.8393 15.671 20.6491 15.5375Z" fill="white"/>
</g>
<defs>
<clipPath id="clip0_278_4480">
<rect width="22" height="22" fill="white"/>
</clipPath>
</defs>
</svg>
