<svg width="13" height="14" viewBox="0 0 13 14" fill="none" xmlns="http://www.w3.org/2000/svg">
<path d="M10.4104 13.0694C9.74565 13.5749 9.10786 13.8557 8.48909 13.9563C7.64036 14.095 6.82886 13.8962 6.0357 13.4746C4.65 12.7381 3.32089 11.3234 1.95576 9.84829C0.0226798 7.75834 -1.13819 3.33462 1.69878 1.04712C1.8038 0.961522 1.91519 0.879277 2.03239 0.80039C2.05571 0.7845 2.07961 0.768598 2.10295 0.753857C2.38464 0.569467 2.67323 0.421189 2.96693 0.306177C4.69034 -0.368335 6.58546 0.113536 8.3718 1.35546C9.12226 1.87719 9.85299 2.5332 10.544 3.29389C10.6329 3.39138 10.7213 3.4906 10.8085 3.59157C11.3526 4.22119 11.7689 4.91779 12.0614 5.64394C12.1823 5.94618 12.2826 6.25277 12.3616 6.56199C12.4045 6.72862 12.441 6.89536 12.4713 7.06276C12.8905 9.37203 12.1614 11.7379 10.4104 13.0694Z" fill="#FBC088"/>
</svg>
