<svg width="1" height="1" viewBox="0 0 1 1" fill="none" xmlns="http://www.w3.org/2000/svg">
<path d="M0.160026 0.0548298C0.115 0.0548298 0.081501 0.0663484 0.0637001 0.081357C0.0340319 0.118355 0.0382183 0.185372 0.044152 0.267047L0.0500829 0.340689V0.419572C0.0500829 0.497058 0.0500774 0.563032 0.0793965 0.600379C0.101037 0.615388 0.12653 0.623063 0.171905 0.623063L0.840649 0.608406C0.889863 0.605265 0.919191 0.597582 0.936992 0.577687C0.96666 0.541387 0.960369 0.474726 0.954784 0.399683L0.95095 0.319053V0.244355C0.95095 0.16268 0.950944 0.0960152 0.919182 0.0625076C0.901381 0.0447067 0.872067 0.0370286 0.828787 0.0370286L0.160026 0.0548298ZM0.0518212 0.626906C0.00854063 0.582579 0.00854949 0.504039 0.00854949 0.419572V0.340689L0.00295944 0.267047C-0.001229 0.177694 -0.00715786 0.103699 0.0340285 0.0593718C0.057763 0.0300526 0.103133 0.0143446 0.160026 0.0143446L0.817266 -0.000661621H0.828787C0.883935 -0.000661621 0.921279 0.00736042 0.948853 0.0370286C0.992134 0.0813563 0.992142 0.156048 0.992142 0.244355V0.319053L0.995977 0.397936C1.00191 0.481356 1.00785 0.556052 0.962471 0.600379C0.938736 0.630047 0.897542 0.644708 0.840649 0.644708L0.183767 0.667392H0.171905C0.118851 0.667392 0.0793952 0.652386 0.0518212 0.626906Z" fill="#1960B2"/>
</svg>
