<svg width="24" height="24" viewBox="0 0 24 24" fill="none" xmlns="http://www.w3.org/2000/svg">
<path d="M9.30325 12.0702C9.8964 11.2566 10.6666 10.5883 11.5558 10.116C12.445 9.6436 13.4298 9.37941 14.436 9.34336H14.7067C15.6589 9.35019 16.5987 9.56032 17.4632 9.95969C18.3276 10.3591 19.0968 10.9385 19.7192 11.6591L23.4986 15.9699C23.8236 15.5862 24.0014 15.0993 23.9999 14.5964V8.12031C24.0039 7.83606 23.9513 7.55385 23.8453 7.29008C23.7393 7.02631 23.5819 6.78625 23.3823 6.58384C23.1826 6.38143 22.9448 6.22071 22.6825 6.11102C22.4203 6.00133 22.1388 5.94486 21.8545 5.94488C21.7127 5.94751 21.5776 6.0057 21.4782 6.10694C21.3788 6.20818 21.3232 6.34438 21.3232 6.48623V8.09023H17.3132V5.94488C17.3106 5.80305 17.2524 5.66792 17.1512 5.56856C17.0499 5.46919 16.9137 5.41354 16.7719 5.41356H15.1679L13.5338 3.28826H12.5313V1.50382H15.2882C15.4876 1.50382 15.6788 1.4246 15.8198 1.2836C15.9608 1.14259 16.04 0.951352 16.04 0.751943C16.04 0.552533 15.9608 0.361291 15.8198 0.220287C15.6788 0.0792838 15.4876 6.86792e-05 15.2882 6.86762e-05H8.27068C8.17157 -0.00127996 8.07319 0.0172467 7.98136 0.0545544C7.88953 0.091862 7.80611 0.147194 7.73602 0.217283C7.66593 0.287371 7.6106 0.370794 7.57329 0.462625C7.53599 0.554456 7.51746 0.652832 7.51881 0.751943C7.51881 0.951352 7.59802 1.14259 7.73903 1.2836C7.88003 1.4246 8.07127 1.50382 8.27068 1.50382H11.0276V3.28826H7.35841L5.74439 4.94239H3.59904C3.45721 4.94501 3.32208 5.00321 3.22271 5.10445C3.12335 5.20568 3.06769 5.34188 3.06771 5.48374V8.52131H1.50382V5.26319C1.50382 5.06378 1.4246 4.87253 1.2836 4.73153C1.14259 4.59053 0.951352 4.51131 0.751943 4.51131C0.652832 4.50996 0.554456 4.52849 0.462625 4.5658C0.370794 4.60311 0.287371 4.65844 0.217283 4.72853C0.147194 4.79861 0.091862 4.88204 0.0545544 4.97387C0.0172467 5.0657 -0.00127996 5.16408 6.86762e-05 5.26319V13.2832C6.86762e-05 13.4826 0.0792837 13.6738 0.220287 13.8148C0.361291 13.9558 0.552533 14.035 0.751943 14.035C0.951352 14.035 1.14259 13.9558 1.2836 13.8148C1.4246 13.6738 1.50382 13.4826 1.50382 13.2832V10.0251H3.06771V12.9624C3.06771 13.1033 3.12369 13.2384 3.22334 13.3381C3.32298 13.4377 3.45812 13.4937 3.59904 13.4937H5.74439L7.89976 17.2531H8.11028C7.94281 16.3535 7.9623 15.4292 8.16754 14.5375C8.37278 13.6458 8.75937 12.8059 9.30325 12.0702Z" fill="#9BA7AE"/>
<path d="M22.9974 17.2835L18.827 12.4715C18.291 11.8522 17.6224 11.3616 16.8708 11.0361C16.1192 10.7106 15.304 10.5586 14.4856 10.5913C13.6672 10.624 12.8667 10.8406 12.1435 11.2251C11.4203 11.6096 10.793 12.152 10.3081 12.8121C9.82324 13.4722 9.4933 14.2331 9.34276 15.0382C9.19223 15.8433 9.22496 16.6719 9.43855 17.4626C9.65213 18.2534 10.0411 18.9858 10.5765 19.6056C11.1119 20.2254 11.7801 20.7167 12.5313 21.0429L18.3659 23.5892C19.2001 23.9537 20.1335 24.0235 21.0126 23.7871C21.8918 23.5507 22.6643 23.0222 23.2032 22.2885C23.7421 21.5547 24.0153 20.6595 23.9779 19.7499C23.9405 18.8403 23.5948 17.9705 22.9974 17.2835ZM10.8872 17.073C10.7281 16.4978 10.7011 15.8941 10.8081 15.3069C10.9152 14.7198 11.1536 14.1645 11.5054 13.6825C11.8573 13.2004 12.3136 12.8042 12.8402 12.5233C13.3668 12.2424 13.95 12.0842 14.5464 12.0605H14.7068C15.2769 12.0566 15.841 12.1765 16.3602 12.4119C16.8795 12.6473 17.3414 12.9926 17.7143 13.4239L21.8846 18.2359C22.258 18.6654 22.4741 19.2093 22.4973 19.778C22.5205 20.3467 22.3494 20.9063 22.0122 21.3649C21.675 21.8234 21.1918 22.1535 20.642 22.3009C20.0923 22.4482 19.5088 22.4041 18.9874 22.1757L13.1429 19.6394C12.6011 19.4041 12.118 19.0521 11.728 18.6084C11.3381 18.1648 11.051 17.6405 10.8872 17.073Z" fill="#9BA7AE"/>
<path d="M16.5513 17.3931C16.8123 17.0364 16.9617 16.6104 16.9807 16.1689C16.9997 15.7273 16.8874 15.29 16.658 14.9123C16.4285 14.5345 16.0923 14.2332 15.6917 14.0465C15.2911 13.8598 14.8441 13.796 14.4073 13.8632C13.9705 13.9304 13.5633 14.1256 13.2374 14.4241C12.9114 14.7226 12.6813 15.111 12.576 15.5402C12.4707 15.9695 12.495 16.4203 12.6459 16.8358C12.7967 17.2512 13.0673 17.6126 13.4235 17.8743C13.6598 18.0497 13.9287 18.1764 14.2143 18.2471C14.5 18.3179 14.7969 18.3313 15.0878 18.2865C15.3787 18.2418 15.6578 18.1398 15.909 17.9864C16.1602 17.8331 16.3785 17.6314 16.5513 17.3931Z" fill="#9BA7AE"/>
<path d="M20.1301 21.2336C20.3843 21.2344 20.6323 21.1545 20.8383 21.0056C21.0444 20.8567 21.1979 20.6463 21.277 20.4047C21.3561 20.1631 21.3565 19.9026 21.2784 19.6607C21.2002 19.4188 21.0474 19.2079 20.8419 19.0582C20.5856 18.9056 20.2817 18.8537 19.9893 18.9125C19.6968 18.9713 19.4367 19.1367 19.2593 19.3765C19.0819 19.6164 19 19.9136 19.0293 20.2104C19.0587 20.5073 19.1974 20.7826 19.4183 20.983C19.6211 21.1433 19.8716 21.2315 20.1301 21.2336Z" fill="#9BA7AE"/>
</svg>
