<svg width="20" height="18" viewBox="0 0 20 18" fill="none" xmlns="http://www.w3.org/2000/svg">
<path d="M18.3865 6.64641V6.65368V6.65482V6.66394C18.3865 9.68189 16.6062 12.2533 14.8692 13.968C14.0631 14.7683 13.169 15.4749 12.204 16.0741L12.198 16.0777L12.198 16.0777C11.7803 16.3331 11.3675 16.5485 10.9812 16.705M18.3865 6.64641L10.6051 15.7784M18.3865 6.64641L18.3864 6.63914M18.3865 6.64641L18.3864 6.63914M10.9812 16.705C10.981 16.7051 10.9807 16.7052 10.9804 16.7053L10.6051 15.7784M10.9812 16.705C10.9816 16.7048 10.982 16.7047 10.9824 16.7045L10.6051 15.7784M10.9812 16.705C10.6376 16.8449 10.1719 16.9995 9.6933 16.9995C9.2142 16.9995 8.74799 16.8445 8.40425 16.705L8.40108 16.7037C8.01863 16.5469 7.60786 16.3327 7.19041 16.0795L7.18127 16.074L7.1813 16.0739C6.21667 15.4747 5.32298 14.7681 4.51728 13.9679M10.6051 15.7784C10.2974 15.9037 9.97595 15.9995 9.6933 15.9995C9.41064 15.9995 9.08924 15.9037 8.78037 15.7784C8.45783 15.6462 8.09425 15.4581 7.70902 15.2245C6.80808 14.6648 5.97341 14.0048 5.22099 13.2573M4.51728 13.9679C4.51769 13.9683 4.5181 13.9687 4.51851 13.9691L5.22099 13.2573M4.51728 13.9679C4.51691 13.9675 4.51653 13.9671 4.51615 13.9667L5.22099 13.2573M4.51728 13.9679C2.78023 12.2531 1.00005 9.68174 1.00005 6.6628V6.65368V6.64641L1.00016 6.63914C1.03111 4.51028 2.2292 2.35382 4.19503 1.43704C5.26811 0.935535 6.49216 0.862843 7.61697 1.2337C8.33949 1.4651 9.03488 1.86064 9.69318 2.41161C10.3512 1.86056 11.0469 1.46425 11.7703 1.23349C12.895 0.86284 14.1189 0.935642 15.1918 1.43717L2.00011 6.65368V6.6628C2.00011 9.29216 3.56382 11.6218 5.22099 13.2573M18.3864 6.63914C18.3555 4.51046 17.1576 2.35418 15.192 1.43727L18.3864 6.63914Z" stroke="#CD2127" stroke-width="2"/>
</svg>
