<svg width="12" height="17" viewBox="0 0 12 17" fill="none" xmlns="http://www.w3.org/2000/svg">
<path d="M6.49297 16.9997C6.4875 16.9998 6.48263 16.9999 6.47716 17C6.51364 16.9994 6.55011 16.9982 6.58719 16.997L6.59023 16.997C6.55741 16.9981 6.52519 16.9992 6.49297 16.9997ZM6.44798 17.0004C6.3598 17.0006 6.27339 16.9977 6.18694 16.9924C6.2046 16.9933 6.22225 16.9942 6.2399 16.9952C6.2752 16.9971 6.31111 16.9983 6.34639 16.999C6.37803 16.9997 6.40966 17.0004 6.44128 16.9999C6.44371 16.9999 6.44555 17.0005 6.44798 17.0004ZM6.59084 16.9969L6.5963 16.9963L6.6115 16.996C6.60481 16.9961 6.59814 16.9968 6.59084 16.9969ZM6.62973 16.9951C6.63945 16.9944 6.64918 16.9942 6.65829 16.9934C6.67287 16.9926 6.68807 16.9918 6.70325 16.9903C6.71479 16.9895 6.72694 16.9887 6.73909 16.9879C6.70265 16.9909 6.6662 16.9933 6.62973 16.9951ZM6.77007 16.9856C6.77128 16.985 6.77189 16.985 6.7731 16.985L6.77918 16.9843C6.78161 16.9842 6.78343 16.9842 6.78586 16.9841C6.78039 16.9842 6.77554 16.9849 6.77007 16.9856ZM6.79071 16.9835C6.79496 16.9828 6.79983 16.9827 6.80407 16.982C6.81014 16.9813 6.81683 16.9806 6.8229 16.9799C6.84415 16.9778 6.86661 16.9756 6.88785 16.9728L6.89575 16.9721L6.90182 16.9714L6.91214 16.97C6.92003 16.9693 6.92853 16.9679 6.93702 16.9666L6.93884 16.9665C6.95523 16.9645 6.97222 16.9618 6.98921 16.9597C6.9965 16.9589 7.00378 16.9576 7.01106 16.9563C7.0244 16.9542 7.03715 16.9528 7.04989 16.9508C6.96313 16.9643 6.87634 16.9754 6.79071 16.9835ZM6.14798 16.9893C6.1431 16.9888 6.13884 16.9889 6.13397 16.9883L6.13519 16.9883C6.13945 16.9888 6.14371 16.9888 6.14798 16.9893ZM6.12606 16.9878C6.11631 16.9868 6.10779 16.9863 6.09804 16.9852C6.10718 16.9863 6.11692 16.9868 6.12606 16.9878ZM6.05053 16.9805C6.03409 16.979 6.01703 16.9774 5.99997 16.9752C6.00545 16.9758 6.01154 16.9763 6.01702 16.9768L6.02616 16.9779C6.03409 16.979 6.04262 16.98 6.05053 16.9805ZM5.96402 16.9709C5.95549 16.9698 5.94635 16.9688 5.9372 16.9671L5.95 16.9687C5.95487 16.9693 5.95975 16.9704 5.96402 16.9709ZM5.90855 16.9633C5.89331 16.9611 5.87808 16.9589 5.86284 16.9567C5.86954 16.9578 5.87685 16.9583 5.88356 16.9594C5.89209 16.9605 5.90002 16.9622 5.90855 16.9633ZM7.09842 16.9427C7.10266 16.9421 7.1069 16.9408 7.11175 16.9401L7.12328 16.9381L7.13055 16.9368C7.13541 16.9361 7.14026 16.9354 7.14512 16.9347C7.12935 16.9374 7.11358 16.9401 7.09842 16.9427ZM7.18574 16.9268C7.19544 16.9248 7.20514 16.9228 7.21545 16.9208L7.21909 16.9202C7.22576 16.9188 7.23242 16.9175 7.23909 16.9162C7.22091 16.9201 7.20333 16.9234 7.18574 16.9268ZM7.2591 16.9122C7.26152 16.9116 7.26395 16.9109 7.26637 16.9103C7.2888 16.9057 7.31183 16.9005 7.33425 16.8952C7.34456 16.8933 7.35485 16.8907 7.36516 16.8887C7.3294 16.8965 7.29425 16.9044 7.2591 16.9122ZM5.664 16.9203C5.60543 16.9085 5.54683 16.8948 5.48881 16.8793C5.4992 16.8822 5.50897 16.8844 5.51873 16.8867L5.5285 16.889C5.53766 16.8913 5.54681 16.8936 5.55597 16.8959L5.56513 16.8981C5.57856 16.9016 5.59138 16.9044 5.6042 16.9073C5.62434 16.9118 5.64387 16.9164 5.664 16.9203ZM7.51356 16.8505C7.52203 16.8479 7.53052 16.8459 7.53899 16.8434C7.56805 16.835 7.59772 16.8266 7.62738 16.8176C7.58924 16.8292 7.5511 16.8401 7.51356 16.8505ZM7.63102 16.817L7.63223 16.8163C7.66067 16.8074 7.68973 16.799 7.71877 16.7894C7.72058 16.7888 7.72239 16.7882 7.72421 16.7875C7.69335 16.7977 7.66188 16.8074 7.63102 16.817ZM5.37399 16.8482C5.36787 16.8459 5.36176 16.8442 5.35565 16.8425C5.35932 16.8436 5.36237 16.8442 5.36604 16.8453C5.36849 16.8465 5.37154 16.8471 5.37399 16.8482ZM7.78411 16.7677L7.78653 16.7671L7.78773 16.7665L7.78835 16.7665L7.79197 16.7652C7.81798 16.7563 7.8446 16.7473 7.8706 16.7378C7.87968 16.7346 7.88814 16.7314 7.89722 16.7283C7.90931 16.7238 7.9214 16.7194 7.93349 16.7149L7.93531 16.7143C7.88452 16.7333 7.83432 16.7511 7.78411 16.7677ZM5.08664 16.7524C5.07195 16.7466 5.05667 16.7413 5.04198 16.7355C5.05422 16.7402 5.06645 16.7448 5.07807 16.7489C5.08113 16.7501 5.08419 16.7512 5.08664 16.7524ZM8.01149 16.6857L8.01632 16.6832L8.02055 16.6819C8.01753 16.6832 8.01451 16.6844 8.01149 16.6857ZM8.03808 16.675L8.04412 16.6724C8.05742 16.6673 8.07132 16.6617 8.08461 16.656C8.09126 16.6534 8.09731 16.6515 8.10334 16.6484C8.13295 16.6364 8.16256 16.6243 8.19216 16.6111C8.22418 16.5978 8.25619 16.5833 8.28819 16.5688C8.30812 16.56 8.32865 16.5506 8.34918 16.5411L8.36125 16.5355C8.36307 16.5348 8.36548 16.5336 8.36729 16.5329C8.2562 16.5845 8.14627 16.6325 8.03808 16.675ZM4.99119 16.7156C4.9814 16.7115 4.97099 16.7074 4.96119 16.7033C4.9618 16.7033 4.96242 16.7039 4.96303 16.7039C4.97221 16.7074 4.982 16.7115 4.99119 16.7156ZM4.91528 16.684C4.89446 16.6752 4.87364 16.6664 4.85282 16.657C4.85343 16.657 4.85344 16.6576 4.85405 16.6576C4.86629 16.6628 4.87854 16.6681 4.89078 16.6734L4.90609 16.6799C4.90916 16.6816 4.91222 16.6828 4.91528 16.684ZM4.82954 16.6464C4.81485 16.6399 4.80076 16.6335 4.78606 16.627C4.79341 16.6305 4.80136 16.6335 4.80871 16.637C4.81546 16.6405 4.82281 16.6435 4.82954 16.6464ZM8.37755 16.5279C8.3848 16.5247 8.39204 16.521 8.39989 16.5172L8.40592 16.5141C8.43068 16.5027 8.45541 16.4902 8.48076 16.4776L8.49223 16.472C8.50068 16.4682 8.50913 16.4638 8.51758 16.46C8.47051 16.4833 8.42404 16.5059 8.37755 16.5279ZM4.67331 16.5734C4.62979 16.5516 4.58626 16.5292 4.54271 16.5062C4.55866 16.5144 4.5746 16.5227 4.58992 16.5304L4.5979 16.5345C4.6163 16.5445 4.6353 16.554 4.6543 16.5634C4.66044 16.567 4.66717 16.5699 4.67331 16.5734ZM8.5574 16.4399L8.55921 16.4387C8.56523 16.4349 8.57188 16.4324 8.5779 16.4287L8.57791 16.4293C8.57127 16.4324 8.56403 16.4362 8.5574 16.4399ZM4.47217 16.4677C4.42003 16.4394 4.36908 16.4098 4.31751 16.3789C4.3212 16.3813 4.32549 16.3831 4.32917 16.3855C4.37645 16.4139 4.42431 16.4411 4.47217 16.4677ZM8.71663 16.3553L8.72626 16.3491C8.76848 16.3265 8.81006 16.3021 8.85103 16.2778C8.85645 16.2747 8.86188 16.2715 8.86791 16.2684C8.81789 16.2978 8.76727 16.3272 8.71663 16.3553ZM4.31137 16.3748C4.30093 16.3689 4.29049 16.3624 4.28006 16.3564C4.28558 16.3594 4.29049 16.3624 4.29541 16.3653L4.29848 16.3671C4.30278 16.3701 4.30707 16.3724 4.31137 16.3748ZM4.24873 16.3369C4.06204 16.2218 3.87877 16.0927 3.69836 15.9514L3.70882 15.9592C3.72976 15.9759 3.75068 15.9913 3.77099 16.0068C3.81224 16.0384 3.85286 16.0688 3.89468 16.0986C3.92421 16.12 3.95373 16.1408 3.98325 16.1616C3.99001 16.1664 3.99617 16.1712 4.00292 16.1753C4.02629 16.1914 4.04904 16.2074 4.07239 16.2229C4.09637 16.2389 4.11973 16.255 4.1443 16.2704C4.16518 16.2834 4.18609 16.2977 4.20696 16.3101C4.21864 16.3179 4.23031 16.3256 4.24197 16.3321C4.24443 16.3339 4.24627 16.3351 4.24873 16.3369ZM8.90285 16.2472C8.90525 16.2453 8.90826 16.2434 8.91128 16.2416C8.92152 16.2353 8.93237 16.2291 8.9426 16.2222C8.92936 16.2309 8.9161 16.2391 8.90285 16.2472ZM8.98054 16.1985L8.98535 16.1954C9.02449 16.1705 9.06302 16.1455 9.10152 16.1188L9.11357 16.1113C9.12019 16.1069 9.12681 16.1026 9.13343 16.0982C9.08349 16.1324 9.03172 16.1661 8.98054 16.1985ZM9.25133 16.0154C9.25373 16.0136 9.25614 16.0117 9.25854 16.0099L9.26456 16.0055C9.30905 15.9732 9.35232 15.9403 9.39558 15.9067L9.39798 15.9049L9.40398 15.8999C9.4184 15.8888 9.43282 15.8776 9.44725 15.8664C9.44784 15.8658 9.44844 15.8652 9.44905 15.8652C9.38418 15.9167 9.31807 15.967 9.25133 16.0154ZM3.69344 15.9479C3.65588 15.9186 3.61892 15.8888 3.58134 15.8584L3.58503 15.8608L3.59119 15.8655C3.61028 15.8811 3.62938 15.8966 3.64847 15.9115C3.65648 15.918 3.66448 15.9246 3.67249 15.9312L3.68481 15.9407L3.69344 15.9479ZM9.5001 15.8242C9.5067 15.8186 9.51331 15.8131 9.51991 15.8075C9.52051 15.8069 9.52111 15.8069 9.52171 15.8062C9.51391 15.8124 9.5073 15.818 9.5001 15.8242ZM9.55232 15.7802C9.55472 15.7783 9.55713 15.7765 9.55892 15.7746C9.56793 15.7672 9.57693 15.7598 9.58594 15.7523C9.57453 15.7616 9.56374 15.7715 9.55232 15.7802ZM3.55176 15.8339C3.4649 15.7629 3.3792 15.6889 3.29406 15.6124C3.29776 15.6153 3.30085 15.6183 3.30455 15.6213C3.32737 15.6416 3.35019 15.6619 3.373 15.6817L3.38102 15.6888C3.43405 15.7354 3.48768 15.7808 3.54128 15.825L3.54683 15.8297C3.54868 15.8309 3.54992 15.8327 3.55176 15.8339ZM9.63395 15.7114C9.64235 15.704 9.65073 15.696 9.65913 15.6885C9.67593 15.6743 9.69212 15.6594 9.70892 15.6446C9.68373 15.6669 9.65914 15.6891 9.63395 15.7114ZM9.80782 15.553L9.80842 15.5524C9.84617 15.5165 9.88391 15.48 9.92043 15.443C9.92702 15.4368 9.933 15.4306 9.93899 15.4244C9.94018 15.4232 9.94138 15.422 9.94319 15.4207C9.89828 15.4658 9.85397 15.5097 9.80782 15.553ZM3.18176 15.5095C3.17435 15.5023 3.16693 15.4951 3.15891 15.488C3.16385 15.4922 3.16817 15.4963 3.17249 15.5005C3.17558 15.5035 3.17867 15.5065 3.18176 15.5095ZM3.14102 15.4712C3.12188 15.4533 3.10275 15.4353 3.08421 15.4168C3.09841 15.4305 3.11262 15.4443 3.12743 15.4581C3.13175 15.4623 3.13608 15.4664 3.14102 15.4712ZM10.1155 15.238C10.1292 15.2226 10.143 15.2071 10.1567 15.1917C10.1806 15.1646 10.2045 15.1375 10.2278 15.1103C10.1914 15.1535 10.1537 15.196 10.1155 15.238ZM3.01011 15.3456C2.93845 15.2749 2.86677 15.2031 2.79566 15.1288C2.79628 15.1294 2.79628 15.1294 2.7969 15.13C2.82472 15.1588 2.85254 15.1875 2.88035 15.2156C2.90816 15.2438 2.93658 15.2725 2.96438 15.3001C2.97922 15.315 2.99467 15.3306 3.01011 15.3456ZM2.7771 15.109C2.70971 15.0389 2.64229 14.967 2.57606 14.8939C2.58781 14.9064 2.59959 14.9202 2.61195 14.9328C2.62865 14.9508 2.64536 14.9688 2.66207 14.9874C2.67011 14.9958 2.67754 15.0042 2.68558 15.0125C2.70413 15.0323 2.72269 15.0521 2.74124 15.0713C2.74866 15.0791 2.75608 15.0868 2.7635 15.0946L2.76845 15.1C2.77153 15.103 2.77402 15.106 2.7771 15.109ZM10.4497 14.8356C10.4527 14.8307 10.4562 14.8264 10.4598 14.8214L10.4616 14.819C10.4723 14.8048 10.4836 14.7901 10.4944 14.7753C10.4795 14.7956 10.4646 14.8153 10.4497 14.8356ZM2.56492 14.8813C2.16203 14.4382 1.77106 13.9414 1.38498 13.4074C1.40921 13.4398 1.43345 13.4729 1.45707 13.5054C1.48877 13.5487 1.51985 13.5914 1.55154 13.634L1.55278 13.6358C1.58447 13.6785 1.61616 13.7212 1.64846 13.7639C1.65467 13.7723 1.66089 13.7807 1.6671 13.7891C1.68075 13.8066 1.69381 13.8246 1.70746 13.842C1.74287 13.8889 1.77886 13.9352 1.81426 13.9814C1.87633 14.0613 1.93839 14.14 2.00042 14.2175C2.03145 14.2565 2.06246 14.295 2.09408 14.3328C2.12508 14.3706 2.1567 14.4091 2.18769 14.4463C2.22241 14.4883 2.25774 14.5303 2.29306 14.5717C2.32777 14.6131 2.36307 14.6539 2.39837 14.6941C2.43368 14.7349 2.46959 14.7751 2.50488 14.8147C2.52469 14.8369 2.5445 14.8591 2.56492 14.8813ZM10.5241 14.7347C10.5402 14.7119 10.5575 14.6892 10.5735 14.6658C10.5747 14.6646 10.5759 14.6627 10.5771 14.6615C10.5593 14.6861 10.542 14.7107 10.5241 14.7347ZM10.5878 14.6455C10.589 14.6443 10.5896 14.643 10.5908 14.6412C10.5973 14.6326 10.6033 14.6234 10.6098 14.6147C10.6021 14.6252 10.5949 14.6357 10.5878 14.6455ZM10.6455 14.5625C10.652 14.5527 10.658 14.5434 10.6645 14.5336C10.671 14.5244 10.677 14.5152 10.6835 14.5059C10.6704 14.525 10.658 14.5434 10.6455 14.5625ZM10.7097 14.466C10.7144 14.4586 10.7192 14.4512 10.7239 14.4433C10.7506 14.4027 10.7773 14.3609 10.8022 14.3192C10.804 14.3161 10.8064 14.3136 10.8082 14.3106C10.7761 14.3628 10.7429 14.415 10.7097 14.466ZM10.8188 14.2934C10.8194 14.2922 10.8194 14.2915 10.82 14.2909C10.8236 14.2854 10.8265 14.2799 10.8301 14.275C10.8259 14.2811 10.8224 14.2866 10.8188 14.2934ZM10.8745 14.2001C10.8846 14.1829 10.8947 14.1651 10.9047 14.1473C10.9225 14.1172 10.9397 14.0865 10.9568 14.0559C10.9302 14.1043 10.9024 14.1528 10.8745 14.2001ZM10.9716 14.0295C10.9751 14.0233 10.9781 14.0172 10.9816 14.0111L10.984 14.0068C10.9858 14.0037 10.9876 14 10.9893 13.9969C10.9834 14.008 10.9775 14.019 10.9716 14.0295ZM11.0201 13.9399C11.026 13.9289 11.0313 13.9178 11.0372 13.9068C11.0413 13.9 11.0449 13.8927 11.0484 13.8859C11.0389 13.9037 11.0295 13.9221 11.0201 13.9399ZM11.0685 13.8473C11.0732 13.8381 11.0779 13.8283 11.0826 13.8191C11.085 13.8142 11.0879 13.8093 11.0903 13.8044C11.0832 13.8185 11.0761 13.8326 11.0685 13.8473ZM11.1168 13.7511C11.1198 13.7455 11.1221 13.74 11.1251 13.7339C11.151 13.6818 11.1757 13.6291 11.2004 13.5758C11.2128 13.5495 11.2245 13.5231 11.2363 13.4968C11.2433 13.4809 11.251 13.4643 11.258 13.4484C11.2128 13.5507 11.1657 13.6518 11.1168 13.7511ZM1.3831 13.4038C1.33896 13.3424 1.29481 13.2811 1.25066 13.2191C1.25625 13.227 1.26247 13.2354 1.26806 13.2432C1.30661 13.2967 1.34456 13.3509 1.3831 13.4038ZM11.4196 13.0493C11.4336 13.012 11.447 12.9747 11.4604 12.9374L11.4639 12.927C11.4796 12.8824 11.4953 12.8371 11.5104 12.7919C11.4814 12.8787 11.4511 12.9643 11.4196 13.0493ZM1.05217 12.9346C0.925832 12.7517 0.800035 12.5645 0.674191 12.3743C0.687893 12.3948 0.700987 12.4153 0.714679 12.4351C0.746444 12.4827 0.778217 12.5308 0.809972 12.5778C0.841728 12.6247 0.873488 12.6716 0.905243 12.7186C0.933901 12.7619 0.963773 12.8052 0.993029 12.848C1.01295 12.8768 1.03225 12.9057 1.05217 12.9346ZM11.5626 12.6305C11.5644 12.6262 11.5655 12.6219 11.5667 12.6177C11.5696 12.6085 11.5724 12.5987 11.5753 12.5896C11.5759 12.5871 11.5771 12.5847 11.5777 12.5822C11.573 12.5981 11.5678 12.614 11.5626 12.6305ZM11.584 12.5614C11.5858 12.5559 11.5869 12.5504 11.5886 12.5449L11.5903 12.5382C11.606 12.4869 11.6209 12.435 11.6353 12.383L11.6376 12.3751C11.6388 12.372 11.6394 12.369 11.6405 12.3653C11.6221 12.4313 11.6037 12.4967 11.584 12.5614ZM11.6578 12.3024C11.6589 12.2963 11.6606 12.2896 11.6624 12.2835C11.6692 12.2578 11.6761 12.2316 11.6824 12.2059C11.6835 12.1998 11.6853 12.1943 11.687 12.1882C11.6773 12.2261 11.6675 12.2646 11.6578 12.3024ZM11.6945 12.1589C11.7059 12.1113 11.7173 12.0625 11.7293 12.0136C11.7179 12.0625 11.7065 12.1107 11.6945 12.1589ZM0.641788 12.325C0.62249 12.2967 0.603792 12.2678 0.585092 12.2389C0.596922 12.2564 0.608151 12.2744 0.619981 12.2919C0.627459 12.3033 0.634319 12.3142 0.641788 12.325ZM0.532128 12.1583C0.396887 11.9506 0.26159 11.7392 0.126252 11.5255C0.129379 11.5309 0.133111 11.5363 0.136227 11.5411C0.171765 11.5965 0.206694 11.6519 0.242232 11.7073C0.249729 11.72 0.257833 11.7326 0.265928 11.7446C0.273416 11.7567 0.280905 11.7687 0.28901 11.7814C0.304603 11.8061 0.320792 11.8301 0.336385 11.8548C0.398119 11.9518 0.460452 12.0481 0.523384 12.1438L0.52527 12.1474C0.52776 12.151 0.530247 12.1546 0.532128 12.1583ZM11.7474 11.9306C11.7548 11.8983 11.7616 11.8659 11.7684 11.833C11.7718 11.8177 11.7746 11.8031 11.7774 11.7884C11.7887 11.7341 11.7988 11.6799 11.8089 11.6256L11.8111 11.6128C11.8229 11.5469 11.834 11.481 11.8445 11.4152C11.8495 11.3835 11.8551 11.3512 11.8594 11.3189C11.8644 11.2866 11.8687 11.2543 11.8731 11.222C11.8748 11.2122 11.8758 11.2025 11.8769 11.1927C11.8851 11.1336 11.8921 11.0739 11.899 11.0148C11.9065 10.9471 11.9133 10.8795 11.9196 10.8119C11.9258 10.7443 11.9314 10.6761 11.9358 10.6079C11.9378 10.5799 11.9398 10.5525 11.9418 10.5245C11.9442 10.4856 11.946 10.446 11.9485 10.4076C11.9226 10.9299 11.8552 11.44 11.7474 11.9306ZM0.116281 11.5104C0.106922 11.4953 0.0975622 11.4803 0.0882027 11.4652C0.0938184 11.4743 0.0994353 11.4833 0.105041 11.4917C0.108785 11.4978 0.112528 11.5038 0.116281 11.5104ZM0.0520394 11.4086C0.0345746 11.3809 0.017719 11.3532 0.000254262 11.3255C0.0108585 11.3424 0.0220816 11.3599 0.0326859 11.3767C0.0389383 11.3876 0.0457869 11.3978 0.0520394 11.4086ZM11.9484 10.404L11.9484 10.401C11.9515 10.3328 11.9541 10.2646 11.9561 10.1959L11.9565 10.1825C11.9579 10.1156 11.9592 10.0481 11.9594 9.98115L11.9594 9.97932C11.96 9.78531 11.9557 9.58955 11.9447 9.39267C11.9422 9.35379 11.9404 9.3149 11.9379 9.27541C11.9634 9.65633 11.9663 10.0333 11.9484 10.404ZM11.9348 9.22741L11.9347 9.22619L11.9347 9.22377C11.9347 9.22498 11.9347 9.2262 11.9348 9.22741ZM11.9309 9.17456C11.9294 9.15694 11.9279 9.13933 11.927 9.12171C11.9285 9.13933 11.9294 9.15694 11.9309 9.17456ZM11.9174 9.01543C11.9174 9.01239 11.9167 9.00936 11.9167 9.00632C11.913 8.96806 11.9094 8.9292 11.9051 8.89035C11.9015 8.85574 11.898 8.82113 11.8938 8.78653C11.8916 8.76467 11.8888 8.74342 11.886 8.72157C11.8825 8.69061 11.8784 8.66027 11.8743 8.62932L11.8742 8.62749L11.8735 8.62264C11.8667 8.57167 11.8598 8.52008 11.8523 8.4685C11.8502 8.45515 11.8482 8.4418 11.8461 8.42784C11.84 8.38233 11.8326 8.33745 11.8252 8.29195C11.8245 8.2871 11.8238 8.28285 11.8231 8.27799C11.8635 8.52427 11.8953 8.77069 11.9174 9.01543ZM11.8218 8.27133L11.8218 8.27072C11.8204 8.26284 11.8191 8.25495 11.8178 8.24706C11.8077 8.18945 11.7977 8.13243 11.7871 8.07482C11.7784 8.02813 11.7698 7.98144 11.7599 7.93416C11.7586 7.92749 11.7573 7.92021 11.7559 7.91354C11.7803 8.03297 11.8023 8.15183 11.8218 8.27133ZM11.7526 7.89596C11.752 7.89414 11.752 7.89232 11.7513 7.8905L11.7487 7.87838C11.7447 7.85837 11.7408 7.83837 11.7362 7.81776C11.7421 7.84382 11.7474 7.86989 11.7526 7.89596ZM11.7211 7.74866C11.7204 7.74381 11.7191 7.73897 11.7179 7.73413L11.7028 7.66624C11.6911 7.61595 11.6799 7.56626 11.6676 7.51598L11.6669 7.51355C11.6864 7.5917 11.7041 7.67048 11.7211 7.74866ZM11.6338 7.38088C11.6312 7.36998 11.6286 7.35907 11.6254 7.34817C11.6163 7.31243 11.6067 7.27671 11.597 7.24098C11.595 7.23493 11.5937 7.22826 11.5918 7.22221C11.5892 7.21252 11.5866 7.20283 11.584 7.19253C11.6015 7.25551 11.6176 7.31789 11.6338 7.38088ZM11.5718 7.15015C11.5654 7.12714 11.5589 7.10473 11.5525 7.08233C11.548 7.06598 11.5435 7.04963 11.5384 7.0339C11.5499 7.07204 11.5609 7.1114 11.5718 7.15015ZM11.5281 6.99819C11.5217 6.97762 11.5159 6.95702 11.5095 6.93644L11.505 6.92253C11.4986 6.90135 11.4921 6.87955 11.4857 6.85836C11.4998 6.90497 11.514 6.95159 11.5281 6.99819ZM11.4569 6.76759L11.4525 6.7555C11.4487 6.744 11.4454 6.7325 11.4416 6.72101C11.4467 6.73674 11.4518 6.75186 11.4569 6.76759ZM11.4116 6.63025C11.4084 6.6224 11.4059 6.61453 11.4033 6.60666C11.3976 6.59033 11.3925 6.574 11.3867 6.55767C11.395 6.58186 11.4033 6.60606 11.4116 6.63025ZM11.332 6.40284C11.3053 6.32967 11.2774 6.25591 11.2495 6.18276C11.2774 6.25591 11.3053 6.32906 11.332 6.40284ZM11.1577 5.95371C11.1552 5.94828 11.1526 5.94224 11.1501 5.93681C11.1261 5.8788 11.1015 5.8214 11.0762 5.76402C11.0706 5.75134 11.0649 5.73867 11.0598 5.72537C11.0932 5.80147 11.1255 5.87759 11.1577 5.95371ZM11.0201 5.63781C11.0151 5.62633 11.0094 5.61426 11.0037 5.60218C11.0006 5.59493 10.9974 5.58769 10.9943 5.58105L10.9905 5.57319C10.988 5.56776 10.9855 5.56294 10.9836 5.55749C10.9956 5.58406 11.0082 5.61124 11.0201 5.63781ZM10.9471 5.47901C10.9439 5.47297 10.9408 5.46694 10.9377 5.4603C10.937 5.4591 10.9364 5.45728 10.9358 5.45607C10.9395 5.46392 10.9433 5.47177 10.9471 5.47901ZM10.9175 5.41865C10.9163 5.41563 10.915 5.41322 10.9138 5.4102C10.8924 5.36614 10.871 5.32208 10.8484 5.27803C10.8158 5.21165 10.7819 5.1459 10.7474 5.08015C10.7424 5.0705 10.7374 5.06145 10.733 5.05179C10.7969 5.17302 10.859 5.29551 10.9175 5.41865ZM10.7236 5.03431C10.7167 5.02165 10.7092 5.00838 10.7023 4.99572C10.6872 4.96737 10.6716 4.93964 10.6566 4.9113C10.6278 4.85884 10.5983 4.80639 10.5696 4.75454C10.6221 4.84677 10.6741 4.94082 10.7236 5.03431ZM10.5633 4.74369L10.5627 4.74309C10.5108 4.65268 10.4589 4.56289 10.4058 4.47372L10.3977 4.45925C10.362 4.39899 10.3258 4.33874 10.2902 4.27909L10.2884 4.27669C10.2428 4.20077 10.1966 4.12488 10.1498 4.04959C10.1036 3.97491 10.0574 3.90083 10.0106 3.82737L10.0088 3.82436C9.97759 3.77498 9.9458 3.72561 9.91401 3.67685C9.89967 3.65457 9.88534 3.63229 9.87101 3.61062C9.82054 3.53357 9.77007 3.45713 9.71901 3.38131C9.70656 3.36326 9.69471 3.34459 9.68287 3.32654C9.98674 3.77666 10.2806 4.25005 10.5633 4.74369ZM9.6642 3.29946C9.65985 3.29345 9.6561 3.28743 9.65175 3.28141C9.62934 3.24832 9.60631 3.21523 9.58391 3.18274C9.55029 3.1334 9.51606 3.08407 9.48124 3.03535C9.41342 2.93851 9.3444 2.84167 9.2754 2.74728C9.2406 2.69978 9.20519 2.6523 9.171 2.6054C9.15237 2.58076 9.13372 2.5555 9.11509 2.53086L9.10764 2.52125C9.09336 2.50262 9.0797 2.48459 9.06542 2.46596C9.03063 2.41968 8.99523 2.3734 8.95985 2.32774C8.91577 2.27066 8.8711 2.2142 8.82642 2.15774C8.78175 2.10188 8.73708 2.04602 8.69182 1.99078C8.64902 1.93793 8.60562 1.88511 8.56162 1.83289L8.55108 1.82027C8.51327 1.77526 8.47547 1.73025 8.43768 1.68644C8.41908 1.66423 8.39988 1.64203 8.3813 1.62043C8.57704 1.84663 8.76989 2.0826 8.95984 2.32713C9.20008 2.63717 9.43507 2.96128 9.6642 3.29946ZM8.34227 1.57543C8.31255 1.54184 8.28283 1.50825 8.25311 1.47466C8.24258 1.46266 8.23144 1.45007 8.2203 1.43808C8.2011 1.41588 8.1813 1.3943 8.1615 1.37271L8.14974 1.36013C8.12188 1.32894 8.09404 1.29836 8.06558 1.26779C8.03711 1.23662 8.00804 1.20545 7.97898 1.17489C7.94124 1.13413 7.9029 1.09399 7.86457 1.05445L7.85653 1.04606C8.02036 1.2156 8.18248 1.39246 8.34227 1.57543ZM7.82005 1.00833C7.79162 0.978978 7.76319 0.950233 7.73476 0.921488C7.72363 0.910108 7.71251 0.898721 7.70077 0.887351C7.74094 0.927466 7.78049 0.967598 7.82005 1.00833ZM7.6915 0.877768C7.66988 0.856215 7.64886 0.835262 7.62786 0.814307C7.626 0.812511 7.62415 0.810716 7.62229 0.808313C7.64516 0.831671 7.66863 0.85441 7.6915 0.877768ZM7.61489 0.801742C7.61426 0.800535 7.61304 0.799946 7.6118 0.798749C7.56794 0.755652 7.52409 0.713157 7.48026 0.671275C7.47161 0.662898 7.46358 0.65512 7.45493 0.646742C7.42468 0.618026 7.39443 0.589306 7.36419 0.561197C7.36357 0.560599 7.36295 0.560008 7.36233 0.559409C7.44689 0.638356 7.53148 0.719127 7.61489 0.801742ZM7.33333 0.532498L7.33271 0.53189C7.30801 0.50856 7.28211 0.485858 7.25743 0.463137C7.28333 0.485839 7.30803 0.509178 7.33333 0.532498ZM7.16797 0.382441C7.16241 0.377055 7.15687 0.372277 7.15132 0.3675C7.13898 0.356138 7.12603 0.345395 7.1137 0.334642C7.10567 0.326863 7.09705 0.319705 7.08903 0.312533C7.11493 0.335236 7.14144 0.358533 7.16797 0.382441ZM7.04154 0.270709C7.03416 0.265352 7.02738 0.259375 7.02059 0.253399C7.01381 0.247424 7.00704 0.242055 7.00025 0.236081C6.96881 0.209208 6.93737 0.182336 6.90593 0.155463C6.95093 0.193677 6.99653 0.231887 7.04154 0.270709ZM6.85663 0.114284C6.80859 0.076118 6.76237 0.0373078 6.71556 -0.000270797C6.76237 0.0373078 6.80979 0.0754909 6.85663 0.114284Z" fill="#C9996A"/>
</svg>
