<svg width="3" height="2" viewBox="0 0 3 2" fill="none" xmlns="http://www.w3.org/2000/svg">
<path d="M2.99158 0.000731586C2.99158 0.000731586 3.02172 0.208603 2.96794 0.266577C2.91206 0.323598 2.73146 0.347818 2.54228 0.386531C2.35444 0.422955 1.32806 0.620332 1.24759 0.651035C1.16482 0.67945 1.0874 0.749821 0.991858 0.871109C0.899367 0.997546 0.788564 1.13924 0.597478 1.21895C0.4083 1.29562 0.242771 1.34672 0.142842 1.34672C0.0438665 1.34672 0 1.29352 0 1.29352C0 1.29352 0.890779 1.00975 0.947609 0.802454C1.00463 0.595539 1.06165 0.518688 1.06165 0.518688C1.06165 0.518688 1.1326 0.579521 1.28192 0.536422C1.4301 0.490271 2.88726 0.0882656 2.92293 0.0539388C2.95497 0.0211376 2.99158 0.000731586 2.99158 0.000731586Z" fill="#185486"/>
</svg>
