<svg width="26" height="26" viewBox="0 0 26 26" fill="none" xmlns="http://www.w3.org/2000/svg">
<path d="M3.71153 19.4364C3.71151 19.4363 3.71151 23.4413 3.71151 23.4413C3.71151 23.958 4.08802 24.3752 4.54573 24.3752H21.4551C21.9128 24.3752 22.2893 23.9581 22.2893 23.4413V22.2195C22.2893 21.8245 22.0642 21.4665 21.7357 21.3336C19.4084 20.4063 17.0952 19.902 14.6375 19.894C12.2874 19.8619 11.0024 20.4877 8.69833 20.1119C7.36275 19.8773 6.11298 19.3488 4.95914 18.6243C4.385 18.2563 3.68765 18.7741 3.71153 19.4364Z" fill="#9BA7AE"/>
<path d="M8.39179 16.4385L7.15894 18.9117C7.62804 19.0975 8.10308 19.2375 8.59482 19.3361C9.78552 19.5957 10.7585 19.4938 11.8652 19.3546C13.2848 19.1489 15.474 19.0633 17.0846 19.3251C17.015 19.0434 16.9961 18.5386 16.8594 18.2841C16.602 17.6463 15.9178 17.4475 15.3165 17.2728C14.3136 16.947 11.1502 15.922 10.2005 15.6117C9.49433 15.3776 8.67426 15.743 8.39179 16.4385Z" fill="#9BA7AE"/>
<path d="M12.1233 13.3523L10.5693 14.9543C10.9606 15.0813 15.5894 16.5879 16.1947 16.7815C16.4125 16.8516 16.6118 16.9549 16.7927 17.0841V15.5191C16.7927 15.1647 16.586 14.8362 16.2722 14.6812L13.1901 13.1678C12.832 12.9906 12.4039 13.0644 12.1233 13.3523Z" fill="#9BA7AE"/>
<path d="M16.8558 7.90872C17.0232 7.98894 18.6341 8.78393 18.8048 8.80935C19.4804 9.0149 20.2534 8.6488 20.5397 8.00466C20.5397 8.00468 22.0493 4.74167 22.0493 4.74167C22.4628 3.84841 22.0826 2.78163 21.2004 2.36085L20.0155 1.79608C19.1581 1.36647 18.0384 1.77954 17.6568 2.65984L16.1434 5.91916C15.7969 6.66816 16.1309 7.56845 16.8558 7.90872Z" fill="#9BA7AE"/>
<path d="M16.3944 13.9175L18.4836 9.48801C18.0582 9.31021 16.3352 8.48372 16.1544 8.34375L14.0615 12.7732C14.4504 12.9668 16.3944 13.9175 16.3944 13.9175Z" fill="#9BA7AE"/>
</svg>
