<svg width="22" height="22" viewBox="0 0 22 22" fill="none" xmlns="http://www.w3.org/2000/svg">
<path d="M10.7499 20C13.5279 20 15.8042 19.2164 17.3852 17.6353C18.9662 16.0543 19.7499 13.7781 19.7499 11C19.7499 8.22195 18.9662 5.94569 17.3852 4.36467C15.8042 2.78365 13.5279 2 10.7499 2C7.97183 2 5.69557 2.78365 4.11455 4.36467C2.53353 5.94569 1.74988 8.22195 1.74988 11C1.74988 13.7781 2.53353 16.0543 4.11455 17.6353C5.69557 19.2164 7.97183 20 10.7499 20Z" fill="#CD2127" stroke="#CD2127" stroke-width="1.5"/>
<path d="M9.67132 12.3282C10.1679 12.8248 10.5647 13.8539 10.8323 14.7281C10.9986 15.2708 11.7436 15.4052 12.0329 14.915C13.1772 12.9759 14.0104 10.9113 14.0949 8.96955C14.1021 8.82781 14.0794 8.68614 14.0284 8.55369C13.9774 8.42125 13.8992 8.30096 13.7989 8.20061C13.6985 8.10026 13.5783 8.02207 13.4458 7.97108C13.3134 7.9201 13.1717 7.89745 13.03 7.90461C11.0882 7.98909 9.02365 8.82235 7.0845 9.96664C6.59555 10.2559 6.72867 11.0009 7.27138 11.1673C8.1456 11.4348 9.17469 11.8328 9.67132 12.3282Z" fill="#CD2127" stroke="white" stroke-width="1.5" stroke-linecap="round" stroke-linejoin="round"/>
</svg>
