<svg width="24" height="28" viewBox="0 0 24 28" fill="none" xmlns="http://www.w3.org/2000/svg">
<path d="M23.6621 9.05922C22.2424 2.81241 16.7933 0 12.0068 0C12.0068 0 12.0068 0 11.9933 0C7.2203 0 1.75773 2.79889 0.338001 9.0457C-1.24398 16.0226 3.02872 21.9314 6.89579 25.6498C8.32904 27.0289 10.1679 27.7185 12.0068 27.7185C13.8457 27.7185 15.6846 27.0289 17.1043 25.6498C20.9714 21.9314 25.2441 16.0362 23.6621 9.05922ZM12.0068 15.8333C9.65412 15.8333 7.74763 13.9269 7.74763 11.5742C7.74763 9.22147 9.65412 7.31498 12.0068 7.31498C14.3595 7.31498 16.266 9.22147 16.266 11.5742C16.266 13.9269 14.3595 15.8333 12.0068 15.8333Z" fill="#064782"/>
</svg>
