<svg width="10" height="6" viewBox="0 0 10 6" fill="none" xmlns="http://www.w3.org/2000/svg">
<path d="M6.68336 6.00001C6.36581 5.94817 6.05531 5.85596 5.75018 5.72815C5.71026 5.71161 5.67091 5.69447 5.63097 5.67675C5.93983 5.81575 6.25404 5.91914 6.5759 5.98098C6.61153 5.98811 6.64774 5.99406 6.68336 6.00001ZM8.72477 5.78019C8.93431 5.70289 9.14714 5.60837 9.36502 5.49601C9.14774 5.60896 8.93431 5.70289 8.72477 5.78019ZM5.5588 5.64295C5.55522 5.64123 5.55224 5.6401 5.54866 5.63838C5.55224 5.6401 5.55523 5.64182 5.5588 5.64295ZM5.32965 5.52815C5.32905 5.52757 5.32846 5.52758 5.32727 5.52701C5.32787 5.52759 5.32906 5.52816 5.32965 5.52815ZM4.89343 5.27156C4.89104 5.26982 4.88804 5.2675 4.88506 5.26577C4.88804 5.2675 4.89103 5.26923 4.89343 5.27156ZM4.86651 5.25364C4.86292 5.25132 4.85993 5.2496 4.85694 5.24728C4.85993 5.2496 4.86351 5.25132 4.86651 5.25364ZM4.85216 5.24439C4.84917 5.24266 4.84676 5.24033 4.84378 5.2386C4.84677 5.24092 4.84917 5.24266 4.85216 5.24439ZM4.76241 5.18423C4.76181 5.18424 4.7618 5.18365 4.76121 5.18366C4.76121 5.18366 4.76181 5.18424 4.76241 5.18423ZM0.755352 0.959829C0.507667 0.645215 0.255736 0.324149 0.000198711 -0.000405251C0.256328 0.32414 0.507667 0.645215 0.755352 0.959829Z" fill="#C9996A"/>
</svg>
