<svg width="26" height="26" viewBox="0 0 26 26" fill="none" xmlns="http://www.w3.org/2000/svg">
<g clip-path="url(#clip0_1844_69679)">
<path fill-rule="evenodd" clip-rule="evenodd" d="M6.79107 0.88301C8.78603 0.659844 10.8677 0.464844 12.9997 0.464844C15.1317 0.464844 17.2133 0.659844 19.2082 0.882469C20.724 1.05697 22.1358 1.74021 23.2132 2.82063C24.2906 3.90104 24.9698 5.3148 25.14 6.83105C25.3534 8.81626 25.5354 10.8833 25.5354 13.0006C25.5354 15.118 25.3534 17.185 25.14 19.1702C24.9698 20.6865 24.2906 22.1002 23.2132 23.1806C22.1358 24.2611 20.724 24.9443 19.2082 25.1188C17.2138 25.3414 15.1317 25.5364 12.9997 25.5364C10.8677 25.5364 8.78603 25.3414 6.79107 25.1188C5.27531 24.9443 3.86348 24.2611 2.78611 23.1806C1.70875 22.1002 1.0295 20.6865 0.859284 19.1702C0.645867 17.185 0.463867 15.118 0.463867 13.0006C0.463867 10.8833 0.645867 8.81626 0.859284 6.83105C1.02962 5.31489 1.70891 3.90126 2.78627 2.82096C3.86362 1.74065 5.27539 1.05749 6.79107 0.88301ZM13.4639 8.76426C13.7717 8.76426 14.067 8.64196 14.2847 8.42427C14.5024 8.20658 14.6247 7.91133 14.6247 7.60347C14.6247 7.29561 14.5024 7.00035 14.2847 6.78266C14.067 6.56497 13.7717 6.44268 13.4639 6.44268H6.44766C6.1398 6.44268 5.84454 6.56497 5.62685 6.78266C5.40916 7.00035 5.28687 7.29561 5.28687 7.60347C5.28687 7.91133 5.40916 8.20658 5.62685 8.42427C5.84454 8.64196 6.1398 8.76426 6.44766 8.76426H13.4639ZM19.7315 14.1609C20.0394 14.1609 20.3346 14.0386 20.5523 13.8209C20.77 13.6032 20.8923 13.308 20.8923 13.0001C20.8923 12.6922 20.77 12.397 20.5523 12.1793C20.3346 11.9616 20.0394 11.8393 19.7315 11.8393H6.44766C6.1398 11.8393 5.84454 11.9616 5.62685 12.1793C5.40916 12.397 5.28687 12.6922 5.28687 13.0001C5.28687 13.308 5.40916 13.6032 5.62685 13.8209C5.84454 14.0386 6.1398 14.1609 6.44766 14.1609H19.7315ZM14.6241 18.6291C14.6241 19.2699 14.1041 19.7899 13.4633 19.7899H6.44766C6.1398 19.7899 5.84454 19.6676 5.62685 19.4499C5.40916 19.2322 5.28687 18.937 5.28687 18.6291C5.28687 18.3212 5.40916 18.026 5.62685 17.8083C5.84454 17.5906 6.1398 17.4683 6.44766 17.4683H13.4639C14.1047 17.4683 14.6241 17.9883 14.6241 18.6291Z" fill="#064782"/>
</g>
<defs>
<clipPath id="clip0_1844_69679">
<rect width="26" height="26" fill="white"/>
</clipPath>
</defs>
</svg>
