<svg width="2" height="2" viewBox="0 0 2 2" fill="none" xmlns="http://www.w3.org/2000/svg">
<path d="M1.97839 1.42759C1.86401 1.33206 1.74213 1.18584 1.68138 1.10074C1.62062 1.01253 1.638 1.03687 1.57304 1.04602C1.50716 1.05371 1.55657 1.09653 1.20703 1.01089C0.858409 0.92689 0.303543 0.790734 0.188251 0.757794C0.0705792 0.726317 0.0180575 0.749558 0.00561326 0.473588C-0.00884403 0.196704 0.00561326 -0.0207023 0.0376389 0.00034316C0.0716776 0.0219375 0.134624 0.249778 0.191173 0.380442C0.249002 0.508728 0.518203 0.767678 0.605862 0.787076C0.692423 0.808304 1.35124 0.938784 1.41218 0.940797C1.47513 0.940797 1.6865 0.867046 1.6865 0.867046C1.6865 0.867046 1.80399 1.18584 1.99999 1.35182L1.97839 1.42759Z" fill="#185486"/>
</svg>
