<svg width="5" height="5" viewBox="0 0 5 5" fill="none" xmlns="http://www.w3.org/2000/svg">
<path d="M4.96375 4.17831C4.45152 4.04854 3.94886 3.84402 3.44433 3.55839C2.76219 3.17232 2.07651 2.63772 1.36081 1.9395C0.902054 1.49144 0.450905 0.996121 -0.00016271 0.467978C0.386182 0.144451 0.881099 0.00836199 1.39652 0.000248642C1.46334 -0.000803088 1.53077 -7.43255e-05 1.59885 0.00303077C2.3052 0.790302 3.0056 1.4637 3.7276 1.95595C3.72761 1.95655 3.7282 1.95654 3.7288 1.95653C3.73182 1.95887 3.73484 1.96121 3.73846 1.96354C3.73906 1.96353 3.73907 1.96413 3.73966 1.96412C3.74328 1.96645 3.74691 1.96938 3.75052 1.97171C3.75414 1.97404 3.75836 1.97695 3.76258 1.97986C3.76379 1.98044 3.76439 1.98103 3.7656 1.9822C3.76922 1.98453 3.77284 1.98687 3.77645 1.9892C3.77706 1.98979 3.77767 1.99037 3.77886 1.99035C3.78249 1.99328 3.7861 1.99561 3.78972 1.99794C3.79093 1.99912 3.79214 1.99969 3.79394 2.00086C3.79696 2.0026 3.79997 2.00494 3.80359 2.00727C3.8042 2.00786 3.8054 2.00843 3.80601 2.00901C3.80962 2.01134 3.81383 2.01367 3.81745 2.016C3.81866 2.01718 3.81988 2.01835 3.82167 2.01892C3.82469 2.02066 3.82711 2.02301 3.83012 2.02475C3.83193 2.02592 3.83313 2.0265 3.83494 2.02766C3.83796 2.03 3.84097 2.03174 3.84459 2.03407C3.8464 2.03523 3.8482 2.0364 3.84941 2.03757C3.85183 2.03932 3.85424 2.04048 3.85665 2.04224C3.85905 2.04339 3.86147 2.04514 3.86328 2.0463C3.86629 2.04805 3.86931 2.05039 3.87172 2.05214C3.87353 2.0533 3.87594 2.05446 3.87775 2.05562C3.87955 2.05679 3.88197 2.05855 3.88438 2.0597C3.88679 2.06145 3.8892 2.06321 3.89161 2.06496C3.89462 2.06611 3.89704 2.06785 3.89945 2.0696C3.90186 2.07076 3.90366 2.07193 3.90548 2.07369C3.90729 2.07486 3.90909 2.07602 3.9109 2.07718C3.91451 2.07892 3.91753 2.08125 3.92115 2.08358C3.92296 2.08475 3.92536 2.0859 3.92717 2.08707C3.92958 2.08822 3.93139 2.08999 3.9338 2.09115C3.93501 2.09232 3.93682 2.09348 3.93863 2.09465C3.94225 2.09698 3.94586 2.0993 3.95007 2.10162C3.95128 2.1022 3.95308 2.10337 3.95489 2.10453C3.9573 2.10569 3.95971 2.10744 3.96213 2.1092C3.96333 2.10977 3.96454 2.11035 3.96575 2.11153C3.97116 2.11443 3.97659 2.11792 3.98142 2.12142C3.98201 2.12141 3.98201 2.12141 3.98201 2.12141C3.98502 2.12315 3.98744 2.12491 3.98984 2.12607C3.99106 2.12724 3.99226 2.12781 3.99346 2.12839C4.0013 2.13363 4.00973 2.13828 4.01757 2.14353C4.01877 2.14411 4.01997 2.14468 4.02118 2.14585C4.02961 2.15049 4.03744 2.15514 4.04588 2.16038C4.04708 2.16096 4.04769 2.16155 4.04889 2.16213C4.05732 2.16737 4.06575 2.172 4.07419 2.17724C4.07479 2.17783 4.07599 2.17841 4.07659 2.1784C4.08503 2.18364 4.09346 2.18888 4.10189 2.19352C4.10309 2.1941 4.1037 2.19468 4.10431 2.19526C4.11333 2.1999 4.12177 2.20514 4.1302 2.21038C4.1308 2.21037 4.1314 2.21095 4.13201 2.21154C4.14103 2.21617 4.14947 2.22141 4.15849 2.22604C4.1591 2.22663 4.15971 2.22721 4.1603 2.2272C4.16874 2.23244 4.17777 2.23768 4.18679 2.24231C4.1868 2.2429 4.1874 2.24289 4.188 2.24348C4.19703 2.24811 4.20606 2.25334 4.21449 2.25798C4.2151 2.25857 4.21569 2.25855 4.2163 2.25914C4.22532 2.26377 4.23376 2.26901 4.24278 2.27364C4.24339 2.27423 4.24398 2.27422 4.24459 2.27481C4.25302 2.27945 4.26204 2.28409 4.27047 2.28873C4.27107 2.28931 4.27168 2.2899 4.27287 2.28988C4.27529 2.29163 4.2783 2.29338 4.2813 2.29452L4.28191 2.29511C4.28732 2.29801 4.29273 2.3009 4.29815 2.3038C4.29935 2.30438 4.29996 2.30496 4.30056 2.30495C4.30357 2.3067 4.30657 2.30785 4.30899 2.3096C4.31019 2.31018 4.31078 2.31016 4.31139 2.31075C4.31621 2.31366 4.32102 2.31597 4.32583 2.31828C4.32703 2.31886 4.32823 2.31943 4.32943 2.32001C4.33185 2.32176 4.33425 2.32293 4.33725 2.32407C4.33787 2.32526 4.33906 2.32524 4.34027 2.32641C4.34508 2.32872 4.3493 2.33104 4.35411 2.33335C4.35532 2.33393 4.35652 2.33451 4.35772 2.33509C4.36012 2.33625 4.36253 2.3374 4.36494 2.33915C4.36615 2.33973 4.36795 2.3403 4.36915 2.34088C4.37336 2.3432 4.37698 2.34552 4.38118 2.34725C4.38299 2.34841 4.38419 2.34899 4.38599 2.34956C4.3884 2.35072 4.3908 2.35187 4.39261 2.35304C4.39442 2.3542 4.39622 2.35477 4.39803 2.35593C4.40163 2.35767 4.40524 2.3594 4.40886 2.36173C4.41066 2.3623 4.41247 2.36347 4.41427 2.36403C4.41667 2.36519 4.41848 2.36635 4.42088 2.36751C4.42269 2.36867 4.42449 2.36924 4.4263 2.37041C4.42991 2.37214 4.43291 2.37328 4.43592 2.37502C4.43832 2.37618 4.44073 2.37734 4.44253 2.37851C4.44494 2.37966 4.44674 2.38023 4.44855 2.3814C4.45095 2.38255 4.45336 2.3837 4.45517 2.38487C4.45757 2.38603 4.45998 2.38718 4.46238 2.38833C4.46539 2.38948 4.4684 2.39122 4.4714 2.39236C4.47321 2.39353 4.475 2.3941 4.47681 2.39526C4.47922 2.39642 4.48162 2.39758 4.48462 2.39873C4.48583 2.3999 4.48704 2.40047 4.48884 2.40104C4.49244 2.40277 4.49605 2.40451 4.49966 2.40624C4.50147 2.40741 4.50267 2.40799 4.50447 2.40856C4.50748 2.4103 4.51048 2.41145 4.5135 2.41319C4.51469 2.41317 4.51589 2.41375 4.5165 2.41433C4.52071 2.41665 4.52432 2.41839 4.52852 2.42011C4.52973 2.42069 4.53093 2.42127 4.53213 2.42185C4.53574 2.42358 4.53874 2.42472 4.54235 2.42646C4.54295 2.42704 4.54415 2.42763 4.54475 2.42762C4.54896 2.42994 4.55317 2.43166 4.55737 2.43339C4.55798 2.43397 4.55918 2.43454 4.55978 2.43513C4.56399 2.43686 4.5676 2.43859 4.5712 2.44032C4.5718 2.44032 4.57241 2.4409 4.573 2.44089C4.57721 2.44261 4.58142 2.44493 4.58563 2.44666C4.58623 2.44725 4.58683 2.44724 4.58803 2.44782C4.59164 2.44955 4.59584 2.45128 4.60005 2.4536L4.60065 2.45359C4.60546 2.4559 4.61026 2.45761 4.61448 2.45993C4.61507 2.45992 4.61507 2.45992 4.61508 2.46052C4.65534 2.47838 4.695 2.49566 4.73524 2.51233C4.90233 2.96797 4.99896 3.42114 5.00004 3.79287C5.00075 3.91339 4.98787 4.04308 4.96375 4.17831Z" fill="#C9AD90"/>
</svg>
