<svg width="95" height="57" viewBox="0 0 95 57" fill="none" xmlns="http://www.w3.org/2000/svg">
<mask id="mask0_1553_76427" style="mask-type:luminance" maskUnits="userSpaceOnUse" x="0" y="0" width="96" height="57">
<path d="M0 56.4313H95.0002V-6.90897e-05H0V56.4313Z" fill="white"/>
</mask>
<g mask="url(#mask0_1553_76427)">
<path d="M11.1307 56.4313H11.0857C9.55633 56.4214 8.15026 55.4179 7.69824 53.8746L1.22991 31.8032L2.18235 31.9975L2.23246 31.9303C2.28183 31.8687 2.33968 31.7929 2.37949 31.7072L2.38979 31.6859L1.88463 31.6377L1.71414 31.6219L1.38139 31.58L1.33033 31.6468L1.27066 31.7269L1.22667 31.7921L0.144063 28.0981C0.0492061 27.7739 0.00244844 27.4465 0 27.1243V27.069C0.0118868 25.5419 1.0144 24.1384 2.55597 23.6866L19.0615 18.8497L19.0781 18.9303L19.13 18.9129L19.1511 18.9856L19.2645 18.9429L19.2228 18.8825L20.0253 18.6207C20.0194 18.6041 20.0129 18.5883 20.0057 18.5729L24.3373 17.3033C24.5734 17.4577 24.8037 17.5533 25.0609 17.5533C25.1653 17.5533 25.274 17.5375 25.3894 17.5039C25.7734 17.3913 26.1236 17.0896 26.593 16.6426L82.8897 0.144067C83.2147 0.0488925 83.5425 0.00229915 83.8655 -6.90897e-05H83.9164C85.4447 0.0109853 86.8494 1.01366 87.3016 2.55617L94.8554 28.3327C95.12 29.2347 95.0102 30.158 94.6173 30.9355C94.6126 30.9158 94.6074 30.8957 94.6011 30.8755L94.5865 30.8416C94.4341 30.5675 94.2078 30.4474 93.9937 30.3997L93.9925 30.4004L93.9902 30.3993C93.9037 30.3803 93.8192 30.3736 93.7422 30.3736C93.6857 30.3736 93.6328 30.3771 93.587 30.3823L93.5803 30.4778L92.5239 29.9009L92.6905 30.4688L92.6649 30.468L92.8596 31.0749C93.0341 31.6203 93.1668 32.0346 93.3283 32.3485C93.0594 32.5164 92.7632 32.6506 92.4437 32.7442L91.5943 32.9934L91.462 32.839L91.4039 32.8686L91.3147 32.9152L91.4233 33.0436L54.6248 43.8274L54.5928 43.8163V43.8155L54.5853 43.8147L54.5925 43.8143H54.5928L54.5932 43.8131L54.4657 43.774L54.5091 43.7322L54.5111 43.731L54.5123 43.7302L54.4554 43.761L54.3725 43.806L54.2659 43.8029L53.9061 43.791L53.8982 43.8171L53.8939 43.8333C53.8769 43.9087 53.882 43.9774 53.9065 44.0378L31.79 50.5195L31.6628 50.3603C31.5583 50.4152 31.3887 50.4524 31.1816 50.4678L29.047 50.6245L30.4734 50.9053L12.1098 56.2867C11.7836 56.3823 11.4547 56.4293 11.1307 56.4313ZM9.87704 52.3756L10.1095 53.1685C10.2425 53.6227 10.659 53.9177 11.1102 53.9177C11.2072 53.9177 11.3057 53.9039 11.4033 53.8754L18.7471 51.7232L19.2228 52.1335L19.2702 52.1011C19.32 52.0656 19.3637 52.0284 19.4033 51.9885L19.4041 51.9874L19.4103 51.9822L19.4121 51.9783L19.4156 51.9755L19.4203 51.9704V51.97C19.5097 51.8756 19.5722 51.7725 19.6062 51.6627L19.6065 51.6616V51.6584L19.6085 51.6533V51.6525C19.6259 51.5913 19.6348 51.5277 19.6344 51.4633L50.3559 42.4602L50.528 42.6414L50.5071 42.6521L50.5067 42.6541C50.551 42.6395 50.5948 42.6237 50.6351 42.6059L50.637 42.6055L50.5233 42.4136L51.167 42.2683L51.1563 42.2256L55.2291 41.0322L55.2812 41.2091L55.3278 41.369L55.3365 41.4642L55.3345 41.3931L55.3388 41.4646L55.3357 41.3963L55.3369 41.4002L55.3365 41.3979L55.3392 41.4077L55.338 41.4042L55.3531 41.4618L55.3452 41.4275L55.355 41.4611L55.3365 41.3935L55.3353 41.3627L55.7677 41.0034C55.7108 40.9682 55.6453 40.9441 55.5738 40.9311L71.0622 36.392L71.0602 36.394C71.0199 36.424 70.9816 36.4552 70.9484 36.4856L71.5266 36.8015L71.557 36.8671L71.6134 36.8473L71.7213 36.9062L71.7292 36.9003L71.7513 36.8829L71.6754 36.8252L71.6873 36.8213L71.7603 36.8762L71.7351 36.8548L71.7635 36.8738L71.6948 36.8189L72.4842 36.5429L72.4554 36.4852L72.4546 36.4832L72.4538 36.4824C72.3424 36.2873 72.1118 36.1752 71.8196 36.1701L91.7372 30.3333C92.2889 30.1714 92.6056 29.5913 92.4441 29.0396L85.6284 5.78337L85.6667 5.74863L85.624 5.76877L84.8895 3.26266C84.7564 2.80852 84.3398 2.51313 83.8892 2.51313C83.7924 2.51313 83.6941 2.52695 83.597 2.55538L37.0095 16.2082L36.5518 16.1908L36.0392 16.1727L36.0021 16.1869L36.0874 16.4783L36.0838 16.4795L35.993 16.1888L36.0681 16.4838L9.29486 24.3299L8.82097 23.9622L8.90272 24.4448L3.26246 26.0979C2.71097 26.2594 2.39335 26.8399 2.55534 27.3916L9.79837 52.107L9.45421 52.0699L9.45389 52.0711L9.4172 52.1351C9.37941 52.1963 9.33344 52.2721 9.30766 52.355L9.87704 52.3756ZM49.3966 44.7566L49.1332 45.1274L49.0152 45.2723L49.0546 45.2933L49.0645 45.298L49.0926 45.3142L49.1771 45.356L49.4061 45.1112L49.634 44.8668L49.5838 44.8399L49.5143 44.8012L49.5131 44.8016L49.5112 44.8L49.4278 44.7664L49.4128 44.7613L49.2173 45.018L49.3966 44.7566ZM49.4235 44.3289L50.1004 44.4722C50.1679 44.364 50.1908 44.2519 50.1691 44.1449V44.1441L50.1647 44.1283V44.1279L50.1655 44.1235L50.1647 44.1212L50.1643 44.1204L50.1612 44.1097L50.132 44.0371L49.6253 44.2373L50.1276 44.0303L49.6241 44.2341L49.4033 44.3238L49.4022 44.3242H49.4049L49.3054 44.3636L49.3105 44.3621L49.2493 44.3854L49.1214 44.4379L49.3177 44.3601L49.4235 44.3289ZM50.9696 43.455L50.5138 43.9439L50.5557 43.9731L50.6268 44.024L50.6473 44.0367H50.6485L50.9103 43.8096L51.1733 43.5817L51.1327 43.5525L51.0485 43.4937L51.0462 43.4925L51.0454 43.4917V43.4913L50.9696 43.455ZM59.5849 40.6681L60.1445 40.9283C60.2764 40.7968 60.3226 40.6381 60.278 40.4781V40.4765L60.2689 40.4509V40.4501L59.9553 40.55L60.2677 40.4469L59.5829 40.6661L59.5837 40.6669L59.5849 40.6677L59.5715 40.6712L59.5849 40.6681ZM84.9219 32.5085L84.4926 33.0076L84.4938 33.0084L84.5124 33.0258L84.4851 33.1024L84.463 33.1099L84.6304 33.6083C84.6743 33.5945 84.7149 33.5787 84.7525 33.5625C85.1185 33.4077 85.3061 33.1198 85.2414 32.8122L85.2362 32.7849L85.2228 32.76C85.1557 32.6427 85.0561 32.557 84.9219 32.5085ZM7.10051 22.6567L7.16654 22.911L7.19999 22.9256L7.73544 22.4754L7.73497 22.475L7.69177 22.4513C7.57934 22.3929 7.45067 22.3636 7.31368 22.3636C7.2236 22.3636 7.12981 22.3763 7.03464 22.4019L7.10051 22.6567ZM48.0788 11.6312C48.0768 11.6312 48.0749 11.6312 48.0729 11.6312C47.8853 11.6332 47.6804 11.6877 47.4872 11.7943L47.2191 11.9392L47.2084 12.1608L47.1982 12.224C47.1867 12.2899 47.1693 12.3732 47.18 12.4581L47.1812 12.4684L47.6539 12.363L47.6575 12.3618C47.6875 12.3788 47.7218 12.3942 47.7578 12.4048C47.708 12.3898 47.6831 12.3681 47.6748 12.3578L47.8206 12.3298L47.7629 12.406H47.7637L47.7692 12.4072L47.7842 12.4107L47.8375 12.3254L47.928 12.3081L48.003 12.3942L47.9742 12.4052C47.9402 12.4151 47.9011 12.4198 47.8628 12.4198C47.8549 12.4198 47.8474 12.4198 47.8399 12.419L47.7949 12.4127C47.8391 12.423 47.8869 12.4281 47.9367 12.4281C48.0038 12.4281 48.0745 12.4186 48.146 12.3977C48.4153 12.3187 48.5954 12.1126 48.5705 11.9222L48.6416 11.8879L48.6226 11.8614L48.5661 11.8918L48.5654 11.8895L48.6206 11.8598C48.5456 11.7659 48.441 11.7007 48.315 11.6632H48.3142L48.2992 11.66V11.6588L48.2933 11.658L48.2842 11.6553L48.2739 11.6533L48.2668 11.6521V11.6513C48.2064 11.6375 48.1452 11.6312 48.0788 11.6312ZM59.263 7.34603L59.2528 7.36301L59.3124 7.37999L59.6556 7.74252C59.7286 7.69948 59.7946 7.64774 59.8499 7.58811L59.8799 7.55573L59.9158 7.50558L59.9506 7.45266L59.9948 7.35156L59.3093 7.32313L59.2931 7.31444L59.2867 7.32154H59.2785L59.2729 7.33142L59.2666 7.34168V7.34247V7.34287L59.2674 7.34208L59.2856 7.34997L59.2828 7.3492L59.2867 7.35156L59.2753 7.34682L59.2923 7.35709L59.263 7.34603ZM66.3659 7.01036L66.3663 7.01155L66.8548 6.53647L66.8528 6.53607L66.854 6.53528L66.8027 6.51001C66.7537 6.48513 66.7008 6.45788 66.6352 6.43418V6.43339L66.6313 6.43181L66.6265 6.43064L66.6234 6.42985V6.42905L66.5764 6.41444L66.1945 6.93059L66.1957 6.93019L66.1984 6.93177C66.2273 6.94046 66.2644 6.95941 66.3027 6.97916L66.3647 7.01076L66.3659 7.01036ZM11.1102 53.3249C10.9154 53.3249 10.7354 53.1978 10.6775 53.0015L10.4466 52.2136C10.4529 52.2018 10.4588 52.1903 10.4643 52.1789L10.4636 52.1781L10.4353 52.1749L3.12377 27.2246C3.05423 26.9868 3.19118 26.7361 3.42923 26.6666L9.00239 25.0332L9.04773 25.3014L9.0482 25.3511L9.06423 25.3286L9.0886 25.3105L9.09756 25.3191L9.19736 25.4487L9.57193 25.9289L9.65368 25.8827C9.99492 25.6793 10.1649 25.3752 10.1095 25.0546L10.1083 25.0403L10.0782 24.9384L9.87226 24.7785L14.8706 23.3134L15.3701 23.7585C15.6582 23.5717 15.805 23.3142 15.7833 23.046L83.7636 3.12405C83.8055 3.11181 83.8481 3.10589 83.8896 3.10589C84.0843 3.10589 84.2636 3.23345 84.3212 3.42932L85.081 6.02309L84.136 6.46538L84.1127 6.45946L84.0993 6.46697L83.471 4.32181L74.3079 7.0068L74.1677 6.98311L74.2739 7.01707L74.1681 6.98351L74.1677 6.98429L74.1353 7.01984L74.0935 7.0696L49.5522 14.2617L49.5041 14.2731L48.8757 14.4145L48.8872 14.4568L27.0334 20.861C27.0289 20.8594 27.0244 20.8575 27.02 20.8559L27.0184 20.8551L27.0166 20.8543L27.013 20.8531C26.9621 20.8338 26.9027 20.8176 26.8302 20.812L26.7837 20.9341L4.32118 27.5172L5.37957 31.1283L5.37661 31.1409L5.38309 31.1405L11.5283 52.1094L13.8377 51.4325L14.1905 51.4696H14.1911L14.2189 51.4207L14.2664 51.333L14.2042 51.3251L89.7275 29.1924L89.8369 29.3595L90.0379 29.2655L90.096 29.3046L90.4787 29.0897L90.9664 28.7288L90.8242 28.6273L91.3893 27.7763L90.4719 28.2119L84.2833 7.09486L85.3073 7.08066L84.6316 6.68496L85.1403 6.22448L87.6874 14.916C87.6345 14.8979 87.5812 14.8829 87.5283 14.8714H87.5271L87.5247 14.8706C87.3984 14.843 87.2759 14.8335 87.165 14.8335C87.0836 14.8335 87.0082 14.8386 86.9422 14.8458L86.9158 15.2355L86.8893 15.6245L86.8984 15.6237C86.9146 15.6217 86.9351 15.6198 86.9588 15.6198C87.0607 15.6198 87.2234 15.6565 87.3656 15.899C87.3869 15.9819 87.3881 16.0577 87.3656 16.1095L87.3608 16.1201L87.3597 16.1205L88.0748 16.2382L91.8754 29.2062C91.9453 29.444 91.8091 29.6947 91.5706 29.7642L47.178 42.7741L47.1855 42.7038L46.9912 42.7307L46.9304 42.7398L46.4435 42.8081V42.8085L46.4431 42.8105L46.4411 42.8227L46.4396 42.829L46.4324 42.8582L46.4143 42.9479L46.4072 43L19.3348 50.9337C19.2523 50.8717 19.1617 50.8255 19.0621 50.7943L18.8396 51.0787L18.8365 51.0795L19.0481 50.79C18.9536 50.7604 18.8508 50.7458 18.7434 50.7458C18.74 50.7458 18.7366 50.7458 18.733 50.7458L18.6314 51.1399L11.2367 53.3068C11.1946 53.319 11.152 53.3249 11.1102 53.3249ZM40.3307 44.5658L40.2079 44.7202L40.2979 44.6132L40.3331 44.5725L40.3335 44.5737L40.3378 44.5682L40.3406 44.5777L40.3422 44.5883L40.384 44.7179L40.3702 44.6507L40.3627 44.6243L40.4113 44.7088L40.3469 44.5575L40.645 44.2238L40.6162 44.2128L40.5692 44.1994L40.5653 44.1982C40.5238 44.1891 40.4804 44.1844 40.4361 44.1844C40.3872 44.1844 40.3366 44.1899 40.2865 44.2009L40.2549 44.208L40.1483 44.2456L40.3303 44.565L40.3307 44.5658ZM50.1517 41.3604L49.7165 41.8579L49.8291 41.9002L49.9724 41.9539L50.1896 41.7055L50.1912 41.7043L50.4092 41.4559L50.4076 41.4563L50.1517 41.3604ZM56.2187 39.0272L55.635 39.4443L55.6398 39.4498L55.6571 39.4774L55.6627 39.492L55.6631 39.4928L56.3853 39.2654C56.3534 39.1682 56.2977 39.0888 56.2187 39.0272ZM37.0312 17.0805C36.9041 17.0805 36.7627 17.1141 36.628 17.1801L36.4882 17.2488L36.4377 17.3625L36.41 17.4111L36.365 17.494V17.4952L36.3634 17.4968L36.3334 17.571L36.3326 17.5769L36.8294 17.5837L37.0557 17.588L37.0838 17.5378L37.139 17.4348V17.4344L36.9649 17.417L37.2161 17.1086C37.16 17.0896 37.0976 17.0805 37.0312 17.0805ZM55.2847 41.2067L55.2302 41.0318L55.2377 41.0298L55.2847 41.2067ZM55.3286 41.1969L55.3143 41.0073L55.3226 41.0045L55.3286 41.1969ZM94.1892 31.5919C94.1572 31.5046 94.1237 31.4082 94.0881 31.302L94.3721 31.3486C94.3148 31.4323 94.254 31.5133 94.1892 31.5919Z" fill="white"/>
<path d="M20.8185 43.8971L19.377 38.9781L22.4347 38.0821C22.7348 38.4963 23.1487 38.8162 23.6758 39.0437C24.0056 39.1858 24.323 39.2569 24.6277 39.2569C24.8096 39.2569 24.9868 39.2317 25.1598 39.1811C25.4382 39.0994 25.6596 38.9572 25.8234 38.7546C25.9874 38.5512 26.0313 38.3206 25.9554 38.0607C25.8925 37.8455 25.7683 37.6808 25.584 37.5667C25.3989 37.4526 25.2173 37.3835 25.0387 37.3606C24.8931 37.3412 24.7229 37.3321 24.5284 37.3321C24.4839 37.3321 24.4383 37.3325 24.3912 37.3333C24.3218 37.3337 24.2539 37.3337 24.1873 37.3337C23.8649 37.3337 23.5746 37.3306 23.3163 37.3238C23.0527 37.3167 22.772 37.3013 22.4739 37.2772L22.3795 37.0727L22.2689 36.833C22.0673 36.9084 21.9231 37.0435 21.8581 37.2137C21.6748 37.1892 21.5039 37.1607 21.3456 37.1276C21.1363 37.0845 20.9205 37.0288 20.6984 36.9609L20.7494 36.8902L20.749 36.889H20.7494L20.6939 36.874C20.6291 36.8559 20.5571 36.8349 20.4741 36.8203L20.4718 36.8195L20.4452 36.8156L20.4165 36.8689C20.1312 36.7694 19.8738 36.6525 19.6457 36.5174C19.4046 36.3753 19.1639 36.1995 18.9245 35.9914C18.6846 35.7833 18.4713 35.5483 18.2846 35.2869C18.098 35.0259 17.9218 34.7226 17.756 34.3794C17.5902 34.0362 17.4459 33.6559 17.3238 33.2381C16.8821 31.7311 16.8991 30.4232 17.375 29.3147C17.8508 28.2058 18.7949 27.4444 20.2069 27.0309C20.8257 26.8493 21.4058 26.7588 21.9473 26.7588C22.4748 26.7588 22.9657 26.8449 23.4202 27.0167C23.4232 26.9338 23.4686 26.7142 23.557 26.358L26.2635 25.565L27.4364 29.5666L27.269 29.7297L27.2827 29.7471L27.2801 29.7641L27.287 29.755L27.2973 29.7728L27.3194 29.7645L27.4991 29.941L27.565 30.0054L27.6997 30.4651L24.7841 31.3196C24.7193 31.2043 24.6468 31.0953 24.5666 30.9923L24.7348 30.8011L24.7329 30.8015L24.363 30.6621L24.317 30.7146C24.1234 30.5282 23.8979 30.3671 23.6403 30.2321C23.3102 30.0583 22.9861 29.9714 22.6685 29.9714C22.5014 29.9714 22.336 29.9955 22.1725 30.0437C21.9079 30.1211 21.717 30.2479 21.5996 30.4248L21.5758 30.4319L21.5066 30.4809L21.549 30.5144C21.5453 30.5219 21.5419 30.5298 21.5385 30.5377L21.304 30.7699L21.4012 30.8347L21.4834 30.8947C21.4888 30.9836 21.5064 31.078 21.5359 31.1787C21.5917 31.3686 21.7174 31.5108 21.9133 31.6044C22.1092 31.698 22.3545 31.7568 22.6504 31.7801C22.9106 31.8006 23.2008 31.8113 23.5215 31.8113C23.5653 31.8113 23.6096 31.8109 23.6545 31.8105C23.7019 31.8101 23.7496 31.8101 23.7978 31.8101C24.1296 31.8101 24.4798 31.8192 24.8482 31.8374C25.27 31.8583 25.6974 31.8958 26.1293 31.9515C26.5615 32.0072 26.9924 32.1217 27.4212 32.2951C27.8501 32.468 28.2532 32.6939 28.6299 32.9719C29.007 33.25 29.358 33.6314 29.6824 34.1176C29.7068 34.1539 29.7309 34.191 29.7544 34.2285C29.6983 34.4817 29.8164 34.6851 30.0599 34.7984V34.7992L30.0622 34.7988C30.0664 34.8004 30.0704 34.8023 30.0747 34.8043C30.2278 35.1191 30.3622 35.4603 30.4779 35.8283C30.6797 36.4704 30.7613 37.1303 30.7229 37.8084C30.6846 38.4865 30.5401 39.1203 30.2897 39.7091C30.0398 40.2983 29.6673 40.8212 29.1721 41.2797C28.6774 41.737 28.0977 42.0631 27.4328 42.2578C26.8665 42.4237 26.3619 42.507 25.9193 42.507C25.8274 42.507 25.7384 42.5035 25.6518 42.4964C25.1482 42.4549 24.5882 42.2973 23.9719 42.0245L23.886 42.9983L20.8185 43.8971ZM27.1759 41.5885L26.761 41.7911L27.0027 42.047L27.0796 42.1275L27.0816 42.1295L27.0842 42.1319L27.086 42.1342L27.0873 42.135L27.0919 42.1386L27.1474 42.1872L27.4135 42.0004L27.4482 42.0481H27.449L27.4945 42.0256L27.4559 41.9715L27.7367 41.7753L27.7313 41.7701L27.7298 41.7705L27.7282 41.7689L27.7279 41.7678L27.7259 41.7674L27.7244 41.765H27.7231L27.721 41.7626L27.6426 41.6817L27.6086 41.6449H27.6079L27.6076 41.6445L27.3333 41.8033L27.1759 41.5885ZM23.586 40.8496L23.196 41.3626C23.1996 41.3638 23.2299 41.3831 23.269 41.4811L23.6272 41.3594L23.9858 41.237C23.9337 41.1059 23.837 40.9219 23.586 40.8496ZM28.3835 39.9121L28.3931 39.9646L28.1282 40.0298L27.7614 40.1194L27.7622 40.1249C27.8046 40.3267 28.0133 40.448 28.3039 40.448C28.3334 40.448 28.3636 40.4468 28.3946 40.4444L28.4718 40.4318L28.543 40.4132L28.5409 40.4041L28.4694 40.1617L28.469 40.1601L28.471 40.1597L28.545 40.4124L28.6029 40.3939L28.4393 40.0013L28.4417 39.9524L28.4201 39.9575L28.4 39.9081L28.41 39.9591L28.4019 39.9618L28.3861 39.9113L28.3877 39.9212L28.3835 39.9121ZM26.9153 37.4024L26.5913 37.932L26.5959 37.9328C26.6157 37.9395 26.6615 37.9711 26.7112 38.1176C26.7139 38.2017 26.709 38.2578 26.6966 38.2847L26.6951 38.2874L26.6939 38.2902L27.0217 38.3676L27.3544 38.4363L27.3935 38.366L27.3945 38.3625V38.3617C27.4158 38.3143 27.4317 38.2665 27.4397 38.2203V38.2187L27.4401 38.2183C27.4572 38.1306 27.4559 38.0453 27.4518 37.9668V37.9423L27.4436 37.919C27.4177 37.836 27.3691 37.684 27.2389 37.5628L27.2384 37.562L27.2364 37.5612L27.2361 37.56L27.2343 37.5592L27.2338 37.5576V37.5568L27.2315 37.5553L27.2307 37.5545L27.2284 37.5541L27.2281 37.5529L27.1562 37.498L27.1541 37.4968L27.1528 37.4964L27.1505 37.4944L27.1493 37.4933L27.1474 37.4929L27.1451 37.4917L27.1443 37.4905L27.1428 37.4901L27.1416 37.4889C27.0811 37.451 27.0052 37.421 26.9153 37.4024ZM23.2762 35.5554L22.8968 36.0898L22.7263 36.2991L22.7831 36.3287L22.798 36.3362L22.8378 36.3591C22.879 36.382 22.9206 36.4025 22.96 36.4199L23.2893 36.0669L23.6179 35.7142L23.5462 35.6755C23.5153 35.6585 23.4814 35.6392 23.4448 35.6202L23.4428 35.6206L23.4413 35.619C23.4055 35.6012 23.3649 35.5855 23.3202 35.5704L23.299 35.5633L23.0178 35.933L23.2762 35.5554ZM24.4437 35.6084L25.1101 35.7466C25.1875 35.621 25.2107 35.4761 25.1783 35.3173L25.1726 35.2857L25.1559 35.26C25.0023 34.999 24.7617 34.8663 24.4407 34.8663C24.4386 34.8663 24.4364 34.8663 24.4343 34.8663L24.2936 35.4137L24.314 35.4153C24.3687 35.4263 24.4175 35.4828 24.4486 35.5294C24.452 35.5701 24.4486 35.5949 24.4458 35.6052L24.4429 35.6088H24.4424H24.4427H24.4429L24.4437 35.6084ZM25.5415 33.68L24.8855 34.3849L24.9453 34.428L25.0482 34.5006L25.0775 34.518L25.08 34.5188L25.4578 34.191L25.8359 33.8636L25.7768 33.8206C25.739 33.793 25.7015 33.7633 25.655 33.7361L25.6534 33.7345L25.6511 33.7337V33.7329C25.6179 33.7136 25.5832 33.6958 25.5415 33.68ZM19.7225 32.6497L19.0209 32.748V32.7488L19.0205 32.752L19.0183 32.7697L19.0158 32.778L19.0055 32.8211C18.9952 32.8637 18.9859 32.9076 18.9793 32.9498L18.9523 33.1445L19.1467 33.2464L19.9591 33.524L20.044 32.8708L20.0587 32.8033L20.0702 32.7492L20.0776 32.7172C20.0866 32.6758 20.09 32.6359 20.09 32.5976L19.81 32.6379L19.7225 32.6497ZM18.2465 32.7678L18.3754 33.276L18.3972 33.2697L18.4193 33.2634C18.4551 33.2519 18.49 33.2393 18.5211 33.2247C18.6612 33.1654 18.771 33.0817 18.8397 32.983C18.9003 32.8945 18.9577 32.754 18.8725 32.5873L18.8515 32.5474L18.7749 32.4882L17.82 32.1782L18.1725 32.872C18.1663 32.8416 18.2072 32.7867 18.2465 32.7678ZM24.062 28.6331C24.0406 28.6331 24.0192 28.6339 23.9982 28.6351L23.9943 28.6354C23.9388 28.639 23.8848 28.6449 23.8313 28.6524L23.7768 28.6591L23.6827 28.6915C23.6241 28.7121 23.5542 28.7358 23.4848 28.7673L23.4826 28.7681L23.3958 28.8132L23.7788 29.2168L23.7791 29.2164L23.7825 29.2144L23.8686 29.1836L23.9102 29.1808L23.9164 29.18L23.9234 29.165L23.9264 29.1642L23.9249 29.1615L24.1555 28.6378L24.1301 28.6354L24.1282 28.6351L24.1239 28.6354L24.1208 28.6347L24.1188 28.6351C24.1001 28.6335 24.0812 28.6331 24.062 28.6331Z" fill="white"/>
<path d="M38.8576 38.5635C38.2262 38.5635 37.6003 38.4877 36.9802 38.3356C35.5882 37.9948 34.3731 37.3156 33.3364 36.2999C32.299 35.2834 31.5633 34.0315 31.1271 32.5439C30.6485 30.9102 30.5694 29.3811 30.8915 27.957C31.1186 26.9508 31.5106 26.0571 32.0672 25.2756L32.2113 25.5572L32.2121 25.556L32.2129 25.5568L32.9293 24.9044C32.7986 24.8333 32.6426 24.797 32.4708 24.797C32.4605 24.797 32.4498 24.7974 32.4396 24.7974C32.5683 24.6461 32.7046 24.4992 32.8475 24.357C33.8297 23.3816 35.0748 22.6727 36.5814 22.2312C37.4687 21.9714 38.3328 21.8415 39.174 21.8415C39.7375 21.8415 40.2908 21.8999 40.8342 22.0164C42.1875 22.3075 43.3845 22.9654 44.4243 23.991C45.4633 25.0165 46.2227 26.3458 46.7013 27.9795C47.1377 29.4672 47.193 30.9188 46.8688 32.3338C46.8384 32.4673 46.8048 32.5992 46.7681 32.7291C46.727 32.7228 46.6836 32.7192 46.6381 32.7192C46.575 32.7192 46.5082 32.7259 46.4383 32.7394L46.3712 32.752L46.3104 32.7808L46.4308 32.9586L46.4845 33.2164L46.5197 33.205L46.5343 33.2551L46.6117 33.2259C46.2448 34.2708 45.6746 35.2008 44.9002 36.0144C43.9121 37.0534 42.6934 37.7851 41.2437 38.2101C40.4396 38.4458 39.6439 38.5635 38.8576 38.5635ZM39.5511 37.6449L39.5562 37.6513L39.6265 37.7409L39.8856 38.0742L39.9432 38.0418C40.1798 37.9008 40.2975 37.6904 40.2592 37.4676L40.258 37.4578L40.2371 37.3871L39.3643 36.709L39.5223 37.6382L39.5231 37.6734L39.5341 37.6576L39.5511 37.6449ZM36.0542 36.5653L36.0479 36.5708L35.9772 36.6205L35.9499 36.6403L35.8674 36.7011L35.8172 36.7422L36.5518 37.1936L36.5537 37.192L36.6315 37.1367C36.6963 37.0901 36.7694 37.0392 36.8349 36.9775L36.8365 36.976L36.8385 36.9752L36.8847 36.9298V36.9286L36.0542 36.5653ZM43.4864 36.1905L43.9109 36.568C44.1522 36.4112 44.2505 36.183 44.1735 35.9563L43.8118 36.0708L43.4508 36.1858L43.456 36.2248L43.4733 36.2012L43.4864 36.1905ZM37.5604 25.6267C37.5588 25.6271 37.5576 25.6275 37.556 25.6279C37.3092 25.7001 37.0971 25.8028 36.9202 25.9375C36.7425 26.0721 36.6078 26.2265 36.5146 26.4019C36.4214 26.5772 36.3492 26.7699 36.2974 26.9812C36.2461 27.1921 36.2244 27.4117 36.2327 27.6395C36.241 27.867 36.2587 28.1028 36.2852 28.3456C36.3117 28.5893 36.3555 28.827 36.4171 29.0596C36.4783 29.293 36.5368 29.5217 36.5924 29.746C36.6477 29.9703 36.7105 30.1788 36.7808 30.3715C36.825 30.5228 36.8574 30.6341 36.8784 30.7036C36.8969 30.7672 36.9246 30.862 36.9617 30.9887C37.0237 31.1767 37.0821 31.3762 37.1366 31.5866C37.1919 31.7979 37.2602 32.0131 37.342 32.2335C37.4237 32.4535 37.5067 32.6715 37.5904 32.8875C37.6745 33.1035 37.7716 33.3124 37.8818 33.5134C37.9928 33.7148 38.1069 33.9012 38.2266 34.0726C38.3454 34.244 38.4793 34.3956 38.6278 34.5271C38.7763 34.659 38.9327 34.7645 39.0966 34.8435C39.2608 34.9228 39.4445 34.9682 39.6479 34.9813C39.6814 34.9833 39.715 34.9844 39.749 34.9844C39.9199 34.9844 40.0953 34.958 40.275 34.9055C40.3164 34.8932 40.3567 34.8802 40.3958 34.8664L41.1935 34.9564L41.207 34.9347L40.7192 34.8462L40.5313 34.8123C40.6703 34.7507 40.7947 34.6756 40.9037 34.5872C41.0758 34.4474 41.2085 34.2851 41.3017 34.0994C41.3957 33.9138 41.464 33.7081 41.5079 33.4818C41.5517 33.2559 41.5683 33.0194 41.5572 32.7714C41.5466 32.5238 41.5241 32.2706 41.4897 32.0127C41.4554 31.7549 41.4064 31.4994 41.3424 31.2466C41.2788 30.9935 41.2149 30.7459 41.1505 30.5034C41.0861 30.2609 41.0194 30.0331 40.9503 29.8202C40.9131 29.693 40.8855 29.5983 40.8669 29.5351C40.846 29.4652 40.8136 29.3542 40.7694 29.2026C40.6963 28.9763 40.6256 28.7358 40.5577 28.4807C40.4898 28.2252 40.4025 27.9681 40.2951 27.7071C40.1877 27.446 40.0763 27.1956 39.961 26.9544C39.8457 26.7131 39.7035 26.4931 39.5357 26.2945C39.3679 26.0966 39.1906 25.9323 39.0045 25.8012C38.8178 25.6701 38.5998 25.588 38.3494 25.5548C38.2771 25.5453 38.2037 25.5402 38.129 25.5402C37.977 25.5402 37.8206 25.5603 37.6591 25.5998C37.6946 25.5591 37.7231 25.5145 37.744 25.4667V25.4655C37.7784 25.3866 37.7938 25.2989 37.789 25.2025L37.7878 25.1666L37.7732 25.1342C37.744 25.0702 37.7045 24.9838 37.6342 24.9071C37.5489 24.8124 37.4166 24.7322 37.1998 24.7322C37.1864 24.7322 37.1726 24.7326 37.1583 24.7334L37.1058 25.0063L37.1406 24.7342C37.0742 24.7385 37.0051 24.7504 36.936 24.7693L36.9175 24.7745L36.9858 25.028L36.9068 24.7772L36.8408 24.7989L36.9498 25.0398L37.0565 25.2732L37.0549 25.2791L37.013 25.2736L36.9877 25.2649C37.0059 25.278 37.0296 25.3238 37.0478 25.3609L37.0422 25.3964L37.0549 25.3775L37.0628 25.3956L37.0644 25.3952L37.1121 25.3783L37.5604 25.6267ZM35.6557 31.9622L35.8705 32.1502L35.9389 32.1004C36.0984 31.9677 36.164 31.7912 36.1205 31.604L36.1182 31.5949L36.1051 31.5495L35.0855 30.5022L35.3884 31.7975L35.3911 31.8339L35.4255 31.7876L35.4326 31.7829L35.4448 31.7734L35.5183 31.841L35.6557 31.9622ZM31.835 30.8122L31.8326 30.7095L31.8381 30.8122L31.8338 30.7139L31.8354 30.7194L31.8342 30.717L31.8381 30.7301L31.8373 30.7249L31.8591 30.8079L31.8468 30.7589L31.8606 30.8071L31.8342 30.7099L31.833 30.6653L32.4558 30.148C32.3278 30.0686 32.1691 30.0279 31.9973 30.0279C31.9365 30.0279 31.8737 30.0331 31.8105 30.0433L31.8219 30.4272L31.7947 30.0465L31.7252 30.0603L31.6628 30.0761L31.7607 30.441L31.6478 30.0805L31.7544 30.4438L31.8219 30.674L31.835 30.8122ZM44.9641 29.4727L44.2655 29.7558C44.3386 29.8921 44.4713 29.9853 44.6494 30.0256L44.9898 29.4988L44.9886 29.4991L44.9641 29.4727ZM33.1054 27.3011L32.2642 27.9006L32.2713 27.9092L32.2966 27.9479L32.3045 27.9705L32.3053 27.9712L33.3463 27.6435C33.2989 27.5041 33.2195 27.3891 33.1054 27.3011ZM33.6113 27.3844L33.8676 27.6597C33.9975 27.5846 34.206 27.4144 34.1511 27.1096L34.1314 27.0013L34.0089 26.9508L33.9612 26.9271C33.9288 26.9081 33.8909 26.8876 33.847 26.8694L33.804 26.8548L33.4806 27.2588L33.4825 27.258L33.4892 27.2553L33.4987 27.2647L33.4723 27.2711L33.4707 27.2715L33.3984 27.3627L33.4458 27.388C33.4825 27.4085 33.5193 27.4275 33.5556 27.4429L33.6113 27.3844ZM46.6125 33.2231L46.5844 33.1836L46.6318 33.1683C46.6255 33.1868 46.6188 33.205 46.6125 33.2231Z" fill="white"/>
<path d="M50.7083 35.1381L49.6997 31.7316L51.0574 31.3336L48.522 22.6827L47.126 23.0918L46.1467 19.7485L48.417 19.0831L48.2733 19.3524C48.276 19.3532 48.3242 19.3627 48.3692 19.5337C48.3795 19.6399 48.3558 19.6802 48.3542 19.6833L48.3621 19.6751L48.6074 19.8405L48.8514 20.0064C48.9703 19.9144 49.0489 19.8022 49.0872 19.6703C49.1136 19.5803 49.1207 19.4796 49.1085 19.3706L49.1038 19.3449C49.0808 19.2517 49.035 19.0744 48.8779 18.948L54.3896 17.3329L55.369 20.6761L53.9066 21.1046L56.442 29.7555L58.2558 29.224L58.1081 25.6583L60.8239 24.8626L62.7968 31.5954L50.7083 35.1381ZM58.2238 31.3146L58.3541 31.8236L58.3778 31.8169C58.6791 31.7285 58.8963 31.5512 58.9717 31.3296L58.612 31.3162L58.2562 31.3032L58.2301 31.3134L58.3036 31.5642H58.302L58.2238 31.3146ZM60.0866 27.4686L59.683 27.2747L59.6889 27.2696L60.0996 27.4575L60.1434 27.4129V27.4117L60.149 27.4086V27.407L60.1513 27.4046L60.1529 27.4034L60.1565 27.4003L60.1581 27.3991L60.1596 27.3967L60.1612 27.3951L60.2295 27.3217L60.2323 27.3197L59.3552 27.0062L59.3536 27.0065V27.0073L59.3035 27.0583L59.3019 27.0603L59.3003 27.0606L59.2944 27.0666L59.275 27.0851L59.6806 27.2775L60.0866 27.4686ZM52.2595 24.8839C52.1694 24.8839 52.0743 24.8981 51.9763 24.9266L51.8855 24.9574L51.8302 24.9787L51.7824 25.0107C51.5111 25.1911 51.4574 25.3732 51.461 25.4936L52.1043 25.391L52.1106 25.4024L52.0802 25.4241L52.0774 25.4257L52.077 25.4261L52.0778 25.4257V25.4261V25.4281L52.0794 25.4269L52.1051 25.4107L52.1134 25.406L52.1481 25.3835L52.1501 25.3831L52.1141 25.4072L52.1528 25.3831H52.1564L52.2034 25.3752L52.2014 25.3819L52.1939 25.3993L52.1931 25.3985L52.1927 25.4008L52.216 25.3827V25.3819V25.3815L52.1919 25.361L52.1908 25.3602L52.393 25.2377L52.6951 25.0383L52.3882 25.2322L52.6939 25.0371L52.3854 25.2322H52.3843L52.6915 25.0359L52.419 25.2101L52.6895 25.0336L52.3827 25.2318V25.231L52.6879 25.0328L52.4245 25.2026L52.6856 25.0312L52.3803 25.2298L52.3795 25.2295L52.6844 25.0296L52.4107 25.2089L52.682 25.0273L52.3795 25.2263L52.6781 25.0245L52.3756 25.2271L52.3748 25.2263L52.6757 25.0221L52.3744 25.2259L52.3724 25.2251L52.6741 25.0209L52.404 25.2034L52.5568 25.0976L52.6725 25.0182C52.5636 24.9293 52.4206 24.8839 52.2595 24.8839ZM49.9844 21.9774L50.121 22.2068L50.1755 22.1811L50.1787 22.1788L50.183 22.1768L50.1834 22.176L50.234 22.1468L50.2356 22.146L50.2624 22.1282L50.5183 21.9944L50.463 21.8064L50.4607 21.7922C50.4539 21.7408 50.4401 21.6354 50.3201 21.5694L50.3149 21.5663L50.3126 21.5659V21.5651L50.3055 21.5615L50.0606 21.7989L50.031 21.8277L49.9252 21.6986L49.9232 21.6998L49.8387 21.7499L49.8375 21.7519L49.8249 21.7598L49.8205 21.7618L49.8189 21.7621L49.8193 21.7629L49.8249 21.7598L49.8446 21.7503L49.8505 21.7467L49.9453 21.9102L49.879 21.9746L49.967 21.9486L49.9844 21.9774Z" fill="white"/>
<path d="M64.5849 31.0721L63.5858 27.6628L65.1338 27.2095L62.5958 18.5487L60.9908 19.0191L60.4202 17.0733L61.1192 17.0208H61.1377L61.1346 17.02L61.1377 17.0204L61.1204 17.0153V17.0157L61.0754 16.973L61.0746 16.9707L61.0742 16.9675L61.1069 16.9616L61.2128 16.943L61.8166 16.8348L61.8146 16.817L61.8099 16.7874C61.7716 16.5892 61.5694 16.4727 61.2787 16.4727C61.2507 16.4727 61.2219 16.4739 61.1922 16.4762L61.1354 16.481L60.3171 16.7207L60.0107 15.6761L67.8931 13.3663C69.0766 13.0196 70.1646 12.8462 71.1566 12.8462C72.3512 12.8462 73.4068 13.0974 74.3242 13.6005C76.0033 14.5214 77.2102 16.2353 77.9447 18.7422C78.2476 19.7745 78.3597 20.8037 78.2827 21.83C78.2053 22.8564 77.9459 23.8243 77.5044 24.7338C77.2682 25.2207 76.9653 25.6812 76.5957 26.1152C76.4314 25.9987 76.2102 25.9375 75.9512 25.9375C75.8442 25.9375 75.7304 25.9477 75.6116 25.9695L75.5306 25.9888L75.6625 26.7336C75.6973 26.7273 75.7221 26.7241 75.7411 26.7241C75.7857 26.7241 75.7948 26.7411 75.8118 26.7735L76.0752 26.6673C75.8896 26.8462 75.6913 27.0199 75.4805 27.1885C74.573 27.9152 73.4798 28.4653 72.2007 28.8405L64.5849 31.0721ZM66.6207 28.1525C66.6167 28.1525 66.6128 28.1525 66.6088 28.1525C66.4785 28.1533 66.3359 28.192 66.2025 28.2655L66.0157 28.3662L66.0086 28.5202L66.0015 28.5636C65.9936 28.609 65.9817 28.6671 65.9896 28.7259L65.9904 28.733L66.3182 28.6596L66.3209 28.6592L66.3892 28.6888L66.3324 28.656L66.4331 28.6371L66.3936 28.69L66.3944 28.6896L66.3983 28.6908L66.4078 28.6931L66.4445 28.6343L66.5077 28.6221L66.5602 28.6817L66.5401 28.6896L66.4469 28.6991L66.4161 28.6943C66.4473 28.7014 66.4813 28.7054 66.5168 28.7054C66.5622 28.7054 66.6104 28.6987 66.6594 28.6845C66.8466 28.6296 66.9713 28.4862 66.9544 28.3543L67.0041 28.3306L66.9903 28.3121L66.9508 28.3326V28.331L66.9887 28.3109C66.9378 28.2453 66.8643 28.2003 66.7774 28.1742L66.7763 28.1746L66.7656 28.1723V28.1715L66.7617 28.1707L66.7553 28.1687L66.7486 28.1675L66.7439 28.1667L66.7431 28.1663C66.704 28.1573 66.6641 28.1525 66.6207 28.1525ZM73.5932 25.9359L73.5825 25.9545C73.562 25.992 73.5422 26.037 73.5308 26.0875C73.5095 26.1807 73.513 26.2964 73.5825 26.4232L73.6666 26.58L74.3356 26.655L74.6938 25.8743L74.2637 25.8265L74.2633 25.8269L74.1595 26.0508L73.5932 25.9359ZM67.8587 25.8956L68.5652 26.3723L68.6007 26.3434L68.6134 26.3308C68.8784 26.1021 68.9538 25.7973 68.8243 25.4948L68.3109 25.6784L67.7975 25.8632C67.8196 25.911 67.8184 25.943 67.8168 25.9509L67.818 25.9473L67.8437 25.9083L67.8587 25.8956ZM67.6502 25.2014L66.6914 25.6824L66.7447 25.7511C66.918 25.9383 67.1526 26.0445 67.4445 26.0627L67.7426 25.2784L67.7418 25.2772L67.713 25.2653L67.6502 25.2014ZM69.0908 16.7645C68.8199 16.7645 68.5352 16.8084 68.2362 16.8956L67.79 17.0263L70.3281 25.6871L70.6606 25.5896C71.1226 25.4541 71.5033 25.2448 71.8019 24.9616C72.1 24.6781 72.3129 24.3653 72.4389 24.0222C72.5652 23.6794 72.6367 23.29 72.6541 22.8556C72.6707 22.4208 72.6474 22.0069 72.5834 21.6132C72.5198 21.2187 72.4258 20.81 72.3014 20.3862C72.1735 19.9487 72.0372 19.5546 71.8923 19.2019C71.7478 18.8485 71.5582 18.4895 71.3244 18.125C71.0903 17.7609 70.8347 17.4698 70.5579 17.2518C70.2811 17.0338 69.9419 16.8858 69.5406 16.8072C69.3953 16.7787 69.2452 16.7645 69.0908 16.7645ZM74.9114 24.4502L74.9773 24.705L74.9923 24.7002L74.9177 24.4483H74.9181L75.0014 24.6975C75.2151 24.6327 75.3825 24.5162 75.4852 24.3697L75.4868 24.3685L75.4872 24.3673C75.5583 24.267 75.597 24.1517 75.6029 24.0285L75.5989 23.9858C75.5468 23.7145 75.3363 23.5384 75.0097 23.4898L75.0022 23.4882L74.727 24.0273L74.7546 24.0312C74.7902 24.0403 74.8364 24.0648 74.8581 24.1454L74.8478 24.1943L74.9181 24.4483H74.9177L74.8435 24.1955L74.9114 24.4502ZM74.4592 17.9098L73.84 18.6289L73.8424 18.6309L73.8684 18.6553C73.8724 18.6968 73.8684 18.7501 73.8297 18.7655L73.7981 18.7774L74.0394 19.4941C74.1022 19.4748 74.1603 19.4527 74.2148 19.429C74.7424 19.2047 75.0129 18.7904 74.9201 18.3477L74.9126 18.3078L74.8928 18.2731C74.7981 18.1025 74.6527 17.9801 74.4592 17.9098Z" fill="white"/>
<path d="M58.3783 31.8169L58.3017 31.5646L58.304 31.5642L58.3783 31.8169Z" fill="white"/>
<path d="M74.5615 26.1197L74.3845 26.0889L74.584 26.0064L74.5855 26.0522L74.5615 26.1197Z" fill="white"/>
<path d="M52.0778 25.426V25.4256L52.0801 25.424L52.1109 25.4035L52.1402 25.3853L52.0778 25.426ZM52.1149 25.4007L52.1378 25.3849H52.1386L52.1149 25.4007ZM52.3716 25.2238H52.3712L52.5671 25.0899L52.5568 25.0974L52.3716 25.2238ZM52.5671 25.0899L52.6666 25.0212L52.6725 25.0181L52.5671 25.0899Z" fill="white"/>
<path d="M58.3541 31.8228L58.2238 31.3138L58.302 31.5633H58.3036L58.2301 31.3126L58.2562 31.3023L58.612 31.3153L58.9718 31.3288C58.8963 31.5503 58.6791 31.7276 58.3778 31.8161L58.3541 31.8228ZM58.3036 31.5633L58.3012 31.5637L58.3778 31.8161L58.3036 31.5633Z" fill="#1C1C1C"/>
<path d="M27.5653 30.005L27.4995 29.9406L27.3198 29.7641L27.2977 29.7724L27.2874 29.7546L27.2804 29.7637L27.283 29.7467L27.2693 29.7293L27.4367 29.5662L27.5653 30.005Z" fill="#1C1C1C"/>
<path d="M49.973 41.9535L49.8297 41.8998L49.7171 41.8575L50.1523 41.36L50.4082 41.4559L50.4098 41.4555L50.1918 41.7039L50.1902 41.7051L49.973 41.9535Z" fill="#1C1C1C"/>
<path d="M66.3667 7.0119L66.3663 7.01072L66.3651 7.01111L66.3031 6.97952C66.2648 6.95977 66.2277 6.94082 66.1989 6.93213L66.1961 6.93055L66.1949 6.93094L66.5768 6.4148L66.6238 6.42941V6.4302L66.6269 6.43099L66.6317 6.43217L66.6356 6.43375V6.43454C66.7012 6.45824 66.7541 6.48549 66.8031 6.51037L66.8544 6.53564L66.8532 6.53643L66.8552 6.53683L66.3667 7.0119Z" fill="#1C1C1C"/>
<path d="M46.5341 33.2554L46.5195 33.2053L46.4843 33.2167L46.4306 32.9589L46.3102 32.7812L46.371 32.7523L46.4381 32.7397C46.508 32.7263 46.5747 32.7196 46.6379 32.7196C46.6833 32.7196 46.7268 32.7231 46.7679 32.7294C46.7264 32.8779 46.6806 33.0244 46.6316 33.1686L46.5842 33.184L46.6123 33.2235C46.6119 33.2246 46.6119 33.2254 46.6115 33.2262L46.5341 33.2554Z" fill="#1C1C1C"/>
<path d="M27.1476 42.1874L27.092 42.1388L27.0874 42.1352L27.0862 42.1344L27.0843 42.1321L27.0817 42.1297L27.0797 42.1277L27.0029 42.0472L26.7611 41.7913L27.1761 41.5887L27.3335 41.8035L27.6077 41.6448L27.6081 41.6452H27.6088L27.6428 41.6819L27.7211 41.7628L27.7233 41.7652H27.7245L27.7261 41.7676L27.7281 41.768L27.7284 41.7692L27.7299 41.7707L27.7315 41.7703L27.7368 41.7755L27.4561 41.9717L27.4947 42.0258L27.4491 42.0484H27.4484L27.4137 42.0006L27.1476 42.1874Z" fill="#1C1C1C"/>
<path d="M94.3726 31.3492L94.0887 31.3026C94.0357 31.1442 93.9781 30.9634 93.9133 30.7572L93.845 30.5554L93.6934 30.5396L93.5808 30.4784L93.5875 30.3828C93.6333 30.3777 93.6862 30.3742 93.7427 30.3742C93.8197 30.3742 93.9042 30.3809 93.9907 30.3998L93.9931 30.401L93.9943 30.4002C94.2083 30.448 94.4346 30.5681 94.587 30.8421L94.6016 30.8761C94.608 30.8962 94.6131 30.9164 94.6178 30.9361C94.5456 31.0791 94.4634 31.2173 94.3726 31.3492Z" fill="#1C1C1C"/>
<path d="M55.6636 39.4931L55.6633 39.4923L55.6577 39.4777L55.6403 39.45L55.6356 39.4445L56.2193 39.0275C56.2983 39.0891 56.3539 39.1684 56.3859 39.2656L55.6636 39.4931Z" fill="#1C1C1C"/>
<path d="M5.37715 31.1409L5.38049 31.1266L5.38446 31.1404L5.37715 31.1409Z" fill="#1C1C1C"/>
<path d="M22.4747 37.2782C22.4201 37.2739 22.3649 37.2692 22.309 37.264C22.1515 37.2502 22.0014 37.2336 21.8589 37.2147C21.9239 37.0445 22.0681 36.9094 22.2697 36.834L22.3803 37.0737L22.4747 37.2782Z" fill="#1C1C1C"/>
<path d="M14.1915 51.4711H14.1909L13.8381 51.4339L14.2046 51.3265L14.2668 51.3344L14.2193 51.4221L14.1915 51.4711Z" fill="#1C1C1C"/>
<path d="M27.3548 38.4358L27.022 38.367L26.6942 38.2896L26.6954 38.2869L26.697 38.2841C26.7093 38.2573 26.7143 38.2012 26.7115 38.1171C26.6618 37.9706 26.616 37.939 26.5963 37.9323L26.5916 37.9315L26.9156 37.4019C27.0055 37.4204 27.0814 37.4505 27.1419 37.4884L27.1431 37.4896L27.1446 37.49L27.1454 37.4911L27.1477 37.4923L27.1496 37.4927L27.1508 37.4939L27.1531 37.4959L27.1544 37.4963L27.1565 37.4975L27.2284 37.5523L27.2287 37.5535L27.231 37.5539L27.2318 37.5547L27.2341 37.5563V37.5571L27.2346 37.5587L27.2364 37.5595L27.2367 37.5606L27.2387 37.5614L27.2392 37.5622C27.3694 37.6835 27.418 37.8355 27.4439 37.9184L27.4521 37.9417V37.9662C27.4562 38.0448 27.4575 38.1301 27.4404 38.2178L27.4401 38.2182V38.2197C27.432 38.2659 27.4161 38.3137 27.3948 38.3611V38.3619L27.3938 38.3655L27.3548 38.4358Z" fill="#1C1C1C"/>
<path d="M55.3395 41.4642L55.3352 41.3927L55.3371 41.4638L55.3285 41.3686L55.2819 41.2087L55.2297 41.0317L55.2309 41.0313L55.2854 41.2063L55.2384 41.0294L55.315 41.0069L55.3292 41.1964L55.3233 41.0041L55.5745 40.9306C55.646 40.9437 55.7115 40.9678 55.7684 41.0029L55.336 41.3623L55.3371 41.3931L55.3557 41.4606L55.3458 41.427L55.3537 41.4614L55.3387 41.4037L55.3399 41.4073L55.3371 41.3974L55.3375 41.3998L55.3364 41.3958L55.3395 41.4642Z" fill="#1C1C1C"/>
<path d="M74.9766 24.7028L74.9107 24.4481L74.8427 24.1934L74.917 24.4461H74.9174L74.8471 24.1922L74.8574 24.1432C74.8356 24.0627 74.7894 24.0382 74.7539 24.0291L74.7262 24.0251L75.0015 23.4861L75.009 23.4877C75.3356 23.5363 75.5461 23.7124 75.5982 23.9837L75.6021 24.0263C75.5962 24.1495 75.5575 24.2649 75.4864 24.3652L75.486 24.3664L75.4845 24.3675C75.3818 24.514 75.2143 24.6305 75.0007 24.6953L74.9174 24.4461H74.917L74.9916 24.6981L74.9766 24.7028Z" fill="#1C1C1C"/>
<path d="M74.0942 7.06889L74.136 7.01914L74.1684 6.98359L74.1688 6.98281L74.2747 7.01637L74.0942 7.06889ZM74.2747 7.01637L74.1684 6.98241L74.3086 7.0061L74.2747 7.01637Z" fill="#1C1C1C"/>
<path d="M37.5598 25.6265L37.1116 25.3781L37.0638 25.3954V25.395L37.0622 25.3954L37.0543 25.3773L37.0417 25.3962L37.0472 25.3607C37.029 25.3236 37.0053 25.2778 36.9872 25.2647L37.0124 25.2734L37.0543 25.2789L37.0559 25.273L36.9492 25.0396L36.8403 24.7987L36.9062 24.777L36.9828 25.0302H36.9836L36.9062 24.777L36.9852 25.0278L36.9169 24.7742L36.9354 24.7691C37.0045 24.7502 37.0736 24.7383 37.14 24.734L37.1052 25.0061L37.1578 24.7332C37.172 24.7324 37.1858 24.732 37.1992 24.732C37.416 24.732 37.5483 24.8122 37.6336 24.9069C37.7039 24.9836 37.7434 25.07 37.7726 25.134L37.7872 25.1664L37.7884 25.2023C37.7932 25.2987 37.7778 25.3864 37.7434 25.4653V25.4665C37.7225 25.5143 37.694 25.5589 37.6585 25.5996C37.6257 25.6079 37.593 25.6166 37.5598 25.6265Z" fill="#1C1C1C"/>
<path d="M39.8849 38.0742L39.6258 37.7409L39.5555 37.6512L39.5504 37.6449L39.5334 37.6575L39.5223 37.6733L39.5216 37.6382L39.3636 36.709L40.2363 37.387L40.2573 37.4577L40.2585 37.4676C40.2968 37.6903 40.1791 37.9008 39.9425 38.0418L39.8849 38.0742Z" fill="#1C1C1C"/>
<path d="M33.8668 27.6605L33.6105 27.3852L33.5549 27.4437C33.5185 27.4283 33.4818 27.4093 33.4451 27.3888L33.3977 27.3635L33.4699 27.2723H33.4715V27.2719L33.498 27.2656L33.4885 27.2561L33.4818 27.2588L33.4798 27.2596L33.8032 26.8556L33.8463 26.8703C33.8901 26.8884 33.928 26.909 33.9604 26.9279L34.0082 26.9516L34.1306 27.0022L34.1504 27.1104C34.2053 27.4152 33.9968 27.5854 33.8668 27.6605Z" fill="#1C1C1C"/>
<path d="M50.1214 22.207L49.9848 21.9775L49.9674 21.9487L49.8793 21.9748L49.9457 21.9104L49.8509 21.7469L49.845 21.7505L49.8252 21.7599L49.8379 21.752L49.839 21.7501L49.9236 21.6999L49.9255 21.6987L50.0314 21.8279L50.061 21.799L50.3058 21.5617L50.3129 21.5653V21.566L50.3153 21.5664L50.3204 21.5696C50.4405 21.6355 50.4543 21.741 50.461 21.7923L50.4634 21.8065L50.5187 21.9945L50.2628 22.1284L50.2359 22.1462L50.2343 22.147L50.1838 22.1762L50.1834 22.177L50.1791 22.1789L50.1759 22.1813L50.1214 22.207ZM49.8197 21.7631L49.8193 21.7623L49.8209 21.7619L49.8252 21.7599L49.8197 21.7631Z" fill="#1C1C1C"/>
<path d="M53.9069 44.0386C53.8824 43.9782 53.8773 43.9095 53.8943 43.834L53.8986 43.8178L53.9065 43.7918L54.2663 43.8036L54.3729 43.8068L54.4559 43.7618L54.5127 43.731L54.5115 43.7318L54.5096 43.7329L54.4661 43.7748L54.5937 43.8139L54.5933 43.8151H54.5929L54.5858 43.8155L54.5933 43.8163V43.8171L54.6253 43.8281L53.9069 44.0386Z" fill="#1C1C1C"/>
<path d="M50.6492 44.0366H50.648L50.6274 44.024L50.5564 43.9731L50.5145 43.9438L50.9702 43.4549L51.046 43.4913V43.4917L51.0468 43.4925L51.0492 43.4936L51.1333 43.5525L51.174 43.5817L50.911 43.8096L50.6492 44.0366Z" fill="#1C1C1C"/>
<path d="M49.1779 45.3553L49.0934 45.3134L49.0654 45.2972L49.0555 45.2925L49.016 45.2716L49.1341 45.1266L49.3975 44.7558L49.2182 45.0173L49.4137 44.7606L49.4287 44.7657L49.512 44.7993L49.514 44.8008L49.5152 44.8005L49.5847 44.8392L49.6348 44.866L49.407 45.1105L49.1779 45.3553Z" fill="#1C1C1C"/>
<path d="M60.4201 17.0719L60.317 16.7192L61.1353 16.4795L61.1921 16.4748C61.2217 16.4724 61.2506 16.4712 61.2786 16.4712C61.5693 16.4712 61.7715 16.5877 61.8098 16.786L61.8145 16.8156L61.8165 16.8333L61.2127 16.9415L61.1068 16.9601L61.074 16.966L61.0744 16.9692L61.0752 16.9716L61.1203 17.0142V17.0138L61.1376 17.0189L61.1345 17.0185L61.1376 17.0193H61.1191L60.4201 17.0719Z" fill="#1C1C1C"/>
<path d="M59.656 7.74296L59.3128 7.38043L59.2532 7.36345L59.2635 7.34647L59.2927 7.35753L59.2757 7.34726L59.2872 7.352L59.2832 7.34964L59.286 7.35042L59.2678 7.34252L59.267 7.34331V7.34292V7.34213L59.2734 7.33186L59.2789 7.32199H59.2872L59.2935 7.31488L59.3097 7.32357L59.9952 7.352L59.951 7.4531L59.9163 7.50602L59.8803 7.55617L59.8503 7.58855C59.795 7.64818 59.7291 7.69992 59.656 7.74296Z" fill="#1C1C1C"/>
<path d="M51.4612 25.4928C51.4576 25.3724 51.5113 25.1903 51.7826 25.0099L51.8304 24.9779L51.8857 24.9565L51.9765 24.9257C52.0744 24.8973 52.1696 24.8831 52.2597 24.8831C52.4208 24.8831 52.5637 24.9285 52.6727 25.0174L52.6668 25.0205L52.5673 25.0892L52.3714 25.2231H52.3718L52.557 25.0967L52.4042 25.2026L52.6743 25.0201L52.3726 25.2243L52.3746 25.2251L52.6759 25.0213L52.375 25.2255L52.3758 25.2263L52.6783 25.0237L52.3797 25.2255L52.6822 25.0264L52.4109 25.2081L52.6846 25.0288L52.3797 25.2286L52.3805 25.229L52.6858 25.0304L52.4247 25.2018L52.6881 25.032L52.3829 25.2302V25.231L52.6897 25.0328L52.4192 25.2093L52.6917 25.0351L52.3844 25.2314H52.3856L52.6941 25.0363L52.3884 25.2314L52.6952 25.0375L52.3931 25.2369L52.1909 25.3593L52.1921 25.3601L52.2162 25.3807V25.3811V25.3819L52.1929 25.4L52.1933 25.3977L52.1941 25.3984L52.2016 25.3811L52.2036 25.3744L52.1566 25.3823H52.153L52.1143 25.4063L52.1503 25.3823L52.1483 25.3827L52.1135 25.4052L52.1052 25.4099L52.0796 25.4261L52.078 25.4273V25.4253L52.1404 25.3846L52.1112 25.4028L52.0804 25.4233L52.1108 25.4016L52.1045 25.3902L51.4612 25.4928ZM52.138 25.3842L52.1151 25.4L52.1388 25.3842H52.138ZM52.0772 25.4253L52.0776 25.4249L52.0804 25.4233L52.078 25.4249L52.0772 25.4253ZM52.557 25.0967L52.5673 25.0892L52.6727 25.0174L52.557 25.0967Z" fill="#1C1C1C"/>
<path d="M28.3045 40.4481C28.0138 40.4481 27.8051 40.3269 27.7627 40.1251L27.7619 40.1196L28.1288 40.0299L28.3937 39.9648L28.3841 39.9123L28.3882 39.9213L28.3867 39.9115L28.4024 39.962L28.4106 39.9592L28.4006 39.9083L28.4206 39.9577L28.4422 39.9525L28.4399 40.0015L28.6034 40.394L28.5456 40.4126L28.4715 40.1599L28.4695 40.1603L28.47 40.1618L28.5414 40.4043L28.5436 40.4134L28.4723 40.432L28.3952 40.4446C28.3642 40.447 28.3339 40.4481 28.3045 40.4481Z" fill="#1C1C1C"/>
<path d="M25.1108 35.7454L24.4444 35.6072L24.4436 35.6076L24.4465 35.604C24.4493 35.5937 24.4527 35.5689 24.4493 35.5282C24.4182 35.4816 24.3694 35.4251 24.3147 35.4141L24.2943 35.4125L24.435 34.8651C24.4371 34.8651 24.4393 34.8651 24.4414 34.8651C24.7625 34.8651 25.003 34.9978 25.1566 35.2589L25.1733 35.2845L25.179 35.3161C25.2114 35.4749 25.1882 35.6198 25.1108 35.7454ZM24.4434 35.6076H24.4431H24.4436H24.4434Z" fill="#1C1C1C"/>
<path d="M35.8697 32.151L35.6548 31.963L35.5174 31.8418L35.4439 31.7742L35.4317 31.7837L35.4246 31.7885L35.3902 31.8347L35.3875 31.7983L35.0846 30.503L36.1042 31.5503L36.1173 31.5957L36.1196 31.6048C36.1631 31.792 36.0975 31.9685 35.938 32.1012L35.8697 32.151Z" fill="#1C1C1C"/>
<path d="M26.7842 20.9335L26.8307 20.8115C26.9032 20.817 26.9626 20.8332 27.0135 20.8526L27.0171 20.8537L27.0189 20.8545L27.0205 20.8553C27.0249 20.8569 27.0294 20.8589 27.0339 20.8605L26.7842 20.9335Z" fill="#1C1C1C"/>
<path d="M44.649 30.0266C44.4708 29.9863 44.3382 29.8931 44.2651 29.7569L44.9637 29.4737L44.9878 29.5002H44.9882L44.9894 29.4998L44.649 30.0266Z" fill="#1C1C1C"/>
<path d="M23.2693 41.4819C23.2303 41.3839 23.1999 41.3646 23.1963 41.3634L23.5863 40.8504C23.8373 40.9227 23.934 41.1067 23.9862 41.2378L23.6275 41.3602L23.2693 41.4819Z" fill="#1C1C1C"/>
<path d="M37.0561 17.5867L36.8298 17.5824L36.333 17.5757L36.3338 17.5698L36.3638 17.4955L36.3654 17.4939V17.4928L36.4104 17.4098L36.438 17.3613L36.4886 17.2475L36.6284 17.1788C36.763 17.1129 36.9044 17.0793 37.0316 17.0793C37.0979 17.0793 37.1603 17.0884 37.2164 17.1073L36.9652 17.4158L37.1394 17.4331V17.4335L37.0841 17.5366L37.0561 17.5867Z" fill="#1C1C1C"/>
<path d="M43.9106 36.5688L43.4861 36.1913L43.473 36.2019L43.456 36.2252L43.4556 36.2256L43.4505 36.1865L43.8115 36.0716L44.1732 35.9571C44.2502 36.1838 44.1519 36.412 43.9106 36.5688Z" fill="#1C1C1C"/>
<path d="M40.2086 44.7205L40.3315 44.5661L40.3311 44.5653L40.149 44.2459L40.2556 44.2083L40.2872 44.2012C40.3374 44.1902 40.3879 44.1846 40.4369 44.1846C40.4811 44.1846 40.5246 44.1894 40.566 44.1985L40.57 44.1997L40.617 44.2131L40.6458 44.2241L40.3476 44.5578L40.412 44.7091L40.3634 44.6246L40.3709 44.651L40.3848 44.7182L40.3429 44.5886L40.3413 44.578L40.3386 44.5685L40.3342 44.574L40.3338 44.5728L40.2987 44.6135L40.2086 44.7205Z" fill="#1C1C1C"/>
<path d="M7.20083 22.9263L7.16739 22.9116L7.10136 22.6573L7.03549 22.4026C7.13066 22.3769 7.22445 22.3643 7.31453 22.3643C7.45152 22.3643 7.58018 22.3935 7.69262 22.452L7.73582 22.4757L7.73629 22.4761L7.20083 22.9263Z" fill="#1C1C1C"/>
<path d="M48.8877 14.4562L48.8762 14.4139L49.5045 14.2725L49.5527 14.2611L48.8877 14.4562Z" fill="#1C1C1C"/>
<path d="M18.3757 33.2751L18.2468 32.7668C18.2075 32.7858 18.1666 32.8407 18.1728 32.8711L17.8203 32.1772L18.7752 32.4872L18.8518 32.5465L18.8728 32.5864C18.958 32.753 18.9006 32.8936 18.84 32.9821C18.7713 33.0808 18.6615 33.1645 18.5214 33.2238C18.4903 33.2384 18.4554 33.251 18.4196 33.2625L18.3975 33.2688L18.3757 33.2751Z" fill="#1C1C1C"/>
<path d="M21.4841 30.8933L21.4019 30.8332L21.3047 30.7685L21.5392 30.5363C21.4943 30.6421 21.4759 30.761 21.4841 30.8933ZM21.5497 30.513L21.5072 30.4794L21.5765 30.4304L21.6002 30.4233C21.5939 30.4328 21.5879 30.4427 21.5819 30.4525C21.5702 30.4719 21.5594 30.492 21.5497 30.513Z" fill="#1C1C1C"/>
<path d="M46.4077 42.999L46.4148 42.9469L46.433 42.8572L46.4401 42.828L46.4416 42.8217L46.4436 42.8094L46.444 42.8075V42.8071L46.9309 42.7388L46.9917 42.7297L47.186 42.7028L47.1785 42.7731L46.4077 42.999Z" fill="#1C1C1C"/>
<path d="M30.4741 50.9051L29.0477 50.6243L31.1823 50.4675C31.3894 50.4521 31.559 50.415 31.6635 50.3601L31.7907 50.5193L30.4741 50.9051Z" fill="#1C1C1C"/>
<path d="M84.6309 33.6092L84.4634 33.1108L84.4855 33.1033L84.5128 33.0267L84.4942 33.0093L84.493 33.0085L84.9223 32.5094C85.0566 32.5579 85.1561 32.6436 85.2232 32.7609L85.2366 32.7858L85.2418 32.813C85.3065 33.1207 85.119 33.4086 84.7529 33.5634C84.7154 33.5796 84.6747 33.5954 84.6309 33.6092Z" fill="#1C1C1C"/>
<path d="M48.8513 20.0059L48.6073 19.8401L48.362 19.6746L48.3541 19.6829C48.3557 19.6797 48.3794 19.6395 48.3691 19.5332C48.3241 19.3622 48.2759 19.3528 48.2732 19.352L48.4169 19.0826L48.8778 18.9476C49.0349 19.0739 49.0808 19.2513 49.1037 19.3445L49.1084 19.3701C49.1206 19.4791 49.1135 19.5798 49.0871 19.6699C49.0488 19.8018 48.9702 19.9139 48.8513 20.0059Z" fill="#1C1C1C"/>
<path d="M60.1451 40.9277L59.5855 40.6674L59.5721 40.6706L59.5855 40.667L59.5843 40.6662L59.5835 40.6654L60.2683 40.4463L59.9559 40.5493L60.2695 40.4494V40.4502L60.2786 40.4759V40.4775C60.3232 40.6374 60.277 40.7962 60.1451 40.9277Z" fill="#1C1C1C"/>
<path d="M23.779 29.2169L23.396 28.8133L23.4828 28.7683L23.485 28.7675C23.5544 28.7359 23.6243 28.7122 23.6829 28.6917L23.777 28.6593L23.8315 28.6526C23.885 28.6451 23.939 28.6392 23.9945 28.6356L23.9984 28.6352C24.0194 28.634 24.0408 28.6332 24.0622 28.6332C24.0814 28.6332 24.1003 28.6336 24.119 28.6352L24.121 28.6348L24.1241 28.6356L24.1284 28.6352L24.1303 28.6356L24.1557 28.638L23.9251 29.1616L23.9266 29.1644L23.9236 29.1652L23.9166 29.1802L23.9104 29.181L23.8688 29.1837L23.7827 29.2146L23.7793 29.2165L23.779 29.2169Z" fill="#1C1C1C"/>
<path d="M25.0613 17.5533C24.8041 17.5533 24.5738 17.4578 24.3378 17.3034L26.5934 16.6427C26.124 17.0897 25.7738 17.3914 25.3898 17.504C25.2745 17.5375 25.1657 17.5533 25.0613 17.5533Z" fill="#1C1C1C"/>
<path d="M20.6988 36.9618C20.6218 36.9382 20.544 36.9133 20.4655 36.8868C20.4493 36.8813 20.4331 36.8758 20.4169 36.8698L20.4456 36.8165L20.4722 36.8205L20.4744 36.8213C20.5575 36.8359 20.6295 36.8568 20.6943 36.875L20.7498 36.89H20.7493L20.7498 36.8912L20.6988 36.9618Z" fill="#1C1C1C"/>
<path d="M65.9901 28.7315L65.9893 28.7244C65.9814 28.6656 65.9932 28.6075 66.0011 28.5621L66.0082 28.5187L66.0153 28.3646L66.2021 28.2639C66.3356 28.1905 66.4782 28.1518 66.6085 28.151C66.6124 28.151 66.6164 28.151 66.6203 28.151C66.6638 28.151 66.7037 28.1557 66.7428 28.1648L66.7436 28.1652L66.7483 28.166L66.755 28.1672L66.7613 28.1692L66.7653 28.1699V28.1707L66.7759 28.1731L66.7771 28.1727C66.864 28.1988 66.9374 28.2438 66.9884 28.3094L66.9505 28.3295V28.3311L66.99 28.3105L67.0038 28.3291L66.954 28.3528C66.971 28.4847 66.8462 28.628 66.659 28.6829C66.6101 28.6972 66.5619 28.7039 66.5165 28.7039C66.4809 28.7039 66.447 28.6999 66.4158 28.6928L66.4466 28.6975L66.5398 28.6881L66.5599 28.6802L66.5074 28.6205L66.4442 28.6328L66.4075 28.6916L66.398 28.6893L66.3941 28.6881L66.3933 28.6885L66.4328 28.6355L66.3321 28.6545L66.3889 28.6873L66.3206 28.6577L66.3178 28.6581L65.9901 28.7315Z" fill="#1C1C1C"/>
<path d="M84.2841 7.09444L84.1001 6.46654L84.1135 6.45904L84.1368 6.46496L85.0818 6.02266L85.1411 6.22406L84.6324 6.68453L85.3081 7.08023L84.2841 7.09444ZM85.6292 5.78295L85.6248 5.76834L85.6675 5.7482L85.6292 5.78295Z" fill="#1C1C1C"/>
<path d="M36.0688 16.4843L35.9937 16.1893L36.0846 16.4799L36.0688 16.4843ZM36.0881 16.4787L36.0028 16.1873L36.0399 16.1731L36.5525 16.1912L37.0102 16.2086L36.0881 16.4787Z" fill="#1C1C1C"/>
<path d="M2.18321 31.9977L1.23076 31.8034L1.22753 31.7923L1.27152 31.7272L1.33119 31.647L1.38225 31.5803L1.715 31.6221L1.88548 31.6379L2.39065 31.6861L2.38034 31.7074C2.34054 31.7931 2.28268 31.869 2.23332 31.9306L2.18321 31.9977Z" fill="#1C1C1C"/>
<path d="M60.0862 27.4679L59.6803 27.2767L59.2747 27.0844L59.2941 27.0659L59.3 27.0599L59.3016 27.0595L59.3031 27.0576L59.3533 27.0066V27.0058L59.3549 27.0054L60.232 27.319L60.2292 27.321L60.1609 27.3944L60.1593 27.396L60.1577 27.3984L60.1561 27.3996L60.1526 27.4027L60.151 27.4039L60.1486 27.4063V27.4079L60.1431 27.411V27.4122L60.0993 27.4568L59.6886 27.2688L59.6826 27.274L60.0862 27.4679Z" fill="#1C1C1C"/>
<path d="M24.567 30.9915C24.4908 30.8936 24.4075 30.8008 24.3174 30.7139L24.3634 30.6614L24.7333 30.8008L24.7352 30.8004L24.567 30.9915Z" fill="#1C1C1C"/>
<path d="M41.1926 34.9573L40.3948 34.8673C40.4414 34.8503 40.4865 34.8325 40.5303 34.8132L40.7183 34.8471L41.206 34.9356L41.1926 34.9573Z" fill="#1C1C1C"/>
<path d="M67.4443 26.0608C67.1525 26.0426 66.9179 25.9364 66.7445 25.7492L66.6912 25.6805L67.65 25.1995L67.7128 25.2635L67.7417 25.2753L67.7424 25.2765L67.4443 26.0608Z" fill="#1C1C1C"/>
<path d="M19.152 18.986L19.1309 18.9133L19.079 18.9307L19.0624 18.8501L20.0066 18.5733C20.0138 18.5887 20.0203 18.6045 20.0262 18.6211L19.2237 18.8829L19.2654 18.9433L19.152 18.986Z" fill="#1C1C1C"/>
<path d="M88.0752 16.2386L87.3601 16.1209L87.3612 16.1205L87.366 16.1099C87.3885 16.0581 87.3873 15.9823 87.366 15.8994C87.2238 15.6569 87.0611 15.6202 86.9592 15.6202C86.9355 15.6202 86.915 15.6222 86.8988 15.6241L86.8897 15.6249L86.9162 15.2359L86.9426 14.8462C87.0086 14.839 87.084 14.8339 87.1654 14.8339C87.2763 14.8339 87.3988 14.8434 87.5251 14.871L87.5275 14.8718H87.5287C87.5816 14.8833 87.6349 14.8983 87.6878 14.9165L88.0752 16.2386Z" fill="#1C1C1C"/>
<path d="M93.3287 32.3495C93.1672 32.0355 93.0345 31.6213 92.86 31.0759L92.6653 30.4689L92.691 30.4697L92.5243 29.9018L93.5807 30.4788L93.6933 30.54L93.8449 30.5558L93.9132 30.7576C93.978 30.9637 94.0356 31.1446 94.0886 31.303C94.1241 31.4092 94.1577 31.5056 94.1897 31.5928C93.9488 31.8862 93.6593 32.1433 93.3287 32.3495Z" fill="#1C1C1C"/>
<path d="M32.3051 27.971L32.3043 27.9702L32.2964 27.9477L32.2711 27.909L32.264 27.9003L33.1051 27.3008C33.2193 27.3889 33.2987 27.5038 33.346 27.6432L32.3051 27.971Z" fill="#1C1C1C"/>
<path d="M68.5648 26.3713L67.8583 25.8946L67.8433 25.9073L67.8177 25.9464L67.8165 25.9499C67.8181 25.942 67.8192 25.91 67.7971 25.8622L68.3105 25.6774L68.8239 25.4938C68.9534 25.7963 68.878 26.1012 68.613 26.3298L68.6004 26.3424L68.5648 26.3713Z" fill="#1C1C1C"/>
<path d="M50.5074 42.6531L50.5078 42.6511L50.5287 42.6405L50.3565 42.4592L51.157 42.2246L51.1677 42.2673L50.524 42.4126L50.6377 42.6046L50.6357 42.6049C50.5955 42.6227 50.5516 42.6385 50.5074 42.6531Z" fill="#1C1C1C"/>
<path d="M36.5509 37.1937L35.8164 36.7424L35.8665 36.7013L35.9491 36.6405L35.9763 36.6207L36.047 36.571L36.0533 36.5654L36.8838 36.9288V36.9299L36.838 36.975L36.8376 36.9754L36.8356 36.9761L36.8341 36.9777C36.7685 37.0393 36.6954 37.0903 36.6307 37.1369L36.5533 37.193L36.5529 37.1922L36.5509 37.1937Z" fill="#1C1C1C"/>
<path d="M31.8345 30.8127L31.8214 30.6745L31.7539 30.4442L31.6473 30.0809L31.7602 30.4415L31.6623 30.0766L31.7247 30.0608L31.7942 30.0469L31.8214 30.4276L31.81 30.0438C31.8732 30.0335 31.936 30.0284 31.9968 30.0284C32.1686 30.0284 32.3273 30.0691 32.4553 30.1484L31.8325 30.6658L31.8337 30.7104L31.8601 30.8075L31.8463 30.7594L31.8586 30.8083L31.8368 30.7254L31.8376 30.7305L31.8337 30.7175L31.8349 30.7199L31.8333 30.7143L31.8376 30.8127L31.8321 30.71L31.8345 30.8127Z" fill="#1C1C1C"/>
<path d="M75.8117 26.7722C75.7947 26.7398 75.7856 26.7228 75.741 26.7228C75.722 26.7228 75.6972 26.726 75.6624 26.7323L75.5305 25.9875L75.6115 25.9682C75.7303 25.9464 75.8441 25.9362 75.9511 25.9362C76.2101 25.9362 76.4313 25.9974 76.5956 26.1139C76.4349 26.303 76.2615 26.4871 76.0751 26.666L75.8117 26.7722Z" fill="#1C1C1C"/>
<path d="M71.7219 36.9068L71.6141 36.848L71.5576 36.8677L71.5272 36.8022L70.9491 36.4862C70.9823 36.4558 71.0206 36.4246 71.0608 36.3946L71.0628 36.3927L71.8203 36.1707C72.1125 36.1758 72.3431 36.288 72.4545 36.4831L72.4553 36.4839L72.4561 36.4859L72.4849 36.5435L71.6955 36.8195L71.7642 36.8744L71.7357 36.8555L71.761 36.8768L71.688 36.8219L71.6761 36.8259L71.7519 36.8835L71.7298 36.9009L71.7219 36.9068Z" fill="#1C1C1C"/>
<path d="M74.3354 26.6543L73.6665 26.5792L73.5824 26.4225C73.5128 26.2957 73.5093 26.18 73.5306 26.0868C73.5421 26.0362 73.5618 25.9912 73.5824 25.9537L73.593 25.9351L74.1593 26.0501L74.2632 25.8261L74.2636 25.8258L74.6936 25.8735L74.3354 26.6543ZM74.5842 26.0074L74.3848 26.0899L74.5617 26.1207L74.5858 26.0532L74.5842 26.0074Z" fill="#1C1C1C"/>
<path d="M9.57234 25.9291L9.19777 25.4489L9.09797 25.3194L9.08901 25.3107L9.06464 25.3288L9.04861 25.3514L9.04814 25.3016L9.0028 25.0335L9.87267 24.7787L10.0786 24.9387L10.1087 25.0406L10.1099 25.0548C10.1653 25.3754 9.99533 25.6795 9.65408 25.8829L9.57234 25.9291ZM8.90313 24.445L8.82138 23.9625L9.29527 24.3301L8.90313 24.445Z" fill="#1C1C1C"/>
<path d="M30.0752 34.804C30.0709 34.8021 30.0669 34.8001 30.0627 34.7985L30.0604 34.7989V34.7981C29.8169 34.6848 29.6988 34.4814 29.7549 34.2283C29.8696 34.4091 29.9763 34.6011 30.0752 34.804Z" fill="#1C1C1C"/>
<path d="M19.2235 52.1333L18.7478 51.723L19.6351 51.4632C19.6356 51.5275 19.6267 51.5911 19.6092 51.6523V51.6531L19.6072 51.6583V51.6614L19.6069 51.6626C19.573 51.7724 19.5105 51.8755 19.421 51.9698V51.9702L19.4164 51.9754L19.4128 51.9781L19.411 51.9821L19.4048 51.9872L19.4041 51.9884C19.3644 52.0283 19.3207 52.0654 19.2709 52.101L19.2235 52.1333ZM18.6321 51.1397L18.7338 50.7456C18.7373 50.7456 18.7407 50.7456 18.7441 50.7456C18.8515 50.7456 18.9544 50.7602 19.0488 50.7899L18.8373 51.0793L18.6321 51.1397ZM18.8404 51.0785L19.0628 50.7942C19.1625 50.8254 19.253 50.8716 19.3355 50.9336L18.8404 51.0785Z" fill="#1C1C1C"/>
<path d="M25.0806 34.5191L25.0781 34.5183L25.0488 34.5009L24.9459 34.4283L24.8861 34.3852L25.5421 33.6803C25.5838 33.6961 25.6185 33.7139 25.6517 33.7332V33.734L25.654 33.7348L25.6555 33.7364C25.7021 33.7636 25.7396 33.7932 25.7774 33.8209L25.8365 33.8639L25.4584 34.1913L25.0806 34.5191Z" fill="#1C1C1C"/>
<path d="M22.9605 36.4194C22.9212 36.4021 22.8795 36.3815 22.8383 36.3586L22.7985 36.3357L22.7836 36.3282L22.7268 36.2986L22.8973 36.0893L23.2767 35.555L23.0183 35.9325L23.2996 35.5629L23.3207 35.57C23.3654 35.585 23.406 35.6008 23.4418 35.6186L23.4433 35.6202L23.4454 35.6198C23.4819 35.6387 23.5158 35.6581 23.5467 35.675L23.6184 35.7137L23.2898 36.0664L22.9605 36.4194Z" fill="#1C1C1C"/>
<path d="M91.424 33.0432L91.3154 32.9149L91.4046 32.8683L91.4627 32.8386L91.595 32.993L91.424 33.0432Z" fill="#1C1C1C"/>
<path d="M89.8376 29.3584L89.7282 29.1914L90.678 28.913L90.4726 28.2108L91.39 27.7752L90.8249 28.6263L90.9671 28.7277L90.4794 29.0887L90.0967 29.3035L90.0386 29.2644L89.8376 29.3584Z" fill="#1C1C1C"/>
<path d="M15.3703 23.7595L14.8708 23.3144L15.7835 23.0471C15.8052 23.3152 15.6583 23.5727 15.3703 23.7595Z" fill="#1C1C1C"/>
<path d="M19.9597 33.5227L19.1472 33.2451L18.9528 33.1432L18.9798 32.9485C18.9865 32.9063 18.9957 32.8624 19.0061 32.8198L19.0164 32.7767L19.0189 32.7684L19.021 32.7507L19.0215 32.7475V32.7467L19.7231 32.6484L19.8105 32.6365L20.0905 32.5963C20.0905 32.6346 20.0871 32.6744 20.0782 32.7159L20.0708 32.7479L20.0592 32.802L20.0445 32.8695L19.9597 33.5227Z" fill="#1C1C1C"/>
<path d="M74.039 19.493L73.7977 18.7763L73.8293 18.7644C73.868 18.749 73.8719 18.6957 73.868 18.6542L73.8419 18.6297L73.8395 18.6278L74.4588 17.9086C74.6523 17.9789 74.7976 18.1013 74.8924 18.272L74.9121 18.3067L74.9196 18.3466C75.0124 18.7893 74.7419 19.2035 74.2143 19.4279C74.1598 19.4515 74.1018 19.4737 74.039 19.493Z" fill="#1C1C1C"/>
<path d="M32.2107 25.5577L32.0666 25.2761C32.1835 25.1118 32.3075 24.9523 32.439 24.7979C32.4493 24.7979 32.4599 24.7975 32.4702 24.7975C32.642 24.7975 32.798 24.8338 32.9287 24.9049L32.2123 25.5573L32.2115 25.5565L32.2107 25.5577Z" fill="#1C1C1C"/>
<path d="M50.1009 44.4729L49.424 44.3296L49.3182 44.3608L49.1219 44.4386L49.2498 44.386L49.3111 44.3627L49.3059 44.3643L49.4054 44.3248H49.4027L49.4039 44.3244L49.6246 44.2348L50.1281 44.031L49.6258 44.2379L50.1325 44.0377L50.1617 44.1104L50.1648 44.1211L50.1652 44.1218L50.166 44.1242L50.1652 44.1286V44.1289L50.1696 44.1447V44.1455C50.1913 44.2526 50.1684 44.3647 50.1009 44.4729Z" fill="#1C1C1C"/>
<path d="M9.87752 52.3751L9.30814 52.3545C9.33393 52.2716 9.37989 52.1958 9.41769 52.1346L9.45437 52.0706L9.45469 52.0694L9.79885 52.1065L9.87752 52.3751ZM10.4471 52.2131L10.4358 52.1744L10.464 52.1776L10.4648 52.1784C10.4593 52.1899 10.4534 52.2013 10.4471 52.2131Z" fill="#1C1C1C"/>
<path d="M47.1816 12.4674L47.1804 12.4571C47.1697 12.3722 47.1871 12.2889 47.1986 12.2229L47.2088 12.1597L47.2195 11.9382L47.4876 11.7932C47.6807 11.6866 47.8857 11.6321 48.0733 11.6301C48.0753 11.6301 48.0772 11.6301 48.0792 11.6301C48.1455 11.6301 48.2068 11.6365 48.2672 11.6503V11.6511L48.2743 11.6523L48.2846 11.6542L48.2936 11.657L48.2996 11.6578V11.659L48.3146 11.6621H48.3154C48.4413 11.6997 48.546 11.7648 48.621 11.8588L48.5657 11.8884L48.5665 11.8908L48.623 11.8604L48.6419 11.8868L48.5709 11.9212C48.5957 12.1115 48.4157 12.3177 48.1463 12.3967C48.0749 12.4176 48.0042 12.4271 47.937 12.4271C47.8873 12.4271 47.8395 12.4219 47.7953 12.4117L47.8403 12.418C47.8478 12.4188 47.8553 12.4188 47.8632 12.4188C47.9015 12.4188 47.9406 12.414 47.9745 12.4042L48.0034 12.3931L47.9283 12.307L47.8379 12.3244L47.7846 12.4097L47.7696 12.4061L47.7641 12.405H47.7633L47.8209 12.3287L47.6752 12.3568C47.6835 12.367 47.7084 12.3888 47.7581 12.4038C47.7222 12.3931 47.6878 12.3777 47.6578 12.3607L47.6543 12.3619L47.1816 12.4674Z" fill="#1C1C1C"/>
</g>
</svg>
