<svg width="15" height="17" viewBox="0 0 15 17" fill="none" xmlns="http://www.w3.org/2000/svg">
<path d="M12.3141 16.0697C11.7926 16.4614 11.2817 16.7185 10.7776 16.862C10.2667 17.0068 9.76374 17.0338 9.26619 16.9623C8.465 16.8475 7.67891 16.4775 6.8988 15.9349C6.46715 15.6341 6.037 15.2811 5.60796 14.8888C4.57301 13.9441 3.53971 12.7728 2.48855 11.5706C0.0900964 8.82735 -1.48162 3.14813 2.13375 0.769545C3.60203 -0.196023 5.2736 -0.207271 6.9724 0.481373C7.84045 0.832642 8.71544 1.36743 9.57481 2.05075C10.0048 2.39212 10.4301 2.77063 10.849 3.18284C11.1503 3.47874 11.4477 3.79206 11.7414 4.12051C11.9313 4.33417 12.1195 4.55422 12.3055 4.7801C12.5353 5.05916 12.7466 5.34604 12.9406 5.64015C15.357 9.30068 15.0598 14.0061 12.3141 16.0697Z" fill="#FBC088"/>
</svg>
