<svg width="36" height="36" viewBox="0 0 36 36" fill="none" xmlns="http://www.w3.org/2000/svg">
<rect width="36" height="36" rx="18" fill="#BD3430" fill-opacity="0.16"/>
<g clip-path="url(#clip0_1585_16748)">
<path fill-rule="evenodd" clip-rule="evenodd" d="M13.0789 10C11.6503 10 10.4206 11.0537 10.224 12.4766C10.1051 13.3474 10 14.2766 10 15.12C10 15.9634 10.1051 16.8926 10.224 17.7634C10.3217 18.4509 10.6644 19.0799 11.1889 19.5349C11.7134 19.9899 12.3845 20.2403 13.0789 20.24H18.0537C18.1531 20.1257 18.2629 20.0206 18.3806 19.9257V19.8171C18.3804 19.1224 18.5629 18.4398 18.9099 17.8379C19.2568 17.236 19.756 16.736 20.3573 16.3879C20.9585 16.0399 21.6408 15.8561 22.3355 15.855C23.0303 15.8539 23.7131 16.0355 24.3154 16.3817C24.355 15.9623 24.3759 15.5413 24.3783 15.12C24.3783 14.2754 24.2731 13.3463 24.1531 12.4754C24.0552 11.7884 23.7126 11.1598 23.1884 10.705C22.6641 10.2503 21.9934 9.99993 21.2994 10H13.0789ZM13.4709 14.2606C13.8651 14.2606 14.1851 14.5806 14.1851 14.9749V15.2674C14.1851 15.4569 14.1099 15.6385 13.9759 15.7725C13.842 15.9065 13.6603 15.9817 13.4709 15.9817C13.2814 15.9817 13.0997 15.9065 12.9658 15.7725C12.8318 15.6385 12.7566 15.4569 12.7566 15.2674V14.9749C12.7566 14.5794 13.0766 14.2606 13.4709 14.2606ZM17.904 14.9749C17.904 14.7854 17.8287 14.6037 17.6948 14.4698C17.5608 14.3358 17.3792 14.2606 17.1897 14.2606C17.0003 14.2606 16.8186 14.3358 16.6846 14.4698C16.5507 14.6037 16.4754 14.7854 16.4754 14.9749V15.2674C16.4754 15.4569 16.5507 15.6385 16.6846 15.7725C16.8186 15.9065 17.0003 15.9817 17.1897 15.9817C17.3792 15.9817 17.5608 15.9065 17.6948 15.7725C17.8287 15.6385 17.904 15.4569 17.904 15.2674V14.9749ZM21.3726 17.4777C21.7575 17.3181 22.1758 17.2559 22.5905 17.2966C23.0052 17.3374 23.4034 17.4798 23.7499 17.7113C24.0964 17.9428 24.3803 18.2562 24.5767 18.6238C24.773 18.9913 24.8756 19.4016 24.8754 19.8183V20.7429C24.8754 20.7623 24.8754 20.7806 24.8731 20.8C25.3623 20.8823 25.7474 21.2697 25.8286 21.7611L25.8434 21.8549C25.9166 22.2949 26 22.8023 26 23.3257C26 23.8514 25.9166 24.3577 25.8434 24.7977L25.8286 24.8914C25.7866 25.1493 25.6592 25.3855 25.4669 25.5623C25.2746 25.7391 25.0284 25.8461 24.768 25.8663L24.3909 25.8949C23.7451 25.9463 23.0514 26.0011 22.3429 26.0011C21.6343 26.0011 20.9394 25.9463 20.2949 25.8949C20.1692 25.885 20.0435 25.8755 19.9177 25.8663C19.6573 25.8461 19.4111 25.7391 19.2188 25.5623C19.0265 25.3855 18.8991 25.1493 18.8571 24.8914L18.8411 24.7977C18.7691 24.3577 18.6857 23.8503 18.6857 23.3269C18.6857 22.8011 18.7691 22.2949 18.8411 21.8549L18.8571 21.7611C18.9371 21.2697 19.3223 20.8823 19.8114 20.8C19.8099 20.781 19.8092 20.7619 19.8091 20.7429V19.8171C19.8092 19.3163 19.9578 18.8267 20.2361 18.4103C20.5144 17.9939 20.9099 17.6694 21.3726 17.4777ZM23.4469 19.8183V20.6869C23.0793 20.6636 22.7111 20.6514 22.3429 20.6503C21.9691 20.6503 21.5989 20.6651 21.2377 20.688V19.8194C21.2377 19.5265 21.3541 19.2455 21.5612 19.0384C21.7684 18.8312 22.0493 18.7149 22.3423 18.7149C22.6352 18.7149 22.9162 18.8312 23.1233 19.0384C23.3305 19.2455 23.4469 19.5265 23.4469 19.8194V19.8183Z" fill="#CD2127"/>
</g>
<defs>
<clipPath id="clip0_1585_16748">
<rect width="16" height="16" fill="white" transform="translate(10 10)"/>
</clipPath>
</defs>
</svg>
