<svg width="16" height="16" viewBox="0 0 16 16" fill="none" xmlns="http://www.w3.org/2000/svg">
<g clip-path="url(#clip0_1585_17016)">
<path fill-rule="evenodd" clip-rule="evenodd" d="M7.04789 0.724224C7.62118 0.330207 8.37843 0.330207 8.95171 0.724224C12.22 2.9705 13.7485 4.72273 15.5931 7.73683C15.6493 7.82869 15.6784 7.93458 15.677 8.04228L15.6186 12.7008C15.6184 12.7196 15.6172 12.7385 15.6151 12.7573C15.4628 14.1138 14.3837 15.1913 13.0303 15.3487C12.0492 15.4658 10.9977 15.5307 9.90567 15.557V11.1501C9.90567 10.0976 9.0524 9.24428 7.99984 9.24428C6.94727 9.24428 6.094 10.0976 6.094 11.1501V15.5173C5.0604 15.4777 4.02122 15.4191 2.99839 15.3513C2.98903 15.3507 2.97969 15.3498 2.97037 15.3488C1.61646 15.1919 0.536862 14.1141 0.384526 12.7573C0.382416 12.7385 0.38124 12.7196 0.381004 12.7008L0.322555 8.04228C0.321204 7.93458 0.350316 7.82869 0.406535 7.73683C2.25107 4.72273 3.7796 2.9705 7.04789 0.724224Z" fill="white"/>
</g>
<defs>
<clipPath id="clip0_1585_17016">
<rect width="16" height="16" fill="white"/>
</clipPath>
</defs>
</svg>
