<svg width="34" height="34" viewBox="0 0 34 34" fill="none" xmlns="http://www.w3.org/2000/svg">
<path d="M33.4531 18.2374C33.5056 19.4927 33.0581 20.7176 32.2087 21.6433C31.3593 22.569 30.1773 23.12 28.9222 23.1754C28.8488 23.1788 28.7755 23.1805 28.7024 23.1805C28.3689 23.1803 28.0364 23.1442 27.7106 23.0729C26.744 24.5653 25.4765 25.8396 23.9892 26.8142C22.5019 27.7888 20.8276 28.4422 19.0734 28.7327C18.8659 29.3423 18.4519 29.8602 17.9031 30.1969C17.3542 30.5336 16.705 30.668 16.0675 30.5769C15.4301 30.4857 14.8446 30.1747 14.4121 29.6976C13.9797 29.2204 13.7276 28.6073 13.6993 27.964C13.671 27.3207 13.8684 26.6877 14.2573 26.1745C14.6462 25.6613 15.2021 25.3001 15.8291 25.1533C16.4561 25.0066 17.1146 25.0835 17.6909 25.3707C18.2672 25.658 18.725 26.1376 18.9852 26.7266C21.4549 26.2698 23.6861 24.9609 25.2898 23.0279C26.8935 21.0949 27.7681 18.6605 27.7611 16.1488C27.7611 10.2151 22.9337 5.3877 16.9999 5.3877C11.0662 5.3877 6.23882 10.2151 6.23882 16.1488C6.23849 17.9836 6.70741 19.788 7.60101 21.3905C7.63129 21.4434 7.65403 21.5003 7.66854 21.5595C7.75486 21.7994 7.74563 22.0633 7.64277 22.2966C7.53992 22.5299 7.35131 22.7147 7.11598 22.8128C6.53974 23.0553 5.92084 23.1802 5.29565 23.1801C5.22207 23.1801 5.14834 23.1784 5.07445 23.1749C3.81982 23.1189 2.63864 22.5675 1.78989 21.6419C0.941146 20.7162 0.49411 19.4917 0.546804 18.237C0.567988 17.7366 0.556168 17.2902 0.544613 16.8584C0.533855 16.452 0.522633 16.0316 0.541094 15.593C0.596189 14.3678 1.12321 13.2115 2.01176 12.3662C2.90032 11.5209 4.08148 11.0523 5.30787 11.0583C7.27721 6.55253 11.7764 3.39551 16.9999 3.39551C22.2235 3.39551 26.7228 6.55253 28.6921 11.0584C29.9186 11.0514 31.1002 11.5197 31.9889 12.365C32.8776 13.2103 33.4044 14.367 33.4587 15.5923C33.4773 16.0316 33.4661 16.4518 33.4552 16.8583C33.4438 17.2901 33.4319 17.7367 33.4531 18.2374ZM25.3542 16.1488C25.3537 17.4287 25.0593 18.6914 24.4936 19.8395C23.9279 20.9875 23.1061 21.9904 22.0916 22.7706C21.077 23.5508 19.8968 24.0876 18.642 24.3396C17.3871 24.5916 16.0912 24.552 14.8541 24.2238L11.4726 26.1766C11.302 26.2752 11.106 26.3209 10.9094 26.308C10.7128 26.2951 10.5244 26.2243 10.3681 26.1043C10.2118 25.9844 10.0946 25.8208 10.0312 25.6342C9.96792 25.4476 9.96134 25.2465 10.0124 25.0562L10.8766 21.8323C9.44538 20.2853 8.64906 18.2563 8.64604 16.1488C8.64604 11.541 12.3934 7.79266 16.9999 7.79266C21.6065 7.79266 25.3542 11.541 25.3542 16.1488ZM14.6774 16.1488C14.6774 15.8846 14.5724 15.6313 14.3856 15.4445C14.1988 15.2577 13.9455 15.1527 13.6813 15.1527H13.6796C13.4827 15.1531 13.2903 15.2118 13.1267 15.3215C12.9632 15.4312 12.8358 15.5869 12.7607 15.7689C12.6856 15.951 12.6661 16.1512 12.7048 16.3443C12.7434 16.5374 12.8384 16.7147 12.9778 16.8538C13.1172 16.9929 13.2947 17.0876 13.4879 17.1259C13.681 17.1642 13.8812 17.1444 14.0631 17.0689C14.245 16.9935 14.4005 16.8658 14.5098 16.702C14.6192 16.5383 14.6776 16.3458 14.6776 16.1488H14.6774ZM17.9962 16.1488C17.9962 16.1162 17.9944 16.0836 17.9909 16.0512C17.9878 16.0187 17.9829 15.9863 17.9764 15.9543C17.9704 15.9223 17.9624 15.8908 17.9524 15.86C17.9432 15.8288 17.9319 15.7982 17.9199 15.7677C17.908 15.7371 17.8934 15.7086 17.8781 15.68C17.8629 15.6513 17.8463 15.6234 17.8283 15.5963C17.8101 15.569 17.7906 15.5426 17.7698 15.5173C17.7493 15.4919 17.7274 15.4678 17.7041 15.4449C17.6815 15.4217 17.657 15.3998 17.6317 15.3785C17.6064 15.3586 17.5799 15.3387 17.5526 15.3207C17.5256 15.3027 17.4977 15.2861 17.469 15.2709C17.4404 15.2557 17.4106 15.2417 17.3807 15.2291C17.3508 15.2166 17.3202 15.2057 17.2891 15.1966C17.227 15.1766 17.1628 15.1637 17.0978 15.158C17.0003 15.1487 16.9019 15.1533 16.8056 15.172C16.7736 15.1785 16.7419 15.1867 16.7108 15.1966C16.6796 15.2057 16.649 15.2166 16.6191 15.2291C16.5892 15.2417 16.5593 15.2557 16.5308 15.2709C16.5022 15.2862 16.4743 15.3028 16.4471 15.3207C16.4198 15.3387 16.3933 15.3586 16.3688 15.3785C16.3429 15.3998 16.319 15.4217 16.2957 15.4449C16.2724 15.4678 16.2504 15.4919 16.2299 15.5173C16.2093 15.5427 16.1901 15.569 16.1722 15.5963C16.1539 15.6233 16.1371 15.6513 16.1217 15.68C16.1064 15.7085 16.0926 15.7377 16.0805 15.7677C16.0679 15.7978 16.0568 15.8287 16.0473 15.86C16.0381 15.8905 16.0301 15.9224 16.0234 15.9543C16.0169 15.9863 16.012 16.0187 16.0088 16.0512C16.0055 16.0838 16.0041 16.1163 16.0041 16.1488C16.0041 16.1814 16.0055 16.2146 16.0088 16.2471C16.012 16.2794 16.0169 16.3116 16.0234 16.3434C16.0301 16.3753 16.0381 16.4072 16.0473 16.4384C16.0568 16.4694 16.0679 16.5 16.0805 16.53C16.0926 16.5602 16.1064 16.5896 16.1217 16.6183C16.1369 16.6469 16.1543 16.6748 16.1722 16.702C16.1901 16.7291 16.2093 16.7552 16.2299 16.7804C16.2506 16.8058 16.2726 16.8302 16.2957 16.8534C16.319 16.876 16.3429 16.8986 16.3688 16.9191C16.3937 16.9399 16.4199 16.9592 16.4471 16.9769C16.4743 16.9948 16.5022 17.0121 16.5308 17.0274C16.5885 17.0574 16.6487 17.0823 16.7108 17.1018C16.7419 17.1111 16.7738 17.119 16.8056 17.1257C16.8697 17.1388 16.9349 17.1452 17.0002 17.1449C17.2641 17.1442 17.517 17.0395 17.7041 16.8534C17.75 16.8068 17.7916 16.7561 17.8283 16.702C17.8462 16.6748 17.8628 16.6469 17.8781 16.6183C17.8934 16.5898 17.9073 16.5599 17.9199 16.53C17.9326 16.5001 17.9432 16.4689 17.9524 16.4384C17.9623 16.4072 17.9704 16.3755 17.9764 16.3434C17.9829 16.3116 17.9877 16.2794 17.9909 16.2471C17.9943 16.2144 17.996 16.1816 17.996 16.1487L17.9962 16.1488ZM21.3166 16.1488C21.3166 15.8846 21.2116 15.6313 21.0248 15.4445C20.838 15.2577 20.5846 15.1527 20.3205 15.1527H20.3185C20.1216 15.1531 19.9292 15.2119 19.7657 15.3215C19.6021 15.4312 19.4747 15.5869 19.3996 15.769C19.3245 15.951 19.3051 16.1512 19.3437 16.3443C19.3824 16.5374 19.4774 16.7147 19.6168 16.8539C19.7562 16.993 19.9337 17.0876 20.1268 17.1259C20.32 17.1642 20.5202 17.1444 20.7021 17.0689C20.884 16.9935 21.0394 16.8658 21.1488 16.702C21.2582 16.5383 21.3166 16.3458 21.3166 16.1488Z" fill="#2679C6"/>
</svg>
