<svg width="20" height="18" viewBox="0 0 20 18" fill="none" xmlns="http://www.w3.org/2000/svg">
<path d="M17 16H3V17C3 17.5523 2.55228 18 2 18H1C0.44772 18 0 17.5523 0 17V7L2.4805 1.21216C2.79566 0.47679 3.51874 0 4.31879 0H15.6812C16.4813 0 17.2043 0.47679 17.5195 1.21216L20 7V17C20 17.5523 19.5523 18 19 18H18C17.4477 18 17 17.5523 17 17V16ZM18 9H2V14H18V9ZM2.17594 7H17.8241L15.6812 2H4.31879L2.17594 7ZM4.5 13C3.67157 13 3 12.3284 3 11.5C3 10.6716 3.67157 10 4.5 10C5.32843 10 6 10.6716 6 11.5C6 12.3284 5.32843 13 4.5 13ZM15.5 13C14.6716 13 14 12.3284 14 11.5C14 10.6716 14.6716 10 15.5 10C16.3284 10 17 10.6716 17 11.5C17 12.3284 16.3284 13 15.5 13Z" fill="black"/>
</svg>
