<svg width="82" height="103" viewBox="0 0 82 103" fill="none" xmlns="http://www.w3.org/2000/svg">
<g opacity="0.15" filter="url(#filter0_f_822_18648)">
<ellipse cx="41.3209" cy="92.053" rx="25.687" ry="5.1374" fill="black"/>
</g>
<path fill-rule="evenodd" clip-rule="evenodd" d="M0.864012 40.5988C0.864012 18.6565 18.836 0.864257 41 0.864257C63.1639 0.864257 81.1359 18.6565 81.1359 40.5988C81.1359 59.0092 68.4708 74.4616 51.3015 78.9648L41 89.1634L30.6984 78.9648C13.5291 74.4616 0.864012 59.0092 0.864012 40.5988ZM41.2588 58.3493C50.6974 58.3493 58.349 50.6978 58.349 41.2592C58.349 31.8205 50.6974 24.169 41.2588 24.169C31.8202 24.169 24.1687 31.8205 24.1687 41.2592C24.1687 50.6978 31.8202 58.3493 41.2588 58.3493Z" fill="#CD2127"/>
<path d="M51.3015 78.9648L51.0823 78.129C50.9355 78.1675 50.8015 78.244 50.6936 78.3508L51.3015 78.9648ZM41 89.1634L40.3921 89.7774C40.7288 90.1107 41.2712 90.1107 41.6079 89.7774L41 89.1634ZM30.6984 78.9648L31.3063 78.3508C31.1985 78.244 31.0644 78.1675 30.9176 78.129L30.6984 78.9648ZM41 0.000217758C18.367 0.000217758 -2.72123e-05 18.1712 -2.72123e-05 40.5988H1.72805C1.72805 19.1419 19.305 1.7283 41 1.7283V0.000217758ZM82 40.5988C82 18.1712 63.6329 0.000217758 41 0.000217758V1.7283C62.695 1.7283 80.2719 19.1419 80.2719 40.5988H82ZM51.5207 79.8006C69.054 75.2019 82 59.4183 82 40.5988H80.2719C80.2719 58.6002 67.8877 73.7212 51.0823 78.129L51.5207 79.8006ZM41.6079 89.7774L51.9094 79.5788L50.6936 78.3508L40.3921 88.5493L41.6079 89.7774ZM30.0905 79.5788L40.3921 89.7774L41.6079 88.5493L31.3063 78.3508L30.0905 79.5788ZM-2.72123e-05 40.5988C-2.72123e-05 59.4183 12.946 75.2019 30.4792 79.8006L30.9176 78.129C14.1123 73.7212 1.72805 58.6002 1.72805 40.5988H-2.72123e-05ZM57.4849 41.2592C57.4849 50.2206 50.2202 57.4853 41.2588 57.4853V59.2133C51.1746 59.2133 59.213 51.175 59.213 41.2592H57.4849ZM41.2588 25.033C50.2202 25.033 57.4849 32.2977 57.4849 41.2592H59.213C59.213 31.3433 51.1746 23.305 41.2588 23.305V25.033ZM25.0327 41.2592C25.0327 32.2977 32.2974 25.033 41.2588 25.033V23.305C31.343 23.305 23.3046 31.3433 23.3046 41.2592H25.0327ZM41.2588 57.4853C32.2974 57.4853 25.0327 50.2206 25.0327 41.2592H23.3046C23.3046 51.175 31.343 59.2133 41.2588 59.2133V57.4853Z" fill="#CD2127"/>
<defs>
<filter id="filter0_f_822_18648" x="10.4497" y="81.7314" width="61.7425" height="20.6435" filterUnits="userSpaceOnUse" color-interpolation-filters="sRGB">
<feFlood flood-opacity="0" result="BackgroundImageFix"/>
<feBlend mode="normal" in="SourceGraphic" in2="BackgroundImageFix" result="shape"/>
<feGaussianBlur stdDeviation="2.58333" result="effect1_foregroundBlur_822_18648"/>
</filter>
</defs>
</svg>
