<svg width="8" height="9" viewBox="0 0 8 9" fill="none" xmlns="http://www.w3.org/2000/svg">
<path d="M4.06314 8.99948C3.34903 9.01072 2.80239 8.43655 1.88868 7.58081C1.18663 6.92334 0.680336 6.07798 0.356569 5.41977C0.340403 5.38642 0.324237 5.35308 0.308641 5.31915C-0.0729455 4.484 -0.0955148 3.5285 0.211216 2.66282C0.437514 2.02376 0.811382 1.15412 1.31982 0.589979C1.69732 0.17157 2.19412 0.00907127 2.72869 0.000656567C3.45091 -0.0107119 4.24186 0.259538 4.89717 0.56089C6.03681 1.08518 7.39117 3.43671 7.39532 4.65725C7.40005 5.87778 6.71606 7.61836 5.25068 8.55557C4.77923 8.8567 4.40253 8.99414 4.06314 8.99948Z" fill="#FCD9B9"/>
</svg>
