<svg width="82" height="46" viewBox="0 0 82 46" fill="none" xmlns="http://www.w3.org/2000/svg">
<path d="M11.5011 46C8.24972 46 6.00444 45.8857 4.5115 45.01C2.51595 43.8377 1.42972 38.5207 1.38509 38.2944L1.24583 36.1526C0.388103 31.9935 -0.0682889 22.3788 0.00830477 15.8512C0.0798344 9.7867 1.24076 7.18378 1.25501 7.15941L2.4248 4.68056C2.76377 3.92348 5.60312 1.03698 5.71896 0.912907L5.69933 0.905948C5.67275 0.933481 2.8831 4.00008 2.54792 4.73848L1.37812 7.2167C1.36736 7.2398 0.213392 9.8231 0.143761 15.8585C0.070649 22.3715 0.525465 31.9758 1.37971 36.1327L1.52055 38.2748C1.53131 38.3223 2.63717 43.7528 4.58303 44.8951C6.28613 45.893 9.03813 45.8788 13.1973 45.8547C13.8749 45.8519 14.5883 45.8484 15.346 45.8484C20.4699 45.8484 71.11 45.7091 71.957 45.6424C72.7362 45.5753 73.969 44.7739 74.4504 44.0228C74.4716 43.9855 74.5092 43.932 74.5608 43.8579C76.8118 40.5514 81.9945 31.0003 81.5236 13.7939C81.5201 13.7202 81.2061 6.3748 77.5429 0.0710146L77.6604 -0.000195538C81.3435 6.33746 81.6575 13.7136 81.6609 13.7914C82.1338 31.0402 76.933 40.6185 74.6697 43.932C74.6216 44.006 74.5877 44.0595 74.5627 44.0934C74.0598 44.8878 72.7935 45.7091 71.9642 45.7781C71.1204 45.8484 20.4699 45.9864 15.346 45.9864C14.5883 45.9864 13.8749 45.9864 13.1973 45.9937C12.6067 45.9962 12.0414 46 11.5011 46Z" fill="#19161D"/>
</svg>
